<mxfile host="app.diagrams.net" agent="Mozilla/5.0 (X11; Linux x86_64) AppleWebKit/537.36 (KHTML, like Gecko) Chrome/131.0.0.0 Safari/537.36" version="25.0.3">
  <diagram name="Library" id="JgvUYXC0AntkxyaoiZhc">
    <mxGraphModel dx="804" dy="447" grid="1" gridSize="10" guides="1" tooltips="1" connect="1" arrows="1" fold="1" page="1" pageScale="1" pageWidth="850" pageHeight="1100" math="0" shadow="0">
      <root>
        <mxCell id="0" />
        <mxCell id="1" parent="0" />
        <mxCell id="O1HXZXeSlepEHYtIHovu-2" value="Start" style="shape=image;verticalLabelPosition=bottom;labelBackgroundColor=default;verticalAlign=top;aspect=fixed;imageAspect=0;image=data:image/png,iVBORw0KGgoAAAANSUhEUgAAAgAAAAIACAYAAAD0eNT6AAAAAXNSR0IArs4c6QAAIABJREFUeAHsXQl8VNX1PjPJZF8hCQGSQNgCJGxZyIoKilhR3FBEBERFcANRlFUWwdqqtVr3XdRqxQVQLIqiYK2t1VZbW9fWpVq3qrX239rWtuefM2ZwCJPJzLx739z33je/X34zmeW+e8/9zvm+e9975xDhAQvAAqZbIJWIehPRSCKaSERHE9EpRHQeEX2biK4horuIaAsRPUZEzxDR80T0BhG9RUSfdfr7NxFxp79/dfqO/OZNInq9oy1pU9qWY8ix5JhybOmD9EX6dEBHH6WvKaYbFf2DBWABWAAWgAWSaYEeHaR5CBGd1kGqtxPRDiJ6iYg+IqL/dSLrzuRt4v/SZ+m7jOFxIpIxXdj+3qntgkLGKmJGxo4HLAALwAKwACzgSgv4iKiciMYT0Vwi+i4R3U9ELxLR/zmQ2FWLjb912OI+IvoOEZ1MRPsRUZkr0YBBwQKwACwAC7jSAn06tsEXtm/ZX9/++mki+gIkv9fphlhFxD/bTy38jog2tqNlTcdphmoi8rsSPRgULAALwAKwgPEWkHPyQkSziOiKjnPjn4LoEyb6WAVB6HsiqkRcicgSsdXWvnuQYTxq0EFYABaABWABR1lAtvCHENFMIrqKiJ4jIlmZhsgIz2bYQubkFx1zdDwRDXYUytBZWAAWgAVggaRbIIuIJrQT/Goi+jERYWVvBsEnIrQ+IaKHiej8jusKMpOOLnQAFoAFYAFYwBgLZHect5dzzHKbG1b3ziX87kTCVx23NMrFhocSUYExKERHYAFYABaABbRbQM7fyznjtR33ywspdEcc+NydNpK5l2sJZLenhYgEG3jAArAALAALuMgCA4nodCLaTER/BeFD8HSBgc+JaFNHPoZKF+EfQ4EFYAFYwDMWkCx0de2jlW19yYiHFTxskAgG/tBxl4dkOAx4xnswUFgAFoAFHGYBOZc/lYjuJCK5+CuRgI/fwG5dYeDPHdkMjyIiuVAUD1gAFoAFYIEkWkACsVzMJWlmJaNcV8Eb78M2KjHwZfsO00MdeSDyk4h/HBoWgAVgAU9ZILcj8G7FFfsQPAaIPrlrRMSA5B7I8ZQnYrCwACwAC9hggTSs9EH2BpB9d7sIoZ0BqYwomMUDFoAFYAFYIAELSAY+uV3vho4ytd0FX3yObX6TMCAJpK5rzy3RmgD28RNYABaABTxpAaklL/ndf+OAFZ9JhIO+mCuAXmv3ZLkjpZ8nPRqDhgVgAVggigVku1Su4Je0rf8B8WO736UYEGzLtStyJwFuK4wSEPARLAALuN8CUj53CRG969KAj1W5uavyZM/Nh+0VDCUlcX/3uzlGCAvAArDA1xaQWu6SWEVqvCMNLwgy2USc7OP/t6MGhVw4KAms8IAFYAFYwHUWyGtPw7uovayuZFdLdtB13PF9qSmcVpTH2YN7c2HTEC45YBT3PqKRy2fux5WnHsSDzz2ch62dzjXfO4FHXHESj7nxNK7dsIAbfnQON25exs0Pr9z917p9DY976sI9/uS98O/Ib+S30oa0NeLyk4JtyzHkWHJMObb0ofiAkVzYOISzB/UO9tGX4necfQ3B5O/bk1idQUSS1AoPWAAWgAUcbwHJw38FEX1hSJA1jpz8GQHO6l8SJNHSQ+q534n785DlR/GI75/Idbcv5KYHl+9B1p3J28T/pc91GxbyiMtO5CHLjuJ+c/bn0sn1XDh2cHCsMmbgoUshLHcQrG+/i6DU8d6PAcACsIAnLbAvEW1pr8UuW5yeD/b+QGpwhVw8fkRw5TxkyZE88sq53PjAEseRuyrB0Xj/Eh75g5NZbFF+/L5cNL6GsweWsi+Q4nm8dPiMJBm6qf102XBPRhAMGhaABRxlATm/fzgR/cyrpO/z+4MrXNkW7z93Ig9bfxzX/3ARtz25zrNEH69gEFvV37koaLv+J0/k4v1Hcla/YhbbehRX/+u4Q2a8o6IBOgsLwAKesIDcxncCEb3spQAt57pzhvTh0kMbeNDZU3j0tfM50vn1eAkQ39/z+oSQPVq2r+ZR187jQYumsJwqyRnchz14vcEviWh6+ymCVE9EFgwSFoAFjLWAEP9pXrmNLyU7PXgOW87Ry0VxLY+uxqq+08WEIbK261nmQK6VkDkpbBjMMkceEaHvENF8pBw2NjaiY7CAay0gSUxmtRdAkauWXRtw03rmBs9LD1gwmUdddQq3PXEBCD/JhN+dsGjbuS548WHV8qlcOqUheDrGzRglIhECp2BHwLWxFgODBYyxgNynPNOtxJ/eqyBIGkPXHstygVp3ZIPPI2/Vm2aXsfefx0PXHBs8VZNenO9Wwfo6Ec0gIrkOBw9YABaABZRZQArzHNp+gd+LblpNyfnjvBH9uHLepOC97uN2rQfpG77CVyEuJL+B7OoU1A9kuTvDTZjuuA5HdueQVEhZ+ENDsIB3LSBZ++TCI1cEyrQeuVwyaUwwaU7ztvNB+B4g/GiiQS7alFwFfaY2c3ppgSsw3uGrvyUiyS4o4h0PWAAWgAXissDBRPS844nf7+P80ZU84PSDue6Os0D4Hif8aGJAPpPkRZWnHcT5I/sz+X1uEAS/IKKD4vJ8fBkWgAU8a4FaInrS6cQvmfVka9/LiXa6Izt8Hv0aBrkORE4VyGki8jleDOwgopGejWoYOCwAC0S1QF8iut7J5XiF9CvmTOCGu8/BSh8rfaUYGHvfeW4QA5KV83YiKokaCfAhLAALeMYCuR15x//uxFW/JOKpnD+JG+5ZrDTgY3UcfXXsZfvIRYT95x0YLMzkRJ8hIqk1cCZuHfRMjMdAYYG9LCAXBx3ffg/x+04LYnIrV8UJE7j+rrNB+ljpJxUDkua5YtZ4TivOc+L1Ar8jogP3igx4AxaABVxtgVFE9JSjiN/vC962JeVokVcfq3PjdiB2rg/eTSAFjRyYnvgxIqp2dcTD4GABWIAKOkrzfuUU8peVVdmMfXjsxnOTutIzjnCw8jcWD42blgYvQM3o08NJuwL/7ogN+YiTsAAs4C4LyHa/JAf52AnE70tN4aJ9q7nm0hN43E4k54H4cOiOx871XHPJbC7ap5oF007wvfb6Ah8S0TR3hT+MBhbwrgWGEJHcAmR8AJJUvMFb9zYvM3Z1BzJ2KBknecekcfPS4IWD6SWOSUX8IBGVeTdsYuSwgLMtIAV7lrT/fWk6+WcP7s1SvAXFdkCurhdYO9dz9UUzOXd4ufGCnIj+ryOGoL6As7kAvfeYBVrbt/FeMZr4fT7u0VQVLKvr+qCf5NUn7GumsJIyxoVNQ5yQZOhpIhrmsRiK4cICjrNAJhF9x+RkPr5ASjAXv6RcBTGZSUyYF3vnRW5nlVoE/vSAybsCcpGgxJZ0x0VFdBgW8IAFZNX/mqmr/tTsjGCQQ5lde8kFZO4cezdtWR7MZBnIyzJZCLxERE0eiKcYIizgCAvkENHVRPQ/E8k/UJjDA86czC3bV2PFj1MBwEAMGBBfkeJVgcJsU4XAf4jociLKdkSERCdhAZdaoN7UVb+sYiQvf8u2VQj6MQR9rNSds1K3a66CQmDBZBYRbaK4b7+1+E0ianZpbMWwYAFjLSD39S8kon+ZFhhSstKDiXuat50P4gfxAwMKMNDy6Org7bGpORkmCgFJKraGiFKMjZboGCzgIguUE9FO44g/I+1r4n94JYK+gqBv1yoTx3HOzkPz1pXBXbWU7HQThcAzRFTpojiLocACxllgakclL2MCgD+QyqVTGlgSnYBMnEMmmCvnzlXTQyuCYtufYdxdA58T0QzjoiY6BAs43AJ5HXW8jSF+KXjS+4hGlrznIBPnkgnmzrlz1/jAEu59eKOJxYduISK5OBkPWAAWsGiBse2q+g2TtvwLagdw7W0LQPzY6gcGDMBA3Z1nBZNqmRQjiOgtIpJbk/GABWCBBCyQ2v4bubjGmMp9mWU9g2lMsWp07qoRc+feuRv+7eM5s29PY3YJO2LXSlwgmED0x088bYGidvUsNbqNcOaUzLTgxUetO9ZixWfAig8k7l4Stzq3Uk9jwILJLIm3TIkfHRct9/J0RMfgYYEYLVDbsX2WfAf2+4JpextRnQ/CB8LHURho2roimHnT5/cnP458vZB5l4gaY4yB+Bos4EkLzCKif5ig3PNHV3LtzWc4KuhZXT3h91hZuw0DY24+nfNH9TdFBPyTiOZ6MrJj0LBAFAtktNfevskE4pf0o0NXTQPxY8ULDLgFA7vWc9XKozlQYExq4etQVCgKG+AjT1mgjIh+bgL5F42vYbnH2G2rIIwHK3tg4EJufnhlMGeHCbGGiH5JRP09FekxWFigkwX2JaIPk+2QGaWFXHPpCSB+t6z4MA5gOQoGai6ZzemlBSacFvgzER3QKSbiX1jA9RYI5fKXGtvJc0S/L7gikFzjWCFhlQwMeAcDrdvXBLMJGnCRoFQWXEJEEhPxgAVcb4EsIro3qcRPxNkDS3n09aeC+KOslECI3iFEr8716Gvnc3Zlr+QtQr5ZAP2IiDJdH/0xQE9bQO7vfzqZ5O9LTQkq/7YdF4D8Qf7AADDAkjugct4klroeyYxNRPQsESFfgKcp0r2DH5bs+/tzh5axpA316moH48aKHhjoGgN1d5zFOVV9ky0C/kBEVe6lAYzMixaQnNhywUtynMvnCyYFwaq/6+AHYoBtgIELue3JdcGsn0m+NuCz9uyB+3mRKDBm91lgWvtFLl8mi/zTS/J55A9OxqofW73AADAQMwZGXTuPM3oXJmfB8vVC6V9EdLz76AAj8ooF5KpWKebzv2SRf9F+Ndy8dWXMTo8VEFbBwAAwEMJA87bzuWTiqGSKAImdEkPxgAUcZYE0ItqQLOJPyUrnwYsPB/FjxQcMAAOWMTBs7XROzUlqcaFbiSjgKAZAZz1rgQIieiJZ5J87rIzr7z7bstOHVgF4xooQGAAGGjYu5rwR/ZK5G/A4EUlsxQMWMNYCFUT0u2SQvy/FH7x4Ry7iQcBGwAYGgAHVGAheIDhrPCfxAsGX2mumSOp0PGAB4ywgea3lFhbbVXIgP4tHXHYiiB/bvcAAMKAdA3JRcaAwx/Y41xFb3yaiQcZFf3TI0xYYSkTvJYP8c4b0YdmeU6320R5WkMAAMNAVBsbefx7nDi9Plgj4gIhqPM04GLwxFhhDRB8ng/xLJo3h1sfWgPyx6gMGgAHbMdC6Yy2XHtqQLBHwERGNNoYF0BFPWqCBiD61m/wlZefgc3GVf1erE7yPlSswYB8GqpZPZX96IBlC4C9E1OxJ5sGgk26BfYjoC7vJP704n0dfN992tY+Aal9Aha1ha6dhYMxNp7OUFbc7HhLR/6GkcNK50HMd+BYR/cNusOePruTGzctA/tjuBQaAAeMw0PTQCi6oH5gMEfBPIpriORbCgJNigaOISNJU2gd0n+/rCn47cYuf01ZG6C9W817CgNwqWHZsG5PPZ198/CZ18JFJYQQc1DMWmE5EX9lJ/r5ACletPNo4te+loIaxgsSBgfgwINcFSOyyM1YS0X+I6ATPsBEGaqsFZhLRf+0EdGpuJgr5YKsX4g8YcCQGRlx+UjJSCEuMRhEhW6nR/Qc73O6Vv1TikvrcWHnEt/KAvWAvYMAcDNTdvjAZFwfKTsAx7qcljNAOC0wkIrnIxLbtLMnnj4v9zAliIBTMBTCQOAYaNy/l3KFltsXPjlgt12lNtoMgcAz3WqC14zYT28Dbc5/h3LodyX0QcBMPuLAdbGcaBiSm9WwbZlsc7RABcqfWfu6lJ4xMpwUa7b7Pv8/UZh63cz22/XHOFxgABlyHgbad64J3M9m5m9qxgGvTSRRo230WGGVnhj+prjXwrENd5/CmrULQH6yMgYHkY2Dw4sNZqpfaKAQ+J6Ja99EURqTDAsPtzO3vT0vl4RcdD/LHig8YAAY8g4Hh62ewpDS3UQRI7QAp2oYHLNClBQYS0Z/sAqU/I8A1l83xjNNj9ZX81RfmAHNgCgZGXnEyp2Sm2SkCpGLrgC6jPz7wtAXK25NISK1pWwCZmp3Bo64+BeSPVR8wAAx4FgMjr5rLKdnptsTcjtj+JhGVeZrpMPi9LJBHRL+xjfxzM1HQB0Hfs0HflBUo+mHGbsiYG0/jQH6WnSLgd0RUsBcL4A1PWiBARI/ZRf6BwhyuvfVMBH8IAGAAGAAGOjAgCYPSivLsFAFPElGaJxkPg95tAR8R3WYX+af3KuD6u86G0yPwAwPAADDQCQP1P1zE6SX5doqAm3czAV540gJr7CJ/qZXd8KNz4PSdnB7bsGZsw2IeMA8mYGDsxnM5s29PO0XACk8yHwZNxxLR/+wQAFkVxdx4/xKQP8gfGAAGgIFuMCCpg7MH9LJLBAgHSKE3PDxkgfFEJLmitYMsq38JNz24HE7fjdObsPpAH7AKBgbMwEDTluWc1a9Ye3zu4ACp9bKPh/jP00MdRkSf2UH+GX17cOMDWPkjqJoRVDEPmAcnYUAKomVWFNklAj4loipPM6MHBl9ERG/YQf7pxfnccM9irPyx8gcGgAFgIEEMjL3vPE4vLbBLBEiOgF4e4EFPDjGTiH5mB/kHCrO57s6z4PQJOr2TVinoK1bVwIBeDMidU2k9c+0SAb8goixPMqSLBy23+91rC/nnZXHthgUgf5A/MAAMAAOKMFB72wJOzcu0SwTc7WIu9OTQlthB/pLScswNp8HpFTk9VlZ6V1awL+zrJAzU3nwGp+Zk2CUCzvYkU7pw0BOI6CvdAkAK+4y8ci7IH+QPDAADwIAmDIy6Zp5dBYSEM/ZzIR96akhS4Odj3eTvC6RwzSWz4fSanN5JqxT0FatqYEAvBkZcdiJLGXXdcZ2IpIQwCgc5VDJkEJFc0KEVKD6/n4dfdDzIH+QPDAADwIBNGBi+fgaT36c1tndwh1w4jpoBDhQBN+omf2l/4MJD4PQ2OT1WVnpXVrAv7OskDAw4c7IdAkCOca0D+c/TXT7FDvIvm9YG8gf5AwPAADCQJAz0mdpslwg4ydOM6qDBjyUiSe2oFRg9WoZy2851cPwkOb6TViroK1bWwIAmDOxczz33Ga411ndwyZdEVO8gHvRkV3sS0Vu6yT9naF9u2b4a5A/yBwaAAWAgyRhofWwN51aX2yEC3iEiySaLh4EWSCWiHbrJP6NPD5ZCFVD0mhR9koMJ5hXzCgw4DwNSQVBKruuO/0T0KBGlGMh/nu/SGt2Tn5qdgSx/IGiIP2AAGDAQA3V3nMWpubZkC1zuebY1zAANRPRvnQLAl5rCI75/IhzfQMfHis15KzbMGeZMBwZG/uBk9ge05wiQJEFNhnGgZ7uTR0R/0En+5PNx1cqjQf4gf2AAGAAGDMdA1fKpLDFbKyd8XVU2x7Osa9DAb9c80Vw+Y184veFOr2M1gTaxSgUGnImBsmPbdAsAaf8mg3jQk12Zqpv8C+oG4nY/kD8EIDAADDgIA3KLdmHDYDtEwDRPMq8Bg5YczZ/qFADpvQq46UFc8Y9VkDNXQZg3zJuXMdC0dYUddwb8hYgqDOBDT3XBT0RP6CR/KTYx+oZTofodpPq9HOwwdpA9MLA3BkZff6odFwXuwq2B9uqPFTrJX9oevOQIkD/IHxgABoABh2Ng8OLD7TgVcJ69FOjdo9UR0b90CoDeU8bC6R3u9FgN7b0agk1gE69ioHRyvW4RILehSxp6PDRaQG67eF0n+ecOL+fWHWshACAAgAFgABhwCQZaH1/LOVV9dYuAV4koWyP/eb7pq3WSf6Awm8fefx6c3i1Ov30NN96/hJu3ruRxu9ZjXl0yr15dxWLc1nZwxm48lwP5WbpFwPc9z9KaDLAvEf1PlwDwpfh5xBUngSQcShJjbj6dK+dN4uLxIzijbw/2BVL2cvRAXhbnj+rPfY9u4aFrjuWWR1Zhvh063yBDa2ToVfvVXDaHfX7/XrFBIa/8h4gaNXGgZ5vNIqLfK5ykvQDQb87+IAOHkYEUAKmYPZ4zy4v2ms9YsOJPD3DRvtVcc/FszL3D5t6rBIZxWxc+5bP2SyhexBJTOr7zGyIKeJatNQz88jiMH/fk5tVUcNuT60ACDiEBIX5ZxQuBq8KFlHiuvmgmMOAQDIAIrROhV23Y9sQFnDusTFns6CIGrdTAg55sspmIZFtFy4SlZKZx/V1nI/A7JPAPWztda8UvuQh09LXzgQeH4MGrJIZxWxNADXefwylZ6Vo4pYOr/klEwz3J2AoHnU5Er+gif2m3asVUBHsHBPumLcvtSu3J5Pdx6aENLMdEoLUWaGE/2M9UDAxZeqROASBt/4SIJGkdHglaYLVO8i/arwYB3gHkL2o90fP8VvAju0MVcybgtlAHYMRUkkG/zBZAxRNG6BYBpybIfZ7/2RAi+tJKAI/2W8nz3/zj8yEADA/uY246neXq/WhzqfszER/V350FrBiOFZCt2WRr4vzILcLpxfk648tf26sGSt0aPOK0wOPaArvfh1v+HBDMGzYu5rQeuTqdM662pTJk7YYFEAIOwI6JZIM+mSlQRl45V/etgVvj5D7Pf32WNvIn4vKZ+yGIGx7EZXcmq6I4LoLWiZlQ277UFO47tYWbH14JDBmOIRCumYRr4ryUzdhHd6w5xvOsHqMBCono41DAVf2cO7SM5TYQE0GIPn0TsHp9q1a3Q1pqXzKKDTrnMJa645i3b+YNtoAtnIiBth0X6E4V/CER5cfIgZ7+2lWqST/UnpT4rbvzLARsw1ducr49NGemP2cPLMXpJMPx5ERCQp/tF1J1ty/UXTpY8tngEcUCo3Te89//5Ikgf8ODtezOZPQudIwACAkUySjYcM9i4MtwfIFY7SdWJ9m834n764w9XxFRTRT+8/RHPiLaGQqoqp+zB/TC1r8DgvOQJdrvzdXm4FJ/oM/UZm7ZhhoDTgr66CtEQQgDciogq7JEW4wgoqeISLgOj04WOF416Yfak+IPo284Fasz0wXAzvWc2benTuezpe20ojyuWj4VFQhNxxv6h5gYAQOSCVSSgYX4Q8MzLgjsRP65RPS+BkMHJ7HvtFYAPQLQQ6rXlGe5HUcXBpLRbjCt8HVIK2wKvtAPrPRjxYDs5GmMGX8kIilwh0eHBS7UZez00gJueXQ1BIADBEDvIxp1Ol1y2vb5uGh8DUst8liDD74HogIGkouBlu2rdV+LtArs/7UFyono71oEgM/HUv8ZzpRcZ4rV/mnFeckhaU2FpsIxnZKRxv3nTuTWx9cCjw4Qo7FiFt9zRmxJZJ6kTHi4Dyt+/Tci6g0RQHSHYsPunjS5lzyRicdv7Hfqsfeft3vedOHBhHYl7SiuD7AfX/Bp2DwRDJQcMEpnXLrJ6wJgDBH9V0dglkQtTQ+imlsioE/Gb4Z/+3idjmZc2/mjK7n2ljMgULEbAAwYjIGmh1ZwoDBbV/wQ7qv1sgh4Ugf5S5tDV0+DYxnsWJ1FRv95B2pxsqLiYg6kpWlp2yp25e6U3lPGsgSZzvbA/1ixAgNmYEBKxlv19Si/f8yrAuDgKEaxZHBZXcF5zHCeWOeh7Di1ubjz8vL4zh/dyx999gW/8sZbPHfefA4EApZwpQuvqTkZPODMychT4SDBGiuu8T1nxaGI87VrPeeN6KczdhzkNREgiRCe1xFQZVVVezO2ViMC2eAAWzqlQamDLVtxfpD8RQCE/p7++XM8foLWTF+WxiDFj2oumQ3xajBOneZX6K8aATLmhtN05gb4pdeSAx2ug/ylzdJDGxBAHRhAiw8YaYk8O+Pp2htu3k38IQEQer7z7o08cOAgpcfrfHwr//doruL6OxcBxw7EMQhXDeGaaMdeB9fpjBmeSQ4kq/8XrQTIrn6bkp3OjZuXInA6MHCqFgDX3XhLlwJAhMB7H33K67/9XZZTBV3hKZnvS9lhSUYiZZFNDIbok3uJDnMbeW4bNy9j4RhNceE1Ikr1wqmAaZoMyANOPxjB0oHkLwHHbgEQ2g149fdvB68PSElJ0eXYltpNzcvkAQsmo+ywQ3ENMo1Mpk61i66LlTs48SS3C4AUInpZhwDILOvJUsjBqcDyer+TJQBCQuCxJ3/CTc0tlshaB65DbWYP7s2SKtnrOMH43UWoTpvP1h1rOaNPD11xQlIEp7tZBMwKBTTVz9XfmYng6OBVUrIFQEgI3HHXPVzRT+sVv5aCR4+WoSg77GCcO43w0N+9Bdfw9TMs+XA33HeaWwWArP7lPIdy4xXUDQT5OzwomiIARAi88/5HvHL1Ws7JyVGOVRX43112+BGUHQZB7U1QsIl+mxQ2DNYVG1y7C3CyiuDXuQ1fip9rNyyAAIAA2MMhu7sIMLTij/b84u9e5aOnHcs+n9bSoHv0uzO+o/0vZYcHLz6cx+1cD/w7HP8gbf2krdLGdbcvZOGeaP5p4bP5btsFSCOity0YpEtD9zmiCcHPBcHPpB2AzqLgoW3befSYMV1iUAeu42kzr7qCR99wKvzABX6gkqTQll5RIVk84/HTOL77DhEJZ7rmcXocg4/ZqP70ADfevwSBzwWBz2QBIILgw0//yldecz2XlPSKGZ86MN9lm6Gyw/ei7DCITy/xwb5f27dx01IWDurSJ62d7p7nFvYXJSPnNZQbqmz6OJC/C8hfAorpAiC0K/CHP77PZyw4i9PStd0PbMlPUrLSWW5VkquVEahBhMCAXgz0PVrbnUNvuSUvwIk6yD8lM42btqDan1sc3CkCICQEnv3lr3nKYUdYImsdfhFqM72ko+ywSwSiW3COceglZLvtKxVnhYtCfqf4+Xin7wJI1r/fKTZK0NgVs8ZjheOi4O40ARASAvdvfoiHV9foCgCW2y0YM4Brbz0TvuIiX7Gb5HC86KKlbIbaQmZhfPkbp9cIOCJsMJaDWait1OwMbt66EkHNRUHNqQJAhMAHn3wevD6gZ1GRMoyHsK7k2e/jkkljsGPmIn8BKUcnZTvt07R1hc4UwZOdvAvwjJIA1ulDTEnwAAAgAElEQVT6gX4nHwDyd1kwc7IACO0GvPbmH/nMhYs4kKZtS9CSwEjNzeTKeZOQMdNlvmMn2eFYkYVHxezxlnwzCk8+5VQBsG+UQSVsrEB+FrcgAYrrBJAbBEBICDz1zLO8z77aAkLCvhPyx6z+JVzzvRNchyGQU2Rygl3020WKdonADvmY4ucWJ4qALYqNEDRu5fxJCFwuXMG4SQCEhMC9m7bwkKqhuoKC5XYL6geyJDQBQegnCNjY/Tbuf/JEyz7ZBWfe5zQBMIiI/tvFYBI2UqAgm1seXY2ABQHQLYZUZAIMEbmVZ8eUHd6GssMgafeTtM45Fm4KFGZ3G5sS4MX/ENEAJ4mAKxIYZLeGk7KoOicQbScvALhxByBcOLz06ht83IyZ7PdrSx/arf9E88lAYQ4PXnIE0gq7UFwjrtkX1ypPO8iSH0bx0e85RQDkEtFfowwkIQNJXfSW7Vj9u9WZ3S4AQmLA9LLDOYP78MirUHbYrX6GcekVA8JRgbyshDiuG878gojynCACzu5mIAkZR66yBHj1gjeZ9vWKAAgJASk7XF5RkZAv6PCvzm0Gyw5vXAyfw44AMBAnBspn7KvLrxeYLgD8RPSHzsHE6v/+tFRu3LwMQIwTiMkk9HiP7TUBIELg7T99xOect5QzMrRdPWwpEPkzAlwxZwK3bl8D33Ox78Xrq/h+9IVY4wNLWEp2W+W9CL//PREJxxr7ODhCpy0bovTQBgQglwcgLwqA0G6A8WWHi/O4avlUHrcLZYdBftHJD/b52j69vlVrmfe64NJJxrI/ET3URacTN4bPh1uVXE7+EjS8LABCQuCRx5/kuvqGxH2lU8Is1b6YO6yMR107D2LcA/4IIrcmdGo3LGDy+XT48iZTBUAFEcntCkoHLeciAUZrYHSC/SAAvmARAk4oOyxphRs3L4VfQggAA1EwUNg4RCkXdnCrcGw/E0XAharJX9obecXJAFkUkDmB3GPpIwTA1wIgtBvw1nsf8uIly8wtO5yR9vX1AY+j7HAs+MZ33L+I6TzHIy47UYcAkDbXmCYAAkT0J9UCIKeqL8jfA+QvjgMBsKcACAmBnz//otFlhzP79uRha6fDTz3ip51JDv9HFzZyW61qXiSi94lIONeYx1QNg+Shq6YhsHgksEAARBYAISFwz/2befCQKh3BREmbhfWDcK2OR3wVpB+d9MPtU7XyaCX+FYFfDzeG/YnoxxE6aGng6cX53PbEBRAAHgkqEADRBYAIgT99/Blf+v0r2NSyw74UP5dOaeCmB5fDbz3it+Fkh9d7CwPhsPReBZa4sAtulVo7Rjz66rj4D0V/9gaTmx0MAqB7ARDaDXj192/zCSeezCkpWu41thysJBPaoEVTuO3JdRACEAKex0D/eQda9qkIIuArIio1QQEsi9A5SwP2pabgKmOPBQ4IgNgFQEgIPP3s87z/AdoqkFnyYYkJWRXFXHPxbM8TgJuFO8bW/UJNktgJp6nmSSJabIIAeEX1wIrG1yBoQABYchhTqgGGyFrns6QV7l9Zacleqn04vL1gWuG7z4FPe8ynIQ6+EQc99xmuwz9fTbYAaAt3dFWvay6bg2DhsWCBHYD4dwDCRUWo7HBubq6OQGO5TVkB9ZnazC3bVsG3PebbEAIXBnfCVPFjp3YakykCbujUGcuBIqN3IUqSejBAQABYEwAhMfCbV17nadOPY5+eLGSW/TutZy4PWXYUfNyDPu5lIdC2c52uiwGvSZYASCOiT1QLgP4nT8QKwYPBAQJAjQAICYHtTzzFjU3NlglbtX+H2ssZ0odHXXUKfN2Dvu5VIdBvzv46/PFTIhIutv0h9yEqHZDcRiSVlLwKEC+PGwJArQAQISBphW+8dQOXlZcr9VOVfi/XB4zdeC58HkLA9RgYe/957PP7dfjiZNvZn4juURkIpK2ebcNcDwIvk3y0sUMAqBcAod0AKTssaYVNLjtcNmMfbnl0NfwfQsDVGOjRpCWZ1w/tFgC5RPR31QKg+ruzXD350QjQ659BAOgTACEh8MJvX+Gjpx1r7PUBkvwLZYe/uXLc6zHBjeMffuEMHTsAwsU5doqA2arJP5j5bycSh7gR9LGMCQJAvwAICYFND/2Ya0aM1BGIlLSZO7ycR183H4sB7Aa4DgOSHCutKE+Jn3Ti4OPsFABbOx3c8oAq5kxw3WTHQnz4ztcrHggA+wSACIH3//wXo9MKk9/HpYc2cNMWpBVGjHDXrkj5zP0s82UE/t1slwDIJ6J/ReiApUHV3302BICHFT8EgL0CILQb8Oa7H5hddjizo+zwDpQdhhBwhxCov3ORJa7sgnv/SUR5doiA47voQMKDyhmKsr9ed24IgOQIgJAQ+NlzL5hddrgMZYe9HiPcNP7sgaUJ82UU/p1mhwDYFKUDCQ2q8tSDsPr38OpfHBsCILkCICQE7t20hYcO05K2NKHY0DnWFNQN5NoNCxAvPB4vnC4GJN9NZ2wr+H+jbgGQpfzqf5+PGzYuhkN73KEhAMwQACIEJK2wlB3u0bOnjiBluc3dZYcfWoG44fG44VQh0HD3OZb9IIJgkLsBsnWKgKkRDmppIHLFr1MnEf1Wd04OAsAcARDaDXj59Td51gknmlt2OD+LB51zGEuaVfiiOl+ELe2xpWTDVM2nRHSETgFwp+oODzjjYDgvVDxOAXxmngAICYGnf/4cj5+gJY2pkgCY1a+Yay5B2WEQtz3ErcrOlfMnKcF/J06+TZcASFGe+9/n47H3Ig2oKkA5uR3sAJgrAEJCQMoO9+vfX0fQUtJmsOzwj1B22MlxwEt9F+4j9UW7PiYi4Wrlj306KQ3LTps3sh9W/1j9BzEAAWC+AAheH/DhJ7z+29/lnJwcy/6vOp5Ie74Ayg57iUSdPlY5Ba7BD5qVsz8RXay6owPPOhQCAAIAAsDg7f/Q6r/z869ffo1nzp7Dfj3FTSwHRSk7PHjx4Sg7jPhiNMcMOP1gy1iPwMvrdQiAlyMcKPHO+32o/Afn3O2c2AFwxg5AZyHw6I5d3DC2MfE4oLiiaOcYJTlGRl2NssNOXym7tf9SIVCyXnbGrcX/f61aAAy02KG9Bpg/unJ38Hfr5GJcsV+UAwHgTAEggkDKDl95zfVcWtp7Lz9XHTcSas/n45JJY7DgwILDSM7JG9FPh99UqBQBZyTkeFHUPa7+j50cvSAkIACcKwBCuwKhssPp6Rk6AprlNv0ZAZaaI62PI62wF2KKU8ao6W6AU1QKgC2qBUDdnWcZqcacAhq39RMCwPkCICQEfvXSy8Gyw6pjhqr20ktQdtht8cPJ46m9bYFlcRvBN+5VJQBSiejzCAdIuNMZpYUgf2zH7YEBCAD3CICQENj04MNcXTMi4TihMuZEait/TCXX3nLGHjh0MpGg787dVU3vVaDaTz5TdTtgWyTnsfJe78Mb4XQQAHtgAALAfQJAhMAHn3wevD6gqLhYdYBT057/6+sDUHbYueTpBuFTeki9Gjzvedp9rIpdgLVWyD7Sb6svmrlH8HfDBGIM1gIIBIA7BUBoN+D1t97lMxcu4kBamo5AZ7nN1JwMrpw3iVtRdhixOQmLs2HrjrOM4Qhcu1KFAHgmQsMJd1YSdbQ8uhogSwLITBYpEADuFgAhIfDMc7/iiQdqSYGacEwKj2+Z5UVc/R0sUEyOFW7sW8u2VexLTVGC4TA877IqAHKJ6KuwBi13sKB+IMgf5L8XBiAAvCEAQkLgzrs38sCBgyzHE5WxKbytHs1VXP/DRXvh1I3kgzFZ271UZT+5NT4cgwpe/6s9gZ9U8E34cZCCTuwxKMl8pMpgaMcM4KqYBwgAbwkAEQJSdljSCufl5e0RI1THnETbkxVZn6nN3LztfMQsLFq0Y6D/vAN1+MGEhNmfiL6dqPN09bu6O3D7nwrCdFsbEADeEwCh3YBXf/82z50339yyw3lZPGDBZJQdhgjQKgLkjpSueNPC+2usCICfWjjwXoOR+2/dRlwYj5pdCAgA7wqAkBB4fOdPuLmlda+4oTIGWWkre3BvHnnlXMQwCAE9GNi1ntOKle+GPZmoAMgkIjmHoMwhex82Vo/hAEjH2xUCAAIgJASk7HBFPy3pUZXEsmDZ4XsWO97nsHhRs3hRacdek+uUYDSMt78kooxERICcO1DamWFrp8NpIFYiYgACAAIgJADk+Z33P+Lzli7nzMxMpTFIVUzzpwe4YvZ4btmOO5pUEqDX26padYwOvI9LRACsUuUsoXYaH1gSMfh7fdIx/gsZAgACIFwAhF6/8NtX+MipR7PPp7ximpJAm16czxK0x+1aj9iGxY1lDIzdeK4SXIY4t+N5WSICYFunRix1LKM30v+C6LvecoMAgAAIkX6k50d37OT6hrGWYpDKeNa5rdyhZTzqmnmWCQAxousY4RXbyLVynfFl8X+p5RPXw0dEn1g86B6DKDlwNJwDCrlLDEAAQABEIv7w96Ts8I23buA+fcv2iC0q45Sltnw+Lhpfw2PvO69LnHuFxDDOxIVM8QTl9TM+iov9iajKkiNEuHZg0DmHwSkgALrEAAQABEA42Ud7/dZ7H/LiJcvY1LLDKRlpKDuMWNdlrOtOHA1ceIgOgTsgHhEwS7UAkJKH3Q0cnyeuGp1uOwgACIBopB/pM8eUHQYZIvbHgYExN5+uQwAcF48AuFqlAEjNzkASjTgA4HQyT6T/EAAQAJFIPpb3HtiylYdX1+gImkraLBgzgGtvPRMkiBgYEwbadq7jlOx0JdgL4/EfxCMAngv7oeWOFDYOiWngiRAHfuOOXQMIAAiAWMi+q+/86ePP+KKLL+XCHj0sxyuVsS/Uli/Fz32OaOKmrSsQCyEEusVAYb3yOhnPxioA0ojonyHgqnjuf/LEbgcMIncHkSc6jxAAEABdkXs877/25h/NLjucmxksO9y24wLERAiBLjHQb87+qoWsJAQKxCICRqsg/fA2Rl5xcpcDTZQw8Dt3CQYIAAiAeIi+u+/+9Be/5AMmaimuoiQwZ1YUcfXFsxAXIQIiYmDEZScqwVk4DxNRTSwC4MROP7LUEdn6ankU2bIgWKILFggACIDuSD2Rz+/dtIWHVA21FMNUxsPObUl59LrbF0YkAcSM6DHDzfYRzhTu7IwXi//PjEUAyMUCyg6cU9UX4IbK7RYDEAAQAIkQfCy/ee/DT/j8NRdwbm6usrimMkb6AilcNn0ct2xb1a2fuJn0MLY9BY8Un1KJMyK6LBYB8LTKg5ZOaQCoIQC6xQAEAARALGRu5TsoO7wnwYBwzbZHr2/VqhYA3VYG9BPRFyoFwKCzp3Qb/AFEs4Fox/xAAEAAWCH3eH67/YmneGxjk+rgqqw92TUddfUpiJseXzgNOP1gZZjq4PS/EJFk+e3yIdmClB509PWnAsgeB3IsAgICAAIgHhJX8V0pO1xeUaE03qmMn8GywxtRdjiW+OHG72i6ELCsS/YnokNUAtjn93Pr9jUQABAA3WIAAgACQAWpx9uGlB1euXotZ2dnGykEpOxw2Yx9cCG1B2No04PLdWByUjQBsESlAMiu7NVt4HejcsOY4j+lAQEAARAveav8/ou/e5WPnnassWWH04rzuGr5VJQd9pgQCBTmqBYBi6IJgNtUCoCSA0ZBAHgMsImKHwgACACVhJ5oWw/++FEeOWqU6qCrrL28kf14zE2nI656JK7KbaIqOZmIboomAJSmAO4/FxkAEyVEr/0OAgACIFHSVv07KTt85TXXc0lJL9XBV017Ph+XTBrDjZuXQgi4XAj0ndaqBjPfXNv3TFcCQK4O/JtKtTH8whkAqMsBqkqoQABAAKgmcqvthcoOp6UrL8yiJKjvLju8Yy3irEvj7JBlRynBShiv/7WrOwHKw76k5KD1P1wEYLoUmKqIP9QOBAAEgFXC1vX7nz33Ah940LeUxETVMVbayyzrydUXzUSsdWGsldM9GjDTJ9IuwHiVB/KnpaIEsAsBGSJs1c8QABAAughcVbv3b36Ihw2v1hGQlbRZUDuAa29bACHgorjbumOtjpTA4yIJgFNUCoDsQb0BRBcBUTXhd24PAgACQBVR62xHyg5f+v0ruGdRkRLSVhlzpS3JHy/ZV+UWss4+hv/jvzvJBJtl9StWjbU5kQTAd1WCsXjCCAAQAiBmDEAAQADoJG7VbUta4TknzeXU1FTVwVlJe4G8LB60aAq3PbkuZh80gezQh71FStE+ynedLowkAO5XKQAqZo0H8CAAYsYABAAEgGqStqO9p599nvc/YKIS0lYZf0NtZVUUc83Fs2P2QxDw3gScbJtouBPgR5EEwK9DoFHxLFcvJttwOL55YO5qTiAAIADsIGxdx5C0wv0rK40VAsG0wnefg5jswEXZwIWHqMbV85EEgNJbAEdeNRdgcyDYuiJo3e9DAEAA6CJnu9p994M/84pVazgnR3n2NiUE4A+kcvmMfbnlEZQd1h3PVLZf/Z2ZSuY/bGH/eWcB0DPsQyUHa9yEJBUqQeD2tiAAIADsImrdx/nNK6/zzNlzOCUlRUksVR2b03rm8uDFh+MuLYcs0Oo2LNSBo7xwETBaJchSMtOQs9oh4DJFWEAAQADoJma725eyw41NzTqCt5I2g2WHr0LZYVNiYFf9aNm+Wsl8d+L46nABcGinDy0dEEWAnHPuvSvQ2f0+BAAEgN0EbcfxJK3wjbdu4LLycksxVWV83qMtn4+Lxtfw2I3n4pStwYu2QIHyapXfChcAp+0Bim/yBicE2sKmIQCTwWCym9xjOR4EAASAHYScrGO8/SfDyw5noOxwLHEqWd/JHVaWEBdH4XXJ+7P7cVGUL8Z9YElEkSxD4bjO3H2AAIAASBY523ncF377itFlh9OL81F22MDFm+TVUcnRRLRuN/sT0R0qG+930gEQAAaCyGRxBAEAAWAnESf7WJse+jHXjBipOqgray9/dCXX3nwG4rghcVzu3lDJ0US0IVwA7FDZ+JDlyAFgMtma2DcIAAiAZJOy3cf/4JPPg2WHi4tLVAd3Ne35Q2WHl0EIJFkIDFp8mJo5/eb0/vZwAfCSSgEw4vsnAjBJBoyJJB+tTxAAEAB2E7Apx3vj7fd4/mlncCAQUB3klbSXmpPBA04/mNueuABxPUlxveZ7JyiZyzCefzFcAPw57APLB6q78ywAJUlAiUayJn8GAQABYAohJ6sfUnZ4ymFHWI6/KmN5eFtSdnjY2umI7UmI7RpyAXwQEgCpRPTf8Im2+rr54ZUASRJAYjLBd9c3CAAIgGQRr2nHvW/Tgzx02HBjhUBB/UCu3YCyw93FNJWfNz20QjUe/kNEfhEBva0SfvjvfYEUJAEC+cctACEAIABMI+Jk9idUdrhHz56qA7+S9naXHX5oRdy+rpIYPdPWrvXBUs/hXKvgdbEIAKVZAOU2Es9MCohe2VxDAEAAJJNwTT32a394h+fOm29sWuHUvEwesGAy0grbwAVpPXKViLcw4VAjAmBi2BuWD5AzpI8yUoCQcOY9/YnMGwQABICpJGxCv5546qfc0jbOcnxWGevD28oe1JtHIa2wVu4TG4fbXMHr8SIAjlHQ0O6OFTYiC2AiBOj130AAQACYQLSm9+HmDXdwRb9+u+OtythtuS2/j/se3cKt29doJUKvxsrC+kGq5/1IEQCSElBZwyUTR2HybdgOcpsTQABAAJhOvqb0748ffMzLV67irKwsZXFbJQdkVhRx/V1ngwcU80Dx/soTR50oAmCJysnvc2QTJl7xxLuN7CONBwIAAsAUgnVKP3798mvBssN+v984ISDXBoy8ai64QCEX9D68UfU8nyMC4NsqBUD5rP0w6QonPRJZuvE9CAAIAKcQr2n93PbYE1xbV6+aHCy3508P8MgrIQJUxevy45WnAw7WA7hGpQCoPP1bEAAQAHFjAAIAAsA0YnVSf0Jlh/uWKa8aZ0kIpGZncO1tyBmgQgRUzptkaS4i8PyVsgNwV4QPEj7Q4POOiDv4qzAO2nD2HQMQABAATiJcU/v65rsf8MKzF3N6ekbCMVwlH0hbGb0LuXnb+eAFiwvDwYsPVz2nd4oAeFDlhA+7AKkiIUbiFyMQABAAppKqE/v13Asv8SGHKi8gkzAB9ZpcBwFgUQAMXXtswvbvguM3iwB4rIsPEzpYzSWzMdEWJ9qLAgICAALAiURrep8f2LKVh1fXJBTLVfIC+Xxcc+kJ4AYL3FB98SzV8/ioCICfqpxoXPkZ/+rXi4TfecwQABAAppOpU/sXKjtcVFysmkDiai+rsoTH7VwPEZCgCBh5xclx2TsGXn9KBMALMXwx5gOPueE0THCCE9yZFL30PwQABIBTCdYp/X79rXf5zIWLOC09PeZ4rpIbpK3h62eAHxLkh9HXzVc9b8+LAHhV5STX3b4QE5zgBHuJ8DuPFQIAAsApROr0fj797PM8Yf8DVJNJTO3lVpeDHxLkB6nAqJKr27MAvywC4I8qG23YuBgTnOAEdyZFL/0PAQAB4HRidVr/7920hauGDlNNKt2213D3OeCIBDhC7KaSq4noLREAH6tstHHzMkxuApPrJbKPNFYIAAgApxGoG/r73oef8Jp1F3JeXp5qcumyPbmfPVIMwHvRrx9r3LS0S5smyOEfigD4LMEfR+xM88MrMbkQAHFjAAIAAsANhOrUMfzutT/w8bNOYDvSCuePqYw7PkAcXMhNW1dE5FwL/P2JCIAvLDSwV4daHlmFyYUAiBsDEAAQAE4lTzf1e8eup7m5pXWvuK6SI1Ky03E3QAIc0fzj81XPy19EAPxd5eSiFGT0bRwo2cj2gQCAAHATkTp9LHfcdY/WssOoFhg5Dkbjh5ZHV6sWAH8TAfClUgHw+Nq4V3/RBo3P4geKE20GAQAB4HTSdFv/33n/I16ybAVnZmaqJh4kBUpgB6D1sTWq5+EfIgD+rVIAtD1xAQRAApPrRNJW2WcIAAgAtxGoW8bz9M+f4/z8fKXkM3T1NPBEnDwh3KqSqzu4n/6rslFkevLGil0l+UtbEAAQAG4hTDeOY9r045SSz6BzDoMAiFMACLeq5GqiIPdDAKgmM7QXvwiCAIAAcCNxumVMEADxxzTlPKBJAOAUQLxKDN9Xrt4hACAA3EKWbhsHTgEYQP5PXci6TgHgIkAQunJCj1f9QgBAALiNOJ0+HlwEaAbxh2KprosAcRsgBAAEwGcgYKcTFvqvDsPabwO8++ykx5wQsTrlWddtgEgEBAGQdGfEDoC64A0ihC0TxcDjO3+iPRFQanYGj9uFssDxCg9diYCQChgCAAIAOwCcKGngd84XHEgFbNZ2fyRxoCsVMIoBQQBAAEAAQAB4EANJKQY0H8WAIhF8d+/pKgaEcsAQABAAHgz+WLk7f+VuZQ6TUg7Y52OUjE9st0FXOeBXVSYXqNuwMOlk0p2SwueJAVCn3XANgLfJyAqR4bfxYefpZ5/nCfsfoDqpTEzt5VVXgB8SXHDWblgQk43j4POXJRXwC3H8oNsOjLnhNExwghOsk2BNbxsCIL4gDtKDveLFwOtvvctnLlzEgbS0buO4Sk4Ib2v4hTPADwnyw+jr5quet+dFAPw0fIKsvh555VxMcIITbDpJ6+wfBAAILV5Cw/djw8wHn3zOV15zPRcVF6smkLjay6osQRlgC9ww4oqT4rJ3DFz+lAiAx2L4YswHrrlkNgSAhUnWSbImtw0BEFswB+nBTvFg4IEtW3l4dU3M8VslF+zRls+HCoAWeaH64lmq5/FREQAP7jFRRJYOMuyC6RAAFifaZKLW1TcIABBbPMSG70bHy3MvvMSHHHqYpViukhdKD6kHL1jkhaFrj1U9n5tFANylcqIHn3cEJtriROsiWZPbhQCIHtBBeLBPLBh4890PeOHZizk9PUM1WSTcXkafHtyybRV4wSIvDF58eMJz0AXH3ykC4OouPkzoYJWnHYSJtjjRJhO1rr5BAIDgYiE4fCcyTj789K98460buG9ZWUJxWyUHhLeVmpfJdXeeBU5QwAn95x2oem5/IALg2+ETZvV1+az9MNkKJlsX0ZraLgRA5MAOwoNdusPAtsee4Nq6etXkYLk9f3qAR16Fi8JVxdzyGftanpNO/L5OBMB5nd60dJA+RzRBAEAAxI0BCAAQXXdEh8/3xMivX36NZ86ew36/31LMVhn/Q20F8rJ41FWnxB0HVJGlG9vpPWWs6nk+WwTA3NCkqXgumTgKkw4BEDcGIAD2DO4gO9ijKwz88YOPefnKVZydna2aEJS0l9WvmOtR7S/uGNidaCnef6SS+Qnj+RNFABwd9oblAxQ2DlE+8O4Mg8/Ny+wX75xAAIDwuiI8vP8NNm7ecAdX9OtnOU6rjPm72/L7uO+0Vpa69fH6P77ffQwvrB+ket6PFAEwcfcEWrwFUNrJGdIHk48dgLgxAAHwTZAH4cEWnTHw5E+e4dZx+6gmAGXtZQ/qzaOuxpa/TiEjNlbJ1UQ0XgTAKJWNphXnxR38dRoNbXevLE2wEQQASK8z6eH/L/i1P7zDc+fN55SUFNXBX0l7cpX/gAWTuW3nOsR9zQu/QGGOkjkL4/tqEQClYW9YPoAvNYXH7VoPMGgGgwmkrbIPEAAQACD8bzDwp48/40u/fwX36NnTckxWGd9DbUmcL53SwE0PrUCstyPW71zPvhTlF3sWiQBIIaL/hiZWxXPz1pUAhR2gcNExIAC+Cf4gQm/bQsr0Dh023EjiF34oqB/IUplO5QIAbUXfqW3aslw1Hr4iIr8IAHl8rIL4Q23U3YHEDwB0dEB3tg8EgLdJD6LnC/7Zcy/wlMOOUB3olbWXWdaTh61FqvfOscuO/zWUAn6/g/uDTy+FyFvF84jvnwh16KLVuR0AhwCAAPCqCHjj7ff41NPPTGqZ3mhxPzUngwecfjC3PXEB4nqS4nrN905QJuQ65vrFcAHweDQAxPvZkGVHAR9AqHAAACAASURBVChJAoodZK3jGBAAEABeEwChMr3FxSWqg7ua9vw+Lpk0hhs3L0M8T3I8H7RYeWGnYCXAkAi4I16Sj/b9ficdAMAkGTA6SFpnmxAAEABeEgCbt27jESOVJ3ZRQ/xEnD+6kmtvPgNx3JA4riEN8G0h8pdnpfUASg9tAHAMAY5O0lbZNgQABIAXBMALv32Fj552LPt8PmVkHW0xFu9n6cX5XLV8Ku7kMix+F08YoRovF4QLgFPjBUq07yMbYHwXwKkkUqe2BQEAAeBmAfD2nz7ilavXGpu+158R4Io5E5DFzzDiD8Xz3GHKqzxKCYDdj0OiEXq8n2VVlmAHwFAghQBl2jMEAASAGwVAqExvWXm56hWcmvZ8Pi4aX8NjN56LmG1wzA4UKK/7cNBu9ieikfGSfLTvp2SkYQvJYDCZRv7SHwgACAC3CYDtTzzFjU3NaohaQZr2zjE7p6ovKvY5IE63bF+tA0PDwwVAYWdwWP2/cdNSKEoHgMsUMQABAAHgFgHwm1deD5bpNTV9b1rPXB68+HAetxMZW02Jf9H6oSEHgAiKvHABIK//ZpX0w38/8qq5EAAQADFjAAIAAsDpAuDdD/4cPM+fk6M8Z7uSFaA/kMpyNXnLI6ti9stoxITP7LnWq/o7M5XMfxg//6Uz+cv/khhA2YGGLD0SIIMAiBkDEAAQAE4WAHfcdQ/3r6xUFj9VxmJpq0fLUG64+5yY/RHkbg+5x2LngQsPUY2r5yMJgPtUgq581n4AGwRAzBiAAIAAcKIAePrZ53n/AyaqDtDK2suqKOaai2fH7IexEBK+Y6846DutVRkeOjj+R5EEwHdUCoDi8SMAOgiAmDEAAQAB4CQB8Orv3+YTTz6FU1NTVQdnJe0F8rJ40KIp3PYkyvQ6XbD03Ed5YagLIwkAuS9QCfiknexBvWMO/k6fIPTfuiKGAIAAcIIACJXp7VlUpCxWqoy7UjI2WKb3weWIvy5ZgMkujkqMENGcSAJgvMqD+NNSuW0n1CfEQWziAAIAAsB0AXD/5od42PBq1cFYWXsFdQO59jaU6XVTzG19bA37/H5lGOng+HGRBECZSgEgbdX/cBFUqEtUqG6nggCAADBVAPz8+Rd50rcOVh2ElbUnZXqrL5qJWOvCWDvmptOV4SSM33tHEgA+Ivoi7EuWDzz8whkApQtBqUMMQABAAJgmAN5670NevGQZp6WnW46FKuNqqC1JuBZM37tjLeKsS+Os3E0Xmm9Fz38lIuH6iI9fKDpIsNP9T54IYLoUmKpFAAQABIApAkDS9155zfVcUtJLdfBV054vVKYXydZUxyHT2ut7jPI7AJ6JyPwdb96qUgBIUDfNoOhPbOfk7bYTBAAEgAkC4MEfP8qjRo9WQ9QKL6oOxeW8kf1YtoXt9k8cLzlxs6B+oGos3hRNAJwXApqK56z+KAoEx4nNcSAAIACSKQBe/N2rRpfpTSvOQ5leD+6mBgqVFwFaFE0AKK0KKFcvSiEDkGBsJOhlO0EAQAAkQwC8877hZXrTA1w2Yx9ueRRx1GvxsXHzUtWrf2nvwGgCoFLFyj+8jdHXzocA8KByjddZIQAgAOwWAJK+t7yiQkeQVdJmMH3vxsWInx6NnzXfO0EJjsL5mIj6RhMAftV3Agw6ewoA7FEAxyMCIAAgAOwSAI89+RPzy/RefQripsfj5oDTld96+lk08g999pNOisGSCik9tAFA9jiQYxECEAAQALoFgKTvnTtvPptaplfS9w5YMBkJ1BAvg5zZ66BaS9wbgcd3hEg+2vMVEX6YcEdyhvSBAACgu8UABAAEgC4B8N6Hn/Cqtes4Nzc34TimMiZ2bssXSOGy6eO4ZRvK9MayWPDKd7IH91aN1+9FI/7QZyd0BqiV/yU3NS5gwUWA3TktBAAEgA4BcO+mLTykaqjqQKqsPbnNq+72hd0K5O78B5+7K8YKZwp3WuHeCL89PkTy0Z5HRfihpY6MuPwkABy7AFExAAEAAaBSAPz0F7/kAyYeaCluqY6D4e1lVhRx9cWzovoESN1dpB7PfNZcNkcHdqujEX/os1Qi+jIcrFZf9zvpAAAdAiAqBiAAIABUCIDX3vwjn7lwEQfS0nQEUMttpuZmcuW8Sdy244Ko/hAPWeC77hMKkuLZKu92+v0/iEi4PabHc51+bKkzhWMHA+wQAFExAAEAAWBFAEiZ3u9c8j0u7NHDUqxSGffC25Lt3D5HNHHT1hVR/QBk7j4yT2RONWQAfDYm5u/40lXh4LX6OiU7HVe2QgBEDXwQABAAiQqAB7Zs5eHVNUYSv8TOgjEDuPbWM6PiPxGSwG/cKRbanlzHKVnKC1BdHo8AmGmV9Dv/Hg7gTrCqCkIQABAA8QqAX730cjB9b+dYY8r/6b0Kvk7fC/EP8RMHBsbceJoOMTs9HgEwWLUTISEQBEA0sQABAAEQqwAIlelNT8/QESgtt7m7TO/jKNMbzefxWWROGLjgEMsYjMDfkuU35ofUC/5zhEYS7ljJxFFQgXGoQK85BwQABEB3AkDK9N546wbu07cs4TikMqbt1RbK9CLGK4jxxeNHqMb3RzEzf9gXH94L4BbKW2aUFgIcCsDhVmEAAQABEE0APLpjJzeMbVQdGJW1lzu0jEddOw8xDjHOMgbSi/OV4bKDwzeH8XrML1epFADSVuP9Sywbx60E6PVxQQBAAEQSAC/89hU+6uhj2OfzqQ6KStqTYF216hget2s9YhvI3zIGGjYuVoLLTty9LGbWD/vi+E6NWO7Y0LXHWjaQ14nSreOHAIAACBcAUqZ36fKVnJWVZTnuqI5j0p4/PcAVs8ej3DlIXymnVZ1/jA68t4XxeswvM4nonyqdp3QKCgO5lcCtjgsCAAIgJACkTG9Fv346AqGSNoNleu9BmV6rPo/f730RYK+D65RgNIy3JQFQesys3+mLT4c1ZLljsl2GSd970mGTCxkCAAJgx66nubml1XKcURmzwtvKGdyHR145FzEMq349GNi1ntOK8lTj/4lOnB7XvxeGO4CK1yh8AQEQSfBAAHhXAKBML2JCpJjgtfdqbz5DNflLe2viYvxOX56kgvTD26g8/Vt61BNUqaPtCgHgPQHw3kef8vpvf5fz8pSvepQEUl9qCveZ2szN2853tG95jUidOt7+p2gpXjWhE6fH9W8OEX0VTuBWXxfUDoAzQazshQEIAG8JgB/ecx8PGjRYCVFbjUmRft+juYrrf7hoL5w6lVzQb/N3WfJH9VftD/8ioqy4GD/Cl38ayUESfc8XSOGWR1bBsSAC9sAABIA3BMAzz/2KJ046SHWgU9ZeZnkRV38XZXohGOwVDC3bVrHsOCXKq138bmcEPo/7LTmHoLRjwy86fo/gD7DZCzYT7Q0B4G4B8Ppb7wbL9KalKy9yoiQ2peZkoEwvFiVJ46VhF0xXguNOXL0ibraP8IPWTo1a7mjvw8YmzdAmkh/6hLsAQrfAue35g08+5yuvuZ6Liostxw3VcSjYnt/HJZPGcNOW5YhJEABJw0Dp5Hod/tEQgc/jfiuViD5X6XzpJbgdEKS/564HdgDctwOw6cGHubpGeV5zZYEyf0wl195yRtKCPmLAnjHAy/YQTlTJsUT0GRGlxM32XfxAcgkr7WDdHWfB8aC4d2MAAsA9AkDS9x497Vhz0/eW5KNML2LP7tiTbOFRe+uZSrm1g6s3dsHlCb19umoBMOD0g42ZgGQDAMfHKQA3bP2//aePePGSZWxqmV5/RoAr5kzgVpTpRew1SABVzpukQwDMTYjpu/iR1BJW2km55QHEhy2wEAawA+DcHQAp03vVtTdw7959lMYIZTEnVKb3ARQjC/kbns2JvXk1Far95n9EVN4Flyf89m+VOaSICb8P1QENUqHJDggQAM4UAI/u2MVjG5tUBzBl7eUM7cujrkGZ3mT7N44fWXCMve88JvWVLl9ImOWj/PA7SgUAEQ9ccAh2ASACghiAAHCWAPjNK6/zzNlz2O/3KyNrlfFFcqoPXnw4j9uJMr0g38jka4JdKk/TkhPjgig8nvBHUlJQqbPL1ocJk4A+JN9BIACcIQDe+/CTYPre3NxcpbFAVWyRRGOSvlcSq8Cvk+/XmIPoc5A7tEyHHzUmzPJRfii3FPxZlaMG2/H5eOzGc+Go2AVANcDPzBcAUqa3X3/l6UqVBcBgmd4fnYN4gnjiCAw03LNYx/b/R0Tkj8Ljlj66XakAIGIUB4quEL2ioLEDYK4AePrZ53nC/gcoI2rVMSSrXzHXXHqCI4K+V/wZ4+w+rvefp6X4zy2WGL6bHx+l2nlzh5XBcaHYsQNg4A7AK2+8xbPnnMQpKcpzlCsRE4H8LB50zmHctnMdYghiiOMwkDNYy10zh3fD4ZY+lspC/6daBDTcjW07rytm7ACYswPwp48/40u/fwX36NlTCVGrjhe+FD+XTmngpodWOC7oe93PMf6vdwak0qRqvyCivxFRpiWGj+HH96vuuCRCADC63zJys40gAMwQAPdtepCHDhuuIzgpabOgfiDXbliAeIEVv6Mx0O8kLafUfhQDf1v+ynGqBYBshbiZ3DC27sUNBEByBcDPnnuBpxx2hBKSVh0fpL3Msp48bO10xAkQvyswkFVZosPXjrbM7jE0kEtEX6p28ro7URvAy0IBAiA5AuDNdz8Ipu81tUxvSmba1+l7d6x1ReD3so9j7F8vhITrVPMnEf2DiHJi4G8lX3lI9QAqZo+Hg3tY3UMA2CsApEzv9y7/gdFleksPbUCZXg/HBLcKhvIZ++oQAJuUMHuMjcxULQDSivNwNa+HnR0CwD4BsO2xJ7i2Tkv9cSWBLXd4OY++bj4WBB6OB24l/7Yn17FkqVTNn0R0bIzcreRr2TruBqj+zkw4vUedHgJAvwAwvkxvcUeZ3l1I3+tWAvT6uIavn6GD/OXOPOFkWx9yxaHSwfRsHQYBAAGgBFPX3XgLu6HErooxSJnelavXcnZ2thLbqvb73WV6H1sD//eo/3tFGBQ2DdHhg3fYyvwdB5uiOhDI/b2N96Nkp1ecIXyc2AHQswMg6XvLyst1BB3rbfp8XDS+BunAQfqeEH5j7z+PfXqKZ30rGQIgQESfqBYB/U4+wBNgCCc/vL4QmQAVZwJ87MmfcGNTs3WSVrzLF4oXOVV9edRVp8DXQf6ewUDFnAk6/PFjIhIuTsrj+pBDq3rOKC1ECU8PBgXsAKjZAXjp1Td4+ozjzS3T2zOXhyw7Cj7uQR/38kJH0lWn9yrQIQCuTgrzdxy0VRXxh7dT8z0U9vCas0AAWBMA7330qdllelNRptdrPo3xfpMArfriWTrIX9ocm0wBIMd+JZy8Vbwu2q/GM9tCcJKvnQQCIHEBIOf5+1dW6gowltsNlulFvQ/ENA/vevQcpyW99m+TTf5y/KUqSD+8DV9qCjduWgqH8ZDDQADELwB++otf8v4HTLRM0OG+p/J1VkUx11w8G37sIT/GguabVX/IFo2bl7Jwmkrf6mjrHBMEQB8i+o/qwaFA0N5ACgHKjc8QALELgNf+8A6fePIpnJqaqiOoWG4zkJfFgxZNYUl64kasYkzeik1W57v/KQda9qkI/PpvIuplggCQPjwcoYOWBp1enM9tT1yAAOKR1QMEQPcCIFSmt2dRkSXfUu2rofZ2l+l9cDn81iN+a5Uc3f574bD0knwd/rrZFPKXfhwVCgIqn6tWHYNA4pFAAgEQXQBsfGALVw0dpiOQKGmzsH4Q192+EP7qEX91O3GrGl/ViqlK/CsCrx5mkgBIJaI/ReikpcFnD+rN45AW1BNBFQIgsgD4+fMvml2mty/K9KoiC7TjvlML2YN7W+LALjj1/WTe+9+V8FjXRWctGWDE5Sd5ggC97vwQAHsKgLfe+zBYpjc9PcOS/+jwSWkzJQNler3usxh/dMEit7Nr8r81XZFwMt8v13ExYI+mKggAD2wrQgB8LQA+/PSvfOU113NJSS9dwcNauz4fl0waw3JlMwggOgHAPt62T2HDYGu+FjkL51dEVJZMoo927C3KFY/Px3UbcG7R7cEEAuALfnTHTq5vGKsjaChpM3dYGY++FmV63e6LGJ914VJ72wImn0+J33Xi1AeiEXCyPzuoU2eVGKB0cj1WGy7fBfCyAHjxd6/y0dOOZZ+egGHZB9OK87hq+VRcj+NyHwTxWyf+kA1LDhpj2e+64NIDk03y0Y7vJ6I3uuh4wgbxB1Kx5ejy4ONFAfDO+x/xuUuWcWZmZsK+odrXwtvbXaZ3O8r0hgI7ntWRpFttKRVtfQEtiX+EW4VjjX6cER5EVL0un7UfdgFcLAK8JgAkfW95RYWRxC8+G0zfu3ExfM7FPudWAk72uMqmj9Pl16cZzfwdncsioj+rIv5QO6m5mdzy6GoEJJcGJK8IgMd3/oSbW1p1BQjL7eYM6cMjr5oLP3OpnyWbHN1+/JZHVnFqjpY7dz4lomwnCADp4/oQcat8HnDGwQhMLg1MbhcAv33t9zxj5mxjy/QGCnN48JIjUKbXpf7lduI1ZXyV8ydZFuFdcOYFTiF/6WcJEX3ZxUASNlCgIJtFYZky2eiHuvOBbhUAoTK9eXl5CeNetR+FtydFSvpMbebmbefDr0D+wIAFDMgOdaAwW4ef/5OISp0kAKSvN4UHGlWvUSRIHemaJGDcKADu3bSFh1QN1REQlLRZUD8Q6XstBHyT/Ad9SX5c7HfSAUr8MgJXXuc08pf+VhHRfyMMxpKRpNJYyzbsArjN4d0kAJ557lc88UBtW4GW/Ef8MbOiiKsvnoXVHsgfGFCEAdlBk+vUVPMdEf2PiIY5UQBIn7dqMAj3O3F/AFcRcE0REm4QAK+9+Uc+c+EiDqSl6QgEltuUACU7aG07UGXTFNyjH8lfuauYg4pZ4y37ZxdcaVTVv3iFyPguBmXJWKnZGdy8dSVEgItEgJMFwAeffB5M31tUXGwJ1zp8Jdim/+v0vU1bUKZXRbBHG+4gbVXz2LR1Badkp+vy/XHxkq5p339WR2BDXgB3OaFTBcADW7by8OoaXc5vud2CMQO49tYzIZZdJJZVERfaURNDNd73/wvTyDyR/kzXIQBSMtMYKxo1ADYhEDhNAPzqpZeD6Xt1YFtFm+kl+V+n7wXxQfwAA9ow0PTgchYuUuGzEdo4OhHCNe03qUT0doTBWTZa2bQ2bRNrAil6qQ9OEQBvvvsBL1x0DhtbpjcrnfvPO5Bbd6yFb4D4gAHNGOg7tcUyj3XBjX8gohTTyDzR/szvYpCWjOdPS2XJu+wlonTrWE0XAFKm98ZbN3DfsjJLmNXhB8E2fT4uGl/DY+87D/6gOei71Qcxrvh2VBsfWML+9ICueHBKomRr4u/SiOhNHcGv9xGNCHguCHgmC4Afb9/BY2rrdDm65Xbzqit49A2nwg9c4Acg4fhIOJn2Kp3SYNl3u+BE2TEXznTV48QuBmvJiD6/n6X2cjKBgGNbd1oTBcCvX36NZ86eY2z63rSiPB68+HCk7wXxI/7ZjIHaW85g4R4dnEZE81zF/B2DkfMZr+owWEHtADiAzQ6gWvSYJADe+/ATXv/t73JOTo4uB7fUrmw7ls3YB2mxHY551T6E9qwvRGK1oWTR1MFlRPRHN67+Q4Jmhiaj8fCLjocIcHBANEUASJnein79dDm35XaDZXrvQZneWAM1vmcfKXrF1sMumG7Zj6PwoFwv59qHn4h+G2XwCRs2s29PZDiDANiNn+tuvIU/+uyLmP927HqaW1rbdv9eB0attJk9uDePvBJler1CMhinmcKl9fG1nNG7UFeceIeI0l3L/h0Dk3sbtRiw8tSDsAvgUBGQrB2A1/7wDs+dN59TUlK0YNIq1qX2xYAFk7lt5zpg26HYBpmbSeaJzEv/kyfqjBNz3E7+Mj4fEb1gNTBG+n1KVjo3blqKQOnAQGm3AAiV6c3Pz9fp0Am3jTK97iGNRIgGvzFv/hs3L9OZ8vc1IpKcOZ54TIlE4CreK51cDwEAAcDX3nBzl9v/P7znPh40aHDC5KwCp9Ha6NFcxfV3LgKOHYhjELd5xK1qTnodVKszZkz1BPN3DFJ2AbTUCCC/j8fcdDqCp8OCp+p7apcuX7mXAPjpL37J+x+gdQvPUoDIqijmmktmA7sOw64qgkE75oqH0defysIt0YS7hc+e69gZ95IGoEkWDBZ1IvJH9udxu9YjkDookJYdt0/UOY0XK3l5eXznj+4NioBX3niL5516OgcC2rJ2Wep7ak4GDzhzMrc9gTK9IEFzSdCzc7NrPUuyrXhjUBzfP9BTzB822O1xGCmuCahadQwEgIMEgOSv14GFnkVFHEjTVqzDUp8lkUjvKWO56aEVwKqDsOpZIvToHA1ZfpQlP+8mrm0L40PPvRxGRP/uxkAJGT+Qn8VSqQnO6owVRfVFMxOaZx3YsaPN/DGVLNnEgE9n4BPz5M15EnEeKMjWFZu+IqJqz7F+pwFfqSvglkwagwDrENUuhTV04cCkdneX6cUpKvimQ3zTy+KneP+ROuPS9ztxoSf/7UlEn+oK0jWXnoBA45BAk1acp9PZktp2SkYa9587kSWRiJcDKsbuzZW0E+e9+ruzdMaMPxNRoScZP8Kgz9QlANJLC7jl0dUIug4QAX2ObNLpcMlpO1Sm995zgUEHYNCJRIU+qxdVLY+sYtmt08VLRHRqBB707FtSKOg3uozd9+gWBF8HBN+RV83V6XC2t50ztC+PuvoUYM8B2AOJqidRJ9tU82Lkd15K+hOrqpFbIbQEabnaevR18xGITQ/EO9ez1HTQhQO72pUyvVXLp+JWVNPxhv4hJkbAwKhr5um851/i2/6xkqLXvvegriCdPaAXigVFALtpKn3I0iMdKwB8gRTuM7WZW7atQmB1ANZMwz76k/xdiLYdF3BWZYnOGPSA10g9nvEOJqJ/6RIB/U46AIHZ8MAsyXAy+vTQ6YBa2i7at5obUKYX/mW4f0FkRBcZFXMmaIkPHZz2TyIaGA8hevG7l+oSAP5AKtfdeRaClOFBqvpirVffKnXw7IGlPOKKk4ApwzEF4otOfLDPhVy3YSHLLp4u/iGi73qR0OMdcz4RfahrEuTCLKRcNT8Y9Dq4TqcjWm5bEk0NOucwlOkF8UP8uQADsvWfM6SP5bgQhbfeJ6K8eMnQq9+fFsWQliepfMa+cFrDnbZ52/mc1a/Y8lyrxpGU6e07tYWbH14JDBmOIaxqzRf6psxR2fRxumONp6r9qRAum1UH793t+X084nJs25rifF31o2HjYk7rkavbMWNuv6BuINduWADiB/EDAy7CwMgfnMxyp9huflB/N9pDKgjRa22UEdFfdU2KJHnAKs78FYKUdpbtdl04iKXdzPIilqxgXQkVvG8+jjBHmKNIGGjauoI1ZyD9nIj6eI28VY33tFgCdKLfkSu3I4EC75kVLBp+dA5nVhTZLgJSMtNYrgpu3YH0vfAJs3wC86FmPorHj9AdV+apIkMvtuNvT5rwk0QJPpbfDVl2FESAA7bzpLJjYeMQ3c76dft+H5ce2sBNW1BNEkSjhmhgR/PsOPi8I3THk11E5PMicasccxURfRkLmSfyHSnSUv/DRRABDhABEkSHrZ3OqXmZ2hw3d3g5skY6BAsgVfNI1Slz0nD3OZySla4tjhCR3PMv5e7xUGCB8xMh91h/k1tdzm1ProMIcEjgb9y8lPse08r+jIAyB84dWsbV35kJDDgEA04hGvTTPJEit4HL7eCx8kOC31uugPfQRIcF0nQWC5IJrpg9HsHfYcG/cfOy4Dn6rIrEbhcUAVE0voZrLpmNuXfY3INYzSNWp8yJ3AaeIKnH+rtfE1EA7K3WAo1E9B9dEye3gYz4/okgAocSQe0tZ3DlaQdx8f4jObOsJ/vTUvdy1kBBNuePqeS+01qDpxJQJhok4hTSQj/VYLXm0hN0F/oRjmpQS31oLWSBy3UJAGlXCGIs6ra7RgS1PraGG+9fws1bV6Iyn0OFHYhPDfHBjhcGa3XovH6og5suC5EVntVbIIuIXtEpArIH92YhDjgMAg8wAAwAA+7AQOvjazmnSvt5/5eJSDgKD40WqNVZMVDERcmkMRAAWDECA8AAMOASDNhQW+Tf2PrXyPqdml6qcxdA2h587uFwfpc4P1Zx7ljFYR4xj4lgYNCiKXtdD6SBPxZ34ij8q9ECkiBoh4ZJ3A0UKfoy6upTIAIgAoABYAAYcCgGRl87n6UMvE6uIKKdRCSchIeNFuhLRJ/onFipF4BscFh1JLLqwG+AG2AguRiQ24TTi/N1k/9nRFRhI+/hUGEWOFKnAJC2C8YMQJIgh6p/BODkBmDYH/ZPFgYksVv+6Erd5C/tHxPGR3iZBAvcolsESK3oZAEZx0UQBQaAAWAgPgxIplDdvNBe5e+GJPAdDtnJAtlE9JrWyfb5eMhyFA1CEIovCMFesBcwYD8Ghiw90g7yf4OIcjtxEf5NkgXqiUhuw9A28XJR4IjLkCkQAc3+gAabw+bAQGwYGHnFyewLpGjjgQ6O+YqIJDMtHgZZQGvBIJn4lOx0rr1tAU4H4JoAYAAYAAYMw0Dd7Qs5NSdDN/lL+3IbOh6GWSCFiLbr3AWQtjNKC1muLoUij02Rw06wEzAADOjGQOOmpZzeq8AO8t+GW/4MY/6w7vQgojd1iwBJKdmyfTVEgGErAN1BBu2DyIAB8zDQun0N5w4vt4P83yaiojC+wUsDLTCaiP6hWwT0aK7itp3rIAIgAoABYAAYSBIGJAb3bBtmB/l/SUR1BvIduhTBAjN1CwBpv+/RLXD8JDk+VmLmrcQwJ5gTuzHQ56hmO8hfjjEnAs/gLYMtcJ0dImDggkMgAiACgAFgABiwGQOVp3/LLvK/0mCeQ9e6sEA6Ef1ctwjw+f08/MIZcH6bnd/ulQaOh9UtMGAOBoZdMJ3J77NDAPyUT93AjgAAFFtJREFUiNK64Bi8bbgFehPR+9pFQCCFay6eDREAEQAMAAPAgGYM1Fw2x44CPyIuPiQiqTmDh4MtMJ6IJHGDVrXozwjwyB+cDOfX7PxYhZmzCsNcYC7sxsCoa+ZxSkaa1ljewRXCGfs6mPfQ9TALSK1m7aCRREGjbzgVIgAiABgABoABxRgYff2pnJKVrj2Od3DFwjD+wEuHW8BHRPfYIQICeVnIFqjY8e1eZeB4WNkCA2ZhoPbWMzk1L9Mu8v+hw/kO3Y9ggUwiesYWEVCYzXV3nIUVAIQAMAAMAAMWMVB/19mc1iPXLvJ/loiyIvAH3nKBBSSLk1Rx0g6m9OJ8brhnMZzfovNjJWbWSgzzgfmwEwNj7z2X00ttSfErnPAHIipxAc9hCFEsMIiI/myHCMjo24MbH1gCEQARAAwAA8BAnBiQ2JnRp4f2xVoHF3xCRFVReAMfucgCcnXnP+0QAVn9S7jpweVw/jid385VBo6FVS0wYBYGmrYs56x+xXaRv6T5bXMRv2EoMVhgGhH9zxYRUFHMjfdjJwBB1qwgi/nAfJiIgcbNSzm7spdd5C8ccHwMfIGvuNAC59shAOQYUka44e5zsBOAnQBgABgABrrAwNiN53Jm3552kb8cZ6kLeQ1DisMC19olAtJ65nLdhoVw/i6c38TVCPqEVTIwYA8G6u9cxOkl+XaS/01x8AS+6lILBIhou10iIFCYw7W3nAERABEADAADwEAHBupuX8hpRXl2kv8jRJTqUk7DsOK0QB4R/douEZCam8mjr50P5wcBAAPAgOcxMObG01gSqNkVf4not0SUHydH4Osut4AUfZD7QG0BYkpmGo+4/CTPOz+2V+3ZXoWdYWcTMTDyqrksKdTtirvtF/z9noj6uJzLMLwELVBBRG/bBUYpIFTzvRMgArAKBAaAAc9hoOaS2exPD9hJ/u8SUWWC3ICfecQCQ4noI9tEQCCVh6+f4TnnN3E1gj5hlQwM2IOBYRdMZ18gxU7yl9K+QzzCYRimRQuMJKJP7RIB5PNxxZwJEAFYBQIDwIDrMTBgwWQmv89O8v8LEY2xyAn4uccs0EhEX9gmAoi4dEoDtz25zvUBAKsse1ZZsDPsbBIG2nau4z5HNtlJ/HKsvxJRg8e4C8NVZIFWIvo/O0VAYeMQbnlkFUQAVoLAADDgGgy0bF/NPVqH2k3+/yAiSfuOByyQsAUm2lU3ICQ0sgf1RupgBH/XBH+TVqHoi/27Io2blnLO0L52k/+/iOjghKM+fggLhFngcCL6KkTQdjxL6mBJjoGAZX/Ags1hc2BADQYk86mN5XxDIuM/RHR0WPzGS1jAsgWkYMR/7SD/0DFSczJ4xBXIFYBgrCYYw46wo50YGHHZiZyanREiZbueJUbPsBzt0QAsEMECxxLRv0MEbcez3CpTtXwqdgJwSgAYAAYcg4Ehy45iX6qtt/mJwJCV/+wIcRtvwQLKLHAkEcn5JbsULcttgmXTx+EOARCAYwjAzpUmjmXOzobcxdR3Wqt9sfGbOPxPIpJTtXjAAtotMJ6I/marCCDi/FH9WWplI+CZE/AwF5gLYOBrDDQ9tIIL6gYmg/z/TkSTtEd9HAAWCLPAuI57TG0FfFpxHgoJYScAIhAYMAoDUtAnCRf7SeyVhdiEsLiMl7CAbRaoI6JP7N4J8AdSWbJpYeWB1ScwAAwkGwODFx9ud1rf0KLrMyJqsi3a40CwQAQLVBPR+3aLADleyaQx3PrYGggBrAaBAWDAdgy0Pr6WSyfXh8jY7mfJ7T8qQjzGW7CA7RaoIiKpNGW3E3DO4D7ccM9i250/2asOHB8rX2AgeRgYe995nDu0zPZ41xFjZcElCy88YAFjLNCv/f7TN5IhAgJ5WSgrjBUgRCAwYAsGJDdJoDA7WeT/FhENNCbqoyOwQJgFyojopWSIAJ/fzxWzxuNWQZCALSSA1XfyVt/Jsn3bExdw+Yx97a7kFy40fk1EfcLiLV7CAsZZIKe9+tTDyRABckzZlqu/62yQAIQAMAAMKMOAnGbMq6kIJ2O7X28nonzjoj06BAtEsEAqEV2bLBHgTw/gLgEEf2XBP1krThzXjF0GyUSakplmN+GHH+9mIgpEiLN4CxYw2gIL7a4fEC46ivap5qatK0AEEAPAADAQNwaaf3w+F+8/MpyI7X79v/bovsboCI/OwQLdWGAqEX0ZTsx2vk7rkcs1l8yO2/mx+jJj9YV5wDwkAwMjLj+J04vz7Sb88ONJat/juomt+BgWcIQFmonoYzuJf49j+XzcZ2ozt+24AEIAK0FgABjoEgNyoV/FnAnJvNBPRMCnRLSPIyI7OgkLxGgByRXw+z2I2ea8ATlD+3LdHWd16fzJWGngmFjhAgNmYKBuw0LOGdInfBWejNdyK/XgGGMqvgYLOMoCPdvzVj+VTBEgJTrLZuzDrTvWQghgJQgMAAMsq/7KeZNYUownMza1F/T5GRGVOCqio7OwQJwWyCSiu5PsaJxd2QtFhRD8IQA8joFR18zjrP4lySZ+Of6dRJQRZyzF12EBx1rgFCL6d1KFgM/HpVMauOWRVSACjxMBtuHN2Ia3ax5at68J7gRKArGkxiCir9ovkl7i2CiOjsMCFiwgJYU/SLIDclpRHg+/cAZEAEQAMOABDFRfPIvTexUkm/jl+HJhNEr5WiAQ/NT5FuhLRM8kWwTI8YvG13DTg8tBAh4gAbtWmjiOOTsLTVuWByuImhBriOhppPV1PnlhBGoskJbMzIHhASGQn8VVK4/mcbvWQwhACAADbsDArvU8ZPlRLEXDwn09ia+vJCKJeXjAArBAmAWOJ6K/J9ExdwcIqSkw6tp5IAA3EADG4Fkcj7nxNM4b0W+3Xyc5tkhCtBPD4h1ewgKwQCcLjCaiN5PsqF8HDJ8vuGXYuHmpZwMotrDN2cLGXMQ+F42blgYv8CW/zxTyf6e9SFpDp1iHf2EBWCCCBSRfwCNGiAAiTslIC2YHa30cuQNAQrGTEGxlv60k2+eABZM5JTvdFOKXfvyYiHpEiHN4CxaABbqwQEr7bYLLk36rYFi2woy+PXj4etwtAGKzn9hg8+5tPmzdcZzRu9Ak4v9Xxy1+/i5iHN6GBWCBbixQT0SvmbIbIP0oGDOAa285A6cFcG4dGDAAA5Leu3DsYJOIX/oipzGlBgoesAAsYNECOUQkNbGNcXJJINJ7ylhufGAJSMAAEsAKufsVstts1Hj/kuB5fgOS+XSOSzcQUbbFmIefwwKwQCcLHElEnxglBAIpwSAkFx25LcBiPN4jVSfMedNDK4JZ/Pzpgc7Em+z//0JEx3aKWfgXFoAFFFqglIi2mSQCpC9yoaCUHG7cvAxCADsCwIAGDDRtXRG8GNewC/xComMHEUlSMzxgAVhAswV8RLSQiOQim/9v79xj5KrqOP7dd3fX3WWh2+5W2u5225SyW5Dd7pZulwot0AfvhwXEAltCrQVblIK1Ai2lxgYtBCUmxsgrDYHyaKvhUYikNf4hURIlMSYq8fFHxQda/EOjosf7PT1Tl3GmM3tnduecO9+bNLOduffOuZ855/f7nXN+j9QA9OK1qr7Wzk4WvXSPlMA4KIEQZqhqY3FXTlirg9X6qhsneTHG02QO65lsByBHv3EW+rq9CKQT6AXwVtqA9EJIVDXUHTMEXpYhIIVYXIVYLjyHDm47pvib6r0Y0xnkzM8A9KULJf1fBERg4gg0AHgIwPsZBmjJBUfNSY2ma8MKQ2FWLoJbzymFX0gfsDP+9csN03L7OKadrNkNgLJHhwiIgAcEzgLwpqcCwyYmoY/A4HN3yRDQ1oD6QIY+QP+ZGSNLTXWztzN+GiRccRz0QN6pCSIgAmkEql3iDebc9nL2UFFTZdML9z2+UUoggxIoZOaoa8Nceeh77NM2kqayttrLMetkCWUK9/pVxCdN6Oq/IuAbgdkAXvfVCEi1i0VKer60RpUHZQiUpTF45iPrzMlDpxlUeJOvP5sBwtK983wTcmqPCIhAdgKMFLgBwLsphevra+PsDjN369Vm+PUdZakINHMPc+Ye53djH59333Wmad6p2ZStT+8fddFG8vDPLmf1iQh4TeBUAAd8Vf6j21U3pcV0fvJCo+qD5aMQ4yjREK9hn+5cd6Gpa2vxScGfqC37AEzzWrKpcSIgAnkTWA3gndEK19e/K6qrzOQlPab3gRvNOYd2alVAWwRB9oHhQ/ebngduMKcsOd2wT/s63tLadQTAVXlLFZ0oAiIQDIEWALt8TCCUJoSOC8vatmabT2Bg7+YglUCIs1W1ubAVGNbHYOKeSe1eVeY7PqayjDUm9HkYQHMw0kwNFQERiEVgLoBXsgiCXIKiNJ9XVpiTFnTb/VP5ChSmoKTgi8+Ps/35D641k8/rNRVVlaUZI/Ejf74DoDuWJNFFIiACwRLgtsBvgzIEAFN7SpOZvuZc07/ndq0KaHugpH2g/8lNZvr1HzW1JzeFpvTZXsb0LwtWeqnhIiACBRNgNq/PAXgvNEOA7W3onGKTpyzY85mSKgLNqos/q/aVKbejZm28yDCMNcQx4yKDWEuEeUN0iIAIiAA6AHzD15TC+Qja48bAU5+VMaCVgaL2gcFn7/yf0vc/bj+bYfIvN8YnS96JgAiIQCYCTPjxYj4K1+dzUsbAwNN3FFUR+DorVbuKvwIx+PxdSVD6KWPgNQAsHqZDBERABHISWO5zbYG8jY/KCtN8xkzT9akVRumHi68kk2Z4MC1v1/rlx5b3w53pp5Q+X38I4IKco10niIAIiEAaAWYTvMTXksN5GwGjvKNrWj9kaxEwG9uil1SqOGkKfKzPM/TqNpuOuv3SAcNEVHH6lKfXsFTvxwBwDOsQAREQgdgE6Cx0c4gRAycSzkzO0vKRLhuz3ffobdoqKAe/gcM7Td+3brNZ+VrO7AwxZC+XkfJrACMAqmKPdl0oAiIgAhkI1AHYkDRDIGUkMOlQ+0ULzNx7Vxs6fY11Nqnz/dxiGNx7p5l7z2ozdVW/DSFN/d4Je/1NlOlzvar1ZZBaeksERKCoBFgSlIWGfpkwIfqB2RXzDbBaG7O6sXLb8HdVrMh3I4cJefqf2GTmbL7cbvVM6ggqG98H+l+eY4uKnyF9k4o6wnUzERABEchBgIYAZx2/ylNYxRFw3lxT1VBnWhfMNjNHltmsb0MHt2mVoMTbBkOv3Gt6HxyxuSCYKbKqvtab/jLOY+JtALdoxp9DQuljERCBcSdAH4FPJMlZMB/hzZSvjXM6zNSVfWbWrausUXD2ga0yCsbJKFi4//NW2XfdutJMXdFn2VdUBpd2t1AD5Q3n3Kc9/nEXa/oCERCBsRIYBsDc4oUKumCvr26qt2Fk065eZJeiuX2w+NXtMgzyNAxY64HL+IzUmDGy1G7DcDumjPvUv92YOn+sg1Hni4AIiEApCAxFiUeeCzmzYDEVDlcLGma22TLHH75msem+/RLTs2uNVXTlaBww/I5Kngy6N11syIRlcxtmtCXRMz+u8fJ3l7mPxbt0iIAIiEBwBDoB7AZwtJgKNWn3Yn6CptOnm7ZlZ9jiMnRi6919k1WSdlvh8M5wVhAO7zRsMxU8n2H25svsM7UtnW+fsaa1Ma5CLJfr/ghgB4ApwY12NVgEREAEMhBoArARwC+Sprwn4nm4gsBl8MbudtM6MMcaCh2XDVrFyigFGgxcMu/9yk1m/kNrzVnf3GCY1Y6pkBfu32IWvXj38X+LX/v/7Qi+N/qchfu22Gt5D96L9+z98o3mtPuutd/F72QVPLaBRgvbxLaxKl4Z7ssXyzD5uQuzZYEuHSIgAiKQOAKVALiXuRcAi5MUS3jqPmIZYh/g/j7z9DNrnxz7Eifu9EAiIALZCLACIUsRM5Y5ROGtNut3i9sHjkSx+7sAzMw2OPS+CIiACJQDAYYRXg7g21oVkCGUYGPwnwD2A7gUAPu8DhEQAREQgVEE2l1msx8nWBHEnTXqujBXHFiYhytdU0f1c/0pAiIgAiJwAgJnR57QXwdAr2gpPzEIqQ/8AcAjABaeoH/rIxEQAREQgRwE6BxFx8EnAfxVxoCMIU/7wN+ccytLaNfk6NP6WAREQAREYIwEGgF83O2lMlFKSLNCtTV5vxeV/j4A1wFQ+N4YB7NOFwEREIG4BOoBcLallYHkKVafjSUqfaa7ZkXM5ridV9eJgAiIgAgUhwCNgSsAPB4lU+H+q88KRG0L7/f5fRSy95iLVmFf0yECIiACIuAhASYb6o/atR3AjwD8RwaBDKIYfeCnLlaf/icK2/NwoKtJIiACIpCLwAwA61xxoj/HUASasYc3Y4/zm73rnPhuATA9V6fS5yIgAiIgAmERYEQBQ7PuBnAYAJOzxFEWuiZ8bv8AcChKPvUFAANKxRvWQFZrRUAERKBQAvTcHnaJWpiTnQ5eUu7JZEBjj1tCTMFL51E58BU6enS9CIiACCSIQB2Ac6KVga0uNTGdv2QQhMngHQAHAGxxRl5tgvqpHkUEREAERGACCHRHZYyvB/BVAG9EqwXKP+CfQcCVmx8AeNjlieiagH6hrxABERABESgzAvQI73ElXBlpwJhwhR5OnFHwXpQZ8vtO2TMWnxEfXLnRIQIiIAIiIAIlIdDqlpoZccCZKH0KZBjENwyo6Llnz0RPLKbDfftZACpK8uvqS0VABERABERgjASmAVgCYG2UI/6LAJ6JlNmbAI7KvwB/cUr+acdmxPlgdIyRsU4XAREQAREQgaAI0BOd2wmrXK6C+wE8AeAggLcA/C4KWXw/QEOBbT4SZWf8iXsWPtMO94wr3TM3BfVLqbEiIAIiIAIiMMEEuOTNWvK9Ue6C8yLD4EoANwO4I4pdp8HAsrN7ALzgth2+52bVrEP/NoA/AWACpNS/TKGOfC/1OV95Da/lPbgMz3tyS+N5911fc9/NNnBlg21i22jMTNEy/QT3EH2dCMQg8F/+QACUC0ZxvAAAAABJRU5ErkJggg==;" parent="1" vertex="1">
          <mxGeometry x="200" y="40" width="100" height="100" as="geometry" />
        </mxCell>
        <mxCell id="O1HXZXeSlepEHYtIHovu-3" value="End" style="shape=image;verticalLabelPosition=bottom;labelBackgroundColor=default;verticalAlign=top;aspect=fixed;imageAspect=0;image=data:image/png,iVBORw0KGgoAAAANSUhEUgAAAgAAAAIACAYAAAD0eNT6AAAAAXNSR0IArs4c6QAAIABJREFUeAHtnQeYLUWZv7/JOc+duRPu5BzOXAQlSTAgBjCju+oKi65hFVFBdFkDuCtiXMyCriiIGVTABJIURQQRBBSUJPECF9hVQQxQ//lmz/AfhjMzfU5XdXd1v+d55pl0TnfXr7/6fm9VVxDhhQIogAIogAIogAIogAIogAIogAIogAIogAIogAIogAIogAIogAIogAIogAIogAIogAIogAIogAIogAIogAIogAIogAIogAIogAIogAIogAIogAIogAIogAIogAIogAIogAIogAIogAIogAIogAIogAIogAIogAIogAIogAIogAIogAIogAKZV6BdRKZEZA8Reb6I/IuIHC4i/ykiHxORk0Tk2yJydv7rEhG5VEQuE5Hr81+3iMi9+a8HRcTkv/684u83r3i/flaP8fMVx/2WiHxBRD4qIu8WkcNE5JUi8jwReaKITIpIa+bvFgKgAAqgAAqgQAAFOhbNewcRea6IHLpooMeJyDdF5BeLRn+biPx1hVkvm3bSv/9lEQxuFREFkVNF5MOLkPGGRSB59mLZFoCEAFHBW1AABVAABbxXoDLfMn6hiLxFRD4uImeIyFWLLeg/emjutuDjfxZ7Dq4QkdPzPQram6A9CWOLvQvl3t91CoACKIACKJApBXpF5Kn5lvzxiz9fuGj692fY5EuFBe1BuFpEvrYYPUct9obsv/iYY0REyjIVTRQWBVAABVAgcQrULj4X311EXicin84bvbZoSzU8PhdMOx3DcIGIfFJEXiMiu4hIdeKigwtCARRAARRIjQLastdW6LF5s9eBc5h2MjT4W36w4kdE5OUiMpSaqKMgKIACKIACkSqgz+xnReRV+dH1N2D23sHO7flxFm/Nz06oiTSCOBkKoAAKoIAXClSJyJ75KXU/EZGVU+Ro5SejlR/2PjwgIj9aBLl3iciuIlLhRWRykSiAAiiAAtYV0AFl2sLXQWb30cL3roUfFgh09oXOxNAYGLQeXRwQBVAABVAgMQrU50fn6zN8XdwmrIHw+XRpqIsl6ayNAxbXLGhOTNRyISiAAiiAAiUpoPPJ9Rnw+Z4upgNkxAMZ+ghIV1R8M70DJdU7PoQCKIACsSgwnJ+Dr/PvH6alT0+HhRjQ9Qh0LYKJWCKak6IACqAACqypwErTp9UcT6s5K7ovw4DuecALBVAABVAgBgV0mp5272tLPyvmQzmTda+XYUA3aeKFAiiAAijgUIHNInJEfolYzDBZZpj1+3G5iLxxcZ+HTofxz6FRAAVQIFMK6KYwura+TtfzcVe8rBtj1sqvexjo9EKdTaALSvFCARRAARQoUgEdcKUDr35PFz+PODyNAd3KWaedjhYZ+7wdBVAABTKngG6woy0nnYLFCH66+NPSe6CxrGNVdNGhhszVagqMAiiAAusokBORE0Tkfz1t6aXFqCiHe+jS3Qw/LiLT69QH/oUCKIACqVZA93XXZ/v6vJTWvnvjwdyTpbHGvPZ06Q6TWhd4oQAKoEDqFdAleXUf92to7Rf3bL+mrMz0VFWZ2dpa88TGRvPc1lbzis5Oc3h3tzmmr898amDAfHVkxJw2MmLOGBsz505MLH1dPDVlfjE9vfR1/dyc0a9b5ufNPQsLS183z88v/U3/vvy+n01NPfL500dHl475leHhpXO8p7fXHNbdbQ7u6DDPbmkxuzc2mpnaWrO5qsroNXJfi7uvIvIrETlYRNixMPXpjwKiQDYV6BWR94jIdgzisQZRXVZmhmtqzF5NTeblHR3m7T095viBAfP9sTFzxfT0owx72biT+l2B4vLpafPdsbElYDhy82bzsvZ2s0djoxmqrjZVQMJakLRtsTfsnSLSlc0UQalRAAXSpsAOInKSiOj0qLUSXyb+riY/X1dnXtTWZt62ebP55MCAOXNszPxqZsbcnW+NJ9XUbV7XXbncEiBoz8IntmwxR3R3mxe0ti71IgAHS3XkzyLyGRHRxa54oQAKoIB3CjxZRM7Nqun3VlWZfZqbzaFdXeaEwUFz4eSk2ZbLPdLtbtNQ03SsO3I5c8HExFLPwSFdXebJTU2mu6oqE4BYoK7oOIHvL44V2N272s8FowAKZFKBvUXkggLJLLVJfKymxrykvd0c29dntFWrz9LTZMpJKMtvZ2fNt0ZHjY4/eHFb29LjkizFmIj8YPFr10xmFAqNAiiQeAW0laKjmlNr9Fq2yrIys1BXZ17V2Wk+Nzhorp2dxexjenxxzeysOWV4eKmXZeeGhqwMQNT1BPZKfDbgAlEABTKhwG75qXypNP6mioqlgXn6nFpH19+2YvR8ElrGXMP/zWRQHfQRi8580BkRz2ltNe0VFamMyTxkK2w/IRMZhkKiAAokToFUtvh1oJ6OVj+qp2fpuT0G+/8N1jctdGDleRMT5h09PWbXhoal3psU9lDpOho7JS47cEEogAKpVGDn/PPI1LSutlRXm4M6OszJQ0NGp7D5ZnRcbzBIuWFuzpw4NLQ0JVHXLEgRDOhgwdNFZCGVGYdCoQAKxK5An4gcLyIP+Z449Tm+PjN+Z0/PUpfx9pieYWPcwYzblU666JE+LtC1F7Tnx/e4ztdNnXLbE3u24AJQAAVSoUCjiPyHiDzgc4KsLS83+7W0mM8ODtLKB3ge08tz49zc0tTDpzc3p2Ew4R8Xt84+UkTqUpGBKAQKoEDkCuj65Lozn7fb8eqytPs2Ny8tuHMTU/MeY3quWta+H1cfFegiTRo7nvcM3CIiL2evgchzJydEAa8V2EVELvKxxV+R797Xrl2dO+67GXH98T4m0DUdlmHA41UKf85iQl7nYy4eBSJRYFRETvXN+MtElkbuf2TLFnMdLX2gx9EjDl3z4YP9/WaXhgYfxwvoQMFTRGRLJJmEk6AACnijgD7n/4Bv6/V3VVaaN3Z1mUunpzE9R6ZHD0ThHgjdLfFfN20yHZWVvsGAjuV5N+MDvMnNXCgKOFXgmSJyky+t/nKRpVHbugofa+sXNidMOzpddO8CjUWdSaA9Ub7UIxG5XkT2cZpZODgKoEBiFejO79LnRdLSDWF0Y53LaO3T25HQ3o4rZ2aWppb2V1d7UafysPI1EelMbJbiwlAABawqoKP7Xyki9ya9taKtfR2J/aXhYaNbyNKyja5li9ala609UycNDS3tZOhJr8CdIvJSq1mGg6EACiROAR3kl/gNe3T63ova2sxPJycx/YS2dgGEYIBwydTU0sZRug5F0oF7cZOh80RkInFZiwtCARQIpUCViLx18evPSU5CnZWVS938V8/MYPwYf6piQGcQ6IZSHmxQpIMEjxIRzRm8UAAFPFdAd+u7KsnGP1xdvbQk662sw58q06OX4LG9BLfMz5sP9/ebsZqapPcIXM5ug55nfi4/0woowSvJ/z2p5r9QV7e0yArP9x9rFJhnujXRnQpPGR42T0j2mgJ/E5Fj6Q3ItI9QeA8VmBGRXybV+J/U1GR+MD5Oa5dufmJgYcGcPjpqdl/cgjqp9TW/KuiYh3mQS0aBTCmgI/xfJSJ/SmIy0R34vj06StLH+ImBAjHwnbGxJIOAjg04NFPZlMKigEcKdInIGUk0/p3q65e6O+nWTne3NvfXzv09bWTEbK2vT2qPwGmsG+CRK3CpmVDgGSJyR9LMf6a2dmmVtO0FWjuYhR2zQMf06qggkKurSyIIbBORZ2Uis1JIFEiwArrf90eSZvyTGD9d3ECflRhQeNbBgrO1tUkDAd1c6HgRqU9wfuTSUCC1Cuy8uHrX75Jk/j1VVeZTAwNGRzjTMkUDYsBeDOhMmeO2bDGbkrf5kE4xXkhtlqVgKJBABXSg31+SYv7VZWVLq539nnn8gA/w5zQGdB0BXVBIV8tMSv0XkQfzg48TmCq5JBRIjwLa5X9igir+0lr9bNBjr6VHqxktg8TApVNT5jmtrUmCAL2Wk9hmOD1mQ0mSpcC4iPwqKeavg5POGBtz2toJkgh5D4aZ5Rj41uho0sYHXCYiw8lKnVwNCvitwH6Lc3DvS4L561rmx/T1sTsfXd3AX0Ji4M5cbml5Yd1LIwk5QkS2Ly4etK/fKZerR4H4FagQkWNEREfcxlq5K8vKzOs3bTI3zc2R+BOS+LPc8qXsj+35uW5uzryis9PoNtpx54v8EuRHioguTsYLBVCgSAU6ROQHCajIZq6uzpzD0r2AD+DjRQycNzGRpPUDzlycqtxWZO7j7SiQaQUeJyI3xm3+uoe5jjjelst5kfhoFT62VYgm2dRE6+w7e3qSMltApyvnMp3RKTwKBFTgoPy0mli78fZobDQ60hgDyaaBcN/Tcd9/OjmZlB0HdX+SAwLmQN6GAplTQJ+V6fa9sRp/c36QH4v5pMMAMHLuo64m+OH+ftNUURFrbsmPZdIcxwsFUGCFAjUicnLc5r9vc7O5cmaGVj/PuomBFMbAr2dmzH4tLXFDgJ7/v0WkakX+40cUyKwCOtjvR3Gav04fOmloiKSfwqRPDwA9AKtj4ITBQdMaf2/A90WkObNZn4KjwOLKWSMi8ps4zX+vpiZzNa1+4Af4yVQM/GZ21jylqSnu3oArRWQAJ0CBLCqwi4jcGZf561riOkqYZ/20EFe3EPk9GzGhYwN0US/dyyOuPLS4h8DtIrJjFg2AMmdXgReIyANxVTrdrvf8iYlMtXgwtWyYGve5+Pt87sSEGaupiRMCdIbA/tm1A0qeJQUOFZGH4jD/MhFzYEeHuZVd+4AfuvyJgRUxcNv8/NKOnnHkpfw5/y4ih2TJCChrthTQZX0/HVcF66qsNF8bGSHprUh6tBaLby2iWbo1O3loyHTEu6fAB1g+OFvGmIXSVovIV+My/6c1N5trZ2cxf8yfGCAGNowBHRS8Z2NjnI8EdJqgNph4oYD3CtSLyPfiMH/t8j+0q4uBfiT9DZM+Lft0t+yLvb86QFAHCce4sdC3RaTW++xPATKtQKuIXBiH+bdVVJiv0+WP8QE/xECIGPjS8LBpiW/NgPNEpCnTDkLhvVWgW0SuiMP8c3V15rLpaRJfiMRXbIuJ99OCTmsMXDw1ZXTmUBy5TER+xm6C3npgZi9czV8XuYi80hzQ1sYof4wf+CMGrMbAzfPz5rmtrZHns3wO/aWIdGbWTSi4VwpsXtz16uqozb8yv7BPWlshlIsWNjEQfwzopkJV8Swc9GsR6fHKCbjYzCmgy1rq3teRkvLmqirzvbExq8RPso0/2XIPuAdJjIEzxsaMTiuOOs/ll03vzZyrUGAvFBgWkRujrhSPb2gwuq53EhMF14SBEQPpjAHdNVTHGkWd70TkWhHp88IRuMjMKKABeX3UlUG39mRVv3QmWIyT+5r0GLhlft48vbk5Dgj47eKiavqolRcKxK7Apjie+b+qs5P5/Qz0oueHGIg1Bu7K5cy/dHbGAQG/EpH22LM/F5BpBVoWN7H4RZQt/4qyMvP+vr5YK33SWyZcH61nYiDaGNBdBWNYNEinCLJOQKYtOL7CN4jIj6M0//rycqMLc5Dcok1u6I3exMDGMXDS0JCpKy+PujdAF1rTXMwLBSJToE5EdJWqyIK9u6rK6LadJKKNExEaoRExEE8MnD0+bjZFP0PgLBGpiSz7c6JMK6Ab+5wZpflP19aaK1jZD/jheTcx4EEM6CqkE9GvHPhNEanMtDNReOcKaICdFqX579HYaG6amyPxeZD4aHXG0+pE9+Tpft3cnNmloSGyHtJ8Tj5ZRMqduwAnyKQCGlhfjNL892luNrfNz2P+mD8xQAx4FwM6RflJTU1RQ8DnRKQskw5FoZ0qcHyU5v+c1lazLZfzrtLTGktea4x7wj2JKwZuz+XiWCvgA06dgINnToF/j9L8X9jWZu7E/IEfWr3EQApiQNcKeHFbW9Q9AYdkzqUosBMFDhCRh6MCgIM6OljgJwVJL64WF+eltZ/EGFAIeFl7e5QQ8JCIPMeJI3DQzCjwRBH5c1Tmf0hXl9mO+dHqIwaIgRTGgOa212zaFCUE3C8iT8iMW1FQqwqMiMidUZn/oV1dJL0UJr0ktsa4JnoJ4oyBI7q7o4SA20VEd2nlhQKBFejI7zrlPFDLRMzRvb2YP+ZPDBADmYmBd/b0OM+tKxpvV4lIa+DszxszrYAu9HPuiuBxGqhaEeKkcc5Na5AYIAbiiIEjN292mltX5fDvs1BQpn09UOF1/qguJhFJYL5182bMn1YfMUAMZDYG3tjVFUmuzef0zwZyAd6UWQXeE5X562CYOKibc9LaIwaIgSTFwOuiHRh4RGbdjYKvq8A/R2X+r+jsZLQ/rT4AkBggBhYWlnLhS6ObIqjTA3VqNy8UeESBXUXkwSgAQBfEuJvER+IjBogBYuCRGNCc+ILW1qgeBzwgIjs+kv35IdMKbBaRW6Mw//1aWljhj6T3SNJLUjcs18JjgbhjQBcL0iXQo8jFInKTiGzKtPNReKkSkR9HEXBPbmoyui523JWM85PoiQFiIKkxcEcuZ54a3QZCP2RmQLYp4DNRmP+ejY2YPy1/4I8YIAYCxIDuIhjhVsIfzLYFZrf0r47C/Gdqa81Nc3NU/AAVP6mtEq6LFjMxEG0MXDc3Z8ZraqJ6HPCP2bXBbJZ8QUR0IIjTAOuuqjJXTE9j/pg/MUAMEANFxsBl09NmU2Wl0xyd94A/ichMNq0we6XWJSGvd23+deXl5uzxcSp9kZWella0LS30Ru8kx8A54+Omvrw8Cgi4RkSasmeH2SqxrvR3qmvzrygrM18cGsL8MX9igBggBkLGwJeGh43mVNd5W0S+lC07zF5pD48giMz7+vqo9CErfZJbJVwbrWZiINoY+I/e3igAQM/xL9mzxWyUeBcR+atrAHg9S/wCP8APMUAMWI8BXUHVdf4WkT8v9hLPZ8MSs1PKhii2992/pYVV/kh81hMfrc1oW5vonUy9daGgZ7S0RAEBV4tIXXbsMf0l1V2gnAbOTvX15rb5eZI/AEAMEAPEgKMYuGV+3izU1TnN5Xmv+HD6bTEbJXyua/Pvqqw0V8/MUOkdVXpaZMlskXFfuC9xxMCvZ2aMTrF2nNcfFpFnZMMi01vKLhG502WgVJWVmTPHxjB/zJ8YIAaIgYhi4LtjY0Zzr8vcvjgg8DYR6UivPaa7ZDrl7zuOA8S8nxH/JL2Ikl4crS3OSSs/qTHw7mhmBpyWbptMb+ne4Nr8D2hrw/wwP2KAGCAGYoqB50Wze+BB6bXJdJZMl3V0utTvXF2d0U0rkkrHXBctN2KAGEh7DOigwOnaWtePAnSp4PF0WmX6SlUjIr902fpvragwv2CNf+AnplZP2pM65QNciomBS6amTHNFhWsI+LnI0vbx6XPMlJXo/S7Nv1zEfHVkBPPD/IgBYoAYSEgMnDI8bMocT/UWkXemzCtTV5zdROQhlwBw5ObNVPqEVPpiWgm8l1YlMZDuGHhzd7frXoC/icjW1LlmSgpULSJXuTT/fZubzXbMDwAiBogBYiBxMaArBe7V1OQaAi4RkYqUeGaqiqHdM85ufmdlpblmdjZxQU+rJt2tGu4v95cYCB4DuiBbR2WlMx/Ie8ybUuWcKSjMRH4TByc3Xp8tfXl4GPOn1UMMEAPEQMJj4OShISc+sKKBeb+IDKfAN1NRBF3w55wVN8f6zX91ZyeVPuGVnlZS8FYSWqFV2mPg5R0d1n1glcd8NxXumYJC6P7Nzm72ZG0tm/xg/gAgMUAMeBQDukbLeE2NM1/Ie86LU+CfXhdhs4jc6woAasrKzAUTE1R8jyp+2ls2lI/WOzEQLAbOm5gw1W73C9gmIm1eO6jnF/9VV+avxz2Gdf6BH+CHGCAGvI2Bd/T0uO4F+IznHurt5etWjc5u7t5NTUz5I/F5m/hoJQZrJaJTunW6e2HB7NHY6MwnFhcH0m2Dn+yti3p64Q0icoMrANBpJLrnNMkh3cmB+8v9JQbSHwNXzcyYNrdLBV8rIrWeeqmXl/0BV+avx/3C0BDmT+ufGCAGiIGUxMAJg4MuewH02CwTHBFKjIjIg64AYP+WFip9Sio9rbv0t+64x9zjoDHw9OZmlxCgu88OROSBmT7NN12Zv+4opd1FQQOK95F8iAFigBjwIwaumJ42jeXlLiHgC5l25ggKv7cr89fjHrdlC+ZP658YIAaIgZTGwLF9fS4BQAcEPj4CH8zkKcpF5FJXALB7YyOj/lNa6Wmh+dFC4z5xn1zHgM4K2KWhwSUE/FREdHVaXpYVONiV+euCPz+bmoL6AQBigBggBlIeAxdPTRnN+a78REQOsOx9mT9co4jc7uqGvaunh0qf8krvumXB8Wm9EgP+xMAR3d0uAUCnqDMt0CK2/Kcr85+rqzPbcjkAAAAgBogBYiAjMXBHLmemamtdQsBbLfpfpg/VLyK6/aL1m1VZVmbOZa1/kl5Gkh4tVH9aqNwr9/fqrPFxU+HuUcAfRKQn085tqfCnuDB/PebrNm3C/DA/YoAYIAYyGgOv6Oy03rBc4VcnWPLAzB7mCfm1lq3fpE2VlebGuTkqfkYrPi0s9y0sNEbjpMfA72ZnXS4T/HcRmc+se1so+FkraMoqBHyEOf/AD/BDDBADmY8Bx2sDnGbBBzN5iN1cmf98XZ25i4F/ma/4SW+dcH20oIkB9zFwZy5nZtwNCNTFgXbKpIOHLPQPXQHA6aOjmB8tH2KAGCAGiIGlGPjm6KjVHuZV3vWtkF6YuY/vvkpAazfnua2tVHoqPTFADBADxMCjYsDxZkEsEVwExpzrAgB09adfTk8/6qbTxea+iw2N0ZgYIAaSHgOXTk+7XCHw9CL8L9Nvddb6P6y7G/OH+okBYoAYIAYKxsDrN22y1ttcoBFLL0AAtDmvgHChb0pPVZW5eX6+4E1POplyfbSeiAFigBhwHwO/n583XZWVof1mDQ87I4D/Zfotzrb7/eTAAOYP9RMDxAAxQAysGwP/1d/vCgD0uLq2Da81FDh/DXIKdUN0zWfdBhKCRgNigBggBoiB9WJAp4iP19SE8px1fOw7a3hf5v/85HVEC3UzThoawvwBIGKAGCAGiIFAMXDC4GAoz9nAy3bOvNsXEMDJs/9cXZ3ZTtAHCvr1qJj/0WoiBoiBrMSA9hhPu1sc6MwC/pfpPz1uA2Iqmca+MjyM+QFAxAAxQAwQA0XFwBeGhkr2nQ38TFcHnM60468q/MkbCFbSjdihvp7WP5W+qEqflRYO5aQ1TwysHwPac6we4sKbROTTqzwws7/2ishfXIh82sgIyR8AIAaIAWKAGCgpBr40POwKAB4Qkc7Muv6Kgh/jwvx3aWgo6YZDxetTMfqgDzFADGQpBnZy1wvw7yt8MJM/1ovIdhcAcMbYGADgGfXfNj9vvj4yYnQe7jt7evhCg9TEgMb0N0ZGzO3sQupdXj51ZMRVL8DtIlKdSefPF/o1Lsx/76Ym74IsS0S9uqyXTE2ZF7a1mbryclcVjeOKoEECNKgvLzf/0N7OniSeNU52a2hwVX9enlUAKBOR37gAgO/T+vcGgLSlX1VW5qpycdwEmJ6LOu77MXVjsvf29XlTT1dDe9Z+1y3kHcXcL7MKAM90IeiuPPv3IqnoCNuXtbe7qlQcF+P3IgZe3dnpRX3NmuEXKu/j3I0F0EXwMvc62wUAfJFV/7xIKG/v6fEiQbuIUY7J44iVMXAsPQFe5KzPuVsdMHObBM2JiC6GYNUERmtqWPPfg2drF09NmUq6/a3Gvu26xPHs5qb19NTHAZdPT3thgoVaxln5m+4RMFxd7aLeZm5hoOPXqxCl/u+D/f1UIg8A4LmtrS4qEce0DNSl1kM+Vzw86OOwrBipz+XU3hpH8f3RrDwDaBCR/7UtYmdlpdFpZD4HVxau/eb5eaMtHtv3n+MVbzpolhzNmisqzB1MEUx8/r51ft60V1S4yF/3iEhtFiDgQBeJ54ju7sQHTxYMfqMynuJuZS0XlZJj0qsQWQzoSPON6g//j38Rpjd1dbmKiRdnAQB+ZBsAtEV5zewslceD7n+HXWiuKiXHBQIiiYGPb9lCDvMgh6nXOOrF/EHaAWDCxeC/Azs6qDgeVBxtvRze3R1JMrUNmRwvOd3lab0X7+rpIY95ksde6mYK80MiMphmCDjWduUtEzEXTU5ScTypOA67zwALWupex4BOjaWLP/4u/iD34GdTU6bcTX17V1oBoFJEdO1jq5V03+ZmKo0n5q8VCwCwG/+26xPHi+/+AAB+mP8yIDylqcmql+Xr3k0iUp5GCHi2i+Si2zUu3xC+J78CAQDxGYyL+scx7d1PACD5+Wulx5w0NOQCAPSYT00jAHzLdrLoraoyujjDypvCz8muRACAPcOwXZ84Xrz3BgBIdu5a7S135nJmc1WVCwj4ctoAoFtE/mo7wbyFqX/ewQ8AEK/J2K6DHM/e/QQA/AIABYI3upkS+BcR6UwTBBxhO1HoAAyWz/SvwgAA9gzDdp3iePHeGwDAv3z2i+lpV4MBX58mALjadnLRARiru2T4PfkVCACI12Rs10OOZ+9+AgDJz1+FPGbPxkYXjwEuSQsAzLpIEjoAo9DN4G/JrkQAgD3DcFGvOGZ89wcASHbuWstbPutul8DRNEDAUbaTyqbKSrONwX9eAhAAEJ/B2K6HHM/uvQQA/AQA3cNB96JxUB/00bn3r1/ZFkYHXqxFY/w92ZXINgDsvPMu5tA3vokvNIg8BjT2bOY2ACDZuWs9b/nXTZusxkI+rn7uu/tP2qwgeixd+e/SqSkAwKPFf1ZWHNsA8JYj3mbuue+PfKFB5DGgsWczvwEA/gLAxVNTS95kMx7yxxrxGQL+3bYgezQ2Yv6emr+CAAAArKQF2AAAfw17ZaPE1s+7NDRYBcK8dx7mMwBcbhsAPsqOWV4DEAAAAAAAhccO0APgN1B8oL/fBQBc5CsAjNs2/6qyMnPd3JzXBmiLNn09DgAAAAAAAICv+Wu96752dtZUlpVNP+YbAAAgAElEQVTZhoCHfd0h8EjbAPA0Nv7xHn4AAAAAAAAA1jNSn/+3l5sNgt7kYy/AL2wDwCcHBrw3QJ+D28a1AwAAAAAAANjIJUk8xnFbttjuAdDj/cQ3ABgWEe26sCZGTVmZuZHuf+8BCAAAAACAwnmRMQB+jwFQILl+bs5Uu3kMsMUnCDjcpvnrsZ5O97/35q8VBAAAAAAAACCJrXdb1/RUN48BDvEJAM61DQDH0/0PABToUWIdAIAiLqBgGqD/LXZbpr/yOJ9w8xjgu74AQIOIPGgTALT7/ya6/wEAACDyxW7iMlcfzgsAAAArjX/5Z/Uq9SybHigi94tIjQ8QsJ/lgpv9W1pSYX7LAZLl7zwCoMXug7kHuUYAAABYK5frI2vbPigiT/EBAD5qu+D/PTgIAHi8+t/KSgIAAABBzNWH9wAAAMDK3Lby508PDLgAgPf7AADX2AQA7Uq5eX4eAAAAClYoTcI+mAXXmD7wAQAAgJWmv/JnfQygC9fZ9EIRuSLpADBkucBGF1ZYKSw/+13p6AFInxFmFW4AAL9zkWsv2b2x0TYA6NT6niRDwKttA8B/9PYCAClp/WuFAwAAgLQAAwAAAKwHEe/s6bENAHq8lycZAE61DQAXTU4CAADAmhWJRwAARVxAAQAAAOsBwAUTE2vmrRA+eUpSAaBCRO4NUbDHiNVXVYX5p8j86QHArOMyaxfnBQAAgPUAYPvCgumpqnqMr4X0yLtFpDyJELB7yII9Rqh/7ugAAACAx8TFyjijBwCocGHuQY4JAAAA6wGA/u+l7e3r5q+VuayInx+XRAA4uogCBBLllOFhAAAAWDdWAAAAIIhZu3gPAAAAbAQAJw4NrZu/SvTMf0siAPyoxMIUFEg3VPg90/9SB0AMAsSwXZhxHMcEAACAjQBAN7CrtD8d8OykAUCViDxgEwD2bGxMnfltFCxZ+D8AAADEYdYuzgkAAABBcvauDQ0FG7kh/PIPIqJj7hLzekKIwhQU52im/6USgAAAAMCFGcdxTAAAAAgCALrNs21/FJGFxLj/4uj/N9gu4IVM/wMACmz+szrONAnHkfw5JyADAAAAQQDgPDfTAV+TJAD4yurEHOb3jspKo1MogojLe/zSiR4AjDMt8AQA+JV74vIK9bK2igrbvQBfSBIA3BzG8Fd/9pns/pda+AEAAAAAQAqagXYVx2VSnNctzOxjf3fA3yUFAHpXG3jY33n+7zYY46zsAAAAAAAAAHHmoDjO7WgcQHcSIOCFYQ1/9ee/PzYGCaf0EQgAAAAAAABAHCYc5znPGBsr2Ouz2vuK/P3ZSQCADxV50esKodv/3p7LAQAAwLpxshxzDAIEKOICCsYApLen0jYs3DY/b3Rtm+W8Zen7e5MAAD+1VJglcXZpaMD8U2r+WqnoAcCw4zJs2+cFAACAYkBhp/p62wBwftwAUCMiD9oEgEO7ugAAACBwRaEHAKCwbexBjwcAAADFAMDrNm0KnNcCeqouvqeL8MX22iXghQYuOOv/p7tS0QOAYQc12KS/DwBId64qxtyDvPckN/sC7BSb+4vIa20CQJmIuXZ2lh4AegACAyM9AABFXKAAAAAAQYx/+T3qbepxNj1TRF4ZJwB8wmZhxmtqMP8Um79WBHoAMOy4DNv2eQEAAGDZ3IN+H6mpsQ0Ax8UJABfYBADdOzmokLzPz8oHAAAAto04ruMBAH7moDi94x/b220DwA/jBIDtNgHgfX19AAA9AEVVEB4BABQAAEYcp6kXc+5j+vqKym8B/HVbXADQF+DiiiqsLpZQjJi817+KTw8Ahh2XYds+Lz0A/uWfuD3j26OjRXliQI/dFAcE7Bvw4gIX+Pq5OQCAHoDA8aLxRw8AQGHb2IMeDwAAAIoFiuvm5orKbwE99klxAMBhAS8uUIH7q6sx/5Sbv1YWegAw7KAGm/T3AQAAQLEAoO/fXFUVyBOL8Nc3xAEAJxZxgRsWeN/mZgAAANgwTlbHHD0AAEVcoAAAAAClAMBTmpqKznOr896q34+PAwAuWXURoQqlLcNSxOQzflVCegAw7LgM2/Z5AQC/ck9SvOINXV2hvLKA7/4kagAoF5E/FbiQkgv2mcFBAIAegKLjhx4AgMK2sQc9HgAAAJQCFZ8aGCg6z23gtX8QkbIoIWB8gwsquoA/nZwEAACAouMGAAAAghq27fcBAABAKQBwwcRE0XkugN8ORgkAzw1wQYELqVsAb2ML4EwAEI8AMGzbRhzX8QAAAKAUALgjlzNV9rcGfmaUAPBmmwCQq6vLhPmVEixp+wwAAADEZdi2zwsAAACl5ueZ2trADeSAXvv6KAHgIwEvKlAhX9zWBgBkoPtfKwsAAADYNuK4jgcAAAClAsAL29oCeWMRPvvBKAHg20Vc2IYF/bfNmwEAAGDDOCkUc5qE4zIAzpttmAEAAIBSAeAt3d0l5btCOTD/t69HCQCXr3MhRRdMR0WWKiSf86sS0gOQbdNMEzQBAH7lniR5xce2bCnaJzfw3J9HCQD3bXAxRRXuO+wBkBkAAgAAgLRAAAAAAJQKFafb3xPgrqgAoNmm+euxrpqZyYwBlhowafkcAAAAAABSsIH09p4e8mBGHoVePj1dMAZCemtDFBCQC3mRjyq4TgG8OyM3PS0mHqYcAAAAAAAAAGFySBo+e5ebqYDTUQDAs20CwGhNDdSbIQACAAAAAAAASIOJhy3DYHX1oxrDFnz1GVEAwCEWLvSRgj+pqQkAAAAeiYdiY4tZAABFXEDBGADGAISBgD0aG0vOe2vkyddGAQA639DahR/U0QEAAAAlxxMAAAAAABhxGCOO67Mva28vOe+t4cHHRgEAOt/Q2oW/g4EvmQIgHgFg2HEZtu3z0gMAeISBhyM3b7bmo3lP/nIUAKDzDa1dOLsAZqsSAQAAgG0jjut4AEC2clcYsy/02U/b3xXwp1EAwC02AeCs8fFMtYALBUKW/gYAAABxGbbt8wIAAECY3P29sTFrDem8J18XBQA8aBMArmQNgEwBEAAAANg24riOBwAAAGEAwMFaALpAn9NXq03z12PdNj+fKQMMEzBp+CwAAADEZdi2zwsAAABhcvLN8/O2ewAeFpFKlwQwYRMA6srLMf8MzQDQygIAAAC2jTiu4wEAAEAYANDP6kJ4Nj1VRDa5BIAn2rzY/upqAAAACFUBNAnHZQCcN9swAwAAAGEBoKeqKlT+K+DHUy4B4LkFTlhyAebr6gAAAKDk+NFYBACybcJxQhgAAACEBYDZ2tpQ+a+AH+/uEgAOLnDCkguwN6sAZg6AeASAYcdp2jbPDQAAAGEBwMFqgPu7BIA32wSA57e2Zs4AwwaM758HAAAAmyYc57EAAAAgbD5+TmtryQ3oNbz4IJcAcPQaJy2pEK/s7AQAeARQUuwsxyGPAACKuCAAAAAAwgLAwR0dofLfch5c8f0wlwBw3IoThb7wI7q7AQAAIFQcAQAAAACAEYc14rg+f1h3d6j8V8CPj3EJAJ8vcMKSC3BsXx8AAACUHD8aiwAAAAAAAABxGXjY876ntzdU/ivgx592CQCnFThhyQU4fmAAAAAASo4fAADzj8v89bw8AgA8wgLAp+zvB6Cb9Tl7fc8mAHx1ZAQAAAAAgPsw8jiNvNRzAwAAQFgA+PLwcKj8V8CP1aOdvc4pcMKSC3D66CgAAACUHD/0AAAOpZq3jc8BAABAWAD45uhoqPxXwI/Pd+b+IvLjAicsuQC6G1JYAfm8X5WQaYCYtg3zTcIxAAC/ck8SveJM+zsCXuwSAPTgJRv+6s+ew1bAmQMgAAAASIJ527gGAAAACAsVZ4+PW/PTvL9e6RIALl9t4mF+//HkZOYMMGzA+P55AAAAsGG+STgGAAAAhM3HF0xM2AaA61wCwNVhDH/1Zy+emgIAGAMQqgJoEk6CGXAN2QMbAAAACAsAF01Ohsp/qz1VRG53CQBKF9Yu+JfT0wAAABAqngCA7BlvUmALAAAAwgLAL6anQ+W/An58t0sAuLnACUsuwNUzMwAAAFBy/GgsAgAAQFxAAAAAAGEB4MqZmVD5r4Af3+sSALYVOGHJBfjt7CwAAACUHD8AAOYfl/nreQEAACAsAFw7Oxsq/xXw4/91CQBKF9Yu+Pfz8wAAABAqnugBAALiggAAAAAICwA3zs2Fyn8F/Ph+lwDwpwInLLkAt+dyAAAAUHL8aCwCAAAAAIARhzXiuD6vHmjTU0XkQZcA8FebF7s9Y+YXV5Al6bxMA8Sw4zJs2+elBwDwCJtb715YsA0AfwMAAIvE9qwAAACAbSOO63gAAAAQFgC0EWyzUS0iTgGARwDARSi4AAAAgLgM2/Z5AQAAICwAbLP/COABlz0ADAIEAAAAdu9j8SVmAYTKA2GNMy2fv3V+3nYPgNNZAEwDBABCVXx6AOgBsN0Sj+t49ADQAxAWRBzMAtjusgeAhYAAAACAHgB6AOgBCJUHwhpnWj6va+FYHgOgjXRnL6tLAV/GUsCZq0T0ANADEFeL3fZ56QGgByAsiPzGPgDc4sz9ReTXNmmFzYCyV4EAAADAthHHdTwAIHv5K6zhr/78r+wvBXyDSwBgO2AeAYTqtQAAAIC4DNv2eQEAAGC1oRf7u4PNgK51CQAX2+wBOGd8PJSZFCs274+/wgIAAIBtI47reABA/PnE95zuYDvgq10CwI9tAsD3xsYAgIz1KAAAAEBchm37vAAAABAWQH4wPm57EODPXQLAOTYB4NujowAAABCqAmgStp3YOR6QEiQGAAAAICwAnDoyEir/FfBj9Whnr+8VOGHJBfjqyAgAAACUHD8aiwAAZh3ErF28BwAAAMICwBeGhkLlvwJ+/C1n7i8ipxU4YckFOH5gAAAAAEqOHwAA83dh7EGPCQAAAGEB4ONbtoTKfwX8+CSXAPC5AicsuQDv7esDAACAkuMHAAAAgpq1i/cBAABAWAA4pq8vVP4r4McfcwkA/1XghCUX4C3d3QAAAFBy/AAAAIALYw96TAAAAAgLAEdu3hwq/xXw42NcAsBRBU5YcgFe0dkJAAAAJccPAAAABDVrF+8DAACAsADwhq6uUPmvgB//m0sAeGOBE5ZcgOe1tgIAAEDJ8QMAAAAujD3oMQEAACAsABzY0REq/xXw49e5BIB/LnDCkguwV1MTAAAAlBw/AAAAENSsXbwPAAAAwgLAM1paQuW/An78Ty4B4LkFTlhyAebr6gAAAKDk+AEAAAAXxh70mAAAABAWAHaqrw+V/wr48TNcAsBuBU5YcgH6qqoAAACg5PgBAACAoGbt4n0AAAAQFgAGqqtD5b8CfryDSwAYK3DCkgtQW14OAAAAJccPAAAAuDD2oMcEAACAsABQV14eKv8V8OMelwDQXOCEoQpw6/w8EJAhCGAvAEw7qMEm/X0AAAAQBgBumpsL5Z0FvPhhEalyCQB67AcKnLjkglwxPQ0AAAAlx48m4aQbBdeXTugBAACAMABwydRUyXlvDQ++27X56/F/v8bJSyqM7oYURkQ+61clpAcgnWaYRcgBAPzKPUnziu+MjZXkmev471VRAMDF61xA0QU6YXAQAKAHoOi4WY5BegAAirjgAwAAAMJAxYn2NwJyuhPgMlx8fTn52vj+jp4eAAAAAADuw8jjMvJSzwsAAABhAODo3t6S894a3nvKskm7/P6BNU5eUmF0JaQwIvJZvyohjwAw+lINN2mfAwD8yj1J8wpdCt+ml4qI7tXj/HWIzYt+EqsBZgqAAAAAIGlGXur1AAAAQBioeFpzs20A0KX6nb/2twkAIzU1mTLAMAGThs8CAABAqYabtM8BAABAmJw8WVtrGwCe49z9RSRnEwCqy8rM3Rl6Bh4mYNLwWQAAAEiakZd6PQAAABAmJ9fbXwRoIQoAsL4Y0FUzM/QCZASCAAAAoFTDTdrnAAAAoFQAuHZ21nbrX4/XEgUA6Dnus9kLoPMhSxWSz/lVCQEAACBpRl7q9QAAfuWeJHnF2ePjtgHg3qjMX8/zS5sA8KmBAQCAHoCSKoQm4VITOJ8DRsLEAAAAAJQKFZ8dHCwp363ju5dFCQDfWudCii7Yv23eDAAAAEXHjcYgAICJhzHxMJ8FAACAUgHgiO7ukvLdOr57apQAcNw6F1J0wV7U1gYAAABFxw0AgPmHMfCwnwUAAIBSAeA5ra0l5bt1fPfDUQLAm9a5kKILNl9XBwAAAEXHDQAAAIQ18TCfBwAAgFIBYMr+FMDXRwkAOt+wpIRd6HM1ZWVmWy4HBGQAAhgEiGmHMd0kfRYAAABKAQD1Op3+XsgLQ/ztyVECwFiICy1Y8AsnJwEAAKBgbKwXa5qEk2QKXEt2AAcAAABKAYCLJieLznPr5cD8/zZHCQDlIvKnABcVuKDHMxMgEwBED0B2DDLtMAQAAAClAMDn7e8CGOkUwGXQ+LlNAHhjV1cmDLCUgEnTZwAAACAtYAAAAACl5Oa3bd4cuGEc0GN/vGzKUX7/XMCLC1TYfZqbAQAeAQSKlZVxxyMAgCIuoAAAAIBSAOB59mcAnBCl8S+f67CViTjsz31VVQAAAAAA3Iehx2XoxZ4XAAAASgGA4ZqaovPcBv4ayS6Ay8a//P1pG1xU0YX83ewsEJByCOARAAZfrNEm9f0AAABQLADcODdnyizOoMt7sHpx5K9e2wBw+ugoAAAAFAWOPAIAKOICBAAAACgWAL41OlpUfgvosf2Ru3/+hNsDXmCgQh/b1wcAAACBYmU57gAAAAAAwIiLNeK43n90b29R+W05z63z/R4RKYsLAM5f58KKLuhL2tsBAACgqLgBAAAAAAAAiMvQiz3v8+0PADw7LvPX837cJgCM1dQAAAAAAMBAQC8Wd+IRAOBRLAA4GAD43jgB4LU2AUAHR1zLQMBUQxCDAGmxx9Vit31eAAAAKAYAHA0AfGGcALCzTQDQY31xaCjVBlhMwKTxvQAAAGDbiOM6HgAAABSTo7/pZgDgSJwAUCUiD9iEgENYETDVAAQAAABxGbbt8wIAAEAxAHBEd3dRjzcD+KouARzbAMBl8PhJgAsNXPAnNDSk2gCLCZg0vhcAAABsG3FcxwMAAIBicvQejY2BfTCgp561bMJxfv9AwIsNVHjdGvh2tgZOLQQBAABAXIZt+7wAAAAQFAB0C+D68vJAHliEn8Y6AHAZOl5QxAUHEuA7Y2OpNcCgAZPW9wEAAIBtI47reAAAABA0T581Ph7I+4r00gOWTTjO7z1FXvSGQryrpwcASOl0QAAAAIjLsG2fFwAAAIICwFE9PRv6Xgk+qqvxJuJ1UwkXv6YgT2dnwNQCEAAAANg24riOBwAAAEEBQD3NpkeKyHWJcP78RXzJZuHaKyrM9pS2gIMGTFrfBwAAAHEZtu3zAgAAQJA8rV6mnmbTI0XkxCQBwCGWC2d+PDmZ2lZwkKBJ63sAAADAthHHdTwAAAAIkqcvmJiwbf56vFckCQB2sg0A+swkiLi8x69KCAAAAHEZtu3zAgB+5Z64vMLR8//xJAGALgh0v00IeGJjIwCQwscgAAAAYNuI4zoeAAAABIGKPe3P/9+WJPNfvpYLbAJAdVmZ+f38PBCQMggAAACAuAzb9nkBAABgIwC4dX7e6No2Nr1RRL6xbLpJ+n6U5UKak9kXIHUABAAAALaNOK7jAQAAwEYA8NWREdvmr8d7Q5KMf/ladrUNAAd2dKTOADcKmLT/HwAAAOIybNvnBQAAgI3y9Ws2bXIBAAvLppuk7xUico9NCOitqgIAeASwbgXSJGw7sXM8ICVIDAAAAMBGADBRW7tu/irBL+9IwgZAa4GHPpuwWuCfMh0wVRBEDwDmGsRcfXgPAAAArAcAV87MWPXCvLd+YS3zTcLfX2UbAN7d25sqA1wvYLLwPwAAAPDB3INcIwAAAKyXsz/Q3+8CAF6aBKNf6xoGbQOATqFYT2T+51clBAAAgCDm6sN7AAC/ck/UXrF3U5NtAHhYRLrWMt+k/P03NiGA6YDpqmQAAADgg7kHuUYAIF25ySYg3DA3Z6rsT/+7LCkmv951fMQmAOixPjM4SC9ASgYDAgAAQBBz9eE9AAAAsBY0fGpgwHbrX4/33vWMNyn/e5ZtAHhWSwsAAAAUrFCahH0wC64xfeADAAAAawHAfi0tBfNVSG/cOykmv951NIjIgyEL+ijxdCWlm+bmgIAUQAA9AOkzwqzCDQAAABQCgNvm5019efmjPMyCH/5RRKrXM94k/e8cCwV+lIDapVJIbP7mVyUEAACAtAADAOBX7onKK3QFW9v+JyJfS5LBb3Qth9kW4OnNzQAAPQCPqVg8AgAo4gIKAAAAKAQV/9De/pg8ZcEPX7KR6Sbp/0MiolMWrAmhswGu4zGA9xBEDwCGHZdh2z4vAAAArAaA23M501JRYc338h76VxFpTZLBB7mWS2wCgB7r41u2eG+AqwMma78DAACAbSOO63gAAACwOn9/bnDQtvnr8b4XxHCT9p632QaApzQ1AQCePwYAAACAuAzb9nkBAABgNQA8w83of11h17vXiG0A0IUVfjc7CwR4DAEAAABg24jjOh4AAACsBIDr5+aMzliz7HsPiUiPd+6fv2BduciqIMfxGMBrAAIAAIC4DNv2eQEAAGAlAHzYzdr/F/pq/nrdR9oGgCeyNwAAsAIqNQnbTuwcD0gJEgMAAACwEgB2a2iw2tjNe+fhPgPAhG0AKBMxl0xNeW2CK4Mmaz/TA4C5BjFXH94DAAAAy/n7iulpU76iYWLJ93Qmnc6o8/p1hSUxHqGrQ7u6AABPxwHYBoA999rbvPNd7+YLDSKPAY09m7nt7T095DVP85reO5uxkD/Wj712/vzFv8O2MJsqK822XI7K4mFlsQ0AtmOL49kds4OewfUEAPzsUdi+sGCGq6tdAMBr0gAAky6SwBeGhgAAAMBFpeOY9rsy0TSApgCAnwDw9ZERF/Gti/90pgEAtAxX2oaAJ7MmgJcARA9A8Bah7TrD8ZKtPQDgJwA8283c/9PTYv5ajrfYTj464OKX09NemuDywJEsfgcAkm1Ctuspxwt+vwEA/wDgmtlZo+vTOIjzF6UJALoXpwRql4ZVoQ7v7gYAPHsMAADYrQO26xTHi+/+AAD+AcA73Az++4OI1KcJALQs37SdXHqqqsxdDAb0CoIAgPgMxnb943h27yUA4BcA6OC/kZoaq43afJ36fNrMX8uzn4uEccrwsFcGmMVu/5VlBgDsmoaLOsUx47lHAIBfAHCam8F/ChRPSSMAVIrIbbaTy77NzQCAR48BAIB4zMV2veN49u8jAOAXADy9udlF6/86ESlLIwBomd5rO3HoyoAXTU4CAZ5AAABg3zhs1ymOF889AgD8AYBLp6ZcrPynQKG76Kb2NS4iuryhVXI6sKMDAPAEAHTgpu37z/Hs1if0jEfPd7ESoDd5/F86O13kMR0ovzm17p8v2I9sJxjdgvE3bBPsReV5X1+fi4rDMS1Dte06yvE2hopPDgx4UYdXjunJ4s83zc2ZpooKFznnG2k3fy3fgS6SwVuYEuhF8vjS8LCLisMxAQDvY+D00VEv6nAWTX9lmd/d2+sq1vbNAgDUich9tiGgraLC3DI/TwVK+KOAm+fnjfbY2L7/HG/jFiYaJVej5ooKcwdTmhOfv3Xa+aCbdf9/LyIVWQAALePxLpLRB/r7Ex9AK0kyqz8/r7UVAKDFTgysiIF/am8ndyW88aL5+sShIVdx++9ZMX8t57yLwYC6KMPdHgRRVo1/udwXT02ZSnoBXCUSjrvCWF00NGwfU3vEfjUzAwB4kLt3qq93Ub908F9vlgBAy3q27YqkxzuZXQK9SCSOltB0UTk5pmeG6iKvuDzm+/v6vKizywCf1e8OF/45JWvmr+V9potKtXNDA5XJA5LWZTS129NFDHDM5D7r5t48+t68urOTfOVBvlLo2b2x0VW+enwWAUBXO/q1i4TwvbExKpUnleqdPT2udtNyVVk5Lj0CoWNAu/2PpeXvTZ4+c2ws9D1fw+suzKL5L5f51WuIEkrsvZqavAmsrHanrSy3rqr1wrY2U1deHuq+u4gljvnoFit6hNOjvrzc/EN7O1uZe9JAWc5TT25qcpWbXrhshln8rlse3u0iqTCn1p9lNZcr2W3z8+brIyPmQ/395ojubnNoVxdfaOB9DGgsf7i/33xjZMTczlQ/7xpnZ4+PuzL/G7M09W8twPlPFwDAWAD/AGAZBPjOvSMGiIGkxICjTX8UKt68lilm6e89IvIXFxCgxJ2UIOI6SGjEADFADPgVA+dPTBjdcM6BP/1BRFqyZPTrlfULDgQ2O9bXAwCePWsjQfqVILlf3K80x8A+brb8VaD4yHqGmLX/OVkYSKFC155Pc4BSNhIwMUAMEAP2Y+A77kb+68I/g1kz+Y3Ke66LXoBcXZ3ROedUEDQgBogBYoAYCBoDuzQ0uOj612OesJEZZvH/T3IBAHrMz7M6IAAEBBIDxAAxEDAGHO5a+ncRGc+iwQcp83kuIGCqtpY9AgIGflA65n20pIgBYiCNMaD7yczX1blq/et4N15rKLCXCwDQY35iyxboFwggBogBYoAYWDcGjh8YcGX+D4nI9Brex5/zCjgZC9BdVWV0L/o0EitloiVGDBADxED4GLgjlzPD1dWuAOBruPzGCuzuqhfgjV1dAAD0TwwQA8QAMVAwBo7q6XFl/nrcHTe2P96hCvzQBQToBhyXTU8XvPHQc3h6RkM0JAaIAV9j4NrZWdNcUeEKAL6NtQdXYDcXAKDH3L+lBQCA/okBYoAYIAYeFQMOtyfXZ/8Lwe2Pd6oCZ7uCgFNZIvhRge8rsXPdtDaJAWLARgycNzFhKsrKXLX+T8LSi1dgV1cAoNMC72RXLiCAFhAxQAwQAwsLZjd3i/7oqn+jxdsfn1AFfuAKAnTLWRvkyDFogRADxAAx4G8MfHZw0CxdQtAAABltSURBVFXLX4/7May8dAUeLyIPu4CAzspKc8PcHBBAC4gYIAaIgYzGwK3z82aLu2l/fxIR3e2WVwgFvugCAPSYr9m0iYqf0YpPi83fFhv3jntnKwYO7epy2fp/Twjf46N5BfpEREnK+o3SQR/njI8DAUAAMUAMEAMZi4ELJydNlbuBf/eJSDsubkeBd7sAAD3mXF2d2caAQJJfxpKfrRYUx6E17mMM6Hr/T3A38E8bq4fbsT6OogrUi8jNriDgHT09GCAGSAwQA8RARmLgg/391nuUV/jTdSJSg3XbVeCgFQJbvXm6QuBFk5NU/oxUfh9bLFwzLW1iwE4MXDM7a1rdrfin3rSfXevjaKpAuYhc4goCdB7odgwQCCIGiAFiINUx8PzWVqsNyFWepAvY8XKkwJ6rxLZ6Iz/M2gCprvi0oOy0oNARHX2NAV0F1qGH6KI/M468j8PmFTjV1Q1sqqgwV83MYIK0gIgBYoAYSFkMaA/v4+rrXQLAcbi0ewV0WcUHXUHAs9gsiMSXssTna2uN66anwWYMOG79bxeRNvf2xxlUgfe7AgA97olDQ5ggJkgMEAPEQIpi4NWdnS5b//+KNUenQKOI3OQKAjoqK83VPAog+aUo+dlsSXEsWuY+xsAO7rr/LxWRiujsjzOpAs9wBQB63L2bmpgVgAECQcQAMZCSGOh3s+b/30VkRyw5HgW+7BIC/rO3l8qfksrvY4uFa6alTQzYi4GeqioXjwD+Kx7r46yqQLeI3OsKAnSBoAsmJoAAIIAYIAaIAc9jYEf7jwB0ddomrDheBV7hCgD0uFO1tea2+Xkqv+eVn5aUvZYUWqKljzFwcEeH7R6A58RrfZxdFSgTkfNdQsArOzsBAACAGCAGiAGPY+DrdhcB+ib2mxwFJkTkz64goEzEnDI8TOX3uPL72GLhmmlpEwP2YkB3AJyvq7PRC/AHEelPjv1xJarA210BgB63s7LS6CYSVEh7FRIt0ZIYIAaijAHtBdAGXUiveC2WmzwFqkXkqpA3dt3AeGpTk1GKjDJgORd6EwPEADFgLwaO6O5eN89v4CEnJs/6uKJlBXYTkYc2uIFhbr556+bNAAAQRAwQA8SApzGgewK8ubu7lJ6Az4qINjR5JViB97kEgPLFmQFfYTwAyc/T5EdL0l5LEi391XL7wsKDT21uPkREfhvAL24TkYMT7Hlc2goFlNAuC3BTS+4JaK2oMJdOT2OCmCAxQAwQAz7GwNatb8x7RqWIvFhEvigiN4rIAyKi2/rqUvM60v+gxb1n6lf4Cz96oMB0/kaWbPIbAcRsba25hfUBSH4+Jj+umbjNdgz80IiUe+BjXGIIBbR7xxkA6LFf0NpKIsl2IuH+c/+JAb9iYNvdO+zQG8JX+KgnCugCQWe6hoBj+/pIAH4lAO4X94sYyGYM/O2+HXbYyxP/4jItKNAlIttcQkBVWZk5Y2yMhJLNhMJ9574TA77EQC53uAVP4RCeKaDrNTt9FLCpstJcNTNDIvAlEXCdxCoxkKkYuDeX+5b5v2XjPbMvLteGAie4hoDH1debWxkUmKmkwjQwf6eBce8yde9+e++OO7bYMBKO4acCDSJyrWsI2Le52dyVy2GCtK6IAWKAGEhGDDxw39atW/20La7apgJPyM/vdPo44LWbNlHxk1HxuQ/cB2Ig4zGwfevWA22aCMfyWwHnUwO1l4GZAZnqXsRkMm4yPE5IZn2/d2Hh437bFVfvQoHPu34UoMsFf3FoCGPAGIgBYoAYiCcGLjZjYzUuDIRj+q1AneulghUw6srLzVnj41T+eCo/uqM7MZDdGLjjnrm5LX7bFFfvUoExEbnPdU9Ad1WVuZw9A0jE2U3E3HvufdQx8Od7dthhV5fmwbHTocD+IvKwawiYrK01N8zNRV0JOB+JlxggBrIWAw/fu3XrS9NhT5QiCgXe4xoA9PhPbGw0t7FGQNaSEeXFgImBaGPg6ChMg3OkRwHdEep7UUDAk5qazO2sEUBCjDYhojd6ZyUGvsZKf+kx5ihL0i4iN0QBAc9qaTF3AgFZSUiUE/MlBqKJgYtv33HH+ihNg3OlSwFdKeqBKCDgRW1t5u5oKgXJB52JAWIg1TGwfevW67blcrrpGy8UCKXAQVEAgJ7jnzs6zHYSU6oTE4vDJHNxGO5L8u/LtlzOXD83FyRH3n3X1q3jobI+H0aBFQq8OyoIeD1LBgMAQCAxQAwsxcA3RkbMS9rbTW9V1SNLtVeUlZnRmhrz6s5Oc97ExOpYeYDpfiucix+tKFAmIqdEBQFHdHevDmp+JyESA8RAZmLgp5OTZteGhkdMf63cWyZintPaaq6dnVVt/nZvLqfTuHmhgHUFdPnIC9YKRNt/P7q3NzOVne7X5He/co+4R1HFwFeGh01TRcWG5r8y5/ZXV5uPDQwcZT3rc0AUWKFARxTbB2tgK9kCASTdqJIu5yHWkhADpwwPm8qysqLMfwUI3CkiAyvyNT+igHUFdLngu1cEXanBGuhzPA4gMSchMXMNxKHrGLhwctI0lpcHyovr5N+LRUTXceGFAs4UeIKI3L9OEIYN4kd9/hWdnUFGvvLIgGfExAAx4G0MPD7AM/+AOfcfnGV+DowCeQVeHMWeAcsBr1MEWSeAVpjrVhjHJ8biiIEvDw8/qtGznPdK/H4RLoUCUSjwthIDtKRg18WC7mLFQG9bOHEkVs6JofsQAwe0tZWUE9fIvw+JSHcUBsA5UOBTawShzYB+5Fj7t7SYO4AAIICubmIgRTHQWVn5SI6zlE/3wZpQIAoFdMDJyZaCNlAl2Ke5mV0EU5T8fGihcY30JLiKgVvn5wPlvSJz7MujSP6cAwVUgUoRObXIAA0V9Ls3Npob5+ZoBQECxAAx4HUMXD0zEyoXrpF3X4I1oUCUClRHtYXwcsBP1daay6enva78rloVHJcWKzHgRwzodui67slyXrP0fe8okz/nQgFVoE5EzrcUwIEqRHdVlTn3sethAwW0CokBYsCbGOhbsda/hfz5oIg0YkkoEIcCTSLyMwtBHAgA9Dz15eVGV9CixeNHi4f7xH0iBh4dAwd2dATOdwFy63fjSPycEwWWFWgTkcsDBKq1oNcdst7X1wcE0OojBogB72Lgu2Nj1nKhiOyxnIj5jgJxKdAlIr+JEgL0XK/dtIkFgzAA7wyAFvGjW8RZ1ONpzc02IOBrcSV8zosCqxXoF5EbooaAZ7W0GJ1ak8UkQpkxEmLAzxi4cmbG6JimEPnyKhHRR7C8UCAxCgyLyE0hgrqkCrFjfb359cwMEEBvADFADPgSA39/X1/ff4rIPSXkyytFRBtcvFAgcQoMish1JQR1Sea/fB6l6e+MjflS+blOjIoYyG4M3H93LvfsfObWHVevWM5jAb5/nVH/ifM8LmiVAkqn1wYI5lCmv/r4VWVl5r0MDsRYsmss3Puk3/tcbvu9W7fuvipfViz2nB4kIr9cndPyv/9VRM5anHbNfP9VwvFrchXoEZGr1whoq8a/+hy62QbjAvx8Nsozbe5bimPg+rsXFiY2SNnaeNpPRA4WkQNF5Gki0rLBZ/g3CiRSAZ0dEOkUwWUYmK2tNZeyciAtwqS3CLm+rMToz7blcpoPeaFAphRoFZEfLxtzlN+bKirMSUNDWUkwlBMzJQaSGQPfuGXXXXXlVF4okEkF6kVEV6xy2vVf6Pi67vahXV2sF5DMxIhhcV/SHgMfMSK6iyovFMi0ArqB0JcLmXQUf3tKU5O5ZnY27cmG8mGoxEACYmD7wsKD23M5tunNtOVR+NUKKAl/MgrDL3SOzspK8yX2EcAgEmAQKR7oRnzlctvvm5/fc3Xy43cUQIH/U+BQEXmokElH8bcXtbWZW1g9kEQNCBAD9mPg0vt22EHXQuGFAiiwjgLPF5H7ozD8QueYqK0157G1MAZg3wDQNKOa3ruwcBKD/dbJ+PwLBVYpsLOI3FnIoKP4my4cdER3NwMEM5qw6YZnzQFLMfDne3K5V67KbfyKAigQQAHdP+DXURj+WufYs7HRXMVeArRcASFioMgY2L5163X37bDDQoA8x1tQAAXWUKB9cZnL89cy6Cj+3lFZaU5kzQAMoEgDsNSCRHcPdd++sHDG/8zPt62R0/gzCqBAEQrUiMjJUZj9eud4ZkuLuZreAAzJQ0MCRoI90jhzbMy8oavL7NzQYEZrasxgdbXZtaHBvGbTJnP66KjZvvG9//s9W7cexfz+IrI7b0WBAAqUicjRIvLweibt+n/NFRXmQ/39QRIBRrlxskQjNEpEDHx3bMzs0tCw4WJkW+vrzRlr7yx69z1bt+4TIJfxFhRAgRIV0AU0/uza6Dc6/m4NDebnU1OJSF607oK17tAJnVbHwHVzc+Zl7e1GVwXdqM4v/7+irMwc3dv76Lq/desF2xcW+krMaXwMBVCgCAV2Wtwi86blChnX95qyMvP2nh6zLZd7dDKgVYcexECiY0C78j81MGB0AbBS88e7enq0jH9d6vI/4ADdtpcXCqBARAp0iMgPSq28Nj83V1dnfjg+nuiEt7rlw++0hrMaA9pzt0djY8nGv5w7ykXMAW1tr4oo33EaFECBVQoodf9H3OMCNCFot+CrOzvNDXNzgACtX2IggTFwey5n3rZ5s9Geu2UTt/D9l4tjk3R8Ei8UQIGYFNhfRO6zUJlDJwadMvjB/n5zF48FMMEEmmBWW/2nDA+bkZqa0PV7jRyzX0x5j9OiAArkFRgQkUvWqKCuKv6axx2vqTFfGxnBBDFBYiDGGLh4asrs09y8Zj21lC9OIAujAArEr0B9EtYLWJlUntXSYn4xPY0JxGgCWW31ZrncOrr/Xzo7TaXd7v61QOI38ac+rgAFUGBZAR2Y85eVRhznz7qvwKs6O81NjA8AhAAhpzFw98KC+WTI0f0l5Ip7lxMP31EABZKhgE4VvKaEyrwW5Yf+e3dVlfnYli1sMIQJOjXBLLb8dVrfF4aGzGRtbeh6WkLO0J1LeaEACiRMgToR+UgSZgmsTCq63bC2UhgoyFS8LJq17TJ/Z2xsabnelXUs4p+vTVje43JQAAVWKKCzBGLbWnitZKTrB+jo5ADri9NipNeAGFgVA2ePjxvdrXOt+hXh37++ItfwIwqgQAIV6BaRMyNMCoET0w719cwYWJXcbbcSOV56elt+Ojlp9mtpKWr5Xsf1/qUJzHdcEgqgQAEFdC+BPzlOCIHNf+V1PL6hwZzG1EFausBQwRj48eSkeVFb29KiWyvrTcw/3yoiOvuIFwqggCcKTInIpTEnjjUhQZcp1eeatFrT02rlXpZ+L88aHzdPb25OUot/Zd3VBgUvFEABzxSoXLzeo0Tk70kFgYW6uqXBgneyqiAwlMFeAYXgfd0v4rPSzIv9+XOe5TwuFwVQYJUCO4vIFUmFAL2u4Zoa8/6+PnPr/DxGmEEjzFLvgc7j/+LQkNmloaFYM476/SeKSNWqXMKvKIACHiqgFfnfROSBJIOA7jNweHe3uXZ2FhAABFIVA7+fnzfv7eszw9XVURt5sef7o4i8zsMcxyWjAApsoMCIiJyVZAjQa6suK1saDKWjobPUOqSspT9HT6p2l01Pm0O7ukxrRUWxRhzH+88QkcENcgj/RgEU8FgB3drzIBHZnnQQ0P3In9bcvLSWAIsKpc8ck2raYa9L1704fXR0aSqfbqOd9HomIjrS//ke5zQuHQVQoEgF2kXk+KStIrhWstRlhrUlxcZDgEBYg3b1+evn5syH+/vNdDzL9ZYCGg/lc0BzkbmDt6MACqREgb1FRJf6LCWBRP4Z7RXYq6lpafbAbQwa5BFJAsZKnDsxYQ7s6DC15eWR14cQ9fZyEdEBwrxQAAUyroAu9HGMiPw5REKJPPl1VlaaQ7q6zM+npjDCBBihq5Z1Eo975cyMeUdPz9IMFp/qjIjcs/j47/UiotOEeaEACqDAIwoMichXfXkssJx4y0TMbg0N5kP9/ea3zCAAhhzBkHbxH7dli9m9sdFoT9Ry/Hny/W8i8jER0Ud/vFAABVBgTQWeICI/8SSxPSoR66CrnRsazDF9fUwndGSESWyRu7qm23O5pUGoukRvnV9d/CvrxTkiMr9mbecfKIACKLBKAZ0t8E8icouPIKDXrNMJdRaBbk1849wcLWOAIFAM6NgS3cXyH9vbTbMf0/dWmv3Kn38nIs9eVa/5FQVQAAUCK6DjA3RJ4URuMBQUTmrKyswzWlrM8QMD5iZgIJARumpVJ/G4N8zNLcXGs1taTL2/Lf1l879XRN6yOK6nOnAt540ogAIosI4C/SJykm/jAwoBQlVZmXliY6N5V0+P+RGLDWUWBnQgn44beXJT01JvUaFY8exv9+cH87atU4/5FwqgAAqUrMBOIvJdzxLjcsuo4PeeqirzT+3t5vNDQzwqSPFjAt1r4msjI+a1mzaZSX/m6heM2VX1768i8onFOf09JddqPogCKIACRSiwi4h8f1UiCpKsEv2eyrKypRkFOsXr/IkJo5u3JLHLmmva+L7oinzaw3N0b6/Zu6nJ6GOglMWrLuTzxcWeOV3imxcKoAAKRK7Abj7sL1Bq4tc13HUg4dt7eswZY2OGxYc2Nt644ES3lT5rfNy8u7fXPL252bT7PYBvPVh5WEROF5Fc5LWdE6IACqBAAQV2F5Eflmq0vnxOxw88vqHBvG7TJnPy0BBTDWPsIdGZHd8cHTVHdHebPRsb0zB4bz3T1/9pi//rIrK1QP3jTyiAAigQuwJ7iMi5vhi6jescralZmjKm271+e3TU/I7FiKw/NlGzV221O//5ra1mpKbG6AJQNu6fB8fQRXxOFpGZ2Gs3F4ACKIACARTYKws9AmuZx+aqqqXR5W/o6jKfGhgwF0xMmDtyOevGGFd3u6vzbsvlzEWTk0sDMo/cvNk8L3tmvxJq/iIin100/9EA9Y23oAAKoEDiFFhY3GP8RBF5cC2zzMrf9fHBTG2teUFrq3lLd7f5+JYtS9vGXj49bbK23fE1s7NLz+s/Mzi4pIXOv9eR+apRVuJhnXL+cXHJ3o+KyEDiajMXhAIogAIlKLBZRP5DRO5eJ/FlNvmr8Q1VV5s9GhvNy9rbjbZ+Pz0wYL43NmYUEG72aOdDXWjp4qkpc+bYmPnvwUFzVE+PeUVnp9mnuXnJ5D3bNS/KmLxpccGtw0WktYT6xUdQAAVQIPEK1InIq0Tk14BAcc+wdRqbPlrQXgTdkEZbzQd3dJjDurvNe3p7lx41fHVkxJw2MrLUs6Db1OrXz6amzC+mp81l09NGN7TRr9WzGZb/rt9/PTOz9H79zE8mJ80PxsfNqSMj5nODg+ajW7Ys7bOggKKPNxRWdMT9TvX1pr+6Oo1T7aIAAN134wB26Et87uICUQAFLCrwRBE5Iw2rCwIzxcEMesnf87Gv02h5oQAKoEBmFdCdyo4Xkf/FGDDSlMeAdvO/Q0R6M1vbKTgKoAAKFFCgNt8Veja9AoBAikBAW/sa03TzF6j0/AkFUAAFViuwRUTeKiLaYoriOSznQGfbMaBbaR/LaP7VVZvfUQAFUCCYAhUist/isqeniYhuemI7SXM8NLUZA3/I75q5j4iUBwtx3oUCKIACKLCRAl0icpiI/AoQAIQSFAMKpjqY9R9FpH6jIOb/KIACKIAC4RQYFpFDReTCBBmBzZYkx0p+z8Sl+RhUMOWFAiiAAigQgwLji48HjhSRy4ABegYcxoBuxvNTETlCRBRAeaEACqAACiRIgcEVPQO6bSotaTQIEwM6gl97mbS3qS9Bcc6loAAKoAAKrKOAttJ0adVz2IsAECoCBv8kIt8QkZexLO86tYt/oQAKoIAnCugSxE/NT8vSZ7dhWoV8Nn36XS8iH8nHiK5HwQsFUAAFUCClCujmRC9f3GP9ayJyL0CQOSC6K3/vdV+K/pTGOMVCARRAARTYQAFda2DXxfccJSI/Whzk9QBAkDoguDO/lsQbRWQHESnbICb4NwqgAAqgQAYVqBSR2fyuhSctLuF6NUDgHRDcnm/h6+C9HTH8DNZiiowCKIAClhTQEeAvFJEP56eC/QUoSAwU/E9+oOf7ReTFdOlbingOgwIogAIoUFCBGhHRrVz/VUQ+lX90wFgC94MDV5v9GK37gvHJH1EABVAABSJWQHsKnpaffniiiFwiIvfTW1B0b4Ea/UWLrfnP5rV8uogMYfYRRzOnQwEUQAEUCKWAbgqjLdXnisib8tPNvr34++WLC8zcl2E4+F8RuWJxUJ5qoVPw3iAiuokOo/JDhRsfRgEUQAEU8EWBlsUR6rnFpYyfnTfBD4nIqfneA91S9kEPIUEfh/xaRC4Qka+KyEdF5M2LGzk9X0Qet/h7uy83h+tEARRAARRAgTgVUEiYEJHd8z0JB+d7E45eXK3uuMXu8c+LyDcX/392fulaXezoGhHRBW6259c6UFPWr0JLJC//T7/fkf+cfla/9FjnLRr36SJyioh8Or+g0r/ngeWf81s2Pz7fetfxEbxQAAVQAAVQAAVQAAVQAAVQAAVQAAVQAAVQAAVQAAVQAAVQAAVQAAVQAAVQAAVQAAVQAAVQAAVQAAVQAAVQAAVQAAVQAAVQAAVQAAVQAAVQAAVQAAVQAAVQAAVQAAVQAAVQAAVQAAVQAAVQAAVQAAVQAAVQAAVQAAVQAAVQAAVQAAVQAAVQIMsK/D+xFrUdhgWHuwAAAABJRU5ErkJggg==;" parent="1" vertex="1">
          <mxGeometry x="350" y="40" width="100" height="100" as="geometry" />
        </mxCell>
        <mxCell id="O1HXZXeSlepEHYtIHovu-4" value="Error Handler" style="shape=image;verticalLabelPosition=bottom;labelBackgroundColor=default;verticalAlign=top;aspect=fixed;imageAspect=0;image=data:image/png,iVBORw0KGgoAAAANSUhEUgAAAgAAAAIACAYAAAD0eNT6AAAAAXNSR0IArs4c6QAAIABJREFUeAHtnQuYZGV554s7CioXFVATIZkI9vR5T4+dZJ6ePt+ZUkbcUdFo6Gg2XkHBRBMxUTEaFRERY7K7Jm6QrK4JokZIRCVZo4LxhjGEBZWAukbU6CogMsNtYK5vPNV95vR0V3edqjqX7/LjeXiqp7vqXP7f733//++rqnM6Hf5DARSwWgGdnj5IZ9c9SjdMTWkan6Jp/BuaRGdqEp2jSfR2NXKRGvmQGvm4GvmMGvmyGrlOTfxtNfJdNXLnkv93qBFd8n/2u6XPu2VhG9ctbDPbdraPbF9/oUYuUBO9duFY5nTj5JM1WRv3jrXbPdBqUTk4FEABFEABFGhTATXrHqFpvE5TeYaa6BWaxheqiS9VE/2TmugmNXL7EqNeatw2/zs79n9bOJcPzJ9b9ApN5NRemOlOP7xN7dk3CqAACqAACtSmgM7NHaCpnNCbHZv4ZZrIn6iJr9BEblQj2xw296qCR6bB13uaGHmnpvFZmkSbtDt1vHY6+9c2MGwYBVAABVAABapSoLf0nZlXKq/UNL5YjXxJjdyLyS97u6FseNjeWwVJ48s0lXM1ieZ0Nl6bhaqqxoztoAAKoAAKoEBpBebfk4/XaiIv0FTetWD092H0Ixt92UCQP2/Hwtsjl/TC1myc6PT0g0sPIE9EARRAARRAgUEKzC/hR5EaeYkm8t755WrZidk3Zva56Q96zMbka2rkf2kqZ2hXJnkLYRDd/B0FUAAFUGCvArp+/UM1jZ6qRt6miXxWjdyN2Vtn9oPCwMLfo7vUyFWayvk6G23W2RMfsneg+QEFUAAFUCBsBTJT6H3orPfp+9579v2+IlfScFw1ymCOe9fCZwou7n2egG8hhF38nD0KoEBYCujMzIPmP5Evf6yp3KBG9jDDDyYALA1yu9XI9Wrid8x/8+D4Q8OqBs4WBVAABTxXoHdxmuyCNfMXybkfww/W8JcGgKX/3qYm+pSm8mpNo8jzsuD0UAAFUMA/BbR7/KHzy/q9T+h/H8PH8Edk4Hu9r3NmFy7qsjrgX6fgjFAABbxQQE8+6WhN4tPVyMf47j2GP6LhL10RWPzvezWNPqomepHOrD3Ki6LhJFAABVDAVQW0O/3w3nfxjVypRvjw3vLr+y82MH6uTp9dvWs/ZBd8MtPHuVo/HDcKoAAKOKWArp88Rk38u2rki2ok+xAXxoYGbTKQhYHPaxq9PLuvg1PFxMGiAAqggO0K9D65n10Glpl+m0bHvgcHrfmVgexOjVxzwPa2wvGhAArYqoB2uwdqEj9dk+gj3DSHVQ4HV3qyS0N/WM3U07h3ga1dhuNCARSwSgGdlRN7N34xwqf3B884mZU7oVH0o/l7RkyKVcXGwaAACqBA2wr0rsZnopeqkS87ONPDhJ0wYWtWUb40f6+CicPbrjv2jwIogAKtKaDd6CSdvwTvnRi/NQZFoGkm0Nw9f42BtXFrBciOUQAFUKBJBXRi4uDeddjnr8qH2TRjNuhst87XafbBwZmZBzVZi+wLBVAABRpRQGfXPap3VzYjtzPbZ7YPA30ZuE2T+K1cW6CRlsROUAAF6lZAjTyht9RphGvw2z0LZZXAnvHZrml8mW6MZuquT7aPAiiAApUqoJ3O/mrkNDXxNcz0+s70MFt7zNb2sfiipvGzs5qqtEjZGAqgAApUqcD8+/vyAk3kGxg/xg8DlTLwHc0uPcxNiapsWWwLBVBgXAV6X+PLmlMqP6TpV9r0bZ+dcnxNr2QkcmvvOhndqSPGrVtejwIogAIjK5DdFW3+Q0uyFePH+GGgUQa2qIneokl05MgFzAtRAAVQYFgFerfeTeVcNbKFpt9o02fG3fSM2/793dO7lga3KB62jfF8FECBYRTo3X533viZ8dtvDISFsMbont7lhtdPHjNMTfNcFEABFFhVAe1OHK5JdI4alvpZ8WDFw3IG5lcENk0/bNWi5o8ogAIosJoCC1ftO1OzDx6FNZti9sx4u87AHb3QzrcGVmtx/A0FUGCpAr1b8c7fnOcHGD8zXhhwmoHvaxKfzi2Jl3Y5/o0CKLBMAU2iTWrk6zR9p5u+67NXjr/qFZjs2hyz0eZlBc8vUAAFUEDNugk18g8YP8YPA14zcKVumPxFOh4KoAAKdHQmfrSa+P1qZDeN3+vGz6y66lm1u9t7QE38Dl2//qG0QBRAgQAV0Onpg3qXFjVyN8aP8cNAkAzc0esBc3MHBNgCOWUUCFMBNXKymugmmn6QTZ+VAHdn7nWN3fWaRmmY3ZCzRoFAFMje++vdZpQGWFcjZbuw5TIDV2oqJwTSDjlNFAhDgd5yv5HXq5H7mfUz64cBGFiFgW1qotdmXwUOoztylijgsQK6YWpKjVy3SsG7PGPh2Jlxw0A9DHxNN079isetkVNDAX8V0JmZB/VuEmJkF+bPjA8GYGAEBnb27i9wihzmb6fkzFDAMwWyD/SokW+NUPDMpuqZTaErurrMwHeyC4R51iY5HRTwSwHtTh2haXyxGtmD+TPjgwEYqJSBNL4suxW4X12Ts0EBDxTQRE7VVH5YacEza3N51saxw2/1DGQ3BkvkBR60TE4BBdxXYP5KfnIlxs9sDwZgoEEGPqZm+jj3OyhngAKOKqBJ/Cw1ckeDRV/9jIJZGprCgKsMbFEjz3W0fXLYKOCmAvOf8Jd3YfzM+GAABixg4BLtThzuZjflqFHAIQV0dvKX+YQ/Td+Cpu/qrJXjrmfF5RbdGM041Eo5VBRwRwHtdPZbuHnPdpo/AQAGYMBCBrLrBpyr3FzIHWPhSO1XQGcnfl6NfM7Cgmc2Vc9sCl3R1WUGvsw9Bez3FY7QAQXUyGlq5KeYPzM+GIABhxjYqmn0Ww60WA4RBexTQNevf6gaucShgnd5xsKxM+OGgVoYiN/PBwTt8xeOyGIFdFZOVBPdhPkz44MBGPCAgW/pbLzW4pbLoaGAHQpoKs9QI1s9KHpmVLXMqDBEasNJBu7O3s60o8tyFChgmQLZJ2cX7t7HdfwxTsITDPjIwJ7e3QW73QMta78cDgq0p4B2px+uSfxpZjZOzmx8bNScEwGkTgY+p+snj2mv47JnFLBEATXyBDXyXcwf84cBGAiIgR9oIustacMcBgo0r0B2Vy01si2goq9zVsG2mbXCgFsMPKAmemnznZc9okCLCujmNYeokb/E+JnxwQAMwIBckt3fpMWWzK5RoBkFdHbdo9RE11L0NH4YgAEY2MvAV7Q7cWwzXZi9oEALCmhXJtXI9yn6vUXPkq1bS7aMF+NVHwOp/FA3TE210JrZJQrUq4Am0Sa+34/xE/5gAAZWZeBunY0219uN2ToKNKiAJtGL1cgOCn/Vwq9vZsGsDW1hwCUGdmoan9Vgi2ZXKFC9Agu38D0X48f4YQAGYGBIBlJ5V9ZDq+/MbBEFalZg/pP+8aUU/ZBFz0zNpZkaxwqv9TKQxpdp9/hDa27XbB4FqlNAZ9YepUY+h/lj/jAAAzAwLgPxNdnVUqvr0GwJBWpSQJPoFzSRb1D04xY9r4chGICBnIH425pO/VJNbZvNosD4CqiJf1WN3E7R5kXLIyzAAAxUxEAit2oSTY/fqdkCClSsgCZTXTXRXRR7RcXOe6v1vreKvujrJgP36Mb4iRW3bzaHAqMroImcqkbux/wxfxiAARionYH7NI1PGb1j80oUqEgBNfHz1MhOir72omfG5uaMjXFj3OpgYLsm8bMqauNsBgWGV+BnS/6vUiN7MH/MHwZgAAYaZ2CHpvFzhu/cvAIFxlRAjbyGgm+84OuYSbBNZqgw4C4DuzSVM8Zs57wcBcoroEl0DuaP+cMADMCAFQxkq7Bnl+/gPBMFRlRAU+HSvu7OFpjpMXYw4CsDibx5xLbOy1BgsAKaxG8l8VuR+GnivjZxzgu2x2EgjS8c3Ml5BgoMqYAaeRvmj/nDAAzAgO0MROcN2d55OgqsrAAzf9sLnuPDlGAABhYxkMavW7mj8xcUKKmAmvhNFNaiwhpneY7XsrwLAzDQFANJ/Psl2zxPQ4HlCmga/wHmj/nDAAzAgJMM7FETvXR5Z+c3KDBAgexrJRS9k0XPDKupGRb7gTX7GdjFxYIGmB1/3lcBTeLnc4U/zJ8ACAMw4AUDO7L7tezb5fkXCvRRQE30TK7t70XRMzuzf3bGGDFGTTGwXWejzX1aPr9CgXkFNJUncVc/zJ9ZHwzAgJcM3KdplOJ3KLBMATXxr6qReyh8Lwu/qVkG+2FGCwN2M7BVk2h6mQHwi3AV0FROUCO3Yf6YPwzAAAx4z8BPtLt2TbiOx5nvVUBn1h6lRr5J0Xtf9MzM7J6ZMT6MT3MMJPINTaIj9xoBP4SngE5MHKxGrsb8MX8YgAEYCI6Bz+vmNYeE53yccUc7nf3UyCUUfXBF39wsgxkdWsOA7Qx8OPMCLDEwBbi5D8ZP+IMBGICB7Bbvgdlf2KerSXw6hU/hwwAMwAAM9C76lsoLw3bFQM5ek6muGtlO4VP4MAADMAADCwzs0CTaFIgNhnmaatZNqJEtFD1FDwMwAAMwsC8D0V2aRlGY7uj5WauZPk6NfH/fAacA0AMGYAAGYGAvA9/V7sSxntthWKen3eMPVRNdC+R7Ibf9k7kcH58ehwEYaIeBVP6Zrwd6lBE0kfdi/pg/DMAADMBAKQaS6D0eWWC4p6JJdGapASdtt5O20R3dYQAGbGQglTPCdU4PznzhBj8PEABI/TAAAzAAA0MycL/OTv6yB1YY3inoyScdrUa+O+SAk8RtTOIcE1zCAAy0w8D3tTv98PAc1OEz1rm5A9REn8L8SfwwAAMwAANjMnBV5ikOW2JYh65G3jnmgJO220nb6I7uMAADNjLwtrBc1NGzVRP9Wu/SjhSRjUXEMcElDMCAiwzsUSOnOWqLYRy2zsqJaqK7mP2z5AcDMAADMFAxA3dnV5MNw00dO0tdv/6hauSbFQ+4i0mVY2aGBQMwAAO1MBDdpN2Jwx2zR/8PV41cgvmT+GEABmAABmplIJH3+u+oDp1h9t5MrQNeS5KkSBkzGIABGHCSgTR+jkMW6e+halceo0Z+6iREBAuWKWEABmDARQa26OzEz/vrrA6cmXY6+2sin8X8mUXAAAzAAAw0zMDnuT5Ai0FBE3lDwwPuYlLlmJlhwQAMwEAtDESvbdECw921JtG0GtlOACD1wwAMwAAMtMTAjuyeM+E6cQtnrqfIYXzlj4JvqeCZSdUyk4JneHaVgfjbfDWwwSCgibyXYnG1WDhu2IUBGPCOgYsatMBwd6VJ/CyKx7viYVbNrBoGYMBxBqJnhuvMDZy5zsSPViN3EAAIADAAAzAAA5Yx8BM108c1YIVh7kKNfMyyAXc8sdJA4AkGYAAGqmMg+vsw3bnms/7Zh/6eW90gATxawgAMwAAM1MBAGv3Xmu0wrM3rzNqjNJFbgbUGWHnfkVUcGIABGKiSgTt0/eQxYbl0jWerRv4K88f8YQAGYAAGHGHgYzVaYjib1o3xE9XIHkcGvcoUybaYlcAADMCAuwycFo5T13CmOj39YDXy75g/qR8GYAAGYMApBrK3rZPoyBqsMYxNqon+1KkBdzepMstg7GAABmCgega4QNAocUU3Tv2KGtlFACD1wwAMwAAMOMrAbk0nN4zigcG+RrvdA9XI9Y4OOCm6+hSNpmgKAzDgJgOJ3KjT0wcFa+jDnrgaeT3mT+KHARiAARjwgoEkOmdYHwzy+bph8hfVyP1eDDqJ3c3EzrgxbjAAA9UycJ9uWPfYIE19mJPWVD6B+ZP6YQAGYAAGPGPg8mG8MLjnahqf4tmAk6KrTdHoiZ4wAAMOMxA/JThjL3PCOjFx8M+u9/9NAgCpHwZgAAZgwFMGbuYDgX0SgRr5Q08H3OG0ShOCSRiAARiolIEk/v0+Fhjur3QmfrQauadSkVkmI3jAAAzAAAxYx0B0FzcLWpR3uNkPCZvwBwMwAAPBMJDGFy+ywHB/1GRtrEZ2BzPw1qVRmg7swQAMwEDDDOzSNIrCdf6FM1cjn2lYeJbECCEwAAMwAANtM3B10AFAk/jpmD/JGwZgAAZgIEwGAv1a4ML1/m8Oc9ApdsYdBmAABoJnILtPwNzcAcGtBGgSnRn84LME1/YSHPuHQRiAgZYZiF4UVADQ7vGHqpH/IAAwA4ABGIABGAicge/p5jWHBBMCNJVXBz7gLSdOGg78wQAMwIA1DCTye0EEAJ098SFq5DZrhGf5y70wksaq2f+MHRrYwgA8wuJ4LN6eeaP3IUCT+K00bpL3yAxkjfajH1b9+OWEgPEaDg27Kv0ufZ/qlX+nunEKTavSNMTtpNEfeR0AtDv9cDVy98jNP0QoOOeiqebmrwv/EQIKbeCkHS0y88//IwS0Mwb+sL9Vk+hIb0OApvGFmD+z/5EYWGr+edMlBNB02zKAxeaf80gIgMexeIze4mUA0JNPOprZP+ZfqfnnTZcQQNMdq+mOUJf9zD/nkRAAjyPzGN3l5SqAGrlgpOY/spAjFDX7sq9wV5r55802fyQE2Dd2vtbTauaf80gIgMdR+U/lXK9WAXRm7VHM/gkkQwfAsuafN11CAE131KZb9nVlzD/nkRAAj2W52vd5fn0WQFM5f+jmv68ggBSaHsOaf950CQHUSl21Moz55zwSAuBxFB4TebMXqwC6fv1D1cgWAgArAKUZGNX886ZLCKDpjtJ0V3vNKOaf80gIgMfV2Or/tzu1O3G48yFA0/h1pRt/fyGAJyRdxjX/vOkSAqibqupmHPPPeSQEwOPQPMa/63QAyK5vrCb6EQGA2X8pBqoy/7zpEgJoukM33SW1WoX55zwSAuBxOB5vye6a62wI0DQ+q1TjH04UIPJRr6rNP2+6hADqZdR6qdL8cx4JAfA4DI9JNOdkAMjucaxG/h8BYMmMYpjBD+W5dZl/3nQJATTdYWupDvPPeSQEwGNpHqNr3QwARk7D/DH/gQzUbf550yUE0HTLNt06zT/nkRAAj2V5nI0T50KAGvnywOZfVgCe52exNGX+edMlBPjJUZX9oQnzz3kkBMBjKXbjK5wKAJpE05g/s/9VGWja/POmSwig6a7UdJs0/5xHQgA8rsRj8fs9mk4+3pkQoIl8cNXmX5wYgx+iFm2Zf950CQHU3dK6a8P8cx4JAfC4lMfl/77IiQCgs+sepUa2EwBYAejLQNvmnzddQgBNN2+ybZp/ziMhAB5zHvs/3q/rJ4+xPgSokbf1bfz9T4pBD0kXW8w/b7qEAOrPBvPPeSQEwONqfmD75YHnL/wjtxMAmP0vY8A288+bLiEg3KZrk/nnPBICwuVxNfOf/9ttmcdauwqgJn7essY/+KQYcN81stX886ZLCAivBm00/5xHQkB4PJb1gER+0+YAcA0BgNn/PgzYbv550yUEhNN0bTb/nEdCQDg8ljX/+ed93soAoGZS9mn8w50Ug+2jXq6Yf950CQH+16EL5p/zSAjwn8dR+n5XJq0LAWrkIgIAs/+9DLhm/nnTJQT423RdMv+cR0KAvzyOYv7Za1J5l1UBILtvsZrorr3Nf9QT43V+wO6q+edNlxDgB4eL+4mL5p/zSAjwj8fFbA7/81Y9RQ6zJgSoiV6K+TP77zHguvnnTZcQ4E/Tddn8cx4JAf7wOLzh9zn36EX2BIBU/pkAQABQX8w/b7qEgD6NxzHOfTD/nEdCgPs8VmL+vRq048OAOisnqpE9BADHGmN1IM4XpW/mnzddQoC7Tdcn8895JAS4y2O1PXePdteuaX0VQI38MeaP+etHP5y3KP8eCQHuNV0fzT+vLEKAezxWa/7z55/K+a0GAO12D1QT/YgAEHAA8HXmnzfb/JEQ4E7T9dn8cx4JAe7wWIf5Z9tM5Yc6N3dAayFAEzkV88f8857k/SMhwP6mG4L554VGCLCfx7rMf+9246e0FwDS+DICQKABIJSZf95s80dCgL1NNyTzz3kkBNjL416TrtMj4ktbCQA6e+JD1Mg2AkCdg2vptkM1/7zpEgLsa7ohmn/OIyHAPh4bMf+eP9ybXYen8RCgqbwQ87fUoOuEL3Tzz5suIcCephuy+ec8EgLs4bHO/ttv223cIEhN9CkCQIAB4O8+lLccHi//oPaufdCvKPldMw35sg/AYa7A336oGc1h2y6dU/lEoysAukEeqUZ2EgACDACvebnqju15y+GRlYD2miEz/6L+du5UfcPZ7Y0FoaBN7XfoyScd3VgI0ER+D/MP0PzzIicEFI03+4kQ0Hzzw/wLBjH/5vnLe6E1j/HLmgsARr5EAAg4AGTQEwKKBkwIaLYBY/4Fe5h/s+xZY/jL/OfqRgKAdieOVSO7CQDLBiA8EAkBRSMmBDTDP+ZfMIf5N8Ocvaa/+Px3ZW/N1x4CNJHfwfwx/70MEAKKhkwIWNyQqv8Z8y9Yw/yr58sNo1/tvF9SfwAwcvXe5u++YKuJyd/Kji8hoGjMhIB66gbzLxjD/OthrGy/s/d5n6w1AGSfNOTT/8z++wZAQkDRoAkB1TZozL9gC/Ovli17zXyU89yhSXRkbSFAk+jFfZu/XyKOIjyvyRggBBSNmhBQTU1g/gVTmH81TPnsV0n8/PoCgJGPEwBYAViVAUJA0bAJAeM1bMy/YAnzH48ln01/33O7vJYAoJvXHKJG7lm1+e97IAxYqHoQAorGTQgYrQ9g/gVDmP9oDIXZf+/JvLryEKBp9FTMn9l/aQYIAUUDJwQM18Ax/4IdzH84dsI0/X01SqJN1QcAI39RuvkzCPsOSKh6EAKKRk4IKFcTmH/BDOZfjplQ++vK5/3f6wgA3yMAsAIwNAOEgKKhEwJWb+iYf8EK5r86KyubH68z8p1KA4CaSRm68TNAgJgzQAgoGjshoH9dYP4FI5h/f0byfsLjYH260UmVhQA10WsJAMz+x2KAEFA0eELAvg0M8y/YwPz3ZQOzH1WPsysMAPKZsZo/gzjqIPr1OkJA0egJAfNsY/4FE5i/X/2uXd/7h0oCgHaPP1SNbCMAsAJQCQOEgKLhhx4CMP+CBcwf8682MNxbydcBNY1PqaTxV3tywOKynoSAovGHGgIw/4IBzJ9+Xkc/T6a6Y68CqJF3EgCY/VfOACGgMIDQQgDmX4w95o/512H+89t8WwUBIP5q5c2/vhMGJpe0JQQURhBKCMD8izHH/OnXtfbr6NqxAoDOrD1KjewmALACUBsDhIDCEHwPAZh/MdaYP+Zfq/n3PGu3dqeOGDkEqIl+rbbGX//JA5grGhMCCmPwNQRg/sUYY/705sZ689TTxggA8X8jADD7b4QBQkBhEL6FAMy/GFvMH/NvzPwz74rfMUYAkP/bSPNvVBAM3doxJQQURuFLCMD8izHF/DH/5r3uKyMFAF2//qFqZJe1ZtG8kMDbhOaEgMIwXA8BmH8xlpg//bOJ/rl8Hzt19sSHDB0CuP0vKwWthT9CQGEcroYAzL8YQ8wf819uzM1psnHyycMHACMXtGYAbYrFvpsDczWtCQGFgbgWAjD/Yuwwfzv6yWq9xvu/RecNHwAS+SwBgFWAVhkgBBRG4koIwPyLMcP8MX8rwkX0qaECgHY6+6uJ7mq1+VshHAGgdQYIAYWh2B4CMP9irDB/zN8eD9uaeXrpEKBmUlpv/PaIB8htjwUhoDAWW0MA5l+MEeZPz2y7Zy7b/7qJIQJA9FICALN/qxggBBQGY1sIwPyLscH8Mf9l5muBlyTx6eUDQCLvtar52ygox9R8oRMCCqOxJQRg/sWYYP7N9wT6cDnN0/ji8gHAyNcJABakNuBeDjchoDCctkMA5l+MBea/vFbpXxZpEn+1VADQ7vGHqpGdBAACgLUMEAIK42krBGD+xRhg/hYZHX17hb69I/P2gSFATfyrK2yAQSbR2sMAIaAwoKZDAOZfaI/529MT6M+DxuIJgwNAGp9FACBFOsEAIaAwoqZCAOZfaI75DzIc/m5TKEnljMEBIIne40Tzt0lYjqW9QicEFIZUdwjA/AutMf/2ap5+O5r2SfzuwQHARNcSAFgBcIoBQkBhTHWFAMy/0BjzH82AMO6WdYuvWTUA6NzcAWpkm1PNH6hahsqSsEQIKAyq6hCA+RfaYv70G3c9555VrwioSfw4zN8SQ3MXsvYaBCGgMKqqQgDmX2iK+bdX2/TDarRP5YQVVwE0iZ9FACAAOM0AIaAwrHFDAOZfaIn5V2NAGHm7Oibx01cJAPIGp5s/cLULly36EwIK4xo1BGD+hYaYP33Flt429nFEr10tAHyQAMAKgBcMEAIKAxs2BGD+hXaYP+Y/tula5Sl/tXIASOUGL5q/XwNGAY46noSAwsjKhgDMv9AM86f3jNp7rH1ddG3fAJB9OpBvAFiV1Ci+KoqIEFAY2qAQgPkXWmH+9J8q+o9928i+CbDfshCgqZzA7J8A4CUDhIDC2FYKAZh/oRHmj/nbZ9zVjUlXHrM8AGycfLKXzd/ngeTcyhcFIaAwuKUhAPMvtMH8y9cU/cdNrZKp7vIAYOS3CQCsAHjNACGgMLo8BGD+hSaYv5uGRhAZdtxesjwAJPInXjd/IBkWEj+fTwgoDI+fCgUwfz/rnb6/fFyT6O3LA4CRjxEAWAEIggFCQGF8/KSK+S83CYzTZ00u7xcA/i2I5g/YPoNd/twIAVh/pgDmX75m6J1+aJXKDfsEgOxrAWrkPgIAKwBBMUAICDsEYP5+GBrBZNhxvHvfAGDWPSKoxg8wwwLj7/MJAWGGAMzf35qmvw8e2yQ6cm8IUCNPIAAw+w+WAUJAWCEA8x9sEJio5xpNyqIAED0z2OYP6J6DXjLYEQLCCAGYP/VOz1c1U09bHABeQQAoaRTA428DIQT4HQIwf39rl7487Nj+9qIAEL+DAEAAgAFRJQT4GQIw/2ENguf7HSouKAJAItwG2O/BppiHGV9CgF8hAPOn/oep/yCeG32gCAAm+idmf6wAwMAiBggBfoQWigwsAAAgAElEQVQAzB/zD8LQF/Wucud71aIAIDfT/IcWkMIqB5q7OhEC3A4BmL+7ted7b2n7/BK5cXEA+CkBgAAAA30YIAS4GQIwf8y/bZO1e/+39QKATk8fpEb20Pz7NH+7B5ACb2p8CAFuhQDMn97QVG9wdz+7tds9sKMz8aMxf8wfBgYwQAhwIwRg/pi/u6bc7Nitnzymo2m8juY/oPkDVLNg2qo3IcDuEID5U6e29g4rj2tSsgBwCgGAAAADJRkgBNgZAjB/zN9Kky3ZV9o59pOzAPAcmr/Vg0Rht1McK+tOCLArBGD+K7NqW+1wPDaN1a9nAeAsAgABAAaGZIAQYEcIwPxtMhSOxa2A85IsALyO5j9k83drkCnKusaLENBuCMD8qe26ajuE7aby6o4m0dsJAAQAGBiRAUJAOyEA88f8QzDpOs8xid/aUSMX0fxHbP51Dg7bdqfBEQKaDQGYvzu1QR+zd6yS+N1ZAPgQAYAAAANjMkAIaCYEYP72Ggpm79jYxJd2NJVP0PzHbP6A7xj4NY03IaDeEID5U2f02goZiK/IVgCuIgDUZAjAWiGsjowRIaCeEID5h1dL9M+axzz6VEdNfA0BwBFzoSBqLoiKOCAEVBsCMH83uKc/uTVOiXwhewvgBgJARY2fAnCrAOocL0JANSEA86em6qzTsLd9XfYWwLcIAAQAGKiBAULAeCEA88f8wzbousf/5iwA/AfNv4bmD7h1w+vG9gkBo4UAzN8NvulzLo/Td7MAcDsBgAAAAzUyQAgYLgRg/i6bCsfuSihK5NYsANxJ86+x+bsCA8dZb+MiBJQLAZh/vRxS5+hbMHBHFgDuJgAQAGCgAQYIAauHAMwfcyrMCS3q12JLFgDuo/k30PzrH0wKxgWNCQH9QwDmT/26UL9+HeM9WQB4gABAAICBBhnIQsCuXf2NMMTf7t6t+kevwgD9MhfG0/7x3JYFgJ00/wabv/1QULh1j9Gl7wvR5lc/549frprGsFc3e2wfxgoGdmQBYA8BgAAAAw0xgPmvHAQIAZhTYU5oUb8WuwkA9YsMyGg8zwDmv7L5538hBNAv6BdNMdALALwFAHBNARfufjD/3OIHPxICwq0TenGTY997C4APAQJdk9CFty/Mf7DpL30GISC8OqEPNz3mvQ8B8jVAwGsavHD2h/kvtfby/yYEhFMn9OA2xrr3NUAuBAR8bcDn/z4x//Jmv9IzCQH+1wn9t60x7l0IiEsBA2BbAPq7X8x/JUsf/veEAH/rhN7b5tj2LgXMzYCAsE0I/ds35j+8yQ96BSHAvzqh77Y7pgs3A+J2wIDYLog+6Y/5D7Ly0f9OCKBOfeoV7Z9L73bA3+IiMA1dBKb9AaeB1DkGmP/o5l72lYQAarjOGg5r2zd3NJUbCAAEABgYkwHMv6yFj/88QgAhICyjrmu8r+uoia+h+Y/Z/IGxLkDd2C7mP76pD7sFQoAbtUFvtHecEvlCdingqwgABAAYGJEBzH9Y667u+YQAe80F43dgbKJPZW8BfILmP2LzB3IHIK9xbDH/6sx81C0RAsKuQXrwGOMfX5GtAHyIAFCjSQDoGIBaPC6Y/6iWXf3rCAF+1hi9s+ZxjS/NAsBfEAAsNhqKoOYiGGHsMf/qTXzcLRIC7KsTepflYxL9WRYALiAAjGACwG053DWNKeY/rlXX93pCQJg1SS8ecdyj8zpqotcSAGoyC8AcEUxLxwPzr8+8q9oyIcCvmqOH1jeeafwHHU2iMwkAlhoO8NcH/7DaYv5VWXT92yEE2FM3w9YZz29u7JL49I6m8W8QAAgAMLAKA5h//aZd9R4IAc0ZCabtptZp/OyObpx8Ms1/leYP3G7CXdW4Yf5VW3Nz2yMEhF27VfUAf7dzckc3TE0RAAgAMNCHAcy/ObOua0+EAEKAvwY+3th2ZbKjZvo4mn+f5g8048Hlun6Yf12W3Px2CQFh17Lrvaiu498gj+xot3ugGtlNCCAEwMACA5h/8yZd9x4JAYSAuozUze3u0rm5AzrZf2rkJzR/AgAMiCrmX7cVt7d9QgAhwE2zrn7cErm1Z/7zASC6ieZPAAieAcy/PXNuas+EgOrNBFN1UdOvFQEgkc8G3/yB2EWIqztmzL8pC25/P4SA6uqGvumqlp9ZHAA+SABgBSBYBjD/9k256SMgBLhqXBx3NaHrkiIApPGFwTb/asQESld1xPybtl579kcIoG+52rfGPe5Uzl8UAKKXEwBYAQiOAczfHjNu60gIAYSAcc3Uxden8VmLAoA8I7jm7+KgcczVNSvMvy3LtW+/hIDq6ooe5YaWafTURQEgXkcAYAUgGAYwf/tMuO0jIgS4YVwEjGrGKbsKYP6fnnzS0cE0fwCqBiBXdcT8C6vdtUt1587i36H/RAgIuze42tNGOe5N0w/L/b/3qEbuIwSwCuA1A5h/YfGZ8b/hbNXXvFx1x/bi96H/RAggBIxiqE69JrprH/PP/qGJ3Oh183dqgAgilbOI+RfWnpt/XhOEgEKb7CdCACEgrw0/H69fHgBMfEXlTddP8SgO18YV8y8Mbqn552NJCCg0IgTQ4/K68PExjS/rEwDknQQAZt7eMYD5F8a2kvnnTY4QUGhFCCAE5HXh3+MFfQJA/DLvmr9/A0dRDjOmmH9haIPMP9eVEFBoRgig3+R14dNjKmcsDwAbJ59MAGAFwBsGMP/CyMqaf97kCAGFdoQAQkBeF748JlPd5QEglRO8af6+DBTnMVrzwfwLAxvW/HPmCAGFhoSA0eowZ4lHu/TrymOWB4BOZ381so0QwCqA0wxg/oVxjWr+ecMmBBRaEgLsMrGcUR6HHZd7tNPZb1kAyH6hRq53uvkDw7Aw+PV8zL8wrHHNP68lQkChKSHAr36RMx7W47/0Nf/5ABBfSgBgBcBJBjD/wqiqMv+8MRICCm0JAYSAvC6cfIzfv0oAkNc72fydHAiCRmWsYf6FQVVt/nltEQIKjQkBhIC8Ltx7fM0qASD6tcqasnvCALWLY4b5F8ZUl/nnXBACCq0JAfTLvC6cepx62soBIIkfRwBgZu4MA5h/YUh1m3/e5AgBheaEAEJAXheuPKZywsoBYG7uAG4KRABwIgBg/oURNWX+eZMjBBTaEwIIAXld2P+YfQNg/xUDQPYHNfIVJwzAfrEpjLrGCPMvDKhp88/HlBBQjAEhgF6X14Xdj19c1fwXAsBFBABWAaxlAPMvjKct88+bHCGgGAtCACEgrwtrH6M/GxwAkuhMa5u/tcISGBphBvMvDKdt889rkRBQjAkhgBCQ14WNj0l8+uAAMDv5y400cxsF4pjsLWDMvzAaW8w/rxdCQDE2hAB7e0jOa6iPabxucADYvOYQNbKDEMCs3hoGMP/CYGwz/7yZEgKKMSIEEALyurDncbtuXnPIwACQPUGNfM2a5m+PgEDdxlhg/oWx2Gr+OReEgGKsCAH0y7wubHhM5YZS5r8QAP6SAMAKQOsMYP6Fodhu/nmTIwQUY0YIIATkddH+40XlA0AqZ7Te/NsXDHjbHAPMvzASV8w/54UQUIwdIYA+mtdFq4/Ri8oHgK5MEgBYAWiNAcy/MBDXzD9vcoSAYgwJAYSAvC7aeuxGJ5UPAJ3O/mpka2sG0JZI7Lf9QsX8C+Nw1fzzOiIEFGNJCGi/t+Rchve4ZeAVAJemAzVyFQGAVYBGGcD8C8Nw3fzzJksIKMaUEEAIyOui2cdPLvX3gf/WVM5vtPk3Kwgg2qY35l8YhS/mnzNGCCjGlhBA783roqnHVM4daPhLn6Cz0WYCACsAjTCA+RcG4Zv5502OEFCMMSGAEJDXRROPSbRpqb8P/LfOnvgQNbKzEQNoQgT2YWfRYf6FMfhq/nntEQKKsSYE2NmPclb9edyhp8hhAw2/3xM0lX8lALAKUBsDmH9hCL6bf95QCQHFmBMCCAF5XdT3+OV+3l7qd2qiP62t+dd3wkDlgraYf2EEoZh/ziUhoBh7QgD9Oq+LOh7T+MJSZt/vSWqiZxIAWAGonAHMvzCA0Mw/b3KEgIIBQgAhIK+Lqh/T6Kn9vL3U73Rm7VFqZHflBlD1SbI9dwoI8y8af6jmn9crIaBggRDgTg/L+bX/cZd2p44oZfYrPUmNXE8AYBWgEgYw/6Lhh27+efMkBBRMEAIIAXldVPP4Lyv5eunfq4nfUUnzr+aEAMRVHTH/otFj/vvWMSGgYIMQsC8brvY7G447lfNLG/1KT9Qk2kQAYAVgLAYw/6LBY/79GzwhoGCEENCfERtM1aljiDau5Oulf6/d4w9VI9vGMgCnRMPsKx1rzL9o7Jj/6o2dEFCwQghYnRU8ZZA+9+rmNYeUNvrVnqhJ/OlKTYHBGzR4fvwd8y8aOuZfjmlCQMEMIaAcM/hJP52uXM3Th/qbGnkNAYCVgaEYwPyLRo7592tQK/+OEFCwQwhYmROMf2VtEvm9oUx+tSdrVyaHav4MzMoDE4I2mH/RwDH/0WqBEFAwRAgYjaEQeu1K5zgrJ67m6UP/TY3cQghgFWAgA5h/0bgx//EaNyGgYIkQMB5LKxmln7//96ENftAL1MR/PrD5+ykm4JUdV8y/aNiYfzV1QwgomCIEVMNU2X7m7POiPx3k50P/XRP5LwQAVgBWZADzLxo15l9toyYEFGwRAqply1mTX8WLUnnS0AY/6AXZVwrUyN0rGoCPQnJO5YoN8y8aNOZfjplha4sQUDBGCKiHsWGZtPL50V06MXHwID8f6e+aRh8lAKySvKwEoubjxfyLxoz519uYCQEFa4SAellztZcn0UdGMvcyL1ITvYgAULOhugQe5l80ZMy/mYZMCCiYIwQ0w5xLPdnEzyvj5SM9J7uzkBrZTgggBCjmXzRizL/ZRkwIKNgjBDTLnt1hYLsm0ZEjmXvZF3FVQMwf81/UfzH/dhowIWARhKr68ctV07idsbDbFAPSJPr7sj4+8vM0jc9iBSDgEPA3f71v4wn5Xz3zf1VADcYy7l9/tmo2Bvw3r8DfXAKLIYeRJHrxyMZe9oW6fvIYNbKLEGBZM2wK/Df+gequXbRcZv52mA0rAfO1uHu36nl/aMeYNNWL2M/i8d6p3emHl/XxsZ6nRj5PAAg0AGRFF3oIwPwXN572fw49BGD+7TPYdhhJ4k+PZerDvFhN9AoCQMABIOQQgPnb2WxDDQGYv508Nh0IkujMYTx8rOeqWfcINbKTEEAICOrtAMzf7mYbWgjA/O3msbkQsF1PPunosUx92BerkU8SAAIPACGtBGD+bjTbUEIA5u8Gj82EgI8N699jP1+T+PkEAAJAjwHfPxOA+bvVbH0PAZi/WzzWHQLS+DljG/qwG9BT5DA1ci8hgBDgdQjA/N1str6GAMzfTR7rCwH3Zl48rH9X8nw18jcEAALAXgZ8WwnA/N1utr6FAMzfbR7rCQGXVGLmo2xEzdTT9jb/ek6OAXdNV19CAObvR+35EgIwfz94rLqfb5x88ijeXclrdG7uADXyA0IAqwD7MOB6CMD8/Wq2rocAzN8vHqsLAT/IPLgSMx91I5rGF+7T/Ks7OQbdZS1dDQGYv59152oIwPz95LGS3h6dN6pvV/Y6TeLHqZE9hABWAZYx4FoIwPz9brauhQDM328exwsBe3TD5C9WZuTjbEhNfM2y5j/eyTHwvujnSgjA/MOoOVdCAOYfBo8j9/non8bx7Epfq6mcQQBgBWBFBmwPAZh/WM3W9hCA+YfF4yghIJEXVGri42xMuxOHq4nuWtEARjlBXuNXEdgaAjB/vzgr2zdsDQGYf5g8luV2/nlbdHr6weN4duWv1VT+JwGAVYBVGbAtBGD+YTdb20IA5h82j2VDQCL/o3IDH3eDatZN8GFAAsCqASAD3JYQgPnTbDMebQkBmD88lg0As/Hacf26lterkS8ONICyJ8nz/C2ItkMA5u8vW6P0jbZDAOYPj6W5tejDf0tThKbRbxEAWAUoxUBbIQDzp9n2a7ZthQDMHx778bjS79q48c9So1/p37p5zSFq5PZSBrDSCfL7cAqi6RCA+YfD1ih9pOkQgPnD4zCcJnKrTkwcvJL/WvF7NdF5BABWAUoz0FQIwPxptmWabVMhAPOHxzI8Ln5OIm+2wuRXOwg108epke2lDWDxCfJzmEVRdwjA/MPkatR+UncIwPzhcXg2H9DuxLGrea81f1MTfYAAwCrAUAzUFQIwf5rt8M22vm8HYP7wOAqPJvrf1hj8oANRI08YqvmPJAgG653GVYcAzJ9mO05vqXolAPOHx1F53DA1Nch3rfo7XwkkoIwUUKoKAZg/zXbUZrv4dVWFAMwfHhdzNdzPV1tl7mUORtP42SMZwHDCAJWPeo0bAjB/6qLKuhg3BGD+8DgOj4mcWsZzrXqOdjr7q4luIgSwEjASA6OGAMyfZjtOs13ptaOGAMwfHldiqtzvb8681CpzL3sw3CUQ8x/J/PPCGDYEYP4025ydOh6HDQGYPzyOy6FNd/0ra/z583R6+iA18h9jmcC4AvJ6t4uwbAjA/N0eZ1fqtGwIwPzhcXymf2D9hX9ys1/pUVN5NQGAlYCxGBgUAjB/mu34zba8hoNCAOZfXssmx821faXyypV81Znf6+yJD1Ejd45lAK4NHMdbfQNYKQRg/tVrDb+DNV0pBGD+g7WDrzIa/VS7E4c7Y/SrHaia6C0EAFYBxmZgaQjA/Ms0Ep5Tl+EsDQGYP6xVxlr8xtU81am/6abph6mRLWMbQGXiYsbOjkUeAjB/mq0N/SAPAZg/PFbH41btTh3hlMkPOlhN4rc6azrVDSxFUoWWb3q16htehZZVaMk2xufo9WerZkyiJRpUwkD8pkF+6tzfs0TDKgArDzRJGIABGICBFRnwb/afpxU18jYGfsWBJz1Xkp7RlxqDARhwlAEXbvmbG/qwj3rySUerie4CTkfhxKAJaTAAAzBQFwN3evfe/9KQoIm8mQBAAIABGIABGICBfRj4w6V+6d2/s+82aiK3MvD7DHxdiZLtMluBARiAAfsZuC27Zo53ht/vhNTI2QQAAgAMwAAMwAAMiGoavbyfV3r5u+z6xmrkFgae4ocBGIABGAicge/q5jWHeGn2K52UJvHpgQ86y3L2L8sxRowRDMBAvQy4fMe/lQx+0O91bu4ANfI1QgDpHwZgAAZgIEgGUrkh88JBfunl33Vj/MQgB51EXW+iRl/0hQEYcIKBaKOX5l72pNTEVxACSP8wAAMwAANBMZBEHynrk94+T5PoF9TIA0ENvBPJlGYEkzAAAzBQEwP3a3fqeG+NfZgTUxO/oyaRWQYjbMAADMAADNjFQBK/dRiP9Pq52QUQ1EQ/IgSQtmEABmAABrxmIJUfZhfE89rUhz05TeUMrwedBG5XAmc8GA8YgIFWGIifN6w/ev987XT2VxNdSwgg/cMADMAADHjKwFe009nPe0Mf5QQ1ndygRvZ4OvCk7VbSNo2UeoIBGLCCgT06GyejeGMwr9Ek+giwWgErgYXAAgMwAAPVMXBJMEY+6onqhnWPVSPbCAGEABiAARiAAU8YuEdn4keP6otBvU6T6BxPBp30XF16Rku0hAEYcJWBs4My8XFOVrvdA9XIdYQA0j8MwAAMwIDbDETXBnu9/1GDgCZrYzWyw+2Bp3AZPxiAARgImIGdmsbrRvXBoF/HFQJpHAE3DleXOjlululhIGeAK/6NnmF0ZuZBauJvYwIEARiAARiAAccY+JZ2jz90dAfklR1NprpcG4DCd6zwmQHlMyAeYSFMBvZoKk/CwitQQNPofRgAIQAGYAAGYMARBi6qwPrYRKaAbpp+mGY3UAgzSTKDYNxhAAZgwBkGoh9pd+oI3LtCBTSJ5ggApH8YgAEYgAGrGUjiZ1VofWwqV0BNfIXVA+9MQqWBwBEMwAAM1MDA5blf8VixAmqmj1MjP6lh0FheI7zAAAzAAAyMw8Btun7ymIptj80tVkBN9EwCAMkdBmAABmDAIgb2aCKnLvYqfq5JAU3jiy0a+HESI69lxgEDMAADrjOQxO+uye7Y7FIFdHr6wZrINwgBzABgAAZgAAZaZuDmzJOW+hT/rlEBNfIENbK95YEnubue3Dl+GIYBGBidgQd0w9RUjVbHpldSQNP4dQQA0j8MwAAMwEArDCTx76/kT/y+ZgW009lfjVzdysCPnhhJ22gHAzAAA64zkMSfzjyoZptj86spoDPxo9XITwkBzABgAAZgAAYaYuBOTSd/bjVv4m8NKaBp/OyGBp3U7npq5/hhGAZgYFwGkmiuIXtjN2UUUBO/nxBA+ocBGIABGKiVgTS+uIwn8ZwGFdDuxOFqoptqHfhxUyOvZ+YBAzAAAy4z8HU9RQ5r0NrYVVkFNIkfp0a2EgKYAcAADMAADFTMwBbtrl1T1o94XgsKaCrPUCN7Kh54lxMrx86MCwZgAAbGY2CPcpe/Fhx9hF2qkQsIAKR/GIABGICBahiI3jKCFfGSNhRYuD7AJ6sZeAoIHWEABmAgWAay7/vPzR3QhpexzxEV0Jm1R6mRW4KFdrzlLpYL0Q8GYAAGjHxPu9MPH9GGeFmbCmTXaFYj2wgBzF5gAAZgAAaGZOB+TaLpNj2MfY+pgCbx84ccdFIvMx8YgAEYCJ2BJHrxmPbDy21QQJPoPYQA0j8MwAAMwEA5BuI/t8G7OIYKFNDNaw5RI18pN/AUCDrBAAzAQLgMxNfoxMTBFVgPm7BFAe1OHKvZBzpCX9bi/FnahQEYgIGVGLhF108eY4tvcRwVKqDp5OPVyJ2EAGY3MAADMAADSxjYql2ZrNBy2JRtCqiJNqqRB5YM/EppkN8zU4ABGIAB/xnYoUZOts2vOJ4aFNBEfpPLBZP+CYEwAAMw0POCRF5Qg9WwSVsVUBO9heKn+GEABmAgdAbiN9rqUxxXTQpop7OfpvLXFH/oxc/5UwMwEDADH8q8oCabYbM2K6DT0wepkasChp/3Nv1/b5MxZoxhoD8Dn8u+Im6zR3FsNSugm6YfponcSAhgFgQDMAADoTAQ3aRJdGTN9sLmXVBAu1PHayK3UvyhFD/nCeswEDADP9YN6x7rgjdxjA0pkN30QY1sDbgoWCbsv0yILugCA/4wsCW7SVxDtsJuXFJAN0YzauQeQgCzIxiAARjwjoH7dKMYlzyJY21YgexiEGrkforfu+JnFufPLI6xZCyHZWCbboyf2LCdsDsXFVATP4WrBRIACIEwAANeMLBDk/jpLnoRx9ySAprGz1YjO2kAXjSAYWcLPJ8ZJgz4wcAuNfLclmyE3bqsgKbyQjWymxBACIABGIAB5xjYo0Ze4rIHcewtK6Bp9HIK37nCZ/bmx+yNcWQcR2VgjybyOy3bB7v3QYGffT3wbEIAIQAGYAAGHGEgic7xwXs4B0sU0CR+K8XvSPEzaxp11sTrYMd9BlI51xLb4DB8UkCT6BxCACEABmAABixlII0v9MlzOBfLFFATvZbit7T4mb25P3tjDBnDkRngtr6W2aWfh6MmfhnfDiAEEARhAAasYGCPpvJKP92Gs7JSAU2j3+I6AVYUPzOmkWdMjB8G7jwDuzSJXmylSXBQfiugafwbamQHTcT5JkKIIETAgHsMbFcjp/ntMpyd1QqomXqaGtlGCCAEwAAMwEBjDDygJnqm1ebAwYWhgJpooxq5m+JvrPiZrbk3W2PMGLOqGLhXk2hTGO7CWTqhgG6c+hU18lNCACEABmAABmpjYIumkxucMAUOMiwFNImmNZFbKf7air+qGQTbYTYKA+4x8GNN43VhuQpn65QCmsoJauRmQgAhAAZgAAYqY+DfdMO6xzplBhxsmApoEh2piXyW4q+s+JmtuTdbY8wYs6oYuFq7U0eE6SactZMK6MTEwT9bDfhrQgAhAAZgAAZGZSB+f9ZLnTQBDjpsBbTT2U9TOVeNZPelrioNsx20hAEY8J2B7Op+52Y9NGwX4eydV0BTeaEayS5a4XvRcn6MMQzAwLgMbNckfr7zjZ8TQIFcAU3lSWpkCyGAEAQDMAADKzJwpyZT3bxv8ogC3iigZt2EGvkuxb9i8Y87c+D1zD5hwF0GbtF08vHeNHxOBAWWKqDdiWM1lX8mBBACYAAGYCBnIL5GN8gjl/ZL/o0C3img3e6BmsYXUvx58fMICzAQLANpfDGf9PfO5jihQQqoiZ+nRu4LtvDdXapkmZmxg4HxGbhfk/j0QX2Sv6OAtwrohqkpNXILIYAZIAzAQEAMfD+7f4q3jZ0TQ4GyCujJJx2tRv4xoOJn9jT+7AkN0dBNBlL5Pzqz9qiy/ZHnoYD3CvQuGpRE56iR3QQBZoIwAAMeMrCn99mnTmd/7xs6J4gCoyigSfx0rhdA8/ew+bs5W2WVoaJxi+7SJH7WKD2R16BAUApoOvVLmsiNmABBAAZgwHkGEvkG3+8PysI42XEV0O7E4ZpG73O++JlBVTSDwgipBScZ+Es9RQ4btx/yehQIUgFN42erkTtofk42P8yfABgqA9llz58bZNPmpFGgSgV6Vw808klCACEABmDAAQau0pn40VX2QLaFAkErsHBr4VeqkQccaAChzno4b2b8ITOwY+EWvnzKP2i34uRrU0C7MqlGvk4IYCYIAzBgEQM3axqvq63xsWEUQIF5BXRm5kGayrvUyB6LGkDIMx/OnZl/yAxcwgf9cCcUaFgBNfFT1MiPCQHMBGEABlpg4HZN5NSG2x67QwEUyBVQM32cGvl4C8Uf8oyHc2fGHzoDf6vrJ4/J+xCPKIACLSqgSTSnRn5CEGAmCAMwUCMD2YrjaS22OnaNAijQTwHdII9UI5fUWPyhz3o4f2b+oTKQfd7oEm7i06/z8jsUsEiBLKHz2QBmgQRBGKiIgW9qGqUWtTgOBQVQYDUFdNP0wxa+KbCroiYQ6syH82bWHyoDO3t37+sef+hqvYa/oQAKWKqAGnmCGrmOEMBsEMMABrAAAAZOSURBVAZgYAgGrtckmra0rXFYKIACZRXQ6emDNInOUSP3DdEAQp31cN7M+ENm4F41crbOzR1Qtr/wPBRAAQcUyK7PzYcEmQUSAmGgDwN7NI0v0w3rHutAK+MQUQAFRlVAN8ZP1ERu7NMEQp75cO7M/MNkIJV/VTM1O2o/4XUogAKOKaDd7oGaSnZzoa0EAWaEMBAkA/9fk+hM7XS4eY9j/ZvDRYFKFMiu5qVpfLEa4dsCzIDDnAGHN+73ayrnc/3+SlooG0EB9xXQbnRS7z3A8JohpseYh8TAlZrKCe53LM4ABVCgcgU0iTapib/KknCQS8IhGWFo53o9F/OpvF2yQRTwT4HsK0CaRC9WI98jCBAEYMBpBm7RRF7A+/z+9WnOCAVqVUAnJg7ufUiIWw6HNlvkfN1/W+QnvWt/cBW/WnskG0cB7xXIPiy0cCGhLcwGnZ4NYuzuG/ugMby7d/ne9esf6n1j4gRRAAWaU0BnT3wIQYAAQAi0koF540+iI5vrCOwJBVAgOAUWBYE7MQMrzWDQLJG/+7MSgPEH14E5YRSwQAHtTh2hibxZjfyUIEAQgIFGGbhDTfzG7K6fFrQCDgEFUCBUBbR7/KG9Txob+SYm0KgJMJP3ZyZfdix/rKmci/GH2m05bxSwVIHsq0aayKlq4msIAgQBGKiSgfjbvUt3b15ziKXlz2GhAAqgwLwCOhsnauIr1MhujKBKI2BbQfGUyGd7obrT2Y/eggIogAJOKaBJ9AuayrvUyH1BNe7wlqbLLmHzvMFsbO9dljuR9U4VOweLAiiAAv0UULPuEWriN6mR2wgCzOJhoA8Didzae39//eQx/WqI36EACqCA0wosXF1wTo18Ro3swQj6GMHgGSKzaL80uq53xc2ZmQc5XdwcPAqgAAqUVUBn5cTeVcuM3EEQIAgExsDW3m240ygqWy88DwVQAAW8U6B3qWETvUgT+QKrAgQBj4NAtuL1ud5XZqenH+xdIXNCKIACKDCOAppO/tzC5YZv8dgIWML3awl/9fFM5Ye9la7u2jXj1AavRQEUQIEgFOhdU8DET1ETX6pG7iUMsDLgGAN3q5FLdOPkk7kVbxAti5NEARSoQ4GFKw2e2vtqlJHtjhnB6rPDkGbC/p/rrt6HWxN5gXYnDq+jFtgmCqAACgSrgJ580tGaxmepkavVSNZwMVg0aJOBnfPfaIleqjNrjwq2MDlxFEABFGhSgazhLtyD4EplZaBNEwxt31nw/FLv0rx8Z7/JkmdfKIACKLBcgfk7E8bPVyN/q0ay919DMyXOt9Yxj+6afwsqfh434llef/wGBVAABaxQQOfmDujdiyCNL1QjNxMGCEMjMvCd3nf1sxtcTUwcbAXcHAQKoAAKoEB5BbQbnaRGzlYj/8A3CggDq4SBe9REf99b2k/ix5UnjGeiAAqgAApYr8D8pYinumrkAk3lX/kgYdCBYJea6FpN5Xw10UZm+daXLweIAiiAAtUpkH1dS5NoU+8mLPP3J+BrhrW+l95q4Mg+vHdd7+6USTTHp/arqyO2hAIogALOK9ALBGl8iproPDXRp3721sHWVZaM+eCd3WFhixr5x164y0LeKXKY84ByAiiAAiiAAs0oMH9FwnUTmkQv7n0gzMRfVSM7CAWtzuT7Ba8dmsoNmkTv0ey+Eunk47XT2a8ZStgLCqAACqBAEAro9PRBOhuv7V2DIJV39b4TbuQeQkFjoSDT+rrepXZTeWXvGx/cSjeI2uMkUQAFUMBKBXR23aMWPk/wyvnVAvkS1yQYKxQ8oCa6qff9+1TO1ex9+yx4dTr7WwkAB4UCKIACKIACuQLZMnTvDocb4yeqkZf07gqXXawoW67mgkWqJrvATk+LyzWJ3t7TKJnqalcewxJ+ThGPKIACKIAC3imgSXSkplGkSfx0NfLbauRtvaVtI1dpIjdqIreqkd0Ovr2wu3fs2Tlk55LdGa93bvHLeueanXN36gjvBpQTQgEUQAEUQIGqFOhd2bA7cWwvKKTyJDVy2vxqgry69x32JH5377bJafTR+RvTyBd775En8g018h01cocauXPR/9v6BIrsd4ufk73mOzq/jes0kS/0tt3bR3ypZvvMvj+f9o7hDDXy65odW8/YJ45lmb6q0Wc7KFCfAv8JaaYgP8eKtw8AAAAASUVORK5CYII=;" parent="1" vertex="1">
          <mxGeometry x="500" y="40" width="100" height="100" as="geometry" />
        </mxCell>
        <mxCell id="O1HXZXeSlepEHYtIHovu-6" value="Activity" style="shape=image;verticalLabelPosition=bottom;labelBackgroundColor=default;verticalAlign=top;aspect=fixed;imageAspect=0;image=data:image/png,iVBORw0KGgoAAAANSUhEUgAAAgAAAAIACAYAAAD0eNT6AAAAAXNSR0IArs4c6QAAIABJREFUeAHsvQWUHEeaLhrqFksthhajxcxoMVvMzCxZaItZarVa2LLIAotazGzZFnjMHsv2mMb20Hn3vHd377uzM7t77u55uzs78fTVdGpSparqzPgjqxL+PqdPVmVlREb8HBE/CMF/DAGGgCoEqgshdgohvhNC/JsQQvJ/XGAAWH8rhNghhKimijxuxxBgCDAEGAIMAbsQyCWEWCGE+E9W+HFR+LEMK+BgmRACOOE/hgBDgCHAEGAIOAqBPaz4E674w40C7MTwH0OAIcAQYAgwBByDwBBW/q5T/oYxMMgxrHPHDAGGAEOAIRBoCCQJIX7NBoBrDYDv+Sgg0PzJk2cIMAQYAo5BoAUrf9cqf2MXoKlj2OeOGQIMAYYAQyCwEFjABoDrDQDgiP8YAgwBhgBDgCGgFQKH2QBwvQHwplaMc2cMAYYAQ4AhwBAQQnzEBoDrDYAPmVIZAgwBhgBDgCGgGwJ/YgPA9QbAn3UjnftjCDAEGAIMgWBDoAIrf9crf8MRsHywSZVnzxBgCDAEGAI6IdCDDQDPGADddSKe+2IIMAQYAgyBYENgIRsAnjEAOBIg2LzKs2cIMAQYAlohwBEA3il2xJEAWkmfO2MIMAQYAsGGAEcAeMcA4EiAYPMqz54hwBBgCGiFgHIEwJojp+Xl7//A/zZgAJgRjlw4EkAr6XNnDAGGAEMguBAgRQAcfvQpK38byh/GEmBGMADQliMBgsuvPHOGAEOAIaANAsoRAIVSirDyt6n8jd2SwkWLUYwAjgTQRv7cEUOAIcAQCC4ElCMA6jRtwQaAogEA2BF2ATgSILj8yjNnCDAEGALaIKAcAdB92Cg2ABQNAMCOYABwJIA28ueOGAIMAYZAcCGgHAEweflaNgAUDQDAjmAAcCRAcPmVZ84QYAgwBLRBgCMAFJW4cZ6vcuVIAG30yx0xBBgCDAGGgAIEOAIgAcqfIwEUKJWbMAQYAgwBhoBWCHAEQIIMABgBHAmglZa5M4YAQ4AhwBCwAQGOAEigAcCRADYolR9lCDAEGAIMAa0Q4AiABBoAHAmglZa5M4YAQ4AhwBCwAQGOAEigAcCRADYolR9lCDAEGAIMAa0Q4AiABBoAHAmglZa5M4YAQ4AhwBCwCAGOAEig8udIAItUyo8xBBgCDAGGgHYIcARAgg0AjgTQTtPcIUOAIcAQYAhYgABHALjAAOBIAAuUyo8wBBgCDAGGgFYIKEcA9Bg+mlMAazIeOBJAK01zZwwBhgBDgCFgAQIcAaBJiWMrX/WfIwEsUCo/whBgCDAEGAJaIaAcAbD2aJaywlNVlH5tx5EAWmmaO2MIMAQYAgyBHCDAEQCEVbtOY+Two08pVQHRtnwOuOafGQIMAYYAQ4Ah8AwCHAHgEgMAxgTXBHhGl/yBIcAQYAgwBByGAEcAuMgA4EgAh6mdu2cIMAQYAgyBZxDgCAAXGQAcCfCMLvkDQ4AhwBBgCDgMAY4AcJEBwJEADlM7d88QYAgwBBgCzyDAEQAuMgA4EuAZXfIHhgBDgCHAEHAQAhwB4CLlDydAjgRwkNq5a4YAQ8AzEKgihNghhPhRCPEXIQTCnP4vIcRxIURLz8zC3QPlCACXGQAwAgoVKUoJBwRO+Y8OAciYE0KI/5EteyCDfp0tkyrTu+ceGAIMgWgQmCeE+PdsxoskDP/6NOYZzmuFo3XA9y1BYEEMGEeC+7N78FbXGQPPff09gyBHAliiXacegkyBbIGMeUbvYZ8hm+Y6NQDulyEQZAhsC2O2aEyI+z/zbgCJVJQjAOCtzkr770pbJyxQX8EGD4Q/C5zynxoEsOqHTAmHabTvkFX8xxBgCGiCwBYbzGcw5X89ffd6IUSypjEEqRuOAHDhEQBHAsSdBXMJIbAb9h8K8mdn3EfLL2QI+BACKsrfMAJw/VgIUc2HcHFyShwB4EIDgCMBnCT5F/quJIR4pKD4zbKHjYAXwMo3GALWIUBV/gYz/vPTLbwx1l8b6CdJEQBHHn/GRwAOGQ8cCRA3vhwihPgnovI3ZA8bAXFDG7/ITxDQpfwNRsT1FDsI5kgiHAHgkALX4Q/ANQFypF/KAwWEEJmaFL9Z7rARQMEKtw0cBJxQ/gZD/l4I0S5wELU+Ya4B4GIDgCMBrBOyzSdbCCF+ckD5G3KHjQCbCOHHgwkBJ5W/wYzsIBidtpQjAOClrmOVy31EjyLgmgDRCVfxF4qjnyFPrF7ZCFBEEjcLBgTiofzNzMoOgi/SFUcAuHgHgCMBXiRYwh0djn5meWLlMxsBBIRxU/9CIN7K32BWdhB8nqY4AsDFBgBHAjxPrIRvcPT7o4Nb/oZ8iXRlI4CAOG7qPwgkSvmbmZMdBIXgCAAXK38cjXAkAFn4OeXoZ5YlVj6zEUBGJXfgBwi4QfkbDBt0B0GOAHC5AQAjgCMBlMWe045+hhyxemUjQBmV3NAPELCT3tcqU1Gf+08hxHIhRJIfAGxzDstUt0S5BkB0xz3dTo3ESADgOGh/4GXwNHibKh90t+e0wUGjRp5vCAJuWvlHYuqgOAgiSyLSnX6YQ6GTSDB6do8jAOJnABAjAYCz759yINJk1w2ALEqEo98zvrBocPBOQAAIkaf4dwi4XfkbDOxXB8H6QgisBKH0jbmSrvBO173S5f4iGxXESIBwPMMYSBdCdPg7e/rmUyId/cLhnNN3NgJ8Q3Y8kVgQ8IryNzOsHxwEofSx6vtBl9I397P2aBYbAHHyHyBGApjpOvwzfGCQCQ/GAOLjvfrnFke/cPjm9J2NAK9SHI/bEgS0n/m37dVXtu7eOyfG0vE7yoHCichLf/DqX2mzlKkSrOCdziv2yCt23XDREAlgBcfIirdCCFHeSwSfzaN2SvdagcULz0DmQPaYjWBNn9knwGMEx8O1BgHtK/+2PfvIC9/8JqR45qftlPkLFnSCIc19eiGDIMofdxdCXBRCYLzm8TvyuVBKEVb+cVr9G8YEMRLADh38txDi3ad+A8OFEHmssXpCnopLRr+8+fNL47jr4je/lR1fGWQHllaf5Z2AhJAQv9QpCDiq/A2heOD+L2StJs2sMhnlOTc6CNbOPsv9x3goffM7OAIgPit/g85xJUYCqNI+kkS9KYRo7JSgUOw3Lo5+1es3lHtvP3jO2GUjQBFj3CwwENC+7d+ud79nK3+zUMTn81//LAdNnSlzJSWpCjmr7VAudFiCsZgihJgmhIBBYnXc2p/jCID4GwCAeSJxLoRAyuipQgjQYCL/wIO6SvdGhClkCWQKZEu4vMF37EJCJjmADz4OSCRl8bvJEIjLyj8SU64/flaWLJvqBFOG95kIB0Gcy8KhTzltr05hNXtDekTBGAkvfE+PsTBzfVo4HSbq+79mOw5WIUsLex3ExdGvWMlSctWbJ3Kkb94JsIc8ftr/EIjryj+SYjn+0ZfxchCEw1Q8HATbZp/t/0WnAqf0lZw7tzzy+LMcBWQk/PA9dWMAjoDJycmJUvqR3gt/kwtCiDZxEG1xyegHRz/IEKt0yjsBccA8v8ITEEi48jcz7awNW2W+Ao47CDqVQTB3tgPWJxRF7VTbniPHWhaQZpzwZ3Xlb8BOQ0KgSIpcxz0cD2BrHg6pOv/iktEPsgIyw4CznSsbATrRzX15EQKuUv4G88J5B048TilCU78PhRAVNSCuiBBisRDiD6a+4zF+y++oWL2mPP3Zt0qC0sALX9UNgVOffiMrVKthGV8JoCPkFVgkhAAtU//AU+AtR+cbydHPLo2yEUBFNbf3KgRcqfwNBo6zg+BQRSSWFEKkPRWc/+K0sKP0X79lG1vbowYO+Kqu8CPB7viHX8p6LVo5qhQpdJLdFrQMf6ASijwBXkqoo18k2Me6x0aAIqa5mWch4Grlb2bWdW+dkSXi4yB4VAhR2CJGiz/dMt30dNUPpyrXCvTyVavJKSvWyQu/+lv+BTNc+bNe5W4VnjBsEZsO3LiZdrKN2o1PnQZB61b+wDvgIUfnBVkAmWAV3lafYyPACor5GT9AIGHe/laZMfw5bJ926DvAUcGSLbhyKjEMIYe8/H92WtCp9J+UnBw6OhkxZ4HMuHhTXvru99oFZThu+Lu6IbH//vshY6BR2/Yyd5488aBvlXfAyEX9gWIxhF+cHP16ObqTxdEBMTDMP/kCAp5Z+UdSLAhhS5CDIOKnV7sllM9sHKQUKy47Dxwql+zaL2EoRYIb31NX0vGC3clPfxXCIXAZx8yBdgwChLGCB8y5BOLm6Bev8FXeCfCFnuNJRICAp5W/IYjj7CBYJ7s2+R/NSjfRn4uWKCmRXAaFZiCwDNjw1f2K3gqOcGSz5sipEI6LlChhR0nH41nwwnIhBHjDE45+VmBufoaNgAjag295GgK+UP4Gk8bRQTAeAtXSO1KKF5e9Ro+XG06ck9iqNGDBV38o/Wh4BK6RKAu4x25Poo3PeL0/p4x+0eCl6z4bAZ7Wdzx4EwQ8d+ZvlYnjmEEwIYI3T968snmnrqGt4WipTa3Cip/zvqEAYwClnDsNGByPo7CE0DwMjGKlSlvK6Oc0TbNPgEmL8EdPQsBXK/9IDH/i46/ilUEwbgKxTrMWcs6mbXymH+eqfZHoy6334O8xe2N6ogoNOcYLyOgHnnYL3HknwJN6jwedHcurlVHNJX3dwqDGOOJUYlgrPM3bqSjTi3P9ndfuuUb4GbDlq7t3D+AXM2jqLOlCfwHL/GIu3es2euOdANanXoOA71f+kYREHB0ELQs2s5KP9Lley9ZyQcYeee7LH1nx84qfRAOgIdASaCoSrbn1no6MfpHkgc57vBPgNRUY3PH69szfCkODUREHj5h4two8nO3jHDcIq33g482Hn8gtZy7L1zIPhvK2j1u8XA6ZPkeiNkH7vv1lk/Yvy5oNG8vy1arLshUrh/5R2a1QkaKh/zz58j3DJcJAjfvGs2gHJYJ/KD9sI/cYMUYOnTlPTlq2WmJ3aMWBYzLt7FX5xt1HMuuX35MUrRU6TPQzMIb7jpsk8+Uv8Ax2buOHXLlyhcboFf8W3gkIrlL1yswDrfzNQteNDoLFS5cJGSdICWseq5c/Q8FDqS7ff1ROWLpS9h07Ubbq1jOk0EuUKSvhze02xYPxINa+er0GIWNhwKTpcuqqDSEjYfeN+/LMkx98gx/4CiDzYKly5V2FB7c4+tnlPTYCvKIKgzfOQG77x2JgtzgIVq1dVy7cnunpmH2s0pBdEM6JOG+GkkdxG5QYdqOCp44Jxlrjdh3kgMnTQzsI2y/fll5ZqUbiCeQWWLBtt6xSq07C8eU2R79I8Ip1j48Dgqdc3T5jXvnHOD9OlINgnaYtQitjr6XkxQoY2+XTVm+U3YaOlNXq1vetordjKCQnJ8tKNWuFji3GLno9FKrmxQqLm09fkkg/bGfuOp51s6NfLIUf6TfeCXC7SgzO+HjlH0P5G8y7987DeJUYDsXub8665Jlt5MOPPpWLtu8NJZupXKu2hKLTIfCD0AeOOLCqRqIerLAPvPOBZ/AOQ6DZy13iguuQo9+dh56BjSE3Yl15JyA4StatM+WVvwXlbzAxGNZJB0GsqtLPX3e9kNv39mM5d8t22WXwcJlauUpcFEAQjAFjjvB9aNe7X+jsfdf1+66nhx1X78q2vfo6Qgdec/QzZIXVK+8EuFU1+n9crPxtKH8zQ+t2EMRWP1L0mt/hps9nn/w6lEEOZ/c4tzcUFV+dLV1rwBcRDYj6QMEmFP1xE22Yx4JjH2SeNMZNvXrV0c8MEyuf2Qjwv7J12wx5219R+RsMrcNBsHaT5nLTqYuuFOgoNTtzfVpoZZe/YEFtQp2qFILe3gslmzeeOC9rNWlGohmvO/oZcsLqlY8D3KYi/TseXvkTlb+ZqVUcBMtXrRZazbnNuQ9buYh9x/iCrmi9Mn+E5yEM0Y1HR6g7AKdHO7D0k6OfWU5Y+cw7Af5Vum6ZGa/8NSp/g6nhIFijfsMcBR3K8E5bvUEipMpom+gr4tbh18Bb+/HZzrejDO0+C2MAyXvgnOcW4xK0DpoH7ec0H/AQeCnRPJHI9/NOgFtUpf/GwcrfAeVvCAswLhKmlC5f4QVBhzPckfMWydOff+cK4bbv3mM5fParrPSF95V+NKVarkpVOWzWPOkWJ0KEO4IHwAvhYy5ToaKcsnK9p/NcGHJAx5WNAP8p30TPiJW/g8o/nOkPPfg4lBVu3bEsiRX2pW9/l3DFjzzvcCJDpAE8q8OFMH/3rzFQscZLctziZa6okodtbhgla46cDvEIeCWcf/j7H0LGECJBHOBL6AL+CxAE+Mw/jsrfbcIL2fdQJbBAoUJOCBPu00O7CKiJgHA9nM27jU55PC9WjGSfgABpaYemyso/gMof2604juBzff+u6qkrQyRswrb7yU++ZmPAxTKCjQCHNGMAumXl72LGdmLFg6I6cALj1T4rfqsGArzuuw0bKffcepcNAZfKCzYCAqCtNU+Rlb9LmVm34oe3N85TkYDFrZXzrCqjaM+h/DGcK2s2aCxbdu0hOw0cKvuMnRQKWRy3ZLmcsW6LXLh9r1xx8C257vjZ0H/auWty26Vbof/dN9+Vb9x7HPrfee3tZ/eNZwG/1/celkv2HJSzNqbL8UtXyiEz5speo8bLDv0GyCYd/lZuuFzVarJAocK+PPaAXwhoyM0JqXTzjpf6YyNAs4b0cXes/AOg/BFeNXdzhqxYvabnFVKuXEmyZGo5Wbd5S9l50DA5Yt4iOXP9Vrl8/zG59cKNZ8rbUOKJvmZcvi2X7T8qp6/dHDIUYJA0aN1Olq9aXebJm8/z+EA4Hmo7wBvdS0rS72NlI8DHWlvT1Fj5+1z5w5sfVfYihRtGW0G76T7K5CISoe/4yaEz6OUHjsldN95xnZJXNTIy7zyUa46eDs0NBX4wVxg3Xoy8QHjepGVr5JkvvmdDwCVyhY0ATZrSh92w8ncJkzqxEoEQnvj6KgkF6iaFHmssKGrTtGNnOWDyjFDxIDeu5lUVvd1226/ckYt37pPDZy+QzTt38xQekcQHhgCMTydom/t8MQIgFkzYCPCh9iZOiZW/T5U/kgeNfnWJTCle3PWKP7VSFdm+T3854bVVcuOpi75Z1dtV9lafB4wmvr5avjxgcOgoJykpydU4LlE2NbT7dP7rn9kQSLC8YSOAqDF91JyVf4KZMZa1rvobhCzCtIqUKOFapYCt7Y6vDAopBTjdWVV8/NzfHBLD4YBdAjghwiBw8xEPxjZ7Yzr7CCRY7rAR4CMtrjgVVv4JZkJVBR+tHbIGLsjYI8tWrOw6xZ87Tx5Zu2lzOXj6HLn68ClW+NmRBeGKXNd3JOwZNvtVWa9Fa1c6F6ZWriJfTd/tikyX0fjJ7/fZCFDUnD5oxsrfZ8p/zZFTslrd+q5S/AULp8g2PfuEQu0QQqdLuXE/kXcBosFl1437cvamjFBYYuGixVxFI4ga2Jx1iY8FEiSP2AjwgTa3OQVW/gliNidWFKgXAG/xWA518fwNse6ox47taCSIiaaU+L49Ja4LXpm3H4ScKtv26icLphRxBd0gyqFD3wGSc/vbc+jTJU/YCLCpQT38OCt/nyj/U59+I1+ZMEUmJycnXIgjI1yrbr3krA2s9HUp6nj0s+fWeyFDDQabGzJA5stfIFRe+syTH3hHIM5yio0AD2t1i0Nn5R9nptJloZv7Qfa++Wk7ZbFSpROu+Cu9VEuOenWJ3HH1Lq/0HT7Td9ogQMZDOI7CTyPReQcQMQAaB62baZ8/O7tDwEaARU3qwcdY+ftA+WdcuiVrNWmWUMVftGQp2WPEmFAKYaeVEvefmGMCJCPqPny0TCmW2PDRei1by713HrIREEfZxUaAB7V7DkNm5R9HBnJilYJ4/t6jJyQ0X3/tJs3k9LVbJLLVsWJOjGKON9zhwzF11QZZp1lLiZTL8fQlMd6FMsRjFr4mkb7aCd7iPl/cVWAjIAeN6qGfWfl7XPmvPnwyYXHdCN1r1a2nRMrdeCsffp+7jAwUP0Ldgrz58ifEEEAJ4vTz19kIiJM8YyPAQ1o+ylBZ+ceJWZxYRcDJr8fw0Qk5jy1SomSoYl6Q0++yARLZAAFNDJgyQ+IoyFilx+uKipXgiaxfcn0BJ2ROeJ9sBETRrB64vU03U7br3Y+zd8XJoFj2xuGE5HsvU7GSRIlceIezAoysABkuf4MLijDBARQ0o1vW5NQfEl2tO5bFuwFxkEeo6gjZnxNOFH6HjuI/ByAwXwEZMRHMyv/Fc7Jwa1nH9xMffyXb9+0fExe6cYv+KlSrISevWCv33uXzfVbw9gwf0AxKG5evWi2udItIhVcmTJXnvvqJDQGHDQEHjYA5Dui/QHdZSQjxbzqVRNuefXjl7zCDwXjYcOKcLFk2Na5CtGL1mqHQr713H/GK3+NhfIk2XEBD01ZvkuWqVI0rDVeqWSsUhqrDAOc+oi90HDoO+HchRJVAa2zNk9/Jyj86EbuRweHdPGTG3Lh6+JevWj2UtCfRSoPfb2+17QV4Zd55IEfOWyRR7EmnLIrVFxJRIVqB8wY4K/scMgLSNevAQHf3YyxGsfMbb/s7y0wwRva9/VjWbNg4boKyRJmycvzSFbzVz6t9x3d8tl26JQdPmx3XhFXNXu4ij/7il3wk4OCOpQPHAd8FWmNrnHySEOIvdpR8tGdZ+Tuv/JHpLF7pVwsVKRKqwodsb15YRfIY/bEzAHrbcOK87DlyrESa32jyRuf9YiVLyZUH32IjwDtGwH9q1IGB7ipZByO17dWXz/wdZJ6zT34tOw8cGhdhmJw7TyijW8blO6z4edWfEBrYc+eBTDt7TS7bd0RihR6PNMN4x7BZ87nUsINyDDsB0BUadM5/B1pra578/6AipHX3Xmw9O8Q4qHYWry3/Wo2byZWHTiRE6PMK3h8reF14hIPgtou35KbTl+TsTdtkldp1dSiOHPto0KqtPPbBFyzPHJJnmsIDf6dZBwa6u+NUAwDtZ23YykyjmWnWHDkdl9zqKKSCsCxdwpv7YWWuiwa2X7kTMgI2nrooR8xdGJdkQshTsOPKHZZnmuUZdIQOXSOEOBpoja158i2FENhSISEnX4GCcu/tB8w0GpgGnsnjFi+TSQ6X7c2TN5/sMXyM3HH1Hit/3u53LQ3svPa23JR1OWQIrD2WJTu+MkgmJTlbZwD1BOZs2sbyTIM8g/MydAN0BFXPZOuqZpp1YOC7O6wBMbJ6/Yby/Nc/M9MQmAZFfHCkogMfsfrAscLaY2dcK/R1rSC5H3/sRuy+8a7cnG0E4Fhg5vo0WbZSZcf5BAW1WKbRHJwBP+iGWPLIxm+HAq+tHQBAISGElnDAQVNnsQGgaAAgl/9LjZroYpSI/cAKHzFvkeREPv5QjEEycPbceiC3nLkS2gmAEbD+xHnZbehImTt3noi0bkOpxGxfr0UriYybbswJ4oUxDZwyIyZ8beDpt0KIFAf0H3cphGguhPgPG8iIiFQU3+Cc22oWMzIoUuEfq33d5i3lxpMXeNXP2/2epQEkDUKEAAwA43/RjjdktXoNHOWd1EpV5N47D9kIsLm4gbzRdJT5X0KI1qypnYXAilgKxOpvcCo7/tGXzCw2mAWMYhW+dp8rWDhFjlu83LNCP0irXJ5rzjszUMRp564+MwBgCMBJsM/YSRLlqO3yh9Xni5QoIdPOXGG5ZlGunfzka1mqXHld+FjmrOrj3gEBJAZ6YJUhYj3HoYH2dgFe7j9IF6M81w+OFCAgWbHkrFgYRt6BEY6wtp57ficAdD4vbadE5b9YsonyG1IIL9l9gI0AC0aAppA/4PJ9IQRy1vBfHCBQQQjxRwqTGG1nb0hnRrHAKDjH0y20sO2GFVHmHa7Wx4rdO4rdDq5CRsD568/tBMAIWPfW2VCkgFMJhNDviDkLWLbFkG0aQ/7+LISoHAe9x68wQWCIocQpVzicZd5+jxklBqMYTjyaQmRCKx9suy3Zc5BX/XzW73saiGYEwBCY8NoqWbhoMcd2A5CuGMVuDB7m6992Pffde6wzZflIk17ij3GEwDGK8jfaVq/XgMNoLBgAKcWKaxFUrbr1CpU6tbOS4mf9uUIODl4fya3nb7ywEwAjYPn+o7J20+ZaeMuQaeZrqAbKr37DRkC2jEOlUo2ZSznhTxwVfvirODTQguLWZfU3bN2OJKTy5M3Ljn684vf9ij+6UQOfgBePA2AEwEGw+/DRjiUPat6pqzz35Y9sBHz/B8khf+Fq1NvfOTQwTkbAjLWblQ2A4qXLyKW85R9g5cc7GDAM9t5FdMCLjoEwAvA/ZeV6WahIUWU+M6/8wz/Xa9laIomXrgWBF/vhkD9vK/too+fQwDgYAWe++F4iB3m4YMnpe51mLWT6hZus/Hj1zzRw77HMvPtQbgnLE2AYALjCg79clWq2+SwnPsTvtZs0l0jm5UXlTR0zh/xFU5/ev8+hgXEwAMCA8F5GDnIrwgaeyD1GjGEvf1b8rPjDaACRL1vOPp8nwGwEIAV2046dLfGZFV40P4OUt8c/DF4OFA75876ijzUDDg102Ag4++TXct/99+W8rbtyrAAIz2au3sfb3tHPwxk2mbcfyM2mtMFmA8D43H/iNJnsQMGtSjVryaPvfx6YnQAO+YulOv3zm7bQQK4a+HySoDNPfpD73n7/2Upu64UbEiFGxUqVfm6VUqREyZAzE845WfizkmMaiE0DqB1gVBE0lH74ddKyNTJ/QS1V6p7jVRgBQdgJ4JA//yh4KzPh0EDNOwFZX/wg3zAp/3Chjrzn646fDW1phv/G32MrAIYPw2fXzXcihgeaDQFkDyxastRzCty8ra/6GccBfvYJ4JA/KyrTX89waKBGAyDr8+94JR92fstKm5W2bhrYef3tHI2A1984LMtXq67dCKjVuKnM+uX3vjwO4JA/fyl3q7Ph0EANRsCpz76Vb7zNwl63sOf+mKYi0cC2y7eZMzj5AAAgAElEQVRzNALWHM2SdZq20G4EIMeH3/IEbDxxnqv8WdWYPnyOQwMJRsCpz77hlT+v/JkG4koDj2T6hcjZAs3HARtOXpCtuvfSbgQgWRC2zKnhdm5ozyF/PtToNqfEoYGKBsDJT37Fgj+ugp9XxJFWxEG8h7oB8KkxK/xon+GEq3r2H61d6+695YVvvG8EcMifTW3p08c5NNCmEXDq829Z+bPyZxpIIA0gPHBL1hVLRkCvUeOl7oqC3YeN8vQuAIf8+VSbK04r8KGB57/+WS7dc0B2GTxc1mrSTNao31B27DdQztm0TSK8z9iyO/3L72N6+wdxRcZz5t2JRNDA7hvvWjIAsDuAXAG6jYAJS1c+kwuGfPDClUP+FLWkz5sFNjQQjjDlqlSNulVYpESJkHEAL2AwTyKEHb+T4c408CINbL9yx7IRMGTGXK2FhHIlJYVSEntB6Rtj5JA/n2txwvQCGRr4WuYhmTtPnqjK33wOCAHCQvhFIcwwYZgkjgasOQUaPgKj5i+RyblzW+J3M+9H+5w3f36ZduaKZ3YCOOSPoCED0DRQoYFbz12znLMfAgBbiEg2kjhhx4qGYc80EE4DoeqBZ6LXDDCUv3Edu3iZViMAO4T73n7seiOAQ/4CoME1TDEQoYGHH34iUX43mmUf7X5q5aoSXsjhQoi/s2JiGkgcDey59Z7cnHXZ8nEAdgKSkpJs8380uYDkQyc+/sq1RgCH/GnQjAHpwvehgSjYAye/aMyc032UImVhnzhhz7Bn2EeigR1X71k2ALAbgCM9nY6B9Vq0cm2OAA75C4j21jRN34YGXvru9yHv/pyUfKzfB0+fwwYAO0MyDbiQBqwkCTKOAnAdPG22ViOgz5gJrtsF4JA/TVoxYN34MjRwzMLXlFf+hlHQbehIFv4uFP6RVoV8L1i7BZl3rOcHMAwB5AkweFvHdf7WXa4xAjjkL2BaW/N0fRUauGzfEYnQHSqT9xkzkQ0ANgCYBlxKA7tu5Fw50FD+xrXL4GFkuWDIlXz5C8gdV+4k3AjgkD/N2jCA3fkmNDBkCRcurIXJp63ZxMLfpcKfV/zBWvFHw3fGpVu2/AFgCLTq1lOLfIAhULZi5YQ7BXLIXwA1tgNT9nxo4LmvfpLV6zXQwtz5CxaSSD4STfDwfVZATAOJpwFE6mw5az00EAYACgjVbdZSi5yAEdC4XQd58ZvfJmQngEP+HNCEAe5yubG9RbmWKJsqj3/0ZdwZovfoCdqYuu+4Saz8efXPNOABGkBo4KbT1kMDYQSsOXJalq9aXZu8GDZrftzlHYf8BVhTOzR1z4YGImSPYrSY21apXVdCqPAKL/ErPMYB48AKDWRcum37KOD1vYdl0ZIltcgN+BytOnQ8rkYAh/w5pAUD3q2+0MCN6XFhCGTnKpiSooWRixQvERIkVoQOP8PKiWnAHTSALIFbbGQJNJwC56fvljjuMy8AVD8jU+DR9z+Pi8zjkL+Aa2mHp++Z0EB4wNZq3FQLA+fJmzdU9IOFujuEOuOB8WCHBlSiAmAITFm5XlvK4KYdOknkIDGK8jhx5ZA/h7Ufdx+CwFFVS9jcrnr9hvLCN79xjCFemTBFi/LHmMcvXcnb/h44842lFOAUtinrsly4440QPlEeFqWfW3XrJeu3aiOr1qknS1eoKEumlpMFC6eE/lHoxaBZfDbu4xk8izZoiz7QV/9J0+WE11aF3oF3ccpo9xgq6RfsRwXACHhl4tRnNGDQgup12uoNjsk7LHggU1XHFtYOMp7/GAIRIVBYCPFTGMEoEd7k5WsdYYhNpy5qiffHHLsPH83K30PKP/P2A7nq8Ek5ecU62XPUONmgdbuQsrZa8VEHXRt94J1lKlQKjQHJZjCm1YdPycw7D5mm4kxTe+88lJvP2HMINI4Dmr3cRUm+GXRgXPPkyyd3XXvbEZk3adlqLWPMlu2Q8fzHEIgKgRZCiP80CFv1Wrp8Be3MkPXL72VqpSpamKFu85YsrOMsqGOt4iP9hlCvaas3hlbgWJHjuEaVHuPVDmPEWLsOGSGRUyLt7DU2COJAZzuvvW3bIRBGwLq3zkoU+9FBH5VfqiXPffmjdrlXKrWcjvFBpkO28x9DIEcIaAkNPPTgY63MgDS9OhgVxknGZY73j6R0E3kv4/JtOXXVBtmmZ18JHOnAtRv6wJFC21795NRVG5nuHDQGUALcWNnbuS7etV8W0JRI7JUJU7XKvAPvfKCLD5blKPX5AYZANgQQGviQKjxXHDimjRnQF3U8aI+t29ffOMyrMgcFsR0jYuXB46Hz9RoNGsmk5GQtONZBJ071gTnWbNBYDpg8Q648dILpUCMdquQGMAwF+HfoqB6IPtYdy9Im95bvP6qDJyDLIdP5jyFgGQJ1qEIQiTd0eMSe/PRXsmTZVB2MIEfMXchCV6PQtaPsjWfXHz8nB0yZIVMrV9WCUyqdJrI9YNBn7KSQ/4ABH76qOxhuu6jmEAhDoNuwUVrosUyFivLMF99rkX1rjpzSMSbIcv5jCNiCAPkYYNf1+1qYoH3f/jqYQDbp0ImVf4KUf9q5a3LQ1FmyQrUaWnCZSKXt1LsrVK8RKmG79fx1plNFOg05BGZdUToK2HjqoqzVuJkW+hwweboW2QfHQg30BlnOfwwByxBIEUL8kUJ4xUqW0pIrG5m2KOMw2pYqV57PXxWFquqKFIla5qXtDBViyZM3nxY8Gvj08zU5dx7ZtGPnEOw43ND+bsD2q3eVDADsAiw/cEwWLlqMTKs46sm4eJNsBKDeQNES5MyFkOWQ6fzHELAEgdVUATty3iIy8Z958oMsU7ESmRlD5/57+dxfVZHbbbfj6l05ZOY8WSq1PBl3VDr0ensYrkNnzpM7rt7jXQGrBuzdxzLNZrEgwxcAV13+AFVq1ZGI4aceg+LYUgMdr7Ik+fmhwEOgqBDinygEh/SYpz/7lkz4ukpeDp42m4WnVeFJeA4hbzjPLphSRIfA4j6EeAYDpK7tNHBoaGVr1yAL4vO7rr+jvAsAI6B1j97PYE+RhWMXvU6Wgwh/xo4qZRxCiD8LIYoFXrsxAHKEwHoioYVit6lWL/wHknPnphJ9qFQwJ2exv41qR2kglhoCE1vXVNrh9n9X+pFgARgjTBKOlHZwFMRnVcMCYQCApnXkHEFeiMzb75GNAGQajEQPNu+tzVH68wOBhgAsxD/ZJKrnCLN81WrkbS/k1a7TtMVz/aqMKV+BAnLd8bMsKAmr+liKA05TWJUmIhOfCj34qQ2M41bdejJ9x6DtXTfeJe0CzN2yXebWYNTWb9mGXCsAqdUrVq9JlYn/LIQoHmgNx5OPCYFNVCH5WuYhsrU7e0M6ldBD7UfNX8zKP4aAjKXcY/2Grf6X+w/mFb9pi57KN6rtYXx1GjBEIsoiFs6C+hsiKszn+3Y/9xk7UYssWrR9L1kuLt2jpfz5hpgagH8MLARKCiH+RVUQoR0q9FGrYr31wRMtXrj1WrTigi2alT8SrcAhrUAhPaVUKbTGbZ8/KkBBI/hf7L75LhsCJrrfc4u2C4Bdrsov1SYbAXDmPPvk12QjQMPOKGR8icBqOZ54VAhspQrVjSfOkwm858ixZGYrUKiwBOMGddXjxLxnrk+TEGJUGuH2zytu3fBACmWUunWCBrzaZ/qFG6RdgAUZmVqOuXRERm0+fUkHD26OqgX4h0BCADGiOB9SJq7G7TqQlT+s9WQN6WDHLlrGAtC0CqIIbjib1WnWUpkuKDRlpy3irmGg1GvZWnYeOFSOmLNATl+zSS7ZfUCuP342VKntwP1fyJOffB36N2dqw2fjPp7Zee1eqM2SXftDfaAv9IldJbzDCymL67VoLTecvMB8cO+x3HPrgdx0Wq1aoHFkgOJOdugx0rP58heQbz78hCwnG7ZpTx3LvwohEO3FfwyBEASWRCJYO/dQppfq+a+jNGeN+g1561+D8kfkxJAZcyW2lu3QQTyeRWKUph06yUFTZ8oF23aHlLuOeGur9It3wUjAuzEGjEVDshbtcIYTLI5skJCJYgT6oW36RdouAAxhlH+m0nfHfgPJcnLLmcvkcTxd8C1k3ccQAASShRC/pxA2spZZFZ7RnsMqjTIGtMXKDJm8/CCwEjmHFQffklVq1yXjg4pPoz3KtXYbNlLCKxupXqPRUKLvY2wYI6pW6ioxa8CAckV5YhRdSiRNJfrde26/RzoGwE4AjsGSkpJIfIFiQdjGp9Jqk/Yvk8YhhPiDECI3q0CGwAiKcEFbxNtSCPrSt78LxetTxwH/gUQLGi+/H2lnsWJMdFgftkobtW0vxy1epiWGmkKblLYo5Qql0bZXX23lZlV5BGGDcBIM8m7A1gu0iAAYAW169qEq3pCsg8yj0Na2izd1VC8cxuqPIfCxqlBBu+adupIIGUwwZ9M2MlOVTC0nd15/mw0Axe1/CDddhVBU6AmRBR1fGSSX7Tsiz331E5mmKMLVibaY07I3DktsAecvWJBM7yowRpvaTZvLzVmXA8knu2/SsgOCR1YfOSWL0HPzh46PqHSm4cj0I1Z/wYZAO1VBYrTbnEXbzoIDVokyZckCcdaG9EAKNR07DlNXbUhI+l4c2bTs0l2+lnlQS4gUVaDGqz3CwRDT3aJzt4Q4FBYqUkROW7MpkPxCzQsAI2DY7FfJ8qpclaoSyX0oNAe/K0MOE65tgq0Cgz37SwTCkXWbtyQRMIh//JIVZCJu1LZDIIUZVfln3n4gewwfQ4a/XRoqUTY1VBr44LsfkumHIkDd0PbI489CRx1lK1aOOx7a9+kvkduBSkdear/rxn2yLwBCjCvVrEXGF3Y+qTSoIS/A+WCrwODOvooQ4r/sCm/z8ysPvkUiYKz+qd7TONtcezQrUEJMh8DdcvaqrNGgEVmImekhp88wGLENTj3/pApNN7YHTAAbwCgnOOr8/aVGTQKWRfCRRCZLrOQp/7M3bSOfwSNnw/mvfybJ0OX7j1Lp5S9CiGrBVYPBnfkuiiBBqUtq1r9xi5dTiVd2GTSMlb/Nc//FO/fJovTqYpZwh23+dr37yfTz10mCzo1K26kxwakWjoPxyjdQrFTpUL4EHYalF/qArxBF+RttEf1EkaFoO2PtZhJfQAZXfom8G7EjuGowmDNH4h9S2t+F2zNJhKtj9V+wcIpMv3CTDQAbBsDkFeskKpRRBVdO7RHuBAdRxMs7pSj93i8SY3UaMDguhgCqDE54bVVAeOmR3HyGlhgIRsCyfUclci3kxAuxfof/EzVF8Kvpu0ljyE4CVziYqjCYs54eiyhz+g1nuNTEKzpW/0hU44UVhxvGiBC/fuOnkLctc6IN/I4qdaz4/6DN8Nlx9a5s2bUHVcjn2B5GW/+J0wLBUxmXb2vZBeg+fHSOcM2JZyYvX0uiFcjikmVTqeOYEkxVGMxZf5ITUcb6feyi10kEi9V/kRIlSASLlKxYIblBubp9DHD2a993AAnesejB+K1a3fpy48kLJNrw+6qeMj8cDeDM3oC3U9fWPXr73jlwzx16emDsAqx76yz5OK1YyVISMpFCG6NfXUKlCw4JDIgtUIciOJAa9vhHX5KIVcfqH6Frble8bhjfzmtvyzrNWlCFQ8z2EGCzN6azc9/3+lb90ZQBnAVnbdhKdp7NSQag7oHf82psJRYJMnwBBk2dFZM/coI1fqfuAhz/8EsdabvrBkQHBnqacPhQJtjuw0aRlD8SohQvXUb5/Rh7xRovcb5/C+f+GZfvaMmwGI1esGXcY8QYeerTb0g0EU3Z8f3oBsXJT38lwYvAQTT8UO8jSmT7lTu+NbR3aUgMBCNg/Ynz5FwmZSpUJOcF0FCwKCPQmjEAk0fu53+gCAbq2e7czRlkgTVj3RbfCiVduwbbLt2SVR3M559aqYpcdyyLFX8cVv2xDCHkla9QrQaZp6LJhEov1ZJYKeuiS7f1s0VDSCCMAKTQjgZDq/cX7XiDxE+7rt+nGoT/KITIEwA9GNgpDrFKjJGeQ6nVWMLIym9UpcSr/8c5CmPEOZevWp0skCLRQK6kJDlwygx57ssfybRghV7sPoP8+ygshSQrw2bNl50GDglFI9Rq3FQi+1rhosVkoSJFZb4Cf0/Hi8+4h9/wDJ5FBAPaog8YrejTrYmL4EU+YNJ0CdxEwhn1HgwM0JTblLeO8cDB0tjKp1xRehlx/RRYo5KpXXoPfx5HN5QxCCEGBVY7BmDidyjEsSBjD4lA1xw5RSVOyav/2AYAvJthJFHwHK0t4sVXvXmCRAPhAovyPfP2eyHl3GvUuJCfQ8GUFEfmbYYH3oFkPb1Gjw+9e+/tB66Bx7q3zujwBo8IQxiUfgy5RQXHTVn0kEAYDyPmLowIOzP95PR544nzJHrSEBJ4MwB6MJBTrCCEQNYnJSJNKVacvOqjlrBE+k2Es+mw/P3YB878K79UWwm/OdFF25595ImPvyIJJ4qyR9t9bz+W01ZvCNUPSCle3JF55gSHSL8jogVhetNWb5T777+fUBjBQbd1996OwAbJv/zoEwDDhrL6N9oiRXBq5aok2KM+BIVPsDOHnaxIdGrxHrLDlg+khvT5pFdaJICIxIP4YAph7r5BPp8KlVb1o+LWMSd4bNds0Dgi7ih4T05ODuWqp+BetS2ynKWdvRqKTcfWPGUe8Wxbvlr10JZ8IrMfogwx0mTrnne1eg3kjqv3fGWE77pOrxJoGAGjFywlwRxOndjZUuUZtOs7bhJpDEKI5T7XhYGc3s8UYYCYewpRUj1UK1avyav/KJ7/KOjiRKgftvxRcYyCd5W2oLVBU2eSz1Qp9K6rbZmKleTgabPJQl0FjthORoimrrkY/eCc2V9FhPRkBoQRgF2AUqnlSDCnRlrBGdDAleL1x0BqSB9PuokiIYQICcpFRQAZbbB1nCdfPhJRjl+60lerDh2rfvSBIxEkbqHgN1JbJJw5/OhTEt4N/Fu5wpFtftpORwyZSPNLxD0ozvlbd5GP0qzA03jm8MNPZM2G+neG2vbq5yt+zLikJzMgjIABk6eT+BG5Vk5+8jWJ92o1aUYagxCikY/1YeCmtpki8KhlK5HkgvJ+FK7hrH+Rnf/6jp9Mgm0kvLTu3kueefIDSQAZCiin61sfPAkdMVBzQ0Sah1vvwWcAyWNQCjgn+Oj4HefC7fu8op1O/JQ2GPLF2ManXpEdsHDRoiR4w9eFgnscARHpf2PgtKSPJ/xrVWLAyh1JRyjESK1WNWDKDF+tNnSt/ictX0uN+31BSOD8MB7leg89+Fj2HDmWvDOkStduaIeVXu/RE+SbDz8h8ZcV3oQ/xYg5C17ANwUOOK/2086cjjLBhvHQZfBwEqzhcGkFr9GewQ4CsegXHwP4xCBoSGFylHKNRmRW7qeduUJihLz58vsy/IhqBKCkLyq4UXBrbgthjvTKVnBKeQYrfqx+qUdC5rF7/XPuPHlkj+Gj43Lkgt04ndkDMfYlew76wkDfcUVPTgAYAcsPHKMqYJl+4QaJHzVEg9T3iQ4M9DTWUwTk8v1HSURItYQ7DRjiC+FCVfjm9lip6HTuQt156jFPTkYBjhSwAs2Xn1Y+lULLbm+LhESj5i8ml4fNCReIFUd0hy54FClRUm45c8XzfArve2MFr+PasmtPEoypzoCvZR4ivf8pfawLtOb0yeS/U2V0xJOe//pnZQPg9GffPpdxze44kpKSQtW2zMov6J9R2U+nUxcUARzTclIaqr9j63nh9kyyZ7Rd2vHy88gohx0eVZhbafe3HSR9YYLV6zXwRWRA2rmr2oyABdv3knZb8hcsKE9//p0yHUB2I38LgRe+8YkODOw0SJX/kO3MijCJ9syMtZspxCfrt2zj+VWFboOl86BhJJiahQHixF/f+yYJx9Fwj/sH7v9CNm7XUdt4zWMPwuemHTpJpDaOBWPKb8C9zlwBXYeO9Dy/ItGRjtW/0UeN+o1I9D97QzoJ/yjWReSV2oHVnj6Y+BoK8qlpKZHbmvL+6Ws3e16g6DQAcEZPgae5Lbb9qcVHoimfi9/8Vk5atpq3+xWzbprxhFUgzu2dcsxctH2vBC2Y36n6Gb4FXufZPZqPAUbOX0yCLXb7ovGZlfso2KWKz+x2q3ygBwM7ha9VkY8zZghyK0QW6Rnk2FZ9N9rhXBHb3ToVqJf7Qr7yQkWKkGBq4AOCGjXlI+GNeu/Qex+Fdm6Md/FVLfV2ONwatGrrWLTAvLQd2goJFSycEkqG42Ve23JW3zHA+uPnZKEUGt/uufmOMq9ChiPsNJyebHz/MrDa06MTRx7nHkKI120g+QUCwdYRRRlQC2MgRMzLQkTn2PfefShrNSYn9niGY6e8/XHWTxV2FJr1e1v45CzZtZ/El9F4mpqrwwz72k2bS9CsTh6IZ1+oqWFs4eu4dug74BnvmeFk9TOcZ6Phzcr9bsNGkt6frUu6c40Ad1kExYUQHYQQM4QQmUKId4UQ/8sqUeX03NqjtFrvlIp0WKGuPXbGswJEt7AaOGUmlYGftUeWMitCw84zcDZCRb6caCqOv/9JCPFYCHFECIEaGGOEEF2ys5uhKBZ4p6CJnfEZ9/AbMqDh2bFCCGx/og/0hT5dMUfkarjwq99ox+MrE6Zqm9/g6XM8y79Ic6xD8Rt9UJ0BUVvCDj+GP4sKnhpp95+FEF8IIU4JIZYJIfo//VxdCJHLxE/8USMEHFX0kQgDnqMXvlEXMNsv3yYRXO0mzTwrPHQr/xUH39IW79+mRx/tZ8lIF1y7SXMSviPRoM17Pwgh9gkhhgohKmnkvfCuKgshhgkh9gshlJNr2ZxbRNgiPffR9z8nKYZwRQE/A2SB1DE+5AdYefC4Z/l485krWo2AqnXqkeC689o9ZVzDWCRWCLQydjYMwqWFze9YfWDrfuHTrZbDQogPhRB/1sGMdvvoPHCoMrFBqCDRi913mp9HhjvditSL/WXeeSir1K5LgqUBV+T2R779cKFP+Z5x8aZMUArf/y2EOJq9si9nk890Po53Y6fgmBDijwas43UtUTZV7rhyRytOka9BV5gplJ5XjwK2XdRTItjYBRg2az6Jj4fMmEvC88v9B5HeT6Bp6DDoMui0Bdk6LtDlhuO+oreLPMo5I+K+y1SoqExsSIay68Z9NgDuPZbYRrWLu0jPw6ETRWEoyj687erDJ2WBQoW0jC/SmCPc+/+EELeEEMOFEHl1anFNfSU/FXQ4J8XW6L9HGL8jsAK/rDhwTCtusbOgy7CD4vOi8b3z+n2tOwA40sxXQD0JVmrlKiQcI9ojXjRp8T2+3zFwvaKPhCgkhqHk/t+cdYlEaK269fSkwNAt5DacvEASGAZugc+NJy+QhEe48kd+B12hY8Y4Y1yfPPVtmS2EKKFJUcejG4x1ztPzUYydxA9W2gPH1HjxcBxvOXNZYhvfyvtjPYN6B/CE180fTveH3Tdj9a7r2rj9yyR4YsctHE9Wv6M2AOgkFq5c8pvnDANPKvpoyEbyHatEFem5AZNopTBnbUz3nLBwQhjVadZSC7PCuzsSnlTvjV+ygpTdLBrdRbiPbUM4GHnduQiOuu9FmJ8W/Br9wnF2wmsrteIauRyM/ilXryb0Sjt3TasRMG7xchI8B02dScJv3eZ6ZAqFFghtE24Y+ErRR0MEBLyqckC7CtVqKBM54tzhgeuEQvVSn9PXblGGoRmvbXv2IeEynA7GLV6mZVzmMUb4bCj+eKzU4/kOGAI4wnAUhvC/Cccb5bsup8BZG7xn2OsOB8ROCOXYrEzFSiTcxol/HaXvCPyj3TBIEkK0yHZYgOPCR4lyxoswWceBu+v6fWUi2/f2Y9L42vfpH3jlj7rkpQk+FAbNwEHs+EdfKuMyXGnoLiVrjNN0/VwI0TqeGjlB72qbHUZF4hUT3F7oBwWFwvGn+h1bx6VSy73wjljvj/Qb6hvsvvmup/gb49W1/W/00+zlLiRYQj6o4hKyPRJufHoPzofQ3YbzYXMhBHR7zL8hiQ7vSSQyyletpkxcIErqluGr2/Z4SkA4saswYMoMMpPmQhGlY7Q8DmYhM2nZGvKYYtA1GBXewXCiC8ofBNEEJyMHsN1sxiHlM1KCg6Zi4NDSb97LDfBIIgOnobx1XCe+vsoSrKLBGu0puCxXpSrp/dHG5ZH7CN0dHEnI4Jxxj0cm4RgCp6xcTyKuRm3bK4+tSPESng0Z0mUIoMxv/oJ0z3qdyX7g8IfzZQd4469CiBNCiDKRGDIg98pmRw0AFlphrDvdM9W3B/MrUKiw3Hr+uqeM/K3nb2g1ANafOC8LpqQo4xoylmIAOGzMK89LN/3n0N/OcN+iFTk08MrElMcJRx1KdjGU/qV4Dbfr/YqnBIMupW/up+Mr9Fhd7OLoivdfvv+oU97+/3d2tr2A6Pkcp9ntaUbP/6lbBsHre9Wh4ySFYSibc1/9RPLvMeaGapZmmnf75+1X9aYFxi5Ciy7dleU0ZGzWL79XximydtZr0Ur5/QYefXBdbnAl0hj+pw8mpIzUitVrks+LkTuAAkM4vrldGDg5PoTqUQwowB6rvnVvnVEWDoawxzXj0i2JSnQUnEZpC4/4VIP5+PoMAqWf+kDciwIzZTzA6UxXsqDQUQBxNyhP3ryhFbWTvKSzbyf8AMYvXaGMT9AHDHMzr9r9fPzDL7UYc7ppNc79QedXA/ftivOLScjXOVbUAkfRHaze7RJR+PNdBg9XnhcU346r9wJtALTr3U8ZfgZNAJfheFH5jvS+uhLBGGN7mlf/v4QQ2GnzeljfM43twAf4BqD+AGBFpgejDziE6kobrKGwjOzYb6CHeP2R3HRarx/A2mNZJGMfdTdU+Nrc5tSn38gew0d7JTeANl4weCL7ugM8/F3YTadelvB+CxUpKus0bRFCPMrBHnn8GZmQDKKCl68qHOu1aO0hgfBY+1jXvXVWwhhThR/aIdsfmNrAh+oVW4QO5Pb/fwH7BZwAACAASURBVLILVzmgM33Z5ctCiH+g0EN4W8SAU474DHpCkrCiJUqSaDU5dx654cR57Xykc+Vv7mur5nwAOAao2bCJMgyp4YAGLnGFDoAugDEA3QAdEU47Pv7+DaTHv/ltgnAyqV6/oew0YLBE7Ce2jPbff18iTa8Z+bo+H7j/CxLRDJ+zwDPCwCwYdH1u3aM3CX6g39kb07XgFrsImvnhd0KImr5U085OqqoQ4ieduOg3frIWGpm5Po1MI9jx0sU/TvejOx8ADIA+YyeRYLj39gMtuIykAxD6ufn0JQk8o/IkHA+xwNBJiy7p6/+AhT07sXgr+kjEgntzt2wnwdBLqwHdwgZhRlgRUeiwWt36Wqr8LdyeSRpHhDn8MuBe/lQTAVECWtMJL91zgKw4UDUQC4wI+LZ8D8d+W85c8YQRgPh5HSGA5j4WZNB4bdrqDWQ8RpPn0e771DBwvwHgFkUfjTBQPVBVGKRWruoJIaBb8Rv9dR8+Whl2Bsx15Pp/8+EnukuGPnzqX1OEqgG5vSgshLhv4Jp6LZRSRB567yOy8kDND2p4aM9R4zzB+3sdqAsAY6B4mbLKvN+h7wAyDqPJc7v3IxkG1GMiKp3baO8eA8Dtij4aYVDO/18eMNgTQsBQ2DqvO67eDcVG2yDWFwQGiidFw4vV+1jRaQ4NuiKEyMfKWxsEAMurFDoxt23Yup2WHaOWhHA2jKdgShHPOP9uOXtV+y5Aq+69XuBnM55ifS5ZNpXM91blg+pzHjEM4m8AeFXRRyKEA+98oEzEIPCpqzYE1gBAje9YTJ7Tb1iBwYiIhBc796gZHMPG+a5Ly/Vq08YJ6ghGwIMwWCvTz5QV68h0s+va2+QMgV4pF5x+8aZ2A4BaHOjQg4/JOLQjJ3Q96zLDwDkDwE+KPhry527OUBZCUGCouKVzVe2VvvbefShLpZZXhh0UQfs+r5AFAAw4jfH+OPNPSZCCDMJrAdsvdBgB+QoUlHDejcbXVu+j4BRlPNg93Hv3ketlwPYrd7UbAKsPn5JJhBTLi7bvJePPKp7j8VyCDAO6ARAERR+NALoOGaEsAJCX2isKW/c4527ZoQw3CNyk5GRJKQxi4LNxu46kcZiE/2+EEHBa4z9nIYCEQT+a4K6Mv6YdO5MVyJ6b75B3AV5N3+16ObD7xjvaDQD4AaRWqqKMvz5jJpDxZ8gBN18dNgzUDYC1R7Mkkqa4GXhOj61yrdrKBBzk838IX4oQ17H61+j1jzh/hK3xX3wggOylWvIE6IgKoO4CNO/czfUGQKZDjoDw4VGVA1Xr1Au07jn88BO55shpZfhlw13dAHBaubq9/zNPfiBlkgrq+f/WCzdImcBAuEhOQqEP1AugOG+ahBay1qHWPf/FFwJIFvQXEx6UBCFK/YKPKbSUfuGG0ruNsSMM1gtFgrZkXdG+CzBs9qvKsMMuoI7kXxTcu6GtQUeKVzYAVJGYduaKMvECWUE9/x80dRYJbsjqpoozo91wguAJY7RnRTXiq//4bUKINWG4UKKr0a8uIdNTnWYtlN5tjB8OsbqP2XT3t/XCde0GwJLdB0hwwwrY4OmgXg0aUryyAaBKOPAkVgS6LJlazvUMr1uAGP2Vr1pdGW6A97J9R0hMj/Sf+fIXII0hG+8oXoP89fyXGAgA9u+o8qDRDk6gxz74gkRTr+99k0RPlWrWcr08yLh8W7sBAD+AIoTUysj0qiq//dLOoGPFKxsAqoTQaeAQZabHGbihEIN0heevIqGG2pUqV15e/Oa3JKaH8xBlDNltcQbNVf0So/jNby0jhIAPBgmn/SdOI9EUcklQj5TgU+VmWbDTgYyAMAAatG6njDuUEFeV335pR6R9dcbxCwBV5wGrXRX4AybPcDWzOyWIqDnAR82nbdcidhglWVXxlt3ur0KILmYtxJ8TCoFuQgjgRBmvefPnJzs0j5i7UPn9GPsrE6e6WiYg6gYKW/d/3/GTleEGJ2xV+e2XdhS6B9cqA98vAFSZR9Yvvw+FoqnCb97WXa5mdqcMAKQ+VoVZcnKyhOerCr6MNpqK/ZxIqLrjl0eCwGlVujLa9R07kURbSCcNxzSjP7tXHI05xXc6+kW+At3KH/1NW7NJGWaoIooKngZ/B/Fql87CnmcDQIVo0s5eVSZaJADadumWq5ldh8AI72PlwePKMAPRIvWqCq6MNjjnxUovjAHsfv8TF/iJpH8Tfg85GP5MwS38Qo5/+CWJxpp36mqXnp57Hkdk4Xzjpu+bz+iPBFj15klSXYWd1+6RcGbIB69eKTQPrn2OAO189yrAdIybkgEQZ4VuYup4jQXnrHboK/zZ1zIPkhhdk+f/rISrOh5ANAjMC6cZu99HzV9MorElu/aTaHzglJmulg1p5/VHAmAXoFip0spwQyIlHTLdq33YpfGw59kAUEE8JZSt2ctdXc3kThkENQglVAsUKiQRu6+CK7RB2yIlSigLmWym+Zy9/qPpXlfcT6aWD0YVt3Nf/qhMZ8gpQEkt/VLjpq6WDdsu3nLkGKBOU/UwykFTZyrjS1WeuKldmEK3K+PYAFBBJqUS2CsT3O3s44QBkHH5jsR5nSqxUr1956ftVH63acytXaHmeBCxINDOhC8lnC/YRltRIkul6hjAI+AVJ3hQR587HKgJgB0AUkRVh05sAKjv5LMBoGIAlK9aTZnJg5gBcMrK9crwgjBdvv8oicmpiVqEEG/H0jr8m6sg8J6qAka7+i3bkGjttcxDJFqfvnazaw2AXQ6FAo6Yu0gZZiU8UBpYRcdYbUOhdXCtMuCtDtBvz8HrFB7pqrBbeeiEaxlcxyohUh9tevZVhhe2VM999ZOyUM68/R7JySgbzx1dpeJ4MLEggBBNZXpDW9CMqtzCcRMl0VT7Pv1dKx/23H7PkSOAV7ftUcYXnKqp6ZxVce2GdkRaV2cUN0w+EWNABTBVoKP85e6b77qWwSMpbx33KKV/qd7/A6fMUMZXNp5/EUvb8G+uhMCHqjyKdkOmz1E2ACCTmr3cRZnmylSs5Fr54FQo4IYT50n1QSgGWyJ0iM53UugcnKtMqDon4aW+UEFMFW6lK1R0LXPrUPSR+kg7e00ZXoDzjLWblYXxpe9+L8tUqEh6vxCilytVHA8qFgT6qvIo2pWtWFmCdlTlEo75VN+PFa2b64RszrrsyC4AhU9XvXlCGVeqOHZLO1U6y27HBoBdRI5bvFyZuZH2MpKS9PO9qas2KsMLRLr//vvKzE3J15DNIE9iaRn+zbUQyCWE+IoiHLddvKlMdwfu/4JE89PXbnGtnNhy9qojBkCtxs2UYTZ9zSZlXNmV/257nkLj4F5loLsNEPEaDzKGqcKt+/DRrmVsp4yQrkNGKMOrfLXqJMZGxIUqrrLbzXatiuOB5QSBuRTcD5g8nUR7qZWrKNNet2GjXCsnULrYiYyArbv3VoZXkEMBKTTOBsD3f7DN5K269VQmVCQacUrRurXfqrXrKsOr27CRtvFjNgTLVVFPPSyE+A8hRMmctAz/7loIlMjGoRL9Vaxek0R7XQYPV3ovBHq1uvVdKyecygXQa/R4ZXi17dWXhCuzzPDaZzYAFJQ4BcmUhDazNqa7lrGdMCAybz8gFd+Zl7ZDmbGp27BCiMuuVW08MKsQuE4RkJTjp9kb05UVWp68+WTmnYeulBXIU+DEDsCoV5cowwsymSLTvdyWQt9gImWgexlolLEXK1lKGWbLDxxzJVM7ofzRJ5xzKDS2795jZcamOGJlj3mAVS3Dz7kWAkMp9EdxQIVnOuXda46cdqWs2HH1riMGwOyN25ThlVK8uLKcoOgCN7Sl0BgbADZ3D5ADIFdSkjKhpl+46UqmdsoAmLxirTKskJaV4olNydYohPh/hRB5XKvWeGBWIZBPCPFPqkIS59KqQh60C8Wk+m63JgzbdeO+IwYAtVgYKrSq4srL7VTpK7sd7wDYQT5lWzlvvvyBUv4wKnqOGqcsAJt27KzM0FThK4Q4alXD8HOuhwDKNyvRIXb77MiH8Gcbt+uo9F6Mt/eYCa6UF7tvOZMMCMcKlDoKlOOacLx56bsqbbMBYHP1D6LYdOqiMkOXqeDeBB9O7QA0aN1WGV4ouKTKiNTtVyHEGNerNR6gVQhMoAjJN+4+UqZDRBKovrtR2w6uNADAW074AKBPyEhVeKWfv66MJ1U544Z2qvDKbqdmGaOxGyYf7zEs2a2eBKh2k2auZGinlD/6ReIjVQJdkLFHmcbmbFI/TxRC/FUIUc6qduHnXA+Biqo0iHZzt2xXpkNKEarUSlVcKS8y7zxwzACoWqeesrxYdei4Mp7irUd0vo9C2+BcZYDrnIRX+pq9Qd2zt2XXHq5kaKcMgL13H5LSe6LwiCpd9CIcPQghfnC9SuMB2oXAT6qyrs+YCcp0uP3ybWX5midvXonUu07xp2q/TqUDxg5AvRatleH1ajqtiqOqrEl0O1W6zm7HBoAdBFKyAHYaONR1zKwqBKy0A0OrEmdScrKEw6Ud3JifpdQXF0Lss6td+HnXQ+CgKi3Wa9FKmQ7PffkjyWl4y5krrpQZm7IuObIL0KJLd2WZMWnZGmU8mWWH1z6r0jUbAAo+AIOnzVYm0D5jJ7mSma0oc5VnFu54QxlWpctXUGZmOAAWTElRfrcQAqFj/OcvCAxXFZSFihRVpkUokxJlyirT4uJd+10pMzafueKIAfBy/8HKsBo2ax4JT15T/MZ4VemaDQAFA6DHiDEEAp3vSmZWUe5W2oxfulIZVvVatlZm5oPvfqj83mymqOQv3cezEUJUoQjKNx9+okyPlN2oia+vdqXMcKoeQO/RE5R5t+fIsco4MpSpF68UuoZkUAa4F4FFHXO73v2U4QWFaEVx+uWZ/hOnKcOq88Chysy87q0zyu/Njhlnjek/CKA40J9V5d3GkxeU6bHTAPVV7YDJM1wpM7aeu+bIDsCQGXOVeTeo6YBVaTq7HRsAdowCSlzvzPVprmRmpwwOShGgEXMWKAtcYgTAY//pPp5RNgQ+UBWWlJTUw2bNV1Zq3YaOdKXMSL9wwxEDgOJj1bB1O2WZYUcHuO1ZVZpmA0DhCKBmg0bKzIwzcaeUrRv7pRRNmrluizIz4yyQwBSHWV36FgJvqdIFxSCdtlq9HHbrHr1dKTOQ0dSJXADT125W5t1ajZsqywy3KXU741GlaTYAFAyAijVeUiZQpLp0o6J2akz1W7ZRhhXyLdhhAvOzOD4gMMVK36o/ntgaVbpAZT8zjdn5vIjgDNugdTtXyoxtF50xAOZszlDmXVRQtIMXvzyrStNsACgYAJQa3+veOutKZnbKAKhCKAO84cQ5ZWZu3qmrshDhDIC+thLGqQrLFp27KdPjumNZyvTo1rLAThkA89N3KcOqUs1ayjjysjGgStNsACgYAKXKlVcmUDgSOaVs3dgvJQvgzmv3lJn5pUZNlHEkhOjsaxUY7Ml1UxWWtZs0V6bHHVfuKNNjmYruTB++7dItR44AFm7fqwwrLM68rMhVx65K02wAKBgAxUqVViZQhM64UVE7NSYKrA49+FiZmZFClcAUDYOtI309+yaqdFG+ajVleqSEpRYvU9aVMmPbpduOGABL9xxU5l0szlSVqJfbqdI0GwAKBkBKMfXynkErBVy4aDFlZn7rgyfKzIwywgSmqOBrFRjsySG/gxJtwJhVVRJH3/9c6Z0YK8oJO2WgU/rNuOyMAbBs31FlWFErN6riN9HtVGk6u50aQ6BxoieeiPcXKFRImUB3XL3rSmamCIJYbSmwOvXpN8r0RcwCWDTYOtLXsy+uKiwp2QBPfvK1sswoWDjFlTIj4/IdR3YAVh46oQwrCo4SoUt0vVOVptkAUNgByJMvnzKB7rrxjiuZOZYSp/yWJ686rM4++bWyAZA3f35lHAkhCvhaBQZ7cgVVhWW+/AWU6fHMkx+U6TFvvvyulBnbHTIA1hIcJik40qWME9GPKk2zAaBgAORKSlJmZlTHoyhUr7VNIsDq4je/VRa4KCREYIrkYOtIX88euFWiDdCUqnAHLSu/NynJlTJj+xVndgA2nLygDisCjlRx64Z2qrSV3U6NIdDYDZOP9xgoyiXzDhsAVomVDQBfK+JETY4NgHuPtRgUbAD8wTX6z6pMjfIcGwB2jAjK9vKuG/e1MJ9XdgL4CCBReo7fGwUCfASgywDgIwA2AOwoTr88S3Ewg+OMV5S3jnGyE2AUNcS3EwUBdgLUZACwEyDvALjGAoqncUEJMUs7dy1QBgCHASZKz/F7o0DAc2GARYqXcKXM4DBANgACaQCULJuq7KSC4hk6VtZe6SNhiYAqkxIBNYqiPPi29yHQNMo5aI48Xb5adWV5x4mALlkOGeREQPYNC1Wazm7HPgB2dhDKVqyco7CIhpB1x4NVCyBRqYBRFSwaDizc7+p9PccziAKBHhbwH5F26jRtoWwAcCpg6wYApwJmA0CZ0ewoctVnK1avGVFAWBEsqw6fDNQOQFVCMaD1x88q0wEXA4qi/vh2QooBrT1KKAZUr4ErZQYXA7KvqFV1Tk7trOieGM/wDkBOADb/TlFqy/cfcyUzO3WkUL8VoRzwrv3KBgCxHPAq1pO+hUBiygETCtw0bNPelTLDKQNg9qZtygus6vUaKMsMs4z32ucYyt0KLNkAsIPwmg0bWwFqxGdQ494pZevGflt37x0RDlYIdsbazcrMPGzWfOX3CiGO+Fb98cSOW6G9SM+MmLtQmR6nrd6gTI9tevZ1pcxAXRP4NOn+n752szKscPRnR5b75dlI9GrjHhsAdgihfkv1Ve2sjemuZGanjIeuQ0YoM/OIOQuUmXnu5gzl9woh3mc96VsIfGhDMD5HQ/PSdijTI8Ug7TZ0pCtlxtYL17UrfxgT4xYvfw7udvDVsHU7ZRzZ0QFue9YOjCI8ywaAHYS26dFHmUDHL13hSmZ2ygDoP2m6MqywjW8HL+Zn4T8QgdCt3vuzECKXb1VgcCcGnP6LKl1sPHlBmR5f7j/IKu298NyAKTNcKTMQ0qx79Y/+Bk+f8wIMrOKsXe9+yjgyyw+vfbYKnyjPsQFgB+E9RoxRJtAhM+a6kpmdMgDGL12pDKt6LVsrM/Oh9z5Sfm82kyBenP/8BYGqUQSgJVo5/PATZXpEBIHquyctW+NKmZF29qojBkCv0eOVYYW2dmS5X55Vpa3sdmwA2CEEKHFVgPcaNd6VzOyUAbBwxxvKsCpdvoIyM1/67veSkrFRCDHMX7qPZyOEGKHKt0hoZUdGhD9bokxZZT5YvGu/K2XG5jNXHDEAKLslOGoJh30QvqvSNRsACtUAJ76+SpmZ2/cd4EpmdsoA2JR1WRlWKLp0/uuflRm6bvOWyu8WQuxjlek7CBxSFZTw+1FVJOe+/FFSKohuOXPFlTIDvO3EEUDzzt2U+Xby8rXKeFLFrxvaqdI1GwAKBsD8tJ3KBNqkQydXMrNTBgDKH+fOk0cZXjuv3VNm6N6jJyi/9+lq8QffqT+e0M+qgrLvuEnKdJhx6ZYyHaKY1t67j9wnM+4+ckT5w6Co16KVMrwWbNutjCc3KHLVMajSNRsACgbAigPHlAn0pUZN3MfMmoqDRDMiylSopAwvCkMTIwEw5vKsM30DAeUaABCSlAgAtFUV0KmVqrhSXqCsuROrf/RZhZA8bNWbJ9gAELaP9G03eEbQqhaLl9ttPXft2fztMna5qtVcydDRlLeO+0hkYhdOxvODps5UZui9dx4qvzf7/WN9o/54IhMNmlK57nv7sTId9p84TZkOG7fr6Ep5kXn7PccMgDIVKirDK/3CDWU8eVknqdC0qQ0bAHaQv+/eY2UCLVg4xZUMrUPRR+uD4tXbtEMnZYaGI2CREiWUcSWEOMZ60zcQOGkSeLZoAgWt7MiH8Gcbt+tg633mcfYZO8mV8mL3LecMgPwFCyrD68D9X5BwFY47r3w304zCZzYA7CD69GffKhMokIMymtGUpR/vT16xThleKL0MRW4HP+ZnW3XrqfxuIcT/FkLk9Y0KDO5E8gkh/qQgGEO007ZnH2X6A+2mFC+uTINTV21wpazYef2+IzsAKw8eV4YV8Jv1y++VcWWWG177rErb2e3YALCL8EJFiioT6rL9R13J1E4ZHyiARCFQbOXbxY/xPCUFa/aYBwVXb/pm5gjpVKbBmevTlOlvz613ld+LMaOIkFN8Sel3x7V7jhgAszeq1wGAoWXwfdCuFPoGlysTadAAbcy3Wt36yjBDrmsK83mtLRyG4M2sSmdw5jPgbveKLUHV92a3u+IbNRjcidyg0MDBdz9Upr/ZG9KV6S9vvvwSUTRu5PeMy3ccMQBGzV+iDK+aDRop48muXHHb8xT6ZgNAIRKAUuQmaNkAIcCq1qmnzNjIhU5huPJVqym/WwjxH0KIksHVnZ6fOXAHHCrRQMUaL5For8vg4UrvxXirubQMMPg5/aIzhYAo/kJte/Ul4YoiYxLdVpW+s9upMQcaJ3riiXr/AEKO+04Dh7rSqndypdF16EhlQVi+WnUSnVFwlc0gsz2vBoM7gXkU4UiJQoFsSq1cRZnuuw0b5Vo5sfWcM4WAKAsrKq4SpUt0vJdC4xANykSqY/Be7APOOapwc2t9bycNgGlrNinDC3Def/99ZSMg/fx10ruFEE+Cqz89PXMU//lKlU/RLuPiTWW6A81S3j1j3RbXGgBbHKoDUKtxM2WYTV+zSRlXXtRB5jFT6IwNAIUjAEoyoPJVq7uWsZ0yAlA5jEKkVOZGQhXK+4UQvT2tCoM5+H4UnINmzELW7ucpK9cr01yuXLnk1vPXXSsnNjuUBhj1P1RxFtQkQKBLVZhlt+MdALvMvfvGfWWgw7kHjnFOKVu39kth7pZdupOE8aCps5Txlc0kHwRTh3p61h9RBOPQmfNINNfs5S7KNOfWDICQLXBMdCIL4IYT50lpw5GcyK4c98vzFDoHhysTql8AaHceZ774XhlmgPeaI6cDZwCgVrcqrSE5yLmvflJm8L23H0isqlTfn92uk6fVYbAG35WCa9DKG3cfKdPb2Se/lvnyF1Cmtw793Fs0bI9DWQDnp+9ShhfwhaJLduW4X56n0DobAApHACCc4qXLKBMstgfdulJ3alwUvwkQ+LJ9R0gMTqwOCFy/Eywd6unZPqAIxQat2pJo7bXMg8qyAeOevta95/9OJQEaMXeRMsxKlk0l4cvrhgCF1tkAUDQAkKdbFfC9x0wInAGw/codmZw7tzLMOvYbSGLy+VvVVxgmPLf1tFoMxuA7mPClRG8LMvaQaI2y25WcO4/ccfWua+XD9qvO5ADoNGCIEq6A66YdO5PwxQaA4jGA1wFHGf+AydOVCbZR2/auZXCndgDQb40GjZRhlq9AQYmjF1WcYYsQqYWJyuELIURyMPSoJ2cJ3HxJwXGxkqVI28lnnvwgQauqY4AnvJM8SO1728VbjvgA1G7aXBlm8PFRlQt+aKdKa9nt2AdAhQjmp+1UJtiSqeVczeRUIRGt/YDJM5RhBmJduucAidFHzF1Ien82w8z1pGoMxqAXEIWhHLNgKYnGFu/cR6KxQdNmu1o2pJ13JgdA0ZKllOFGKRuuIvvd1oZI82wAqCB0++XbygQLpxVsiUdTlH69v/LQCWWYgchbdO5GEs4nPv6KtDrLZrR/EUKUC4Y+9dQsywoh/kwRhnDcO/7RlyQao3j/Y+xudxDeknVF+w4AQvgoTrq7rr1NwpmK/HdTGwrNg8OVhbKbgBDvscArnXKmjZWCXxV9rHmVq1JVmd6SkpPloQcfk5idkm7UxCunPKUagzHYMyb8KNFYv/GTSbT15sNPJGhUdRwVq9d0tUzYe/eRduWPkEKKgzBk8PmvfybhLd66Q/f7VOktux0bAKoIqVSzljKzD5+9wNXMHkuJU37rO36yMsxAsKPmLyYxO4R0nnzqxYmymeavQohuwdCrnphlDyEEcKJMW1j9H3n8GYm2qEdM/SdNd7VMQHVDJ3IAUGRC5Vq1SThTlf1uakehe3C3MtO4CQiJGEuHvgOUYde8U1dXMztFycdqiy1OCs2VSi0nL37zWxLT9x03iTSG7PH/oxAi1RPq0d+DLCOE+J8UmkJbOPVSZMilb38nKcmuMIa1x864WiY4FQKIsEtV/L3cfxAJbxScu6WtKuyy27EBoIrIMQtfUyZceBvHUpR+/q1C9RrKcAPRLnvjMInpj77/uQ5fAMzhvhAiyd/61dWzA+zfIwpAWaBQIfnWB09INPVa5iESTVd+qbbr5UHG5duO7AAUIUTnjFu8nIQ3VdnvpnZE+mcDQBWZqw+fJDH9xpMXXM/0Thgig6fNJsENSX1UcWa0w1ECkXGM9qtcrSL9Pbj1OnA4bvEyMj3VadrCoAelK1IPO8FrOvtEYS3dRwBLdh9QgpeBd+woGjwd1KsBC8UrGwCqhHP6s29JTj+Tlq1xPdPrFCBGX+kXbpLyfoPQ085eJTE+0rWWqVCRJHyyGe6/hRBIPct/8YUAUjP/RVHoPcN72YqVSXH/kB3UipO58+SRWy/ccL0scCICYNis+c9wYReXcLg8/fl3JDmgKvvd1M4u3MKeVzcAYH0dfvhJoBFQpVYdZQJ+uf9g1zO9obR1X6nhUm179SXTHTVm28RI/yCEqB5f/Rfot9UUQvwvE/yVefD1vW+S6ah1917K78ccWnTp7no5kHn7gfbVP3YTWnbtqQy76vUakHHnJkVudyzQvVSfKkgRZQQYbQumpMjq9RvKTgMGS2ynLd9/NFTD/dJ3v/c9gnqNGqcMP7eH/ehW+ub+5hESKYHuYP3DK9ku04Q/D2dMg46J19+yU2BcjJLSQoifiLgK4RxGaDg92P2OyqC5kpJINPTqtj2uNwB233jHEQMAOzCquOw7diIZf3bxnYjnT37ytdx8+pKcuT5NwoEZmWQ1ZDU14E43AKIhMAiGAbJQSMa5ZQAAIABJREFURZt/TveTkpJkxuXgJQSCIYCY4lLlyivDDrBFznUqQx5890OJaoM54cri778SQhSLixoM5kuKCCGeWMRFTJzC8Y+aUwK016ZHn5jvyWmspStUDPGC2Th242ckLtN9/k9NALRoxxtk/qfKD53tHVb00ejUOQMgGvH7yTA48M4H0QBr6f6sDemut/6dEkhwfIpGI1buI3vYjit3yEJg8vK1pHGEjRVe6fmCqZ8dnTVg+jAM1sp4Q/IZqvBGBjrq6t8r+UDSL9zQbgCMXbRMGX+gA+T0oOIwEe0TpOijwTr+BkA0JvaqYYBylNHmlNN9VMFySsG6vd8dV+/JgoVTlGEH2Lbs2oMsBBDDTYlFjoDjq2wEaDUGoPyvRYCzEu1gCxU4pwp/pKamjKlgShG589rbnuD/LWevajcAWnVTP/+HAy8Vf063d5mij0ar7jEAojGT2w0DSvnPUqnlPSEAnDImeowYE40wLd/feOI8WRjAoSalWHHL74xGq6b7j4QQ2LLmPxoECmfnW9CCm0JFimrZ+l9//Cx5PF4pC55556F25Y/jhOJlyirDsOMr7kkA5BFFHw3W7jcATEL1uUm4xTCgbiGvPZoVWCMg7ew1mSdv3ufwGg3f0e5XrVOPnB0Qq4Elu/aTxhFhfDivRpEa/lODADItksr7mnGCIyNqEinQCTJRVq1dl0QrCP3Dqtopw1pnv7tu3NduAMDx0Ywbu5+nrd5INvrt7gB4XNFHg7f4P3aB7/bn420Y7Lp+PxpwLd0fNvtVTwgCnULF3Febnn0twSkW3c3asFWLQNCUJtg8n98LIV5S03+BblVNCPFzLJzb/Y2a7tdQGDPWbjbjV+lz+z79PcPzGZf0ZwDsM3aiEtwMnO+981ALvxs4NV99qugjwftfIWG+NYDq9yu2/5Cxq8fw0aGQisOPPtVGRBSP9notWntGGJgVt67P64+fI1VWBN0iLObkp78i4/PCr34j6zSjZXWLwEfIE4DENfxnDQJddMX5G7io37KNvPDNb8j0AeVQpESJSMLU8j2s/jd4KAto2jn9GQBrNGhkGV4GDo1rmYqVyHg0FD6O/mau2yK7DxslazdpLgulFFEelzE+D10RtSR2emjAWpGTnJwcQvypT78hExQISBWOefLmk9hm06VQvdgPVkSq8DPaAQcGY1OuqBVQguDYaYwn7Iqsdau5dkBMCyD5KczW6cjwZ4Y9Ckgd++ALLbTRdcgIMp16KQFYqARw1mWtRwBrj2WRMoH2Hj2BjEsYct2GjiRlcjXTmEc/bwc3YqvtPzw6ATIzYt4VqtWQxz/8kkRU1GIgczZvD7QBsDnrsoQhRKFDnPGuO5ZFwqNhOOBYB0dJlPFEaYtQtnIx1WAwf0SCn7ejwEwZD4j333H1rhaa2HDinASNUcYIfxc4wHnFSN99U38J4HFLVpBguOLAMRI+UfipfNVqpDFQaMAlbaHzqxiiZrlLBpUwpNRr0Uqe//pnZcJCTmps7anCsUO/AZ4RCk4JL4REqsLPaFeuSlWJPP+GIqdcVx06LrFLZPSt8Yrytd0N5uOr6CGEwDGJVlgn584t1xw5pYUWQFOplauQx9dl8HBP8fmOK3e1rv5h/FCyb8KAyvrl98o4hYx34IiPTBe6ad9Cf6+b5U6uIB8FGMCCNz9FYeCc0ejL7rVwkaIS+badUq5e6Dft3LVQaVa7sAt/fsAkWm13Mw3M3pBOXvWFjy/7+1+FEKcDHiWAnZAzUeCjzEvoDyv1uVu2k/jZTAf9J04jjQdjQs4LLxT9McsK3QmA1p84T8r90bhdBxJOJy1bTcajE/Qa5z6x9Q+d/8LfICHE93EejGsQgm0hM9Pb/Yza1BTYzd2yI9AGAATPIGKpYMAf2dl0HQWABqasWEfCaw408c9CiAVCCJx/B+UvSQgxQwiBuTsC2wmvrSTxspn3UXCFmvEP8/RCyV+z8n/j3iOJozmdKYDHL6Vt/0OBm3Fj9zN2CJ2iOQ/0C90+MCchA8ugWbZQOiyE+Ojp5z97YHJaEIuzX7tEZTyP1KAUOLXt1S/wBgAK/JSpUIkER+AATnzHP6L5dRh4xXXU/MXkMeVAG8gZ0C4n5vTB7x2eCqGvcoAFCdajX12izMNmnOMzfINKEBLWGPMsW6my3HPrPU/xtxPn/007dibhNvP2e8q4ReEmAx8BuEJnQ3dDh2OBAZ0ecdVvVaYUF0KAeWG5Zwoh3tUdquMGpIxfskKZwCAwKOGASA3qNSHx/IrhsRYBh6pXOmihdffeJFyGKwNUutQxrhz6+PBpwZv+VpnSQ89BdtzKYe5k+A6aOksbzlHNFKmmdYx59qZtWnjDCX6L1uf2y3oLAK07flbmL1hIGZ6oHBjOk3a+x4l/leenSGfYRfviaTnyU0KIZdmyA6XJScrejlzxlWFQr2VrEpHh/FkRkaF2szYGtziQWRAhNwIFjkZb6pZhuICZtnqDUz4B4fOF9Q5DIG6MbIfpbTwLZ8ePDXw4dcWZv25cT1i6MhwnSt8btG7nOeUPXkSWTp3b/9TiP4OnzSbJ5rrNWyrhzymatdlvwhW9DZ4PPepJwwBe35SEMnCasYnY557HqtWsCIP6eePJCzJfgQLPwUYFrsCnjloBZkMAWQcdig6INF9sl88TQpS0y4AJfL5U9pgd3eo36AHe/nM3Z5CUgxm/+Ixc/zpwnK9AQbnx1EXP8TQy7elU/uirUbsOkejb8j1K5U/E/evAp0FzDl49p+jtyhnXGwbICR8uEKx+x7YhMlWpEgjilnfdeMdzAsMJQ4VaLtjAQbGSpbSXDoVjWIHChZXxbIzNxhWJhHDsNkEIUdAu08XheVTsw47FxXjmFclfsKBcefAtZX6NxNdHHn8mi5cuowW3w+cs8CQvo0qhTgMAyX/y5Vc36OG8FwlXVu8t3J6pBZ82+DWn9/le0duVORWeOi0gHnhhtuMCzkIT4nzYeeBQErHhHJJCKBNfX+1JoaHbCNh79yG56IqBh5oNG8szT34g4TVc2GBF4kDGQCu0809CiBPZxkBFu4ym8Xm8GwbJSSHEnwxYx+uKDH87r93TilPQSE1Cmlrz3KvVayBBw7r5Ih79pV+8pdUAoBrzw2bNI+H55f6DrPCVE89Ah0GXGc540HHlNfKg77uK+44B8kFTkgJtv3ybREgvNWriSaHhhGBaefA4KcGSWSC37t5LSx14syGAtMEuOFv86Wk+gYNPQ3iHPzUMqjooEdD3CCHEId2Fesx4svIZOTd0pfc18Ikqf7qc/pAUbNWbJzzKx4/kljNXtBoAVWrVIclESnQW6nugDowVuiI8wyt6BwVPpK4dNQyoGcSQXliVmODQtOboaY8KDz2RAGZjQkduAAMXSOhiCHxdVwiYfuMnK+PbGJvGK4TRB0KIt4QQa4QQ459+7yaEaCyEwKodvJNiYip8xr1KQogm2c+iDdqiD6xg0GfC5wjegKOtjsI+4fjXWQlyyMx5nuXfPZrT/y7IyCQ5zkKWhuPKznccEWmkXVb0JsHhxo/YXsE2C1IdKiMeFQPtEFn4s9iyory/+/DRnhUgZuWt4zO2UWs3bU6CpxkX1IyP4bg2vi/dc0AWLlpM2zjNY+bPQqYULy6XvXGYxJcGrsKvE19fpQ1v2BFCER0dtJ+IPjI0h/+17/MKCbYj5y0i4RxFf4j8A12CaBbeunejxo8xJmUvZAgbyioDW1YUokspVlwiKU4iBIAb34mMZEiXTIGp0RarSOQaCFcCOr7jSKBph05axmmMl69CNmzTXqJ0qw4chfcxL20HaYVqxg9oFNvnbuQhq2Pacvaqtu1/lPqmltiFHAzHmdXvkOGQ5WYc2fyMBF3851EIoPyqMvIRCmSV0CI9V71+Q+V3Y9xTV230tCCxKnCsPjdtzSZtgjopOVku2r6XhN9IOMe9S9/+LpQ+GB7qFPrjtiJUG2Lqqg0S0TXR4E25DxoALeiAtWFYWqVnNz6HRGQ6vf9HzF1Egm2txk1JeEe0DhG3Kzyq+3jYQojaFOT3GjWORHwz120hER+2Et0oJBI5pq707bxnOEH8+Ot73yThOJbyOfzoUwnHQwoNBrlts5e7yEPvfeQYfoB70IAuGPcYPsbz/JpxRW/2vxr1G5HgO3tjOgn/OMol4rcWa1JvQ+BbVQLAeS4lGuD0Z99KyiowV64kufZolueFik6DIfPOQ63lPLH6m5+2kyRkYhkB+A2+AZTcEKr069V2qZWqOGqYASdY+etU/rUaN/NFNU+d2f+ozn/IiUIt/YujVAIffO1t1cejBwTWEwhALtt3hKQcug4ZQSFA2bHfQDYA7j0fWYCywcVKlSbB1UwTMAKoK42cjIBzX/4oUaSGYhCax+zHzxD4Yxe9Ls999ROJ53LCxfytu7RmhUPSoK3nr3ueT1GOXOf2f4su3Uk8SnXEhuFN5BMcIfOfxyHQgEIEbXv1JQmjtLNXSUSYJ2/eUE5unatoP/S1ZPcBbfkBQB84v3UqOsCskFBdDomi8ubPT6ILCk27rS1oHMIeDpRmWDnxGd7+wLUuGGDsSzMPeV75QyZsv6pv+3/5/qMSsKHAedvFmyR6aNWtJ+n9Qoi6Htd9PPxsCPygSoh58uUj1QaAEKtapx6JEBGf7AelrXsOk1es0yrMQSOANZz4nFA+5j7hH9B37ERSelRVmnZLO+TJR/6EeCh+JPnRGecPGMKQgEGhm64T1Z9O7//Og4aRZB4SB5n5xe7nEx9/RTVAcHTMfz6BwCaK0KNuD09ZuZ7EDPBF2HXjvm8EjU4B98rEqSTYRqILrBx0pw2OJsBOffpNaOdBR835SHNx472iJUrKEXMWyOMffUkS8tFgGn7/zBffa8vwZ4bngCkzfMOTCLXTtf2PvP8FU1JIfImqm+F4tPN9+ppNpPc/xfM6n+g+nkZ2djNlgqjTrAWJGFFdkFIIA0Jn1PzFvhE2Og0A9NW2Vz9l3JoFuvkzagc4FXceSZDBR+DV9N0S5ah1blGb55TIz5hTg1Zt5YKMPY6f8Zvh++bDT7Tl9jfDr32f/r7ix4xLt7UZAFSjHMdjqN5nxqPdzxrqOdRnzekvCCBfurKi2HPzHRJBdhtGy0ZVpkIlzxYW0a3ww/tD7HK9Fq2UcRuNLlBFUHcpYSuCDKVYh8yYK+ENH21sXrmfWrmKRCGYffcek/jHCtzCn9lw4pzEboNuWNVv1cYXHv/P+OjuY7k5S0/uf5Q+phbIojr/7bh6l4rz7/2l+ng2gAASOigTxisTppIEGLbYqCu76Ws3+2rV8UwAhXn5q9zHEQlW7RQcR2qLGuLjFi9zLBFNuNIK/55+4YYcOGWGpNSWiDQvJ+9VrPGSHDR1pswgOnGFw8LOd2R61BnmZ8Crer0GEqVyVWjUrW3AO7q2/0fNX0LiwVxJSTLz9nskWdtr9HjSGIQQS1ll+g8CqUKI/zIY2e4V8aTYprUjhMKfbd6pK4kwy1etzrsAMYyF7VfuSGrVsWh0gYQ+8TqzDqcb4/uBdz6QM9Zulq2795bYnYg21njfR0hm2559QumVnUzcY8Ah1hVRFroq+oXDsWrtuhKrS7cqctVxbb1wQ4sBgNU/ddcKuIuF35x+O/vk19TKf9AR0BX850MI3A5najvfcX6ZEwHG+h1bknbeF+lZOBSqMnoQ2mVcvi2xAo0EO+o9KN1Vh46TaCAWfdj97Y27j+TcLdtlnzETQr4DcSh5GhKu8FPAO5FDPxFb+9HgtO5YFnn7ORqNwPhGWJrfeAiJtTZlXdZiAAyfvYDMd5tOXSTxF/ghGg4t3r/qQ73HU8qGwGCLRBCRiCD4ogkfq/dfatQkYt9WxwVfADCt3wSRzvkgm5lTW+bYohwwebrESsMqzuP5HJze4LcA5QxP+y6DhskWnbvJ2k2ay/LVqocKo8BQMCckQgIe3CtSokToGTyLNl0GDw/1gb42nrwQV6dIOzADLlDmmXrEFo0HK1SvIZF8SieNuqWvHVfvaVH+G05ekKXLVyDJNjju2cF7pGdBu9HwaPF+f9aW/oVAbiHEP1gkhIiEhC3ASIRn9R5SkFLej7Z+ij12ShBiJ4CafyEWnspWrBxK02wV7/zcH0h8Ew1+WDE6ZewB/5Vfqi3TL/hv5W/wna7YfzitxuIXK78t2bWfRCMZl25RxwDdAB3Bfz6GwA4rxBjtGdSWjiaMrNxHQhIoj2j9W7kPSxtpOw0m5uvzqYINeMAnoGYD/Y6BBo6w4kR0B8I8reCen9FnBCBMDGm2nVr1A8fYrfPjmb/BH7tvvKNl9b/+xHlZvExZkkxDrQxK+XXw1sv9B5HGIIRI87He46llQwAVAv9qCHG7V6S3PPbBFySBP2nZGiqhhnKmG4zM18gGAOCy8/rbjoQImukGoWbwOodxx0pen5KPBEvAGFU2cVxhxoHuzwj183vyLUSY6PD+HzhlJhkX8G2KhG+r9448/kxHavA6rCWDAYGPKQJjzIKlJGJFZjKqFzdibXfffJd3AWJEBRiGEXZLUFSJgnMrbStWrylXHz5Jog2rAi+Iz8GJFp74VnBBeaZNz74SuSUM+vHj9W+Ff+jOf2uPnZFFS9JyLaCYEjXz5rBZ86l08X4wVB/PEhCYRhEQSNt64Ve/IQn6SctWUwlW+ikVaTyErJOOYmZ6atmlu9xx5Q6JPoKo4KPNefvl2yGnRDOMnfiM44Sg8FTGZT2Ff3AkSsUFdfWP6pHUBZUQYgKrxuBAIEUI8S8Uwl2wbTdJwCOnQMmyqSTmQTGVLWeu+HqlotswmLpqg8yTNx8J7lboBsoEeR/YEFA/EkD2zU4DBktEXliBOeWZ3Hny/P/tfXmQFVWa76kqoCiKTUB2ikU22ZdCNgUREEFAaEBEEVCkWUQRQRah2GQp9kVFZVV2RGQREFTAdunWtt11urWne/54ES8m3puZnhfx5kV098yc5y+t1Mul7pJ5TmaezPzdiIp7695cf+f7vt93Tn6LnLxgaSx0aceFq1oq/z214yVZKV9NlzCZUs2ombmyVFU+/lUIUSU+9Mc7BQKbVQxGUes2ytXh0PBC5Rqwb687h8bCaOl0BOZte0GieI0q9tnsD/JCkRy0hU41w+X31zoJaw+ftIod+UH8GEMsQUelpW82erLp1EUtz/479+2nrEOI51CRf3TubNisuep1MPgvhj5BU5XKgDAci3fuVRJePEZA9Gs2RJJqm5yc3FgZr2wMXDbbIK9btSZDqjFJ9T2aSi3Y8ZIv7YZVjGoQ+8KQA5u2XYuV9CEV9qm+b9Olm1x37HSMnOirUkfq3y+Xr1HOwEA207EvvleyoUgdTDW2WX7/NyFE4xjyH29ZCHE8SyEpV8had+6qJLwwtBqWr2Tzm9tLLOtlQ3zc5ueMARRUGjzufmVD5lSGEMA5auoMidK+QZCtSefcdfUjq9eCqiPsdAzwiKb/PWMiH+yXrO9bTqun/qHkr45qm6japyqLLdp3LNc2O5CHA2TC+CLQw4GglCtoqw+eUBJipDWhQpvqdUxZtIwOQBYZAckGEf+jyVLV6jWUx8DpGObm5VlxAk9ufk45ClrVkPq5PyK+5256VnbrN0ACA6e4qW5ftUZNK22zPFmI+ndY+VJN/dNR9KdB02bKef8luw/okB1wAF8xRkApJRBGTNV4og+8qlFDIY6odSnz0xivPvSabNNVuYyo63FEQGffYSPkU9tfVA6KUpVHL/ZHoBfure/Q4RL3qirvbve/uXsPawncT9ky5Vxbz7ytTP5Ldx2wykm7xd/e74mN25XtZvsevVTl6GqMeY+3XobAOFso3b6vO3pKSZjx/FNHK1vUfTfF2ITxOvAYBb3rERHuVhZ07FepcmXZqXdfa2kckfBeELIfx3z+0q+smXbvIcMk+g3owMbtMTCmSPHbcSG+fTTWHVMv/HPLoCHK44jYmxPf/FlJrrHy6lYWEvZj3X+6ASJPCPGnBKFwLFhdb+2vJMwwxoh8Vi1rioBALCeHkXxNuuanX9jvaR8Bp7JWv6ip1Zhn1jPrrV7pqsbTC/LHNaGP+8xVpVYDIlyz0/v0avvm7TrIJS+9HGu92PrGO8qzfx2Bf7Bxqo9NIb9ozKYoL98LIXLJf0QACMxVFCarW5qqYb112EhVoZZoW7rtDVYIVHUoMFNEdbH8ggLlMVGVreT9q91wg+zc51arK+FjazdLFMpBMRRV+ct2f9SwQOMVdAlEZ0RcC64p+TqD/h+PGtCiNs6zflsP0NBI5dn/iv1HZd1GjZXHGHUdspWzVNuV7D6ofB1CiJmkPiJgI4DCQP+uYrA69uqrLNho5arj+ejwSVNjPduxjZ6Od7Q51fCsUYfBSnsMzKyQXYBUQxjZcTMfl6gzge6Ty/cespraYEl+/wefSTTSOfTJtz/JKz7jO/yGbdAAB/tgXxwDjhCOiWOjcIvqSpWKnmW7b4eefSSi1XXIQNiPgbLGKuSPfQeMHptW/rIZl/zKBfLFdz78Se5SEXym7yGH2ZwvzTYo/FNoG3++EwEggGIQSoKFPuyZhDfT7+jhrnodeN4Z9yVP3UZ79trNEpHLqmPD/dV0LBN+dRs1kdNXrCPxJ2TEqD77f3z9NlmhgnpczITH5ynbxyUv7tehg8tIeUQgGYHaquWBdQS3IFoaBTIyGbpMvzdr245LnwlGUIdDgJnUfY/PCyRlMNN4x/33gsKqVpAfH3/9XOcCMq/67B+rKEWt2yrbozr1GyinuiJYukW7DqrX8hchRM1k48//iQAQWKVqSOdv26ns5SJFRvU6sD8i2nUQH49xrVFF5bjbR42VaA2tY5x4DPerAujrMGD0OLnu+BnKejkOL2RVZfn/rgmTtMg4KvZlWv3M9DviXTToytOkOiKQCoEaQoh/UxGyeo2LlMtbIqJaQ5SrRVCLX9hHw1iOYdTh1KCoCioJ0hFwT+BudS2vQgXZd+gI+cyh1yjfKeR7y1m1qn+zVm/UsvSvIz4KgacaVkb/5YceMIj34osIpERghVujZO+HjnOZvNlMv+84f0UiH9w+ptv3+kXN5JYzl2gkUxhJHY7AypePyT533R14/QC3MhKm/RDfAuJHcKaOsYvyMdYedT/7X77viKzXpEjZ/sCGPffmu8r2cOKTi5SvRQixMKXV5w9EoAwBrAIgStS1wFWvVUse/PhrZaG/f85819eQeP1Yro6yoTPl3rAiMPSBKbKwenUt45Y4hnH/XLlKoVW7nzP+ax9HpZJ9OP0qS/+3DLxTiwyDuDNNdjL9jgwVlG9W1IH/zdk/OT5bBJYqCpscP3uusuAf/+qPVqMf1WtB2hYjo7MznKkMqpPvN73+phw783EdS5aqRi/0+9/YqLGVy88y1w7k98K7Sh3/Hpz/tJZUz2ZtbpboeJqJ4DP9jsZZqjZQCDE/W+PP7YgAnhPheZFrwatZu45Eo59Mwp3p900nz8s8DQ1TqtW8IbY10J2Qt+5tF+zYZS1ZV8pXf5yjIo9h2hfL/F1vu10i9ZJdLh0Qf9ljrk0nL7ie/S96fo+sWkO9MRZs1oZXzyrbP7QLLqymvKL2z0KIKqQ1IuAEgUWqRnPL6UvKCgAHYeSUaa4dkcR7aH9LLxpUD2MB0jkPqMSGLmpNWrbWMpaJ4xqVz01atbYyV9a/epaPrFzKKVpco7GVm+V/pPy17NhFi3yOmjpdi+2DE6FBvlHplS8i4AiBtqqCh5KVmWb42fyO9qn1m+iprT58MqsEpiNqP35DABtSNDXkNOswjoEeA0GqiJso2XOQpO+S9BNltvTVN1yR/4/V/sZpkYW6jZvIw7/7udJkNjYu1TaLd+7VcU2tHFl+bhx7BNAk4oqqAwDhTSXYTr9HaVYdJVhzc3Ml0nsSjQY/O19m1YUZ2qve8/B02apzV4nUNlWZM33/vAoVZevO3SSe68JB1oUjj/Ou3HrWfbvfifMWa7EvObm5cvm+w9rsHlpIa5BptP1l45/Y03r2ACgv/0NoUdvfKdGn2374pId1KIOsUrWaXL7/CI2vhhmXTuJBDf5HSp6xYgZ0pGBpMJzK8ganFffSd9hIOW3ZGokASZ2Y8Vi283pVuk37m7d1p2UTdMgLmkOls2FOf3vu4rvKMlh2X7DpfBGBjAgUCyH+pqoM6JzlVNgzbY+Ob4isVb027N+oxU1y8+mLNMaGOQGJhIYqbiDNgWPGW9kgqHqnY+y9PAaCHdF+d+DY+yTax7JCn03Q3r5vOnXR1dL/sr2HrQ6iOmSiqFVriYI9meyYk99RFK12vfo65B42HbadLyKQEoGqQojvdCjDw0+v0KoIttJsO/uWlgJBuMfiAYPpABjsACQ6A/iMAC88K4ds3XX/JNmp961WbEgQlQhxTsSldO5zmxx6/2SJ4le4Nlxj8nXzf2/J/8fAv5OuHABkW+iwdxXz8+WWUxc9sXlTFi7Vco1CiO+FELDxfBGBchHYo0MZWrTvKJHDb5O27ncYWx3XiWPc++gTNNghcgJSkemawyflk5ufk5MXLLGa4twxZrzsOfguiba4mJGjS16d+g2tRkZ4BJRfUPCTDOEzvqtavYa1DYK4sA/2xTFwrJEP/1JOXrDUOgfOleo6+L23ZF8evsgwcRP1P+zBh36SAVV7Mq3kGc/sHWoJwKaqXmPZ/rDxfBGB6xD4hQ4Byy+oInecu+yZMsCZwLJY9/53aFEIBJ49uoZBgeUZVn7nP5kRc2eYbz3jrt7/pKeWyFwN9UVgM7GKAJuke6KTeDyUEy4oLNRi84QQ46+z/vwi1gg0Ui38YzsPM1eVeqoItlLse/9TWbPOjVoUAk7Louf3clYXgZUAEqgzAg0zXjsuXJFYjXE6+5+9brOsXKWKFttRo1Ztuee9T3yxeTNXlmq5ZiEEWgIXxZrxePM/IYD0kMs2gau89xw0xBdFsJ2Ap1/YpyV1B/d8Q916VgGRMBtEXnuZxPqeAAAgAElEQVR8yI9j/a7c8JrznH+k1VWvVVsLkSLlr2T3AV9tXt+hw7VcuxDiPSFE3k8swA+xRUBLyl+tevXl/g8/81UZ4AiMnfGYLoWwqtQxTYskSnI1XwZ+zPl3VvFv6e4DskHTZtrshY5+J/ZkJtv3Vz76UtZp0FDXPTA1MLa0/+ONdxdC/FVl1o99reIXew/5Tv5QmhNf/0l26zdAl0LIdsU95fZzl/k4gI8DKAOGygD6I6w98rqjpX9Un2zbtVibnUAMEmxPtsStc7tVrxzXFb/wdyFEz5hzYGxvv1AI8QdV8sf+qGqmU8CdHuvlX38uEbmt415wjNuGj6LxN9T4c3Zu/uzc6zFaf8L50n/xgEHa7EP9oqYSM3Gndkrn9ug1oMne/SPbBMfTB9irQ4BQzx0dq3QKt5tjbT71psyv/HNql+q9oT6714aMxyeZUQacycCWM5cczfwRINh/5C90kaVVg2Tja+cCt3dIDWzVSU/jIiEEUwNj5gOEJuXPiTMwZ8M2bYoOBwK53zTQzgw08SJeXsnA9vOX5erDzp77D31gslabMHvtpsDJ37aJTA2MGWtrul19KX8r/Un5swU+m/e7JkzSpvCo485CQSQ0rwiNx3UiW1fluuOnHc3+0flTdSUwcf+7H3zIGPK3bSFTAzWxYkwOE9qUP1vgM73jcUS74lu0KX5OTq6cOG8RVwIYE0AZCFAG0CjKSb7/6GmztKUIwwlo36OXxLJ7JvsTxO9MDYwJe2u4zcWJHq3bz0Gl/GWrXAgKbNi8hTYnAC2EpyxaRgIIkAA4W3YyW47WttveeEc+c+hE1g7AhDnzdUXJWzakUfOb5Cu/+cJI8odNZGqgBmaMwSFCn/KXrQOA7dBGs3qtWtqcAPRxn75iLZ0AOgGUAR9lwKr25yDl74G5C2WephK/mCCh0t/OS+8ZS/62TWRqYAwYXOEWI5PyZwt8Nu+lx89ozQxA3wB0ouNsNFozTI6nqeN5Va47dibrmT8K8+gk/0qVK8u1h08aT/62LWRqoAJDRnzXSKX82QKfzfu8rTutQkVuH3ck74fHAQ/MXUAnwMdZIAnaVIL29ro2njyfNfmjIqiu5j7QeRQ3e2r7C6Ehf9hCpgZGnMVd3l4kU/6yIX97mwfnLdb2KMAyDjk5csz02XQC6ARQBjySgS0OuvyNmDJNa8AfdHzKwqWhIn/b1jE10CVLRnS3SKf82UKfzfud4x/Q7gSgAiJnp97OAolv/PDdfv5K1vn+g+/Vq9cgf6QSZ2NTTN2GqYERZXOHtxX5lD8nCvjqV/8o+w4bodUJgLEYPO5+OgEezQJJ/vEj/x/r/J/Kaulft1MPfe41eKg8/pWZ6X5O7B1TAx2yZQQ3j0XKnxOlwDMyNPGAouv8u+3ueyRmLSSs+BEWx1znmF+VCNzNlO+/8uVjUmdtf9sW9BgwyNhcfyd2DtsyNTCCjO7glmKV8udEOVAoqOut/bU6ADAgbbv1kAhaIiHoJAQeK07ytOHEuYzkX7L7oGzTpZt2/e3Yq688+tkfQr30n2wHmRrogDEjtGksU/6ShT/d/4c//Qet1QLtGUTDZi3kqgOv0gngIwHKgEMZ2Pz6mxnJf8GOXRI6ZuubrvfWXbrJQ598Gynyt+0fUwMjxOxZ3kpsU/5soc/m/eDHX8ub2nfUbkxq1K4jFz63mwTgkADiNNPlvV67srPl7FsZyX/22s0SuqWL9O3jNGvbzugqf9nYsnTbMDUwS9aMyGaxT/lLpwzJv+3/4DPZpGVr7UYlv6BAzlhVSieATgBlIIMMoMzv6kPpO/xNWVgiK1epol1Pi1q1lvs//CySM/9EW8fUwIiwe4bbYMrft//kWJn3/Oq3njgBqBo4btYcEkAGAuBs+NrZcJzw2H7uslxz+GTa2f+wBx/SWuDHnvmD/KH7iUQZ5c9MDczAniH/mSl/LsjfVng0+mjVqYv2GQaMTfGAwXLz6Yt0BOgIUAYSZABZM2vS1Phfvu+I7NZvgCc62aJdB4nVP1v/4/LO1MCQs3yay2fKn4IDAANw4KOvZNuuxZ4YnEYtbpLL9x8hASQQQJxmurzXa1c5dpy/ItceSZ3rP3/bCxId+OzZus73tt2KLV2PC+kn3idTA9MwaIh/YsqfIvnbSoLsgM59bvXE8FSuUiinLVtDJ4BOQKxlwCr0czQ1+T84f7EsKCz0RAfb9+glD/72m9jN/G37hnemBoaY6cu5dKb8aSJ/W0mOfv6dvGXgnZ4YoJycHKtyIFqcclZ47ayQeEQfD5D/umOny33mj/RZVPaDjuic8dvHQgGwqOX52zbL6TtTA8th0pB+xZQ/zQ4AlAmpM33uutsTQwSDhJkIlkBJetEnPY7xj2Nskf/x8skfabMtO3oTgwN9Qwlw6LRToozq9kwNDCnbJ122tpS/7efeoXIkORLoHTDkvomeOQHVbriBqYJ8HBAPJxAz/6Plk/8DTy6UhdWqe6ZnaOwDXY4qmbu9L6YGJrFpyP5lyl8SYbtVhEz7PbRomdUb3F5K1P2Oxw2bTzFLgDPlaK6GpFr2R5R/7zuHebbkj0cJ986aQ+JPYyeZGhgy1i+7XKb8pRHqTITu5ventr8o8ysXeDZLqd+kKasHcjUgcqsBiHVZW87Mf/a6zRIyr9uZto9XMT9fzt30LMk/CzvJ1MDwOQFM+ctCsN0Qfbp91h4+KavXquWZ0apQsaIcPW2WZIBgNGfCcVvhKC/VD4F+QyY8KCtUqOiZHtWoVVuuO3qK5J+ljWRqYLgcAKb8ZSnY6cjc7W87L73nWX6yPXtpfnN7+fSLL0duNhg3Aozz/ZZX5Oex0i2eVNy09Qbv9YuaymcvXCX5O7SRTA0MhxPAlD+Hgu2W6NPt9/KvP/ekk2CiIcNqwLCJU+S2N96mI8BHA6GSAau2f0J5XxTAGjB6rERp7EQZ1/0ZmTWo6JlOd/lb6lLpTA003wnYpUNpWrTvKI998T0VRcGZOP7VH+WoqTM8NWgY6xsbNZaPr98WKgKI88w37ve+5cxbcvWhn2v7T1u2WtZt1NhzPRk8bgJtmoI9g2METtDYHRVcxZdGBHoIIf5b1QHIL6gid5y7TPJXVBZ7JjFnwzZPgwMx3ohm7jt0hNz0+gU6AlwNMFYG0O/imbKufiV7Dsnbho+Subm5npI/gv0eXbOR9kyTPUPcBjhClWeEEP8lhMDjar40IbBfw6DIGSvXUVk0KYvtBGw6eV7Wa1ykQ2nSHqNmnRvl5AVLJNKq4j7T5P2bFSi58eR5q7ofgvzGzHhMosaFDnuV7hh43r/51Ju0Z5rtmcbUwD2auI+HEUL8j3TKkM1vPQcNobJoVhbbCTj48deelQ9OHtumrdvKJzc/RyeAqwHBy8CFq3L9q2ct8p+xqlQWtWrjOfFDH9AlkM/7Uz/Pt+2S23dNqYH/RObWg0BeMgm4+b/3kGESz67dCgX3S69wJ775s5z45EJPiwbZ447HAl1vu91q7MHZsFmz4biMx7Zzl61y1gt27JLFAwZ5VtDHlnm8Q+4Re3Pi6z/Rjnk0mQFHaCqDjkfWfGlAAIV//jNREdx+xsDSCUhP5KqOzpIX98uatev4MhPKLyiQI6ZMkwi+igvx8D6Dd3ggb8v3HZWDxk6QlfLzfZF1PAIr2X2AxO8R8cPugRs0zf4hE38XQuRo4D8eQgjxe7ekn7wfnQBvHQAo0t73fyfRfSwZe6/+v6FuPTlhzlMSKVgkyOAJMspjUHrirLzn4emyRu3avsl38e0D5b73PyX5h4f8IRvfkrn1IbBJJ3n0vnMoVwI8VCZ7FeGxtZt1RdVmZWxr1a0n73t8ntx+7jIdAcYIaJWB7ecvy/vnLpC16tXPShZ12CtE+aMXBx6v2TrFd/0TGDRLQtaGjjFLOEapPvrjkRoLIf4jAVzlwaIToF+RyjNOKOaD6n46xy7Tseo1KZIPzl8sUZEtyrNR3pv3qx0oTT15YYms06CRrzJc1Ko1o/x9mKR4RP7/TwjRlLStF4FHMxl+p7/zcYA/TsDRz7+TwydN9SVQKlEGGjZrIR9Zuor9Bbga4NgRBPFPXbLSKq+bKFNef0ag38gp0yR0pjyHmt/ps1man/knOoiz9FIfj2YjsF63AtIJ0KdQmYzT8r2HfKkZkCwjqCg4fvaTcsuZS46JgLNs72fZJmGMgj73PvqE7zN+yCw6BK7Yf4TE78PM30PyB0fx5SECq5MNvOr/fBzgnxNw5NPfW33Kva6NXp5MVK1eQw4ed79cfeg1OgJcFbhGBtYdOy2HPjBFQkbKkx0vv8vLy7N6Xxz65FuSvw/k79GyP+QGsWp8+YAAnQAfFCXTjF7ld5T21Vh725HRRrOhWwbeKZe8xK6DJs2+g7iW5fuOyP73jJGV8is7kiFdDgEKW5UeP0Pi98mekfx9YGefTkEnwCelUSH6dPtiGQ5Rzprqbzs24Dk5ubJN1+5WwCAfD8RnqR+BqQ8/vUJ26Nnb83r9qRyFSpUrWythbEzm3+ojyd8nZvbxNHQCQu4EwEFAD3O0M01lLP34vmqNmnLgmPGyZPfBa5aGg5iV8pzeOCNLdx2Qd4wZLzHWfshUqnN07NlHPnfxXc76fbRdJH8fWdnnU9EJ8FGR0s3oVX5DrvPcTc/KOg0aBmqcEYXdskNnOempJawwGIE4AazsICU0qMdNiU7AjQ0byXlbnifx+2yvSP4+M3IAp6MT4LNSqZB9un0RJIieAgWFhYE6AjDceC6MZWIsF2PZmDNzb2bmunHdevZtOX3FWivOo3KV4OUov3KBtdwP2U4n+/xN/+MAkn8AbBzQKekERMQJgCHcdfUjOXjcBF+aCyXO0lJ9LiisahEKiIUlh81zBFD06YlNz1oBfUFE8pcnN1hNQhOyF97+gMQfgG0i+QfExAGelk5AAIrm5cxl7eGTsmWHToGvBiQaeBBM36EjJFrAIm9c9wyWx8vOwQD2M1aWWt3bCqtXN0pGWnXqItceeZ3EH5A9IvkHyMIBn5pOQEBK55UjgPanc9ZvlQ2aNjPKyMMpqFipkry5ew85ZvpsWbKHAYReOy8I5PvFLx+Vbbv1sLBPdMxM+NywWXP5xMbtrN8foA0i+QfMwAacnk5AgArolSOAtMFZz6yXdRs1Ns4RsMmnTv2GVmOR6SvWyQ2vnefqgGIgITD85fI18ra775G16zcwdtzrNm4iH12zkU3GArY7JH8D2NeQS6ATELAyeuYIfPlHiU6DMLo28Zr6DocARYfQpfDpF1l4KNMKAao0IugSxXmatGotUavB1LHFddWuV9+qZcHa/foD+JzaD5K/Icxr0GXQCYioEwDjcPSzP1jGt2btOkaTRCKB4Vq79btDjp3xmBW0FudVAtw7AveARbd+A2SoxrHOjfLhxcvZtMcQ+0LyN4h1DbsUOgGGKKlTjz7b7Q//7lvLETD50UCiE5D8GT3mO/TsI++8b6J8aPFyuWTXK3L7ucuReXyAe0HZ5YcWL7PuEamVuOdkHMLwP1adsEJx+NN/YICfIXaF5G8Y4xp4OXQCDFHWbEndzXaIEUAxIROKvqiSGYIL6xc1k+1v6SX7jRwtRz8y02ptvODZXXL9q2eNcw5wTQt27JJTl6yyrrXfiNHWteMe0HtBFY+g92/ZsbNVxAdk40Y2uY83jwhI/gayraGXRCcgBk6AbWhXvXxMFt8+0Jg6AroJDIWSkBWBqoWd+9wm+9w13Jpdj542S06ct0giCPHJLc9bpIzYg+X7j1h/pcfPyvUn3pCbXn/zJycCn/EdfrO3wz4gdBwDx8Ixcew7xz9gpd3hnDg3CN6EYju68cXxcnJzLRla9cpxkr6BtoPkbyjTGnxZdAIMVGSbtL14337uHTlo7H0SzVe8IAkeU0QOV8gKZAay44VM8pjqqwEkf4NZ1vBLoxMQMycABvfAR19Z5WGb39w+coRFJ0SPE9K4RUurDPX+Dz8j8RtsI0j+hjNsCC6PToDBCu71DGnDq2etMsMm9Bsgeeshb7c4Qgb6jxwtl+05RNIPgU0g+YeAXUNyievdGo1U+/W5624WAklhRHa+9b5c9PweWbL7gNxy6qKEIntN9JmOj+Ys6M7WqXdfrgqIYIk4lU559X2L9h2tFaFDn3wbuBwe//KPEk7p4p175cJnd1mtgtEdM5P8xu13BPn2HTrcC10FF/AVQwToBKQgbB3GBQo7ZeFSq1hKsiGvUau2vPfRJ+TB335jhKHbdvYtq2Nbo+Y3eWFgeEwDHAws8UPm0NlRh3yrHuPlX39uZUwUVru+jwHSJKE7cA5UzxOF/Un+MWRnn26ZToAHTsCO81eySseDI/DI0pVGGbqtZy5ZzkDD5i1I3AYQd7Lz6OT/Gxs2ksMmTpGrD54whkhRwGrS/KdlYfUaGeULKxXQpSiQuNt7IPn7xIQxPg1jAjQ6ASjTW7lKlYzGLdGQI6UNy/GmLX1iaXbU1OmhKDuciGecP9drXCRHTZ0hN5x4wyjihGxDxnF9TsYHWQkPLVpm1L24JXOn+/GZf4xZ2edb50qAohOAJc2eg+5yZNySDWGbLt2lqXnXz1/6lfXcuHv/O4zsRJeMZVz+z8vLk227FlsR/HDYnJKMH9sveXG/VM1AgW5Bx/y4XhPOwZm/zwzI0wmuBLh0AlbsP1Lus363JASDjmOaYIjKuwaUgkXkOGaajBvwP4AQJXkHj5tgzagPfvy1sXKCRw/te/RScooTdQj9ElBWuTyZjNJ3nPmTjYNCgE6AAycAXvq9s+bI3Lw8bUYu0eAhQr/02GnjDR6KxiCWAW1r6xjctjYR2zB9rtPgxzbLjyxdJXecu2y8PKw+dEJ27NnHE53Iycmx4hqOffG98Ti4cUpI/kFRH89rI8DHAVk4AQhOQpCSH0SCbnEmBXJlMmy73/3YSnvECgFWM/IqVPAFJz/GwutzwJlsfFMra4aPeJKdl94LDdGV7D4oO9zS25exjmKAIJf9bQrie9AIcCUgjRPgJtBPB3HA6JkYLJjJIUC6I2ogTHxyobVKUNS6DZ0CISwMgAVWToANCNSU1NBMY2r/fuLrP1nOXqtOXXwh/kQ9ilKAIGf+QVMez5+MAFcCkpwAHYF+iQbM7WeQxuOlW41KH7QJIdt3LOFuev2CdR/INOjSt5/WOAq32Hq1Hx6NdL21v5VVMWf9Vrn51JsyzMvYRz//Ts5cWSobNmvuO/Enj1HYAwQ580+mHv5vCgJcCShzAnQH+iUbMTf/16xzoxWDsO/9T0OzTJzJQQApIuMAQYbTV6y1Ag1RrhbxEEghwzNgN1h5vQ/y2rFCgywJBOhhRo/VGkTmm1BxLxPu2f6+571PrHtDsR6vMXVy/LAGCHLmbwrV8TpSIRBrJ8AO9EN7VCcGyc9tK1aqZNV0x4w6W0Me1u0O/+5by0FAcCTSyx5bt0VOWVgix86YLYfcN1H2HjJMduzV1yJjEHKTlq0txwHOQ7WaN1gFaBLrNOAzyBu/YRv8YR/siz8cC8fEsXEO5KRj9QXnxjXAWcE1hRXPbK8bdQXg2FTMzzdWD8IWIEjyT0U5/N40BGL5OAAR1yABP8lc9Vztim+RWGJGxbVsjTu3U2/RGkUMke756JqNsnWXbqHSAeis6dkSXPY3jeJ4PZkQiNVKQFCBfqoOgL1/lWrVrBlbHFYFoki+Qd4TekMggwOrIrY8he3d5ABBzvwzUQ1/NxWByK8EmBLop9PgosLgjJXr5Cu/+YKrAkmBnUESrUnnhtxPK3lGtuzQKbSkX57OmBYgyJm/qdTG68oWgciuBJgY6FeeUXP7HWIFEKSG1Q20AzaJgHgt/j+GQCQ/2lQjxqFCxYqRIv5EHTElQJAz/2wphtuZjkCkVgIQeY5UNJMD/RINmo7PVWvUlIPvvV8u33tIwjCRgP0n4CAwxwwUGRaDxt6XVUc+HbJmwjGg29DxoFIvOfM3ndJ4fU4RiMRKACqt+RTkdEUI0UYIMUcI8c8mGEX7GuAMINUOs8GgDGQQZBiXc8LBQyVJtAbGbNged0Pe/5cQYqEQorkQ4qLX1xREgCBn/k6phduHBYFQrwSgkEl+gbPWvS4M1N+EEIuEELkJg1pNCLFECPGvLo7nqQFHSly/EaPk3E3PMmYgxPECeKY/d+MOq8pgYbXqnsqMSxkG8c8XQlRJ0AvoCHQFOuPZNUPnoft+OICc+SeMLj9GEoHQrQQc+Ogr2XfYCM8MTILx+rMQok+aUa9aNvv5t4R9/LiurM6BuvSYMaHhEQraoKe7H0aT53D3OAI1CVCnAEWTDO6/8C8/6MMKIUT1NHpRLIT4zmud6DloiNz/4WeeyTRn/mlGmD9FCoHQrAQs33dY+lTFbI8QAgSfzaumEGKlEOL/eG30VI7foGkzq+gOHxO4I2gvHBuMxeQFS2T9oqZZOXUq46+4L1a7sOqF1a9sXtAd6JCn9wVbAJuge2w4889miLlNlBAw2gmAofQp0A+GbozLga0lhMCKyr97bfhUjn9z9x5y/wfezZx0G+OoHg8loNt2K/aUIFXkpGxf6MOyDDP+dOoy1utHZboDBEn+6YaTv0UZASOdAB8r+iHQr7GGAcYs6QkhBB4hGGngGzW/SeJRSlTJ1fT7euWjL2XD5i2MlI0ymf1eCDFLCFGoQR+gU1e91gUdAYIkfw2jzUOEGgGjnAAUwAko0E/HIOYJITAD+tBr4+fm+KgNbzpRRvX6Bo4Zbyr5g6hHJgW96tAF3wIEYTPcyA3JX8cw8xhRQCBwJwDBPagC5obYHO6DYCUELXn96imEOP7Dc9S/O7w+zzDIy8uTu9/92JWxdGNguc+PsQe7rvxGAntT5KAsav+gEKKb10oghOghhMDqgqf3D9vhJECQ5O/DyPMUoUIgsOwAHyv6HXAQ6Kdr8Br8cCBEURuROeB2tkQydx9IOH35Gk/JzwG5Imh1uxCiiS7hzvI4BWXn9RSHbCsIMto/y1HjZrFDwNeVAJ8D/bA0H+QLUdJTg348wMcA7oncrRMEzB2QtO5t/1sI8asf4lMmJeXwB6ELgQcIcuYfxLDznGFCwJeVACvQr10H3cauvOPpCvTTOYaoMFgaRIXBtl2L+QjA54JBaO4UgAPwP8tm3R10Cq6GY9X3o4JgUavWcsvpS9fIOmf+GkaPh4gFAp46AT617sWzdyy9IzDP1BeubZAQ4lWvq6nZBIQqc25nstzP3eoBqjXa+Hv8/p9CiLeFEOOEEBVNFfofamjklJXY/quXeCS2GCb5GywNvDQjEdD+OABdzHwK9EPQkR+BfjoHrmFZWdU/eGkUcexdVz+iE+DTKgCw9no8fyD8b8vK9NbTKZA+HMu3AEHYHg/GATaSLyIQWQS0rwR4oITJih1EoJ9uAWj/wwGxegHDnnx/yv+juxxn8+5m805xK9l9UHm8UsgAZAOPkW7VLXw+H8+XAMEUGKqMzSafceLpiEAgCITFCUA1vgmBIOTtSVuULZd+oMuIof68UyLj9u4chikLS1RIJnlfkD4cw3beilwgR/+FEAJ9B5Lv2cT/Sf6BiAhPGhQCpjsBJgb6eTFWaMGK9sRwBhDd7co4MhPAHZm7cYIGjb3P1RgljK1N+m29ECjDjulLgGACtm7GhuRvmNDwcvxBQHtMgKIiQnnLa93rDxrBnwU92d0YMMlMAP8cAGDtdpyEEAuCFzPfr8CXCoIux4TP/H0XB57QJARMWgnI1LrXJNy8uJbBLo2YZCaAfw6AYgYAMkTi+vKlxbADHeLMP66SyPu+BgETnIAoBPpdA6qLfxo5MF7XzUJZEth7J0BDBgCqSMb5ZUqAIMk/zlLIe78OgaCcgKgG+l0HcJZfuC4vzEwA7x0AxQyAv2QpA3HYLMgAQZJ/HCSM9+gYAb+dgLgE+jkZCNddB5kJ4L0DoJgBgEBPvn5GIIgAQZL/z/jzExG4DgE/nIAwVPS7Dhifvtjl9jEAMwG8dwAUMwBe8kmGwnQaXyoIlukUyT9MksFrDQwBL52AuAf6ZRrUJ9w6AMwE8N4BUOwBgHRPvspHwOsAQZJ/+bjzWyJQLgJeOAEM9CsX6mu+ZCaATyV93dQAYAbANbKq+x+vAgRJ/rpHiseLBQK6nAAG+mUvLswEMNQBYAZA9kKsuKXOAEGSv+JgcPd4I6DqBDDQz7n8MBPAQCeAGQDOBVlhDx0BgiR/hQHgrkTARsCNE8BAPxs95+/MBDDQAWAGgHNBVtxDJUCQ5K8IPncnAokIOCkbjNa9aAvKlzsEmAlgoAOgmAGAMeXLHQJOWwyzvK87nLkXEUiLwCwhxH+kiVL/LyEEUp2qpj0Kf8yEAKLFr6v0l813zATwLhNAsQcAMwAySX3632FTYFtgY1LpBmwTbBRfRIAIeIRAEyEEPOxvyhr3oIMdUvv2CCG6e3TOuB3WfSZA9RpsC+zR6gH6LaQhn0y/YUz5UkcANmZvmc0B5njUiO6KsEmwTXwRASJABEKNADMBPCJxN6l/2GfXld9kIvhMv8e9B0CoFZIXTwSIABHwEwFmAhjkBDADwE/R57mIABEgAvFGgJkABjkAzACItzLy7okAESACfiLATACDHADFDAD2APBTc3guIkAEiEDIEWBPAIMcAPYACLk28fKJABEgAiFCwH0mQLXqzATQ7DywB0CINIeXSgSIABEIOQLMBNBM4gFmADQMuSzy8okAESACRMBnBJgJYIATwAwAn6WepyMCRIAIEAHBTAADHABmAFATiQARIAJEwG8EmAlggAPADAC/xZ7nIwJEgAgQAWYCGOAAMAOAikgEiAARIAJ+I8BMAAMcAGYA+C32PB8RIAJEgAgwEyBgB0BDDwBmAFCPiQARIAJEwBUCzAQI0Ako2X0gU5OfdL//xdWIcyciQASIABEgAkIwE8Bt/r6O/ZgBQB0kAkSACBCBoBBgJkCAKwADx45PN8PP9Bt7AASlNUQnKNsAAAJESURBVDwvESACRCACCDATIEAHgBkAEdAg3gIRIAJEIKQIMBMgQAeAGQAh1RpeNhEgAkQgAggwEyAgB4AZABHQHt4CESACRCDkCDATIAAngBkAIdcaXj4RIAJEIAIIsCdAAA4AMwAioDm8BSJABIhAyBFgJkAADgAzAEKuNbx8IkAEiEAEEGAmQAAOADMAIqA5vAUiQASIQMgRYCZAAA4AMwBCrjW8fCJABIhABBBgJoDPDgAzACKgNbwFIkAEiEBEEGAmgI9OADMAIqI1vA0iQASIQAQQcJ0JIITIVLKWv+vF6IMIyBtvgQgQASJABAxBwHUmAB0A3x0g9gAwRGl4GUSACBCBKCDgOhOADoDvDsCcKAgc74EIEAEiQATMQMB1JgAdAN8dgEFmiAyvgggQASJABKKAgFImAJ0AX52AhlEQON4DESACRIAImIOA60wAOgC+OQB/MUdceCVEgAgQASIQFQSYCaA3Wt+L7AdmAERF23gfRIAIEAGDEGAmgPkOADMADFIYXgoRIAJEICoIILrci1krj6kPV2YAREXbeB9EgAgQAYMQKKYDYLwD1NUgeeGlEAEiQASIQEQQyBVC/J5OgLFOwDdCiJyIyBpvgwgQASJABAxDYDQdAGMdgHsMkxVeDhEgAkSACEQMgS10AoxzAjZGTMZ4O0SACBABImAgAlhmXiiE+BsdgcAdgb8KIRZw6d9ALeElEQEiQAQijEBzIQRmnl8JIf4vnQHfnAFg/aUQYoMQommE5Yu3RgQ8ReD/A2V+ZWNjzBc4AAAAAElFTkSuQmCC;" parent="1" vertex="1">
          <mxGeometry x="50" y="40" width="100" height="100" as="geometry" />
        </mxCell>
        <mxCell id="O1HXZXeSlepEHYtIHovu-7" value="Flow" style="shape=image;verticalLabelPosition=bottom;labelBackgroundColor=default;verticalAlign=top;aspect=fixed;imageAspect=0;image=data:image/png,iVBORw0KGgoAAAANSUhEUgAAAgAAAAIACAYAAAD0eNT6AAAAAXNSR0IArs4c6QAAIABJREFUeAHtnXvQrVV52B/OBRBB4CAQRK2KOoOOE1oOxrECmYGWOw62ggKRYtCAnCNk6iUOTEI0cYiWi5omkz/MH6ZtKszUWu+XSLwQJWAbi6JAp8aqjYoi18bDQd6e9Z2zYJ/NXnuvdz1rvev2+2a+efd+97o867ee2373s98twh8EIAABCEAAAhCAAAQgAAEIQAACEIAABCAAAQhAAAIQgAAEIAABCEAAAhCAAAQgAAEIQAACEIAABCAAAQhAAAIQgAAEIAABCEAAAhCAAAQgAAEIQAACEIAABPogMIgI/zAI1YE+rIRVQgACEGiQQKjjpx9Jg9EB/iAAAQhAoFICBHICuUYHKlV7xIYABCAAAY3zpy/JAxYEAQhAAAKVEiCIE8Q1OlCp2iM2BCAAAQhonD99SR6wIAhAAAIQqJQAQZwgrtGBStUesSEAAQhAQOP86UvygAVBAAIQgEClBAjiBHGNDlSq9ogNAQhAAAIa509fkgcsCAIQgAAEKiVAECeIa3SgUrVHbAhAAAIQ0Dh/+pI8YEEQgAAEIFApAYI4QVyjA5WqPWJDAAIQgIDG+dOX5AELggAEIACBSgkQxAniGh2oVO0RGwIQgAAENM6fviQPWBAEIAABCFRKQBXE7/u7jw/818tA9AlMpWqP2BCAAAQgQALQcRJDAoADgAAEINAvARIAEgCNDvRrOawcAhCAQOUENM6fy/+VJw9cAajcehEfAhCAgIIACUDlQVxTg0ECoLAcukIAAhConAAJAAmARgcqV3/EhwAEINAvAY3z5yOAypMHrgD0a/isHAIQgAAJQOVBnI8AMGIIQAACEAghQAJAAqDRgRCdow8EIAABCBRAQOP8+Qig8uSBjwAKsEBEgAAEIJCJAAlA5UGcjwAyWQ7TQgACEKicAAkACYBGBypXf8SHAAQg0C8BjfPnI4DKkwc+AujX8Fk5BCAAARKAyoM4HwFgxBCAAAQgEEKABIAEQKMDITpHHwhAAAIQKICAxvnzEUDlyQMfARRggYgAAQhAIBOBrAlAhACkkr/2+TWX/03fCOvPpLZMG5HA00TkVBG5WkQ+LyJ3i8i9IvJLEdm26/GdIvJpEblORM4RkUMizs9QEIBAJgKqIFBAAFLJHyEAZp2/AP6Z1JZplQT2FpELRORmEXk0wA4eE5GvicilIrJJKQvdIQCBTARUAayAAKSSP8DxFTVfAfwzqS3TBhIwwdq8078nou4/KCLXiMhhgTLRDQIQyERAFdAKCEAq+SM6wSxyFMA/k9oybQCBV4vIjxPq/MM7ZLpKRPYMkI0uEIBABgKqwFVAAFLJn9AZTiJXAfwzqCxTjiRwuIh8YUJdv01EjhgpI80hAIEMBFSBqoAApJJ/QqeYRM4C+GdQWaYcQeBoEflhBj2/T0TOGCEnTSEAgQwEVIGpgACkkj+DY4wqbwH8M6gsU3oSOEtEHsqo49tF5PWestIMAhDIQEAVkAoIQCr5MzrHKHIXwD+DyjKlB4GTRMQE4Ch6phjHfFuAJMBjw2gCgRwEVA6igACkkl/h2IqYtwD+OXSWOZcTOEpEHihIt00icvpykXkVAhDIQUAVyAoIQCr5C3KSQesogH8OnWVON4FfyfSZ/yr9NTUBz3OLzSsQgEAOAqsMd+nrBQSgpfLVHuBXyV8A/xw6y5xuAjes0pmMr98qIhvcovMKBCAwNQFVAC0gAKnkz+gMo8hdAP+p9ZX53AROq0Cff9stPq9AAAJTE1AFogICkEr+Chzm0vUVwH9qfWW+xQSeKiI/qECfTW2C+ZiCPwhAoAACSwPMKodSQABSyb9qfaW/XgD/AlQYEURkS+m6OiPfe9gxCECgDAKqAFpAAFLJP+OUqhynAP5laHHfUqwTkbsq0mXz2wEH9r1lrB4CZRBQBb4CApBK/oqc5sJ1FsC/DC3uW4pXVqjHl/S9ZaweAmUQWBhYfB2KNgDR/+NDTga++7yknVaLVfq3RC7GDbgJ0IsPOWi47pTjhm9uOW946MpL1v7NY3POvBaR91e1ikN/CEBAT0Bl1DmDF3Prk4cIDl2rgSr9iyA/84sMe65fP3zgtOOHR6/aOgzvfPPCf/Pa+089fq1tBO7mDoEHa5WH/hCAgI6AygEShPVBOCfDCI5cp30B71IjyKzS+dbmN8H/cxectTDoL0oGTFvTJwKHs7XKQ38IQEBHQGXIOYMXc+uTjwhOXKd9JAAq+4uwf2vv/BcF+mXnzJWACHNfq1Ue+kMAAjoCKkMmCOuDcE6GEZy4TvtIAFT2p90/87n+ssv+riTA9HnRwZu0sn9Cqzz0hwAEdARURpwzeDG3PvnQBhCd6q31VulfBPm7nt8U97mC/Krz1558rJad+eoifxCAQEYCKiMmCOuDcE6GEQKoVnVV+hdB/q7n/9bW84MTgNu3nKdld49WeegPAQjoCKiMOGfwYm598hEhgOq0j48AVPan3b8Hr7wkOAF44IqLtbL/Qqs89IcABHQEVEZMENYH4ZwMtQFEp3prvVX6F0H+ruc3QXzVpX7X6/frE4BHIugPQ0AAAgoCKgeYM3gxtz75iBBAFaq31lWlfxHk73r+zB8B/FyrPPSHAAR0BFQOkCCsD8I5GUYIoDrt4yMAlf1p988U8rne4a86/+9OeoVW9u9olYf+EICAjoDKiHMGL+bWJx/aAKJTvbXeKv2LIH/X82f+GuBnI+gPQ0AAAgoCKgdIENYH4ZwMIwRQheqtdVXpXwT5u5/f3NRn1bv9+devP+W4GNz+UKs89IcABHQEVIacM3gxtz75iBBAddrHRwAq+4uwf8PG9etG3wrY9Ikw90la5aE/BCCgI6AyZIKwPgjnZBjBieu0jwRAZX8R9m9tfnNvf3MlYNldAbdftWUw7/wjBf/tIrKvVnnoDwEI6AioHFDO4MXc+uQjQgDRaR8JgMr+IuzfbvOb2/uawkBzkx9zjwDzbx5fc/KxMW79OzvXl7SKQ/82CMwqRchjLYWQOWf7dD2/NgjHdmBTj5d7/bnn1yo//aMQOGtqvY8w37lRVs4g1ROYDaYhj7UAQuac7dP1/AUEoNm9mPxx7vXnnl+r/PSPQmC9iHw3QlCeyn5+IiJ7RVk5g1RPQKt0WgDMr7gMW0AA0u6fqn/u9eeeX2t89I9G4K0VJQDvirZqBqqegMoBR1g985MABOtA7gCce/4I9scQcQjsLSJ/X0ES8CMROSDOkhmlBQLBzneXsmsZMD8JQLAO5A7AuefXGh/9oxIwn6sH6/JEffnsP+qW1z+YVmG1BJhf4TQKCEDa/VP1z73+3PNrjY/+0Ql8ZKJAHmI3n4++WgasnkCIIs320QKYHSvkcdfzFxCAQvYsWp/c6889v1b56R+dwEEi8sMCk4Dvi8gzoq+WAasnoHXGWgDMzxWAYB3IHYBzz681PvonIXC0iDxYUBLwsIgck2SlDFo9gWDnu0vBtQCYnwQgWAdyB+Dc82uNj/7JCJjb7D5SQBKwTUTOSLZKBq6eQLDzJQFYK/jRKoCKfwEBSCW/1kHmXn/u+bXKR/+kBE4Qkfu1Oq7ob65CnJx0hQxePQGtA9cCYH6uAATrQO4AnHt+rfHRPzmBzSLyA0UQD7UN85n/S5KvjgmqJxCqYLafFoAdJ/TY9fwFBKDQfYvSL/f6c8+vVX76T0LAFAZO+e2AvxSRQyZZGZNUT0DriLUAmJ8rAME6kDsA555fa3z0n5SA+Q7+9xJeDTBjnzbpipisegLBzneXImsBMD8JQLAO5A7AuefXGh/9Jydg7hj4lsiJwJ0icrGI7DP5apiwegLBzpcEgCLAhO9mvPQydwDOPX/13qffBZgfEIrxK4Jnisi6fjGyci0BL0e7xNEzv46Ain8BAUgl/xK98ho39/pzz69TPXoXQMBLz5fYSQFLQAQIQCCUgMoBaAMQ/T8+5GSwxLH76kWo3tGvDAK+++xqV8YqkAICEAgi4DJsr/M5gxdz65MHEoAgm2mpk5edL9GTlliwFgh0R0DlAAjC+iCck+ESx+6rF90ZTGML9t1nV7vGcLAcCPRFwGXYXudzBi/m1icfJAB9GfuC1XrZ+RI9WTAkpyAAgVoIqBwAQVgfhHMyXOLYffWiFj1HzsUEfPfZ1W7xqJyFAASqIOAybK/zOYMXc+uTDxKAKmw0pZBedr5ET1LKxtgQgEBiAioHQBDWB+GcDJc4dl+9SKyeDJ+YgO8+u9olFo/hIQCBlARchu11PmfwYm598kECkNK0qhjby86X6EkVi0RICEBgMQGVAyAI64NwToZLHLuvXizWKs7WQsB3n13talknckIAAgsIuAzb63zO4MXc+uSDBGCBRfR1ysvOl+hJX7RYLQQaI6ByAARhfRDOyXCJY/fVi8bMobvl+O6zq113wFgwBFoi4DJsr/M5gxdz65MPEoCWTDloLV52vkRPgialEwQgUAYBlQMgCOuDcE6GSxy7r16UocVIEUrAd59d7ULnpR8EIFAAAZdhe53PGbyYW598kAAUYIF5RfCy8yV6kld6ZocABFQEVA6AIKwPwjkZLnHsvnqhUj46Zyfgu8+udtkXgAAQgEA4AZdhe53PGbyYW598kACEG04jPb3sfImeNIKBZUCgTwJaB0B/kZ4Z9Gk17axaq7vtkGAlEOiQgNYB0J8EoEOzaWbJWvttBgQLgUCPBLQOgP4kAD3aTStr1tpvKxxYBwS6JKB1APQnAejScBpZtNZ+G8HAMiDQJwGtA6A/CUCfltPGqrX22wYFVgGBTgloHQD9SQA6NZ0mlq213yYgsAgI9EpA6wDoTwLQq+20sG6t/bbAgDVAoFsCWgdAfxKAbo2ngYVr7bcBBCwBAv0S0DoA+pMA9Gs99a9ca7/1E2AFEOiYgNYB0J8EoGPzqX7pWvutHgALgEDPBLQOgP4kAD3bT+1r19pv7etHfgh0TUDrAOhPAtC1AVW+eK39Vr58xIdA3wS0DoD+JAB9W1Ddq9fab92rR3oIdE5A6wDoTwLQuQlVvXyt/Va9eISHQO8EtA6A/iQAvdtQzevX2m/Na0d2CHRPQOsA6E8C0L0RVQxAa78VLx3RIQCB3gngAHvXgL7Xj/73vf+sHgJdE8ABdr393S8e/e9eBQAAgX4J4AD73XtWrv/4CoYQgAAEqiVAAlDt1iF4BALofwSIDAEBCNRJAAdY574hdRwC6H8cjowCAQhUSAAHWOGmIXI0Auh/NJQMBAEI1EYAB1jbjiFvTALof0yajAUBCFRFAAdY1XYhbGQC6H9koAwHAQjUQwAHWM9eIWl8Auh/fKaMCAEIVEIAB1jJRiFmEgLofxKsDAoBCNRAAAdYwy4hYyoC6H8qsowLAQgUTwAHWPwWIWBCAuh/QrgMDQEIlE0AB1j2/iBdWgLof1q+jA4BCBRMAAdY8OYgWnIC6H9yxEwAAQiUSgAHWOrOINcUBND/KSgzBwQgUCQBHGCR24JQExFA/ycCzTQQgEB5BHCA5e0JEk1HAP2fjjUzQQAChRHAARa2IYgzKQH0f1LcTAYBCJREAAdY0m4gy9QE0P+piTMfBCBQDAEcYDFbgSAZCKD/GaAzJQQgUAYBHGAZ+4AUeQig/3m4MysEIFAAARxgAZuACNkIoP/Z0DMxBCCQmwAOMPcOMH9OAuh/TvrMDQEIZCWAA8yKn8kzE0D/M28A00MAAvkI4ADzsWfm/ATQ//x7gAQQgEAmAjjATOCZtggC6H8R24AQEIBADgI4wBzUmbMUAuh/KTuBHBCAwOQEcICTI2fCggig/wVtBqJAAALTEsABTsub2coigP6XtR9IAwEITEgABzghbKYqjgD6X9yWIBAEIDAVARzgVKSZp0QC6H+Ju4JMEIDAJARwgJNgZpJCCaD/hW4MYkEAAukJ4ADTM2aGcgmg/+XuDZJBAAKJCeAAEwNm+KIJoP9Fbw/CQQACKQngAFPSZezSCaD/pe8Q8kEAAskI4ACToWXgCgig/xVsEiJCAAJpCOAA03Bl1DoIoP917BNSQgACCQjgABNAZchqCKD/1WzV7oKuE5F37Po3j/mDAATGE8ABjmdGj3YIoP8V7uWzROQmEbGb9zci8rwK14HIEMhNwNpQ6DG3/MwPAQ2BUL23/TRz0zeAwKtE5Gczwd9uxH0icm7AeHSBQM8ErP2EHntmx9rrJxCq97Zf/QQqWcFTROR9CwK/3Qh7/JCI7FvJmhATArkJWLsJPeaWn/khoCEQqve2n2Zu+noS2Cwid3oEf7sp3xWRf+45Ns0g0DMBazOhx57Zsfb6CYTqve1XP4GCV7CHiFy2o9Bv24jgbzdm+451XSUi6wteH6JBIDcBay+hx9zyMz8ENARC9d7208xN3yUE5gv9LPCxRwoEl0Dmpe4JjLWn+fbdAwRA1QTm9Xns86oXX6rwrkK/sZtj21MgWOpOI1duAtZGQo+55Wd+CGgIhOq97aeZm75zBHwL/Sz8sUcKBOeA87R7AmNtaL599wABUDWBeX0e+7zqxZckvCn0uyvgs/6xG0aBYEm7jiy5CYy1n/n2ueVnfghoCMzr89jnmrnpKyKaQr+xm2XbUyCI6kFgJwFrE6FHOEKgZgKhem/71bz27LLHKvSzmzH2SIFgdhVAgMwExtrMfPvM4jM9BFQE5vV57HPV5D13jl3oN3bjbHsKBHvWQtZu7SD0CEEI1EwgVO9tv5rXnkX21IV+dmPGHikQzKIOTJqZwFg7mW+fWXymh4CKwLw+j32umry3zlMV+o3dRNueAsHeNJL1Wt0PPUIQAjUTCNV726/mtU8me45CP7tBY48UCE6mFkxUAIGx9jHfvoAlIAIEggnM6/PY58ET99LRFPr99QRf7xu7cavaUyDYi4b2vc5VdrDq9b7psfraCazS71Wv177+pPKXUui3ahNdr1MgmFQ9GLwAAi7d9z1fwBIQAQLBBHz13NUueOKWO5Za6OfaxFXnKRBsWVt1a1ulO7wuUjID3e7Tu3YCWt2sff3R5X/pRHf0GzZuWLf2P9HHC+YuhWZt/EFgloDWgdA/b4Iwu5c87o+A1v76I+ZY8aSFfs995tOGL/+nc4Zbbnzt8MLnHKjdRN/+FAg6Nr/j0766Q7u8gd7Fv2PVZekR3jwCUUQmLfQ7/8wjh/u+funw6LcvX/t/8H9sGbb+xlEuA09xngJB1N4SSKFfjDldsmD3kWOfBLS21ie1mVX/KxH5WYRMauVG7L/fXsNfvPfkxwO/TQDs8cb3nz5s2n/vleNEktUUCJ43w4GHfRKYSt+YJ01S0KfWsmpLQGtXdpzujpMW+r3sqMOGuz/3emfwt0nAd2/6zeH4lz5Tu6lj+lMg2J3q77bgMbpC2zRBXMN1t83kSXcENLpj+nb5N9kd/TasXzf87qUvG7Z987KVwd8mAdvvuHy49h3HD3tuXK/dXN/+3EGwSzNYW7SvjtCuvOBv9oS/vglo7bIrepMW+j3n8J2Ffjawjz1SINiVbuZarNaB0D9vYpBLb5i3DAJa+ytjFRNIkbXQb2zwt+0pEJxAM/qeQutA6E8C0LcF5V291v7ySj/R7MUU+tnAPvZIgeBEmtLfNFoHQn8SgP6sppwVa+2vnJUkkKTIQr+xwd+2p0AwgYYwpNaB0J8EACvKR0Brf/kkTzzzMVPd0S+k0M8G9bFHCgQTa01/w2sdCP1JAPqzmnJWrLW/clYSSZKqCv3GJgC2PQWCkbSFYbQOhP4kAFhRPgJa+8sneYKZqyz0s0F97JECwQQa1N+QWgdCfxKA/qymnBVr7a+clSglqb7Qb2wCYNtTIKjUnL67ax0I/UkA+ragvKvX2l9e6SPM3lShnw3qY48UCEbQpD6H0DoQ+pMA9Gk5Zaxaa39lrCJQiiYL/cYGf9ueAsFALeq7m8qB/N8f/2zgP5xBhN/16Ft7Wb3KfmvF10Whnw3sY48UCNaq1lnkVjkQgn948DfsSACy6HxLk2p1qDoWXRX6jQ3+tj0FgtXpdS6BVQ6EBIAEIJfiMu8aAZX91saw20I/G9jHHikQrE3FJ5dX5UBIAEgAJtdYJpwloLLf2YFKfkyh37cv9/41wfkkgQLBklU7u2wqB0ICQAKQXYP7FkBlvzWgo9BPEfxtMkCBYA2qnkVGlQMhASAByKK1TGoJqOzXDlLicfJCvy/9x7OD32XbQFv6kQLBElU9q0wqB0ICQAKQVXuZXGW/peKj0C/Cu35XMkKBYKlqn0UulQMhASAByKK1TGoJqOzXDlLSkUK/hMF/NinopEBQayD0X3KjGxIAEoCSgkeHsmj9UzHIJi/0u+uzFzZ/yX824C963EGBoNZA6E8CkOxmR9wHoJj4U6sgWv9UxLop9JvoXf+iJKDxAkGtgdCfBIAEoIgwgRALCGj904IhpztFoV/GwD+fDDRaIKg1EPqTAJAATBcTmGkcAa1/GjdbxNYU+hUU/G0y0GCBoNZA6E8CQAIQ0fEzVFQCWv8UVRjfwSj0KzD42yTAHBsqENQaCP1JAEgAfD077aYmoPVPk8q7j4i8L0Lhi9eiX3bUYQOFftXdQXC/yBrppStT6WRr8/AtAL4FENleGW4cAa1/GzebojWFfoW/65+9AmAfN1AgqDUQ+nMFgCsACsdP16QEtP4pqXCzg28WkbumeAe0Yf264Xcvfdmw7ZuXdf81PxvIQ48kAKI1sKb7cwWAKwCzTp7HkxPQ+pdJBea7/hVdBTD3CDjumGdqFWxM/w+JyL6RNXLM/LRd8m5/UfJOAkACENleGW4cAa3PGjdbpNavEpGfLXIosc/tv99ew4feczJXAkYmHje87/Rh0/57a5XLt/99O64OnRtJt+aH8ZWBdiODv7FVEgASgHmD4/mkBLR+a1JhZyczXwO8KXbAd413/plHDvd9/VISgRWJAF8D5JK/y4YWnScBIAGYdeo8npxAtQmAIcWNgFYE5NDP7kP6fe2G1w4v+CcHaBXKt//2HQpwlYisT2wyvvLQjisAk1/RWJRUjTyX2HwYvnACWr9VxPJMgeCdIxU/aOEUCD75a4ENFPotU+IgPZlCF1uYgysAXAFYZny8lpyA1r8lF9B3AgoEM1wNaKTQb5mOaQ2E/kuuDJAAkAAsMz5eS05A65+SCzh2AgoEJ0oEGir0W6ZjWgOhPwlAso8GIlwFWqb7vNY+Aa1/KpIQBYIJk4AGC/2KVOJKhFI5EK4AcAWgEj1vVUyV/ZYMhQLBBElAo4V+Jetx6bKpHAgJAAlA6QreuHwq+62BDQWCERKBxgv9atDjUmVUORASABKAUhW7E7lU9lsLIwoEFUlAB4V+tehxiXKqHAgJAAlAiUrdkUwq+62NEwWCIxOBTgr9atPjkuRVORASABKAkpS5Q1lU9lsjLwoEPZKATIV+z61RoTqXWeVASABIADq3n9zLV9lvbuFD56dAcEkScMuNTd7RL1RX6LecgMqBkACQACxXL15NTEBlv4llSz48BYIziQCFfsn1rcUJVA6EBIAEoEWjqGhNKvutaJ1OUSkQ/PblA4V+Tv3gheUEtA6E/ktulBThRj+r+C7fXV5tncAq/Vj1ejN8Ji0Q/Iv3lvMTwze+v5mf7m1GGStayCoHwet5A/wq/hWpGqImILBKP1a9nkCkfEN2VSBIoV8+RWto5lUOgtdJABpS9+aWorXP5oB0USBIoV9zeptrQVoHQv+8CUIuvWHeMgho7a+MVSSQoskCQQr9EmhK30NqHQj9SQD6tqC8q9faX17pE8/eVIEghX6JtaXP4bUOhP4kAH1aThmr1tpfGatILEX1BYIU+iXWkH6H1zoQ+pMA9Gs9+Veutb/8K5hIgioLBCn0m0g7+p1G60DoTwLQr/XkX7nW/vKvYEIJqioQpNBvQs3odyqtA6E/CUC/1pN/5Vr7y7+CDBIUXSCYqdDv5Rn2gSnzE9A6EPqTAOTX4n4l0Npft+SKLBA0hX7Hv/SZ2k0d0/9DIrJvt1rAwsfoCm3zBvtF/NHgvgks0okx5/qmJyLFFAhS6Ne9LuYAMMZZ0JYEIIeOMqebgNYm3SN39ErWAkEK/TrStPKWqnUg9M+bFJSnUUg0JQGt/U0pa9FzZSkQNIV+L3zOgdpN9O2/fccOXCUi64veCYSbkoCv7tAub6B38Z9SV5irPAIuvfA9X96KMkv0UhG5a4Jf8Ro2bli39j/FXLvWZNbGHwRmCfg6CtqRAMzqDY/LIKC1yzJWUZgUkxYITpAAUOhXmIIVJI7WgdA/b2JQkCohSgYCWvvLIHI9U05WIJgoCbhvxzv/c+vBjaQQGE0ABzgaGR0aIoD+J97MSQsEIyYCfyMiz03MhuEhkJsADjD3DjB/TgLo/wT0Jy0QVCYBFPpNoBBMUQwBHGAxW4EgGQig/xNCn+wOgoFJwHdFhDv6TagQTJWdAA4w+xYgQEYC6P/E8EstEKTQb2JFYLoiCOAAi9gGhMhEAP3PBL6UAkEK/TIpANMWQQAHWMQ2IEQmAuh/JvBm2twFghT6Zdx8pi6CAA6wiG1AiEwE0P9M4O20OQoEKfSz9Dn2TgAH2LsG9L1+9L+Q/Z+qQJBCv0I2HDGKIIADLGIbECITAfQ/E/hF06YuEKTQbxF1zvVMAAfY8+6zdvS/QB2IXSBIoV+Bm4xIRRDAARaxDQiRiQD6nwn8qmljFQhS6LeKNK/3TAAH2PPus3b0v2Ad0BQIUuhX8MYiWjEEcIDFbAWCZCCA/meAPnbKsQWC/5s7+o1FTPtOCeAAO914lr1GAP2vRBF8CwQp9KtkQxGzCAI4wCK2ASEyEUD/M4EPndZVIEihXyhR+vVMAAfY8+6zdvS/Qh2YLxCk0K/CTUTkIgjgAIvYBoTIRAD9zwReO+06EXnHrn/zmD8IQGA8ARzgeGb0aIcA+t/OXrISCEBgJAEc4EhgNG+KAPrf1HayGAhAYAwBHOAYWrRtjQD639qOsh4IQMCbAA7QGxUlrd3JAAAgAElEQVQNGySA/je4qSwJAhDwI4AD9ONEqzYJoP9t7iurggAEPAjgAD0g0aRZAuh/s1vLwiAAgVUEcICrCPF6ywTQ/5Z3l7VBAAJLCeAAl+LhxcYJoP+NbzDLgwAE3ARwgG42vNI+AfS//T1mhRCAgIMADtABhtNdEED/u9hmFgkBCCwigANcRIVzvRBA/3vZadYJAQg8iQAO8ElIONERAfS/o81mqRCAwO4EcIC78+BZXwTQ/772m9VCAAIzBHCAMzB42B0B9L+7LWfBEICAJYADtCQ49kgA/S9819mgwjcI8aomgH1VvX0IrySA/isBpu7OBqUmzPg9E8C+et591o7+F64DbFDhG4R4VRPAvqrePoRXEkD/lQBTd2eDUhNm/J4JYF897z5rR/8L1wE2qPANQryqCWBfVW8fwisJoP9KgKm7s0GpCTN+zwSwr553n7Wj/4XrABtU+AYhXtUEsK+qtw/hlQTQfyXA1N3ZoNSEGb9nAthXz7vP2tH/wnWADSp8gxCvagLYV9Xbh/BKAui/EmDq7mxQasKM3zMB7Kvn3Wft6H/hOsAGFb5BiFc1Aeyr6u1DeCUB9F8JMHV3Nig1YcbvmQD21fPus3b0v3AdYIMK3yDEq5oA9lX19iG8kgD6rwSYujsblJow4/dMAPvqefdZO/pfuA6wQYVvEOJVTQD7qnr7EF5JAP1XAkzdnQ1KTZjxeyaAffW8+6wd/S9cB9igwjcI8aomgH1VvX0IrySA/isBpu7OBqUmzPg9E8C+et591o7+F64DbFDhG4R4VRPAvqrePoRXEkD/lQBTd2eDUhNm/F4JvFBEtPZlxuAPArUS0Op/reuuRm42qJqtQtBKCGwUkbfv+P/HCAnAIyJytYjsVcnaERMCswSIL7M0CnzMBhW4KYhULYFjReRbEQL/vF3eLSInVksFwXslMK/HY5/3ym2ydY/dkPn2kwnKRBAomMCBIvJnIvJYguA/a3M3iMjBBXNANAjMEpjV3ZDHs2PxOAGBkE2Z7ZNAJIaEQFUEXi0iP0kc+Gdt7l4ReaOI7FEVJYTtkcCs3oY87pHZpGsO2ZTZPpMKy2QQKIjA80XksxMG/lm7M4+/KCJHFsQDUSAwT2BeZ8c+nx+P55EJjN2Q+faRxWE4CBRPIGaR37w9jX1OkWDx6tK1gGP1eb591/CmWPw88LHPp5CROSBQCoFURX5j7W6+PUWCpWjIk+XYV0QuePLpLs7M6+nY511AyrnIsRsy3z6n7MwNgakITFXkN29fY59TJDiVRvjNs4+IfGHXx0S/59elqVZj9Xe+fVMwSlzMPPCxz0tcEzJBICaBqYv8xtrgfHuKBGPufvhYs8Hf7lFvSYBdd+gxnD49vQiEbozt5zUJjSBQIYHcRX7WxkKPFAnmU7pFwd/uY09JgF1z6DHfDnYyc+jG2H6dYGKZHREoqcjP2lnokSLB6RV3WfC3+9hLEmDXG3qcfvc6mzF0Y2y/znCx3MYJlFrkZ+0t9EiR4DSK6xP87R72kATYtYYep9m1jmcJ3Rjbr2N0LL0hArUU+Vm7Cz1SJJhOaccEf7t/rScBdp2hx3S7xchrBEI3xvYDIwRqJmDupme+onXP1Df0+fVfe9Zg/qeed9dazZq5k2A8zQ0J/nbvW04C7BpDj/F2iJEWEgjdGNtv4aCchEAFBLIU+R34tL2GP/39E4btd1w+PPrty4f/fN1pwyEH7WPtacojRYJxlFQT/O1+t5oE2PWFHuPsEKM4CYRujO3nHJgXIFAogSxFfnvsIcP5Zx45/MPNv7UW+E3wt//33HLJsPU3jhrWrdvD2tVUR1skuHehe1W6WE+d+Z6/ds9aTAK0TErf/+rlY4Oq30IWMIJAliK/5z/7gOEzf/6qxwO+Dfzzx7/+D68eXnTEJq1NhvSnSHCEEu1qaoL/TZE/wmktCQjRxdk+43eFHqMIzMIOeTxqMhpDIBOBLEV+GzesG9520ebh4W9sXRn8bTLwj7e/eXj3v33FsPdeG0LsUduHIkE/BTW39/1S5OBv9+5CPxGqaGXXFHqsYpE1Cxm6MbZfzWtH9j4IZLmT37GbDx9u//jrvAO/TQDs8c7PXDic+PJnWzub8sidBJfbRYp3/nZ/bxaR/ZZPX9Wrdl2hx6oWW6OwoRtj+9W4ZmTug0ARRX42oIceTZHgwZueYu1tyiNFgk+2E4L/k5ksO6PV12Vj81oEAmxQBIgMURSB4or8QoO/7UeRYBH6RfAfvw3El/HMJu3BBk2Km8kSEyi6yM8G9NAjRYKJtcc9fMrP/L/S2GV/Q3G9iLwyQo3EmSKyzr0tvKIlQAKgJUj/EghUU+QXGvxtP4oEJ1c3gr8/cvN10reIyPciBH8bm+4SkTeJiLkCw19kAhZy6DGyOAwHgdEEqizyswE99EiR4Gg9CelA8Pen9loR+fuIgX8+Jn1fRM7wF4eWPgTmIY997jMHbSCQgkATRX6hCYDtl7FI0HwN7sgUG1vImAR/v404SET+S8LAPx+TPiwih/qJRqtVBObhjn2+anxeh0BsAlmK/IyD+9cnv2DhnfxsMM51NEWCbzj7JYO52+CEjtjM1eqdBAn+fla7WUR+OLHOGb37gYj8qp+ItFpGQOswlo3NaxCITaDpIj9tAkGRYBR1o9rfD+MJInJ/huBvY9aDInKqn6i0chGwMEOPrnE5D4GYBLop8tMmARQJqtSOd/5++E4SkW0Zg7+NV+YKlPm2AX+BBCzI0GPgtHSDgDeBLov8tIkARYLe+mUb8s7fklh+NJf9zbvv0JgRu9//E5GXLheZV10EtJvhGpfzENASoMhv5hcDQxMCigS91JB3/l6Y5OmZPvNfFadMTcDhfkug1SyBVWBXvT47Fo8hEIMARX4RAv9swkCR4FK1JPgvxbPbix8p6J3/fGz6KxHZYzdpebKSwDzEsc9XTkADCIwgQJFf5OA/mwhkLhL8FyP0YKqmBH9/0ucWHPxt3DrPfzm0NAQsuNAjFCEQgwBFfgkD/2wSQJHg4+rKZ/6Po1j5wNzhL+VNfkLjz3y/H4mI8SX8eRKYBzj2uec0NIOAkwBFfhMF/9lEoPMiQd75O81x4QtvjfBmcWxsCW3/BwtXwMmFBEIh234LB+UkBDwIUOSXIfDPJgHmcYdFgrzz9zDOmSbmh31qePdvY9JPRMRcseDPg4CFFnr0mIImENiNAEV+BQT+2USgoyJBgv9upuj15KyK3v3bOHa+18poRA0AOjApAYr8Cgv+s4lA40WC5rL/lysMZjaoVX988SEHDdedctzwzS3nDQ9decnav3lszpnXIu6N2Wf+PAhooXtMQRMIrBXm/JmIPBbRyFfq7sYN64a3XbR5ePgbW4fZQMfjy508Gi0SJPjrC75X2pvLtvdcv374wGnHD49etXUY3vnmhf/mtfefevxg2rrGGXF+u4jsh99dTUALe/UMtOidAEV+Bb/rdyVDDRUJEvwzB//PXXDWwqC/KBkwbSMlASf37nh91k8C4EOJNiEEKPKrMPDPJwSZiwRfFKJ4M30I/hmDv3nHbt75Lwr0y86ZKwEj3u272r57Rg946CDggud73jEspzsmQJFfA4F/NhGotEiQ4J85+JvP9Zdd9nclAabPiw7e5BuDXO0+27EP9l66C57vee+JaNgFAYr8Ggv+s4lARUWCKav9fX1j9+2uP+W40e/+bVJw7cnHavnd2YXHVS5SC1k5Pd0bIcCd/BoO/LNJQAVFgrzzz/zO316+/9bW84MTgNu3nKeNTT9vxLcmXYYWclLhGLwKAhT5dRL8ZxOB73zm3wwnvvzZWv8R0v9eEXmj44dfeOdfSPA3ScCDV14SnAA8cMXFIbox2+eRKrxnZiFngYU8ziw+0xdAIEsC8IqjDx/+58df5/w622yw4rH7a3+hbEgA1PdQCfG3VfUxQdxe0h97vF+fAPyiAN9YvAhahSp+gQg4CYGsHwE89HdbSAQmugrBRwAEfnuJf9Ux80cA90zi+SqfhASg8g0sTPxsRYCf/uCrSAISJwGZiwBPHKHr1AEU8FGAucPf2Hf+tv01+iLAu0boS7dNSQC63fpkC+drgIkDcehl+9B+BXwNcK8AbSUJyJwEZP4a4CcCdKa7LiQA3W35ZAvmRkANJAIZbwT0RRE5UqmtJAGZkwBzUx/7rt73aL4+uOrjBY/Xr1XqThfdtaC7gMQiVQSyFQneTpFg8McihRb5hSgiSUDGJGDj+nXD2FsBmz4eAX5VG+N3+FtBYBXEVa+vGJ6XIbBGgCLBSq4GVFDkF2JSJAEZkwBzb39zJWDZXQG3X7VlMO/8IwX/X4rI00MUpbc+qwL8qtd748V6dQQoEiw4EaioyC9EC0kCMiYB5h29ub2vucOfucmPuUeA+TePTcFfhFv/zsaqm0MUpMc+s9BCHvfIjDXrCFAkWFgSUGmRX4gWprxRkAk6Lf4E7ZkRLseHxBZNn4tDlKPHPhrIpi9/EAglcISImB/s0OrgqP4HPm2v4U9//4Rh+x3xb44TWmWfs1/lRX4hupfySsCXRcSM39LfOhEx99UfZWcZ2z8gIuYjR/48CGg31WMKmkBgKQGKBDNcEWioyG+pcjle5EqAA4zj9JsyBvSxMepqxxo4vYDAWLjz7RcMySkIjCZAkeBESUCjRX6jFW7XO3Xzjn3ep8V43tqVAJMw/Z9ErGLwtmPcLyKHhChDr30suNBjr9xYdxoC2YoEP/Pn7d9JsPEivxCN5EqAP7VTK0gALvNfDi0NgdDAb/tBEQKxCVAkGPlqQEdFfiG6SE2AP7UPR4gZNnbEPt4iIhv8l0JLQ0C7CVCEQCoCFAlGSAQ6LPIL0UeSAD9qh4rIDyLEDW3cme//cxF5rt8SaDVLYB7k2OezY/EYAikIUCQYkAh0XuQXoockAX7UflVEzGftY2NFqvbbRcR8PMFfAAHtpgRMSRcIjCZAkaBnEkCR32jdmu1AEjBLw/34X4rIIwUkAY+JyAVuMXllFQESgFWEeL0kAhQJLkkEKPKLoqokAX4YXykiD2VMAsw7f4K/3145W5EAONHwQqEEKBKcSwIo8ouuqSQBfkj/WaaaAPOZP5f9/fZoaSsSgKV4eLFgAhQJfvvygSK/ZBpKEuCH9nAR+asJrwSYan8K/vz2ZmUrEoCViGhQOIEsRYLHbj58yPlzwxT5TaKV3CfAH/MZIvL9hImA+bjh7XzVz39DfFqSAPhQok3pBLIWCT78ja3DVPfzp8hvclXkSoA/8gN2BOg/EJEfR0wEzL39/4g7/PlvwpiWJABjaNG2dAJNFwlS5JdN/UgCxqHfS0TOFxFzS2RTrDc2zpjqfvPriuZX/fhhn3HsR7UeuzHz7UdNRmMITECguSJBivwm0JrVU5AErGa0qIX5ieSTReTdu3798zsicu+uxGCbiPxURMy5T+74OeVrRMR8pPf0RQNxLj6B+YA+9nl8iRgRAnEINFEkSJFfHGWINAo1AZFAMkwZBMYG/Pn2ZawCKSDgJlBlkSBFfu4NzfwKSUDmDWD6eATmA/rY5/EkYSQIpCNQTZEgRX7plCDiyCk/Dnh9RDkZCgJLCYwN+PPtlw7OixAojEDRRYIU+RWmLcvFSXEl4PeWT8mrEIhLYD6gj30eVxpGg0B6AsUVCVLkl37TE80QMwkg+CfaJIZ1Exgb8Ofbu0fmFQiUTaCIIkGK/MpWEg/pYiQBBH8P0DSJT2A+oI99Hl8iRoTAdAT22PWDIvcEfFd5rK3s1v7Xf+1Zg/mfel4RMWs1P6Ji1s5fHAKaJIDgH2cPGCWAgNYBBUxJFwgUR8AUCb5PRH6ZISBrbdC3v7m5yodE5ODi6LchUEgSQPBvY++rXYWv83C1q3bhCA6BBQSyFAlOkHTcLSInLlgvp+ISGJMEEPzjsme0AAKuwO57PmBKukCgaALZigQTJAKPiMjVImJuzcrfNAR8kgCC/zR7wSwrCPgGele7FcPzMgSqJZClSDBiEvBFETmyWvp1C74sCSD41723TUnvCuy+55uCwWIgsIBAljsJKhIBc5/1N1Lkt2Anpz21KAkg+E+7B8y2goBvoHe1WzE8L0OgCQI1FAlS5Feeqs0mAQT/8vane4lcgd33fPcAAdAVgVKLBCnyK1cNzW2DLyxXPCTrmYBvoHe165kda++TQElFghT59amDrBoCUQi4Arvv+ShCMAgEKiSQu0iQIr8KlQaRIVASAd9A72pX0lqQBQI5CJgiwR8rivZctuU6T5Ffjl1mTgg0SMDlZHzPN4iEJUFgNIEpigQp8hu9LXSAAASWEfAN9K52y8bmNQj0RiBVkSBFfr1pEuuFwAQEXIHd9/wEIjIFBKoiELNIkCK/qrYeYSFQFwHfQO9qV9dqkRYC0xF4YYS6ADMGfxCAAASSEHAFdt/zSYRiUAg0QsDXjlztGsHAMiAAgRIJuByP7/kS14RMECiFgK8dudqVsg7kgAAEGiTgcjy+5xtEwpIgEI2Arx252kUThIEgAAEIzBNwOR7f8/Pj8RwCEHiCgK8dudo9MRKPIAABCEQm4HI8vucji8NwEGiKgK8dudo1BYPFQAACZRFwOR7f82WtBmkgUBYBXztytStrNUgDAQg0RcDleHzPNwWDxUAgMgFfO3K1iywOw0EAAhB4goDL8fief2IkHkEAAvMEfO3I1W5+PJ5DAAIQiEbA5Xh8z0cThIEg0CABXztytWsQCUuCAARKIeByPL7nS1kHckCgRAK+duRqV+KakAkCEGiEgMvx+J5vBAPLgEASAr525GqXRCgGhQAEIGAIuByP73koQgACbgK+duRq5x6ZVyAAAQgoCbgcj+955fR0h0DTBHztyNWuaTgsDgIQyEvA5Xh8z+eVntkhUDYBXztytSt7dUgHAQhUTcDleHzPV714hIdAYgK+duRql1g8hocABHom4HI8vud7ZsfaIbCKgK8dudqtGp/XIQABCAQTcDke3/PBE9MRAh0Q8LUjV7sOELFECEAgFwGX4/E9n0tu5oVADQR87cjVroY1IiMEIFApAZfj8T1f6bIRGwKTEPC1I1e7SYRkEghAoE8CLsfje75PaqwaAn4EfO3I1c5vFlpBAAIQCCDgcjy+5wOmpAsEuiHga0eudt2AYqEQgMD0BFyOx/f89BIzIwTqIeBrR6529awUSSEAgeoIuByP7/nqFozAEJiQgK8dudpNKCpTQQACvRFwOR7f873xYr0QGEPA145c7cbMRVsIQAACowi4HI/v+VGT0RgCnRHwtSNXu85wsVwIQGBKAi7H43t+SlmZCwK1EfC1I1e72taLvBCAQEUEXI7H93xFS0VUCExOwNeOXO0mF5gJIQCBfgi4HI/v+X5IsVIIjCfga0euduNnpAcEIAABTwIux+N73nMamkGgSwK+duRq1yU0Fg0BCExDwOV4fM9PIyWzQKBOAr525GpX56qRGgIQqIKAy/H4nq9ikQgJgUwEfO3I1S6T2EwLAQj0QMDleHzP98CINUIglICvHbnahc5LPwhAAAIrCbgcj+/5lRPQAAIdE/C1I1e7jtGxdAhAIDUBl+PxPZ9aPsaHQM0EfO3I1a7mtSM7BCBQOAGX4/E9X/jyEA8CWQn42pGrXVbhmRwCEGibgMvx+J5vmw6rg4COgK8dudrpZqc3BCAAgSUEXI7H9/ySoXkJAt0T8LUjV7vuAQIAAhBIR8DleHzPp5OMkSFQPwFfO3K1q58AK4AABIol4HI8vueLXRiCQaAAAr525GpXwBIQAQIQaJWAy/H4nm+VC+uCQAwCvnbkahdDBsaAAAQgsJCAy/H4nl84KCchAIE1Ar525GoHRghAAALJCLgcj+/5ZIIxMAQaIOBrR652DSBgCRCAQKkEXI7H93yp60IuCJRAwNeOXO1KWAMyQAACjRJwOR7f841iYVkTEjhURF4jIteLyKdF5E4RuVdEtomIrx7SrkxWZg/NXpo9NXt7nYicIyKHTKhfTAUBCDgIaB2nY1hOQ2ApgU0iskVEbiHId5nkPCYiXxORS0XE6AJ/EIBABgIkANNDv1BE9p1+2iJmfIaIXCsiDxH4uwz8i/zNgyJyjYgcVoSGIgQEOiKwyCDHnOsIVZSlXrUr8N28w+ntF2XEOgbZICKXicgDBH4Cv0MHHt6hysY+9qxDpZESAvUTGBPsF7Wtn8B0K7DB33LsJQl4gYj8d4fTtyw4lvkZfo59uU1EjpjOLJkJAv0S0Bp4v+TGrXw++FvurScBrxSR+wn+vOsfqQP3icgZ40yM1hCAwFgCNhCFHsfO12N7V/C3zFtNAi4Qke0jHb9lwpErAo+KyBt6dBisGQJTEdA62qnkrHWeVcHf8m8tCbhIREylt10fR1iE6IDRodfXavzIDYHSCYQY5Wyf0teXUz7f4G95tpIEmMv+5t2bXRdHWGh0wFxFOj2nITM3BFoloDFM05e/xQTGBn+7D7UnAc/nM38SnwTJn/n2yAsXmxpnIQCBUAI28IQeQ+dtuV9o8Ld7UGsSsJFqf4J/guBv7eJWETFfJ+UPAhCIRMAaV+gxkhjNDKMN/nYfakwC3pbQ+VsuHPv+OOG3m/EULAQCBRDQOtQCllCMCLGCv92TmpIAc4c/7u7Xd3C2epvyaD4K+JViLB5BIFA5Aa2xVr78aOKbSmUty0X9v1zJbYPN7X0Xyc85uMTWgfdEs1oGgkDnBLTG2Tm+x5f/VBG5KVEQLP1KgPkxF979E+i1vsS3v/ntgAMftzweQAACwQR8jc7VLnjiBjv2mgSYX/Vz6QfnYZNCBy5p0H+wJAhMTkBrnJMLXPiEPSYBfxsrATjg+c8eNv/ORcPp/+3fD6/5+o3D+Xd8jP+KGZg9NHtp9tTsbSw9EZGvFu4HEA8CRRNYt+MrW2dGMMizRGR90SudXjjzU7/ms/uYDs+OVVpNwKEx7vi3buOG4Zgrfms47/aPEvArDvjLEjazt8dc8cbB7HUE2zB3CDx4etNmRgjUTcC8Q71URO6KYITWkL8nIm8VkafUjSaq9L0kAa/R6pEJCCd88F0E/kYD/3xSYPY6UhJwdlSLZTAINE7A3KL1B1qHvaS/SQRe2zjDMcvrIQm4fok+2ARx6dG8858PEjxv+6MPcyVAqzciYr55wh8EILCCgPne7A0RDM7XaD8iIgetkKmXl1tPAj6l0SvzuTCX/dsO9ouSObPn+x/xLF9/4mr3iV6cCOuEQCiBo3b8pOYPNU46sK+Zc3Oo0I31azkJ+F+B+rHm1E1x2KIAwbn2k4Kj336RK7D7njcfY/IHAQg4CJyY+YdZzHfDT3XI1tvpVr8d8FNNAnDGx/6EBKCTz/7nk7rTP/rHvoHe1e6e3pwI64WALwFTnW9+RtNlPFOdf2THV3ZO8hW68XYtXgnYptGx19zGV/3mA2Mvz8+59QatD/pF4/6C5UEgiMA/LezObA+LyMuCVtJep9auBKiceC/BjnUu/khDkzzu6tueh2BFEFAQODzTZ/6rAoH59gGFgTs3tqUrAav2fenrBMbFgbEXLiQACk9PVwjMEdhDRL4QwaiWOm3F+ObbAfztJNBKEqDSlV4CHetcnOgofInVO/wJBCCwi8DrIhiUNaxUx3PZrccJtJAEqPSEwLg4MPbCJYK/etyYeACBngmYX2T7cQSDUjl0j/m/LyL79LxRc2uvvSZApS+9BDrWuTjR8fAXq/Rrzpx4CoE+CVwdwZhWGVus19/S5xY5V13zlQCVThAYFwfGXrhE8FlOo+IFCPRCYK9K3v3bYGFuGbyhl83xXGetVwLsngYdewl0rHNxokMC4OkdaAaBJQQuiGBIQQ5cMa+5TwF/uxOoMQlQ6Q2BcXFg7IWLwn9YvdvdgngGgQ4J3BzBkNYM6sWHHDRcd8pxwze3nDc8dOUla//msTlnXos1D+NkuUFTip8SVulEL4GOdS5OdCL4Aa27V+mvdnLWH4Fg50M8TUQe1SrSnuvXDx847fjh0au2DsM737zw37z2/lOPH0xb7Xz0z5IAmH2LnQSodIHAuDgw9sIlgh/Qun+V/monZ/0RCHY+hLnXvkqJTUD/3AVnLQz6i5IB05YkQMdcu2fK/jGTAJXu9RLoWOfiREepx0b3tH8q/dVOzvojEOx8CHX1v3nnvyjQLztnrgREUF7GUCZvij2IlQSo9pDAuDgw9sJFob9W77Tu344TemR+LQH6qwh8XmNE5nP9ZZf9XUmA6fOigzeFGg398gX+WfYxkoDZ8UY/7iXQsc7FiY7Gd+3qq3KezK++kqnlT38lAdXvsV9/ynGj3/3bpODak48d7fAjGBxzxk0eTAHpfgodVO0HgXFxYOyFSwR/oFDdta4q/dVOzvojEOx8iPs0SvStrecHJwC3bzlPazz0jxvMQ3lqrgSEzrnWr5dAxzoXJzoa37Wrr9b9q/RXOznrj0Cw8yG2a5TowSsvCU4AHrjiYq3x0L+MBMDsQ+iVANUeEhgXB8ZeuGh8FwnA2uV7bfhT2a92cvrrCWzTGJEJ4vaS/tjj/SQAWuMpqf9XAj8KUK2hl0DHOhcnOhrfRQJAAqAPn/WP8FONEfERgLoIRhUANXsXsS8fAdyxOEARuNNyiaDDWg+utV/m1xKgv4rA3RojMnf4G/vO37a/hiJArfMoob8m+BvFVa2BAJs2wJbOV6s/Ks+5s7NKf5k/AgGGUBH4lMaI+BqgLoBp2BfQVxv8jeKqHGjpAQr50iYoWv1Rec6dnVX6y/wRCDCEisD1WiMyN/Wx7+p9j+brg9p56a8Lnkp+MYK/UVyVHhBg0wbY0vlq9UflOXd2Vukv80cgwBAqAudojWjj+nWjbwVs+mjnpb8ueCr4xQr+RnFVelB6gEK+tAmKVn9UnnNnZ5X+Mn8EAgyhInCIiDymNSRzb39zJWDZXQG3X7VlMO/8Cf66oKfdK2X/mMHfKK7KgRJg0wbY0vlq9Xg5az0AAAZOSURBVEflOXd2Vukv80cgwBBqAl+LYEhrhmBu72vu8Gdu8mPuEWD+zWNT8Metf3XBLtYeKcaJHfyN4qocaOkBCvnSJiha/VF7TqX+Mn8EAgyhJnBpBENSOfKA+c9Qr7q9AZ4qIjcFsPTZu9Dv+a+i7DO3sw0BNm2ALZ1vBF1fpZ+8DoHmCWwSkYciGJPTUUce+04RWdf8roxb4L4iYt6hp9iDFO/87epU8pYeoJAvbYISQd+tHnKEQNcErolgTCpnPmL+i7veqScvvsZ3/nYVKp0hwKYNsKXzHeEzXHpm9ZAjBLomcJiIPBjBoFyGFuv890Rkn653avfF1/rO365CpRelByjkS5ugRPBXVg85QqB7Am+JYFAqh+4x/5nd79ITAGp+529XodIXAmzaAFs6Xw9/sUq/rB5yhED3BDaKyG0RjGqV0YW+/pfd79ATAGp/529XEqoLa/1KD1DIlzZBieCrrB5yhAAEROQIEbkvgmGpHPuC+b8vIuaeBfyJtBL8zV6q9IQAmzbAls5Xqz84EwhA4MkEzFfstkcwLpVzn5nfJCQvebKYXZ5pKfibDVTpSOkBCvnSJiha/enSg7BoCHgQeH2MOwRGMNBtO77edoKHvD00aS34mz0z+xucBJxz6w0DQTZtkC2V7zl/++Fgvdmlc7/owWmwRgiEEjBJQM4rAeZbCdzwZ+futRj8zcp+qkkAzvjYn5AA3NFnAnD6R/9YmwDcE+oY6QeBXgicnqkmwHzmf1QvkFess9Xgb5Z9tyYB2Pw7F5EAdJoAHP2239QmAHetsDtehgAEROR5InKrxlGP7Pt5EXkG5NcItBz8zQI/NVI3dnP6Bzz/2cN5t3+UJKCzJMDs+f5HPGs3XQjQo0/gYyAAAT8CG0TkMhG5P8DQfA31H0TkdSKyh59Izbdq4Xv+qzbpeq0+HXPFG0kAOksANr/jDb4+ZVm7a1cpJ69DAAK7EzhURN4b+a6BPxKRd4nI/rtP1fWz1t/52809R5sArNuwYTjhg+8iCegkCTB7bfZcqzci8mqrhBwhAIFxBA4UkTeJyFcDvy1gigu/JCLnisie46ZuvnUvwd9spLm3w2NaZ75u44bBXAng44B2CwLPu/2/Duadf6Tg/0sReXrznoQFQmACAgeLyNkiYi6pfVJEvrOrutt8xcsE+nt3nfusiPzhjqThJNl5M5sJRKtuip6Cv92cr2kTANvffC589NsvGkyF+Gtuu5GrApVfFTB7aPbSFPxF+Mx/9qrBzVb5OEIAAhAogUAPn/kv4nypDeAcw++JALtR7PhF0UWWyDkIQCALgV6Dv4G9SUQeIoCNCmCz72Z5PO5mUg+IiPkIkz8IQAACRRAwN11K4ci/XMnHLdckWn8KpoyZRlen4np1ERaPEBCAAARmCLw9chD8iojsNzN+yQ8Pi/zNkqmCCfPUlQyYrzHzo2IlewJkg0DHBGIlATUFf7vdb4mcABGc6wrOU+yXuZcJfxCAAASKJaBNAmoM/mYzNorIbSQBST4KmiK4lj7HLSJibmjGHwQgAIGiCYQmAbUGf7sZR2T67YnSgxfy6a5m/FxEnmuVjCMEIACB0gmMTQJqD/52P8wvQOb8FUqCrS7YlsbP6NKpVrk4QgACEKiFgG8S0Erwt/tivhWhvkMgHyd0/3GC0aELrFJxhAAEIFAbgVVJQGvB3+6P+WGoRwji3Qfx0CsKj4rIRVaZOEIAAhColYArCWg1+Nt9Op2aABKAgCTQfObPZX9rRRwhAIHqCcwnAa0Hf7thzxORWwOCQOg7R/rVXQNgqv0p+LPWwxECEGiGgE0Cegn+duPM17fMd7jNjVwI0DBYpAPmdtLGPviqn7UajhCAQHMELqzk9r4pwB8qIu/lroEkQTOJoLm3/x9xh78U5saYEIAABMojYH7M5U07flr6q3xboMtkwFT3m5/0Nb/qxw/7lGefSAQBCEBgEgIHi8jZInKtiHxSRL4jIj8VkW0z7xIXXTLmXPkfJZg9NHtp9tTsrfnRqFeLyNMn0SwmgQAEIAABCEAAAhCAAAQgAAEIQAACEIAABCAAAQhAAAIQgAAEIAABCEAAAhCAAAQgAAEIQAACEIAABCAAAQhAAAIQgAAEIAABCEAAAhCAAAQgAAEIQAACEKiCwP8HWEUtCzowsXAAAAAASUVORK5CYII=;imageBorder=default;" parent="1" vertex="1">
          <mxGeometry x="350" y="190" width="100" height="100" as="geometry" />
        </mxCell>
        <mxCell id="O6sRCHZx17uytCMg3KwL-1" value="Publisher" style="shape=image;verticalLabelPosition=bottom;labelBackgroundColor=default;verticalAlign=top;aspect=fixed;imageAspect=0;image=data:image/png,iVBORw0KGgoAAAANSUhEUgAAAgAAAAIACAYAAAD0eNT6AAAACXBIWXMAAAsTAAALEwEAmpwYAAAceklEQVR4nO3dd5Sl91nY8Q0pTrElza4cQsIJNQnwR0J6I50EkjiFDkkoIb3YCQkBA8ajO6u4YoxDCDEG9yJLlqtcJGO5SS6y5YJxBxe5yYrTIMlJQvCbe1dtJG2Z2Z15v/fO7/M95/MHHM7hvffOc59ndyXtsWOSJEmSJEmSJEmSJEmSJEmSJEmSJEmSJEmSJEmSJEmSJEmSJEmSJEmSJEmSJEmSJEmSJEmSJEmSJEmSJEmSJEmSJEmSJEmSJEmSJElS3Ynt6ctW6ueQJEkzdWJn+j1bO9MnthbTrce3p6+on0eSJB1ydy7/4zvTtOIIkCTpiHfv5X+PI2Bn+vL6+SRJ0gF3puV/1xGwM33KESBJ0hHqXMt/1xHwsQduT19aP68kSbrA9rr8dx8BF52cvqR+bkmSdJ6dWv6L6ZN7Xf53WUy3OAIkSdrAznv57zoCLt6evrh+HZIkaY9d8PK/20cdAZIkbUAHuPzvPgJOTl9Uvy5JknSGDmH5OwIkSVrnVv9d/0Na/o4ASZLWsRmW/53/YOBHLt6evrB+vZIkDd9sy98RIEnSejT78r/bhx0BkiQFhcv/lK2d6YPHL59+R/0+SJI0TPXyv+sIWEwfcARIkjRDp5b/7X9zX7r8dx8By2f67fX7IknSkW3dlv+uPw54vyNAkqRDaF2XvyNAkqRDat2X/64/DnifI0CSpANouVi/fBOW/+4j4NLLp8+r3zdJkja2TVv+jgBJki6wTV3+dx0BO9N7H7g9/bb6fZQkaWPa9OXvCJAkaZ8dleV/1xGwmN7jCJAk6Sxdsj393uXS/E/10j4E77z/9nRp/f5KkrR2HeHlf7vF9A5HgCRJuzryy3/XEfCAR0wn6vdbkqS8S3am3zfE8r/b2x0BkqShG3D5OwIkSWM38PJ3BEiSxszyv8NiettF29Px+vOQJOnQs/wdAZKkwbL8T29rZ7rZESBJOpJZ/uc+Ai5+5LRVf06SJB1Ylv+ej4C3OgIkSUeii7enr7T89+UNx7eni+rPTZKk8+7U8l9Mn1mDpbppHAGSpM3M8r9Ai+nGE4+eHlB/jpIk7TnL3xEgSRosy//A3eAIkCStdZa/I0CSNFiW/yFbTK9/4PZ0//pzliTprix/R4AkabAu3Z7+wHI5/edgGd6WL+TA1s50/edtT7+5/twlSQN3avkvpv8S/Wr4MfUyXvrV5AhYTK9yBEiSki7emX5/9tv+i+mzl+5Mvys/ABbTS8P/36/93MdOv6X+OZAkDVS6/G//FfArV89RHwCX7EwPKv//b+1M133+46bfVP88SJIGqF7+d/jG1bPUB8Cx7elzlu/FhxwBkqQj3Vos/8V0y7EnTr9+9Tz5AbBsazE9tH6O5TNc6wiQJB1KJy6f/lD2D/zd8wB4yJ3PVD/L6hnuvz1dulzA/6N+luX78vIv2J5+Y/cTIkk6cp36lX/xr/rdd8l9Zve/B18/z53PsbUzPb5+lju8whEgSTqQ1mb5334APHz3s9XPc9dzbE+fv/yf/0/9PI4ASdKBdOq3/Xem/7oGS23159y/9IBHTCd2P1/9TPd4lsX0pPp5drnm2BOm+8370yJJOhKdWEx/eF2W/x227/2M9TPtfpYHbk9fuvzf/Ur9TLu8+Nj29Bvm+4mRJG182X/e90wW022n+9vw6uc6zfP8ZP1M9/IyvxMgSdpTa7f8V05ODz7ds9bPde/n+dzt6beu/qiifi5HgCRpX63hb/uvfvX/oTP9Vnb9bKd7pq2daVE/170tj5IX3PnfTpAk6R4dv3z6I2u3/G8/AL7ujM+8hgfA6o8qlgv31vrZTnMEXO0IkCTdo7X8bf/bl9a1Z3vu+vnO8lzfUT+bI0CSdNbWdfkvf+X/v5fP9rvP9uz1M57xwabp12ztTNfXz3faI2Bnep4jQJIGb22X/86pX61edq7nr5/xrM+2PX3F8oj5v/UznvEI2J5+3YH9IEmSNqflcvqjS/+tXkZnWFDv3st/za5+zj083yPrZzyjxfRcR4AkDdalO9MfXIu/2Of0fmX1byPs5XXUz3rOB3zCdL/l/9276uc8k63FdJUjQJIGac2X/8p9/ot/Z6p+1r084x1/hfJa/lHAHa50BEjSEW/dl//WznTzfv4Btfp59/Gc2/WznpU/DpCko9vxy6c/tq5/5n/H8v/lE9vTl+3rNW3IAbBarsvXd1P9vOc4Ap5x7Mrp1+77B0uStL6t+6/8V05cNn37fl9X/cz7edZLTk5fsPwMPlM/8zlc4XcCJOmItAnLf/mr4x8/n9dWP/d+n/eSnelBy8/is/Vzn9Vieo7fCZCkDW9Dlv9N5/uX1dTPfl7PvJgeVT/3Hj6Tpx7bnj7nfF6fJCluazH98eUX+X+vl8k5Fs2ntran33m+r7F+/vN66Nv/eYC1/K8E3uuzebIjQJI2rI1Y/ovpf63+wcQLeZ31azjf575oezq+fP3vq5/fESBJR6hNWP5Lv7r09Rf6WuvXcSHPfvH29MXHF9Nt9Ws45xGwmH7GESBJa96GLP/VUvneg3i99eu44M/r5PRVq7/0qH4djgBJ2uCWy+RPbMLyX3rcQb3m+rUcxGtYfmbfujwC/l/9Wvbgiau/5fAgXrMk6YDalOV/6s+UD3CJ1K/nwF7HZdN3rv2/Hnj75/fTfidAktakTVn+p/5Lcwe8POrXdKCv5eT04Pr17PFzfJLfCZCkuFPLfzH9Ur4UzuGw/v75+nUd+OtZTA+rX9Me/YQjQJKiNuVX/ssD5er9/AU/+6l+bYfxmpaf6ffXr2uPfsoRIEkztzG/8j/E5b+qfn2H9bo26AjwDwZK0lxZ/ndXv8bDfG2bcgQsP+cfcwRI0iFn+d+z+nUe9uvbmCNgZ3r8Yb8XkjRslv99q1/rHK/RESBJA7dcqn/S8r9v9eud63VuzBGwmH50rvdEko58lv+Zq1/znK/VESBJA2X5n736dc/9ejflCDh+gP+5Z0kaLsv/3NWvvXjNG3MELKYfKd4fSdroLP+9Vb/+6nVvzBGwMz22eo8kaeOy/Pde/R6Ur90RIElHKMt/f9XvQ/36N+YIWEyPqd8rSVrbLP/9V78X9etftTFHwM706Pq9kqS1a+vk9FWW//6r34/69d/ZxhwBi+lR9XslSWuT5X/+1e9J/fp3tzFHwM60Xb9XkpRn+V9Y9ftSv/57tzFHwGJ6eP1eSVLWqeW/M/1y/mW8oct/Vf3e1K//dG3MEbAz/XD9XknS7Fn+B1P9/tSv/0xtzBGwmB5Wv1eSNFuW/8FVv0f16z9bjgBJWqMs/4Otfp/q13+uNuYI2Jl+qH6vJOnQsvwPvvq9ql//XtqYI2Ax/WD9XknSgXfJYvpTlv/BV79f9evfaxtzBOxMP1C/V5J0YFn+h1f9ntWvfz85AiRpxiz/w61+3+rXv9825QhY/jw+tH6vJOm8s/wPv/q9q1//+bQxR8DyOev3SpL2neU/T/X7V7/+821jjoDF9H31eyVJe87yn6/6Paxf/4W0EUfAYvrs0kPq90qSztnFJ6cvWn6x/s/8i/Ncy39nev6mL/9V9ftYv/4LbXkEXla/h3s6Anam767fK0k6Z+v+K6uj8Cv/O6vfy/r1H0Tr/vO6PABuuejk9CX1+yRJe2pdv1SP0vJfVb+f9es/qNb159Xyl7SRrduX6lFb/qvq97R+/QfZuv28Wv6SNrp1+VI9ist/Vf2+1q//oFuXn1fLX9KRqP5SParLf1W9qOrXfxjVP6+Wv6QjVfWlepSX/yoHwOGUHQGWv6SjWPCles2xJ0z3q1/3YeYAOLxm/3m1/CUd5Wb8Uj3yy3+VA+Bwm+3n1fKXNEIzfKkOsfxXOQAOv0P/ebX8JY3UIX6pDrP8VzkA5unQfl4tf0kjdghfqkMt/1UOgPk68J9Xy1/SyB3gl+pwy3+VA2DeDuzn1fKXpAP5Uh1y+a9yAMzfBf+8Wv6SdHcX8KU67PJf5QBoOu+fV8tfku7beXypDr38VzkAuvb982r5S9KZ28eX6vDLf5UDoG3PP6+WvySduz18qVr+d+QA6Dvnz6vlL0l77yxfqpb/rhwA69EZf14tf0naf6f5UrX875UDYH26z8+r5S9J59+uL1XL/zQ5ANaru35eLX9JuvC2Lpu+5Sj/lb4XkgNg/Vq+L99j+UuSDjUHgCRJA+YAkCRpwBwAkiQNmANAkqQBcwBIkjRgDgBJkgbMASBJ0oA5ACRJGjAHgCRJA+YAkCRpwBwAkiQNmANAkqQBcwBIkjRgDgBJkgbMASBJ0oA5ACRJGjAHgCRJA+YAkCRpwBwAkiQNmANAkqQBcwBIkjRgDgBJWfUXEK2bb6Pk8x9b/fnTqve/A2Bw9Rfg6Hz+Y6s/f1r1/ncADK7+Ahydz39s9edPq97/DoDB1V+Ao/P5j63+/GnV+98BMLj6C3B0Pv+x1Z8/rXr/OwAGV38Bjs7nP7b686dV738HwODqL8DR+fzHVn/+tOr97wAYXP0FODqf/9jqz59Wvf8dAIOrvwBH5/MfW/3506r3vwNgcPUX4Oh8/mOrP39a9f53AAyu/gIcnc9/bPXnT6ve/w6AwdVfgKPz+Y+t/vxp1fvfATC4+gtwdD7/sdWfP616/zsABld/AY7O5z+2+vOnVe9/B8Dg6i/A0fn8x1Z//rTq/e8AGFz9BTg6n//Y6s+fVr3/HQCDq78AR+fzH1v9+dOq978DYHD1F+DofP5jqz9/WvX+dwAMrv4CHJ3Pf2z150+r3v8OgMHVX4Cj8/mPrf78adX73wEwuPoLcHQ+/7HVnz+tev87AAZXfwGOzuc/tvrzp1XvfwfA4OovwNH5/MdWf/606v3vABhc/QU4Op//2OrPn1a9/x0Ag6u/AEfn8x9b/fnTqve/A2Bw9Rfg6Hz+Y6s/f1r1/ncADK7+Ahydz39s9edPq97/DoDB1V+Ao/P5j63+/GnV+98BMLj6C3B0Pv+x1Z8/rXr/OwAGV38Bjs7nP7b686dV738HwODqL8DR+fzHVn/+tOr97wAYXP0FODqf/9jqz59Wvf/zA6AeQCiZP+jU81fvfwcAhMwfdOr5q/e/AwBC5g869fzV+98BACHzB516/ur97wCAkPmDTj1/9f53AEDI/EGnnr96/zsAIGT+oFPPX73/HQAQMn/Qqeev3v8OAAiZP+jU81fvfwcAhMwfdOr5q/e/AwBC5g869fzV+98BACHzB516/ur97wCAkPmDTj1/9f53AEDI/EGnnr96/zsAIGT+oFPPX73/HQAQMn/Qqeev3v8OAAiZP+jU81fvfwcAhMwfdOr5q/e/AwBC5g869fzV+98BACHzB516/ur97wCAkPmDTj1/9f53AEDI/EGnnr96/zsAIGT+oFPPX73/HQAQMn/Qqeev3v8OAAiZP+jU81fvfwcAhMwfdOr5q/e/AwBC5g869fzV+98BACHzB516/ur97wCAkPmDTj1/9f53AEDI/EGnnr96/zsAIGT+oFPPX73/HQAQMn/Qqeev3v8OAAiZP+jU81fvfwcAhMwfdOr5q/e/AwBC5g869fzV+98BACHzB516/ur97wCAkPmDTj1/9f53AEDI/EGnnr96/zsAIGT+oFPPX73/HQAQMn/Qqeev3v8OAAiZP+jU81fvfwcAhMwfdOr5q/d/fgC89TYYl/mDTj1/9f7vD4BPw7jMH3Tq+av3vwMAQuYPOvX81fs/PwDe8mkYl/mDTj1/9f53AEDI/EGnnr96/zsAIGT+oFPPX73/8wPgpk/DuMwfdOr5q/d/fwDcCuMyf9Cp56/e/w4ACJk/6NTzV+///AB4860wLvMHnXr+6v3vAICQ+YNOPX/1/s8PgDfdCuMyf9Cp56/e//0B8CkYl/mDTj1/9f53AEDI/EGnnr96/+cHwBs/BeMyf9Cp56/e/w4ACJk/6NTzV+9/BwCEzB906vmr939+ALzhkzAu8wedev7q/e8AgJD5g049f/X+dwBAyPxBp56/ev/nB8CNn4RxmT/o1PNX738HAITMH3Tq+av3f34A3PAJGJf5g049f/X+dwBAyPxBp56/ev87ACBk/qBTz1+9//MD4PWfgHGZP+jU81fvfwcAhMwfdOr5q/d/fwB8HMZl/qBTz1+9//MD4HUfh3GZP+jU81fvfwcAhMwfdOr5q/d/fgC89uMwLvMHnXr+6v3fHwAfg3GZP+jU81fv//wAeM3HYFzmDzr1/NX73wEAIfMHnXr+6v2fHwCvvgXGZf6gU89fvf/zA+D6W2Bc5g869fzV+98BACHzB516/ur9nx8Ar/oojMv8Qaeev3r/OwAgZP6gU89fvf/zA+BnPwrjMn/Qqeev3v/5AfDKj8K4zB906vmr939/AHwExmX+oFPPX73/8wPguo/AuMwfdOr5q/e/AwBC5g869fzV+z8/AK79MIzL/EGnnr96/+cHwCs+DOMyf9Cp56/e/w4ACJk/6NTzV+///AB4+YdgXOYPOvX81fvfAQAh8wedev7q/Z8fAC/7EIzL/EGnnr96/+cHwEt/EcZl/qBTz1+9/x0AEDJ/0Knnr97/+QFwzS/CuMwfdOr5q/e/AwBC5g869fzV+z8/AF7yCzAu8wedev7q/Z8fAC/+BRiX+YNOPX/1/ncAQMj8Qaeev3r/5wfAiz4I4zJ/0Knnr97/DgAImT/o1PNX7//8AHjhB2Fc5g869fzV+z8/AF7wARiX+YNOPX/1/ncAQMj8Qaeev3r/5wfA8z8A4zJ/0Knnr97//QHwfhiX+YNOPX/1/s8PgKvfD+Myf9Cp56/e//kB8Lz3w7jMH3Tq+av3vwMAQuYPOvX81fs/PwCueh+My/xBp56/ev87ACBk/qBTz1+9//MD4Mr3wbjMH3Tq+av3f34APPe9MC7zB516/ur97wCAkPmDTj1/9f7PD4Ar3gvjMn/Qqeev3v/9AfAeGJf5g049f/X+zw+A57wHxmX+oFPPX73/8wPg2e+BcZk/6NTzV+///gB4N4zL/EGnnr96/+cHwLPeDeMyf9Cp56/e/w4ACJk/6NTzV+///AB45s/DuMwfdOr5q/d/fgA84+dhXOYPOvX81fvfAQAh8wedev7q/Z8fAE9/F4zL/EGnnr96/+cHwNPeBeMyf9Cp56/e//kB8NR3wbjMH3Tq+av3f38A/ByMy/xBp56/ev/nB8BTfg7GZf6gU89fvf/zA+DJ74RxmT/o1PNX738HAITMH3Tq+av3f34A/Mw7YVzmDzr1/NX7Pz8AfvodMC7zB516/ur97wCAkPmDTj1/9f7PD4AnvQPGZf6gU89fvf/zA+Cn3g7jMn/Qqeev3v/5AfDEt8O4zB906vmr939/ALwNxmX+oFPPX73/8wPgP74NxmX+oFPPX73/8wPgJ98G4zJ/0Knnr97//QFwM4zL/EGnnr96/+cHwH+4GcZl/qBTz1+9//MD4CduhnGZP+jU81fv//wA+PdvhXGZP+jU81fvfwcAhMwfdOr5q/d/fgD8+FtgXOYPOvX81fs/PwD+3VtgXOYPOvX81fvfAQAh8wedev7q/Z8fAE+4CcZl/qBTz1+9//MD4MdugnGZP+jU81fvfwcAhMwfdOr5q/d/fgA8/s0wLvMHnXr+6v2fHwA/+mYYl/mDTj1/9f7PD4DHvQnGZf6gU89fvf8dABAyf9Cp56/e//kB8CNvgnGZP+jU81fv//wAeOwbYVzmDzr1/NX73wEAIfMHnXr+6v2fHwCPeSOMy/xBp56/ev/nB8Cj3wDjMn/Qqeev3v8OAAiZP+jU81fv//wAeNSNMC7zB516/ur9nx8Aj7wRxmX+oFPPX73/8wPgETfCuMwfdOr5q/d/fwDcAOMyf9Cp56/e//kB8G9vgHGZP+jU81fv//wAuPwGGJf5g049f/X+7w+A18O4zB906vmr939+AJx8PYzL/EGnnr96/+cHwM7rYFzmDzr1/NX73wEAIfMHnXr+6v2fHwCL18G4zB906vmr939+AFz2WhiX+YNOPX/1/s8PgO3XwrjMH3Tq+av3vwMAQuYPOvX81fs/PwAe/hoYl/mDTj1/9f7PD4Affg0AzK/ef/X+dwAAMKR6/9X7Pz8AHvZqAJhfvf/q/Z8fAD/0agCYX73/6v2fHwA/eD0AzK/ef/X+dwAAMKR6/9X7Pz8AfuB6AJhfvf/q/Z8fAA99FQDMr95/9f53AAAwpHr/1fs/PwC+/1UAML96/9X7Pz8Avu9nAWB+9f6r978DAIAh1fuv3v/5AfBvXgkA86v3X73/8wPge18JAPOr91+9//MD4F9fBwDzq/dfvf/zA+BfXQcA86v3X73/8wPge64DgPnV+6/e//0BcC0AzK/ef/X+zw+Af3ktAMyv3n/1/s8PgH/xCgCYX73/6v2fHwAPeQUAzK/ef/X+zw+AB78cAOZX7796/zsAABhSvf/q/Z8fAP/85QAwv3r/1fs/PwD+2csAYH71/qv3f34A/NOXAcD86v1X7//8APgnLwWA+dX7r97/DgAAhlTvv3r/5wfAP74GAOZX7796/+cHwD+6BgDmV++/ev/nB8A/vAYA5lfvv3r/5wfAP3gJAMyv3n/1/s8PgL//EgCYX73/6v3fHwAvBoD51fuv3v/5AfD3XgwA86v3X73/8wPgu18EAPOr91+9//MD4O++CADmV++/ev/nB8B3vQgA5lfvv3r/9wfACwFgfvX+q/d/fgB85wsBYH71/qv3f34AfMcLAGB+9f6r939+AHz7CwBgfvX+q/d/fgD8necDwPzq/VfvfwcAAEOq91+9//MD4G8/HwDmV++/ev/nB8DfuhoA5lfvv3r/5wfAt10NAPOr91+9//MD4FufBwDzq/dfvf8dAAAMqd5/9f7PD4BvuQoA5lfvv3r/5wfAN18FAPOr91+9//MD4JuuAoD51fuv3v/5AfCNVwLA/Or9V+///AD4hisBYH71/qv3f38APBcA5lfvv3r/5wfA1z8XAOZX7796/+cHwNddAQDzq/dfvf/zA+BvXgEA86v3X73/8wPgb1wBAPOr91+9//sD4DkAML96/9X7Pz8A/vpzAGB+9f6r939+APy1ZwPA/Or9V+///AB40LMBYH71/qv3f34A/NVnAcD86v1X738HAABDqvdfvf/zA+CvPAsA5lfvv3r/5wfAX34mAMyv3n/1/s8PgK99JgDMr95/9f7PD4CveQYAzK/ef/X+dwAAMKR6/9X7Pz8A/tLTAWB+9f6r939+APzFpwPA/Or9V+///AD46qcBwPzq/Vfv//wA+AtPA4D51fuv3v/5AfDnnwYA86v3X73/+wPgqQAwv3r/1fs/PwD+3FMBYH71/qv3f34A/NmnAMD86v1X7//8APgzTwGA+dX7r97/+QHwp58MAPOr91+9//MDAABGVO9/BwAABOr97wAAgEC9/x0AABCo978DAAAC9f53AABAoN7/DgAACNT73wEAAIF6/zsAACBQ738HAAAE6v3vAACAQL3/HQAAEKj3vwMAAAL1/ncAAECg3v8OAAAI1PvfAQAAgXr/OwAAIFDvfwcAAATq/e8AAIBAvf8dAAAQqPe/AwAAAvX+dwAAQKDe/w4AAAjU+98BAACBev87AAAgUO9/BwAABOr97wAAgEC9/x0AABCo978DAAAC9f53AABAoN7/DgAACNT73wEAAIF6/0uSJEmSJEmSJEmSJEmSJEmSJEmSJEmSJEmSJEmSJEmSJEmSJEmSJEmSJEmSJEmSdBT7/z7/Bi+UOWGVAAAAAElFTkSuQmCC;" parent="1" vertex="1">
          <mxGeometry x="50" y="190" width="100" height="100" as="geometry" />
        </mxCell>
        <mxCell id="O6sRCHZx17uytCMg3KwL-2" value="Subscriber" style="shape=image;verticalLabelPosition=bottom;labelBackgroundColor=default;verticalAlign=top;aspect=fixed;imageAspect=0;image=data:image/png,iVBORw0KGgoAAAANSUhEUgAAAgAAAAIACAYAAAD0eNT6AAAACXBIWXMAAAsTAAALEwEAmpwYAAAe/ElEQVR4nO3dZ7eld32YYX+GgA1G4GTZ8cpaSV5k5V2cleaOSXHimIBtmrFxnJjejGhGXSDRCWA7gGSKeqGoN9QFEhhMC70YG/wlds4zw5iRmDlz5szZz72f/b/uta63sJ/y37/ftKMf+zFJkiRJkiRJkiRJkiRJkiRJkiRJkiRJkiRJkiRJkiRJkiRJkiRJkiRJkiRJkiRJkiRJkiRJkiRJkiRJkiRJkiRJkiRJkiRJkiRJkiRJkiRJkiRJkiRJkiRJkiRJkiRJkiRtdf/gjNWqVF+/JElDZgGQJGnALACSJA2YBUCSpAGzAEiSNGAWAEmSBswCIEnSgFkAJEkaMAuAJEkDZgGQJGnALACSJA2YBUCSpAGzAEiSNGAWAEmSBswCIEnSgFkAJEkaMAuAJEkDZgGQJGnALACSJA2YBUCSpAGzAEiSNGAWAEmSBswCIEnSgFkAJEkaMAuAJEkDZgGQJGnALACSJA2YBUCSpAGzAEiSNGAWAEmSBswCIEnSgFkAJEkaMAuAJEkDZgGQJGnALACSJA2YBUCSpAGzAEiSNGAWAEmSBswCIEnSgFkAJEkaMAuAJEkDZgGQJGnALACSJA2YBUCSpAGzAEiSNGAWAEmSBswCIEnSgFkAJEkaMAuAJEkDZgGQJGnALACSJA2YBUCSpAGzAEiSNGAWAEmSBswCIEnSgFkAJEkaMAuAJEkDZgGQJGnALACSJA2YBUCSpAGzAEiSNGAWAEmSBswCIEnSgFkAJEkaMAuAJEkDZgGQJGnALACSJA2YBUCSpAGzAEiSNGAWAEmSBswCIEnSgFkAJEkaMAuAJEkDZgGQJGnALACSJA2YBUCSpAGzAEiSNGAWAEmSBswCIEnSgFkAJEkaMAuAJEkDZgGQJGnALACSJA2YBUCSpAGzAEiSNGAWAEmSBswCIEnSgFkAJEkaMAuAJEkDZgGQJGnALACSJA2YBUCSpAGzAEiSNGAWAEmSBswCIEnSgFkAJEkaMAuAJEkDZgGQJGnALACSJA2YBUCSpAGzAEiSNGAWAEmSBswCIEnSgFkAJEkaMAuAJEkDZgGQJGnALACSJA2YBUCSpAGzAEiSNGAWAEmSBswCIEnSgFkAJGXVX0C0Hvo7Sp7/2OrnT6ue/xaAwdVfgKPz/MdWP39a9fy3AAyu/gIcnec/tvr506rnvwVgcPUX4Og8/7HVz59WPf8tAIOrvwBH5/mPrX7+tOr5bwEYXP0FODrPf2z186dVz38LwODqL8DRef5jq58/rXr+WwAGV38Bjs7zH1v9/GnV898CMLj6C3B0nv/Y6udPq57/FoDB1V+Ao/P8x1Y/f1r1/LcADK7+Ahyd5z+2+vnTque/BWBw9Rfg6Dz/sdXPn1Y9/y0Ag6u/AEfn+Y+tfv606vlvARhc/QU4Os9/bPXzp1XPfwvA4OovwNF5/mOrnz+tev5bAAZXfwGOzvMfW/38adXz3wIwuPoLcHSe/9jq50+rnv8WgMHVX4Cj8/zHVj9/WvX8twAMrv4CHJ3nP7b6+dOq578FYHD1F+DoPP+x1c+fVj3/LQCDq78AR+f5j61+/rTq+W8BGFz9BTg6z39s9fOnVc9/C8Dg6i/A0Xn+Y6ufP616/lsABld/AY7O8x9b/fxp1fPfAjC4+gtwdJ7/2OrnT6ue/xaAwdVfgKPz/MdWP39a9fy3AAyu/gIcnec/tvr506rnvwVgcPUX4Og8/7HVz59WPf8tAIOrvwBH5/mPrX7+tOr5bwEYXP0FODrPf2z186dVz38LwODqL8DRef5jq58/rXr+WwAGV38Bjs7zH1v9/GnV8z9fAOoDCCXnDzr1+avnvwUAQs4fdOrzV89/CwCEnD/o1Oevnv8WAAg5f9Cpz189/y0AEHL+oFOfv3r+WwAg5PxBpz5/9fy3AEDI+YNOff7q+W8BgJDzB536/NXz3wIAIecPOvX5q+e/BQBCzh906vNXz38LAIScP+jU56+e/xYACDl/0KnPXz3/LQAQcv6gU5+/ev5bACDk/EGnPn/1/LcAQMj5g059/ur5bwGAkPMHnfr81fPfAgAh5w869fmr578FAELOH3Tq81fPfwsAhJw/6NTnr57/FgAIOX/Qqc9fPf8tABBy/qBTn796/lsAIOT8Qac+f/X8twBAyPmDTn3+6vlvAYCQ8wed+vzV898CACHnDzr1+avnvwUAQs4fdOrzV89/CwCEnD/o1Oevnv8WAAg5f9Cpz189/y0AEHL+oFOfv3r+WwAg5PxBpz5/9fy3AEDI+YNOff7q+W8BgJDzB536/NXz3wIAIecPOvX5q+e/BQBCzh906vNXz38LAIScP+jU56+e/xYACDl/0KnPXz3/LQAQcv6gU5+/ev5bACDk/EGnPn/1/LcAQMj5g059/ur5bwGAkPMHnfr81fPfAgAh5w869fmr578FAELOH3Tq81fPfwsAhJw/6NTnr57/FgAIOX/Qqc9fPf8tABBy/qBTn796/lsAIOT8Qac+f/X8twBAyPmDTn3+6vlvAYCQ8wed+vzV898CACHnDzr1+avnvwUAQs4fdOrzV8//fAF48O9gXM4fdOrzV8//fgH4PozL+YNOff7q+W8BgJDzB536/NXzP18APvl9GJfzB536/NXz3wIAIecPOvX5q+e/BQBCzh906vNXz/98AfjE92Fczh906vNXz/9+AfgejMv5g059/ur5bwGAkPMHnfr81fM/XwAe+B6My/mDTn3+6vlvAYCQ8wed+vzV898CACHnDzr1+avnf74A3P89GJfzB536/NXzv18A/hbG5fxBpz5/9fy3AEDI+YNOff7q+Z8vAPf9LYzL+YNOff7q+W8BgJDzB536/NXz3wIAIecPOvX5q+d/vgDc+zcwLucPOvX5q+e/BQBCzh906vNXz38LAGt35ZdWq5fd1H+OTeT8bZ47/3q1Ou/u/nOwfvX5q+e/BYC1uvyLq9XPXnD4WT/nmv7zbBrnb7NMw/9JF3tfR1Gfv3r+5wvAPX/Dtrr0C6vVP77g4c97+lKtP9cmcf42x8ePGv7e1zHU56+e/xYA1uKSz69WP3PBsZ+5L9Ufcv42w7GGv/d1+9Xnr57//QLwXbbNxZ9drf7R63d/7oe+VDfgs9acv95uw9/7ut3q81fP/3wBuPu7bJOLP7Mz/M/f27P//Wv6z1tz/lp37Az/XzvB8Pe+bq/6/NXz3wLAgXnfzvD/h3sc/r5UD3P+Oicz/L2v26k+f/X8twBwIP70U6vV48/b3zsw8peq89fYz/D3vm6f+vzV8z9fAO76Lkv3rodWq9POPbX3YPpSra+j4PzN7/ZTGP6jv6/bpj5/9fzvF4C/Zsne+eBq9bhTHP5//6V6dX89c3P+5nX7d3aG/0XeVw6rz189/y0A7NtbHlitHnv2wb4Po32pOn/zOcjhP+r7um3q81fP/3wBmH7yFsvzpvtXq8cc8PA/+ku1vr65OH/zuG0Nw3/E93Xb1Oevnv8WAE7ahfftDP+z1vtejPKl6vyt3zqH/2jv67apz189//MFYPohHCzHuXetVj9x5jzvxu9d3V/vujl/63XrzvB/4pqH/0jv67apz189//sF4DssxVl3rlY/fta878ehL9UNuPZ1cf7W59Zvzzf8R3lft019/ur5ny8Ad3yHJTjj4/MP/6O/VOvrXxfnbz1u+fb8w3+E93Xb1Oevnv8WAE7oVbeuVo8+s31PtvVL1fk7eOXw3/b3ddvU56+e//kCMP3THDbXK25ZrR51Zn9QJs++ur8fB62+p/X1H7Sbv90P/21+X7dN/Y7U879fAL7Npnr5zTvDf4Z34KS+VK/q78tBqu9nff0H6eZvbc7w39b3ddvU70c9//MF4LZvs4lecF1/OHb7Uq3vz0Gp72V9/Qflpp3h/6sbNvy38X3dNvW7Uc9/CwA/4rkbPPy37Uu1vo/19R+ETR7+2/a+bpv6vajnf74A3PotNsmHPr9aPfac/mDsxR9c29+vU1Xfw/r6T9WN39wZ/u/r7+OJTGdqOlv1/eLh6veinv/5AnDLt9g0b/vEwf0Hftbtd6/q79epqO9fff2n4oYFDf8339/fL35U/W7U898CwDFZAuZR37v6+vdrUcP/gf5+cWz1+1HP/3wBmP7mLpvprQtaAp51VX+/9qO+b/X178f1O8P/VxY0/Ov7xfHV70g9//sF4Jtssrc+sLAlYAPu2cmo71l9/Sfr+m8saPjf398vdle/J/X8zxeAm77Jplva7wTU9+tk1Pervv6Tcd2Chv/0n8uu7xcnVr8r9fy3ALAnloD1qO9Vff17ZfizDvX7Us//fAG48RssxVumJWAh/0TwmVf292sv6vtUX/9efOzryxn+b7yvv1/sXf3O1PPfAsBJsQQcrPoe1dd/IoY/61S/N/X8zxeAG77B0ixtCajv127q+1Nf/24+ujP8f3khw//C+/r7xcmr3516/lsA2BdLwMGo7019/cezpOH/RsN/ser3p57/+QJw/ddZqunfOC9lCXjGlf39Opb6vtTXfywf+dpyhv+F9/b3i/2r36F6/lsAOCWWgFNT35P6+h/J8GdO9XtUz/98Abju6yzd0paA+n4drb4f9fUf7cMLG/71/eLU1e9SPf/zBWD6W74s35sWtAQ8/cr+fh1R34v6+o+4dmf4/9JChv8F9/b3i4NRv0/1/O8XgK+xLaYfgLKYJeCK/n5N6vtQX//k2q/uDP/39vfiRP5++G/APeNg1O9UPf/zBeCjX2ObvHFhS0B9v+p7UF//NQsa/m+4t79fHKz6varnvwWAA2cJ2Lv6+strX8rw/0nDf2vV71Y9//MF4CNfZRtN/zZ6SUtAdZ/qa6+u++qvLGT4n314+NfnifWo3696/lsAWBtLwInV111cs+HPpqjfsXr+5wvAh7/KNlvSHwc87Yr57099zXNf75KG/+vv7c8P61W/Z/X8twCwdpaA46uvd85rNfzZNPW7Vs//fAG49iuM4MIF/XHA0y6f777U1zrXdV715dXqF5cy/O/pzwvzqN+3ev5bAJiNJeBH1dc5xzUa/myq+p2r53++AFzzFUZywYKWgN+5fP33o77GdV/flQsa/uff058P5lW/d/X87xeALzOa6aepnXZuf/j24tASsMZ7UV/fOq/tyv+3M/zf01/jiRwa/nf354L51e9ePf/zBeDqLzOiNyxsCVjXfaivbV3XdcWChv95d/fngUb9/tXzP18Apj8fZEyvX9AS8NuXr+ce1Ne1jmu6fGf4/8JChv+5d/fngE79Dtbz3wJAaloClvJ3Ap511cFff31NB309ly/kV/7TOze9e/X7T6t+D+v5ny8A058TMrbpb14/biG/E/Ccaw/22uvrOchrueJLq9UTL+qv6UQeu/Mr/3Pu6t97evW7WM9/CwAbYSlLwKN2PP+6g7vu+noO6jqmP/P/9Q/013Mihj9Hq9/Hev7nC8D0xQGTxSwBZ65WL7/5YK65vpaDenZPuay/lhM5NPzv7t9zNkf9Ttbzv18AvgQ/tJQl4CfOOvwryVO93vo6DuKZPePK/jpOZHqnpnerfr/ZLPV7Wc//fAG4/EvwcOcvZAl4wnmr1Ts+eWrXWl/DqT6r6XdCHrUBz2I306/8z76rf6/ZPPW7Wc9/CwAbafqxwY9fwBLwT964Wr33M/u/zvrzn8ozmv4J3WPO6q9hN9Mief69/fvMZqrfz3r+5wvAZV+CYztvIb8T8K/etVp96Iv7u8b6s+/32bzjwdXqp87vP/9upndneofq95jNVb+j9fzvF4AvwvEt5Y8Dnnrp/q6v/tz7+czv/9xq9c/f0n/23Rz6lf89/fvLZqvf03r+5wvApV+E3U0/NnjT/zhg+nPw0289+WurP/d+nseTLu4/926O/Mq/fm/ZfPW7Ws9/CwCLsIQlYPp802+Nn8x11Z/5ZJ/D867rP/NuTjP8OQn1+1rP/3wBuOSLsDfn3rP5/+2Af/n21eoDX9j7NdWf92Tu//Sfcn7M2f1nPp7p3Zjekfo9ZTnqd7ae//kC8KEvwN5N/5Z7+ud39Xu7m6dfuffrqT/rXj/nxZ9brf7Zm/vPezzT8J9+yE/9frIs9Xtbz38LAIuz6UvAj595+DPu5Vrqz7rXe/6bl/Sf9XgO/crf8Gcf6ne3nv/5AvDBL8DJO3/Dl4B/uvOr5Yv/6sTXUX/Ovdzr6YfoPPrM/rMey5Ff+dfvI8tUv7/1/O8XgM/D/kw/ineT/07Ab1124muoP+OJPt/7Pnv4hx3Vn/NYDg3/u/r3kOWq3+F6/ucLwAc+D/s3/epvU5eA6afkvfmB3T9//RlPdH+ffGn/GY/lyK/86/ePZavf43r+WwBYvPPv3tw/Dvi5d+/+2evPt9tne9P9m/mjfqfhP/2xRP3esXz1u1zP/3wBmH6qGJyq8+7a3CXgpTcd/3PXn223e/qv391/vkc67Zyd4X9n/76xHer3uZ7/+QLwF5+Dg3HWhv6dgJ+5YLV6z2eP/Znrz3a8e/nCG/rP9kjTs52ecf2esT3qd7qe/xYAtsrZG7oEPPPqY3/e+nMd6zNNy8pPv6H/bEc78tv+9fvFdqnf63r+5wvA9E+l4CBNfzP88Rv2xwHTAHvXQz/6WevPdaz798yr+s/1sHt3zs6v/O/s3yu2T/1u1/PfAsBW2sQl4MmX/OjnrD/TIz/Pn316s/4zv4Y/61S/3/X8zxeAi/4K1mMaHJv0xwHTz9F/2ycf/hnrz/TIe/bUy/rPdMShP/O/s3+P2F71O17P/3wBmH7QCKzLmXdu1hLwGx98+OerP8/Rn+XtD65WP3lO/5km0zObnl39/rDd6ve8nv8WALbeWRv0TwSnAfvOh3742erPc/R92pRf/U/D/4w7+/eG7Ve/6/X8zxeA934W1u/MDVoCnnbFDz9X/VmOfI4//fRm3J9p+L/uzv59YQz1+17P/3wBeM9nYB7TbylvwpCb/pLduz99+DPVn+XIvXn21f1nOTT8P96/J4yjfufr+W8BYChn7AyYx2/A3wn4ww8f/jz155g+w5/v+NkL288xPZMzDH9mVp+/ev7nC8D//QzMaxo09V8M/BdvO/xZNuH8vSj+qX+n/WD41+8F46nPXz3/8wXgz/8S5jcNnCfES8D0292bcP5+7l3d//80/P/kjv59YEz1+avnvwWAYdVLwJMu7r+ALrxvtXp09P9t+FOrz189//MF4M/+Ejqvu6P744DHbcC/uX9K9E//Dv2Fvzv658/Y6vNXz/9+Afg0tF53++b92OC5TP+lwrn/P6d7Pd3z+rlDff7q+Z8vANO/P4ba9FvRm/CvA7bd9Cv/19zeP2+Y1Oehnv/5AjD9e2jYBK+1BKzVNPxffXv/nOGI+kzU879fAD4Fm+O1t1sC1uHQ8L+tf75wtPpc1PM/XwDe9SnYLK+xBByoI7/yr58rPFJ9Nur5ny8A7/wUbB5LwMF43M49fNXt/fOEY6nPRz3/+wXgIdhMr7ltM/7bAUt1aPjf1j9HOJ76jNTzP18A/s9DsLmm37q2BJy8afi/8rb++cFu6nNSz/98AXjHQ7DZLAEn57QfDP/6ucGJ1Gelnv/9AvAgbL5X++OAPTk0/G/tnxfsRX1e6vmfLwBvfxCW4VWWgF1Nw//0W/vnBHtVn5l6/lsA4CRYAo7N8GeJ6nNTz/98AXjbJ2FZXmkJeJhDw/+W/rnAyarPTj3/8wXgrZ+E5Tn9tnH/A0KPHP6vuKV/HrAf9fmp578FAPZp+stuIy8Bhj9LV5+hev7nC8BbPgHLdfqgS8Bp56xWf3xLf//hVNTnqJ7/+QLw5k/Asr1isCVgGv4vv6W/73Cq6rNUz38LAByA6efd/9T5/RfKuk1/+XFaeOr7DQehPk/1/M8XgDc9ANvh0L8OOL//Ulnn8J9+27++z3BQ6jNVz/98AXjjA7A9Tt/SJWAa/tNv+9f3Fw5Sfa7q+W8BgAO2bUvAoV/539rfVzho9dmq53++AFx4P2yf6c/Jt2EJeMK5h3/lX99PWIf6fNXz3wIAa3L6wpcAw59tV5+xev7nC8AF98P2WurvBEzD/2W39PcP1qk+Z/X8zxeAN9wH2236m/NLWgIef+5q9dKb+/sG61aftXr+WwBgBktZAgx/RlKft3r+5wvA6++DMUx/nr7JPyzoyPCv7xPMpT5z9fzPF4Dz74VxvPzmzfxPCU/D/yU39fcH5lSfu3r+WwBgZpu2BBj+jKo+e/X8zxeA8+6F8bxsQ5aA6T9i9OKb+vsBhfr81fM/XwDOvQfG9NKb2iXg0PC/sb8PUKnnXz3/LQAQqpYAwx8sAPkCcM49MLaXzLwETMP/RTf21w21ev7V879fAO4G5vqdgEPD/4b+emET1POvnv/5AnD23cBk3b8TcNrO//YLb+ivEzZFPf/q+Z8vAGfdDRzx4jUtAdPwf8EN/fXBJqnnXz3/+wXgLuBo01/OO8gl4NDwv76/Ltg09fyr53++AJx5F/BI01/SO4j/dsA0/J9/fX89sInq+VfP/3wBOOMu4FheeIpLwKHhf0N/HbCp6vlXz/9+AbgTOJ7pL+3tZwk48iv/+vPDJqvnXz3/8wXgdXcCu3nBSS4B0/B/3vX954ZNV8+/ev7nC8Cf3AmcyPP3uARMw/+51/efF5agnn/1/O8XgI8DezH9lv5uS8D0X/V77nX954SlqOdfPf/zBeC1Hwf26nhLwGk/GP7154MlqedfPf8tALAwj1wCDH/Yn3r+1fM/XwBecwdwsp533eElYBr+f3Rd/3lgier5V8//fAF49R3AfkyDf1J/Dliqev7V898CAMCQ6vlXz/98AXjV7QAwv3r+1fM/XwBeeTsAzK+ef/X8twAAMKR6/tXzP18ATr8NAOZXz796/ucLwCtuA4D51fOvnv/9AnArAMyvnn/1/M8XgD++FQDmV8+/ev5bAAAYUj3/6vmfLwAvvwUA5lfPv3r+5wvAy24BgPnV86+e/xYAAIZUz796/ucLwEtvBoD51fOvnv/5AvCSmwFgfvX8q+d/vgC8+GYAmF89/+r53y8ANwHA/Or5V8//fAF40U0AML96/tXzP18AXngjAMyvnn/1/M8XgBfcCADzq+dfPf8tAAAMqZ5/9fzPF4Dn3wAA86vnXz3/8wXgeTcAwPzq+VfP/34BuB4A5lfPv3r+5wvAc68HgPnV86+e//kC8EfXA8D86vlXz/98Afjf1wHA/Or5V89/CwAAQ6rnXz3/8wXgf10HAPOr5189//MF4A8/BgDzq+dfPf/zBeB/fgwA5lfPv3r+9wvARwFgfvX8q+d/vgD8wUcBYH71/Kvnf74APOejADC/ev7V8z9fAH7/IwAwv3r+1fPfAgDAkOr5V8//fAH4vQ8DwPzq+VfP/3wBePaHAWB+9fyr578FAIAh1fOvnv/5AvC71wLA/Or5V8//fAF41rUAML96/tXzP18AnnkNAMyvnn/1/LcAADCkev7V8z9fAJ5xDQDMr55/9fzPF4CnXw0A86vnXz3/8wXgaVcDwPzq+VfPfwsAAEOq5189//MF4HeuAoD51fOvnv/5AvDbVwHA/Or5V8//fAH4rSsBYH71/KvnvwUAgCHV86+e//kC8NQrAWB+9fyr53++ADzlCgCYXz3/6vlvAQBgSPX8q+d/vgD8j8sBYH71/Kvnf74APPlyAJhfPf/q+Z8vAL95OQDMr55/9fzvF4DLAGB+9fyr53++APz3ywBgfvX8q+d/vgD8xqUAML96/tXzP18A/tulADC/ev7V898CAMCQ6vlXz/98AfivlwDA/Or5V8//fAH49UsAYH71/Kvnf74A/JdLAGB+9fyr53+/AHwIAOZXz796/ucLwH/+EADMr55/9fzPF4D/9EEAmF89/+r5bwEAYEj1/Kvnf74A/McPAsD86vlXz/98AXjSBwBgfvX8q+d/vgD82gcAYH71/Kvnf78AvB8A5lfPv3r+5wvAE98PAPOr5189//MF4FffDwDzq+dfPf/zBeBX/gIA5lfPv3r+WwAAGFI9/+r5ny8Av3wxAMyvnn/1/M8XgF+6GADmV8+/ev7nC8AvXgwA86vnXz3/+wXgIgCYXz3/6vmfLwC/cBEAzK+ef/X8zxeAn78IAOZXz796/vcLwPsAYH71/Kvnf74A/If3AcD86vlXz/98Afj37wWA+dXzr57/+QLw794LAPOr5189/y0AAAypnn/1/M8XgH/7HgCYXz3/6vmfLwD/5j0AML96/tXzP18AAGBE9fy3AABAoJ7/FgAACNTz3wIAAIF6/lsAACBQz38LAAAE6vlvAQCAQD3/LQAAEKjnvwUAAAL1/LcAAECgnv8WAAAI1PPfAgAAgXr+WwAAIFDPfwsAAATq+W8BAIBAPf8tAAAQqOe/BQAAAvX8twAAQKCe/xYAAAjU898CAACBev5bAAAgUM9/CwAABOr5bwEAgEA9/y0AABCo578FAAAC9fy3AABAoJ7/FgAACNTz3wIAAIF6/lsAACBQz38LAAAE6vlvAQCAQD3/LQAAEKjnvyRJkiRJkiRJkiRJkiRJkiRJkiRJkiRJkiRJkiRJkiRJkiRJkiRJkiRJkiRJkiRJ29j/B6VEttJ1fzTQAAAAAElFTkSuQmCC;" parent="1" vertex="1">
          <mxGeometry x="200" y="190" width="100" height="100" as="geometry" />
        </mxCell>
        <mxCell id="aB_piy0ro-psUOskdXlB-1" value="Transition" style="endArrow=classic;html=1;rounded=0;strokeColor=#0000FF;" edge="1" parent="1">
          <mxGeometry width="50" height="50" relative="1" as="geometry">
            <mxPoint x="500" y="201" as="sourcePoint" />
            <mxPoint x="600" y="201" as="targetPoint" />
          </mxGeometry>
        </mxCell>
        <mxCell id="aB_piy0ro-psUOskdXlB-2" value="Call" style="endArrow=classic;html=1;rounded=0;" edge="1" parent="1">
          <mxGeometry width="50" height="50" relative="1" as="geometry">
            <mxPoint x="500" y="241.67000000000002" as="sourcePoint" />
            <mxPoint x="600" y="241.67000000000002" as="targetPoint" />
            <mxPoint as="offset" />
          </mxGeometry>
        </mxCell>
        <mxCell id="aB_piy0ro-psUOskdXlB-5" value="Error&lt;div&gt;Transition&lt;/div&gt;" style="endArrow=classic;html=1;rounded=0;strokeColor=#FF0000;" edge="1" parent="1">
          <mxGeometry width="50" height="50" relative="1" as="geometry">
            <mxPoint x="500" y="280" as="sourcePoint" />
            <mxPoint x="600" y="280" as="targetPoint" />
            <mxPoint as="offset" />
          </mxGeometry>
        </mxCell>
      </root>
    </mxGraphModel>
  </diagram>
</mxfile>
